<svg width="226" height="64" viewBox="0 0 226 64" fill="none" xmlns="http://www.w3.org/2000/svg">
<path d="M194 0C211.673 0 226 14.3269 226 32C226 49.6731 211.673 64 194 64H32C14.3269 64 0 49.6731 0 32C0 14.3269 14.3269 0 32 0H194ZM194 12C182.954 12 174 20.9543 174 32C174 43.0457 182.954 52 194 52C205.046 52 214 43.0457 214 32C214 20.9543 205.046 12 194 12Z" fill="white"/>
<path d="M30.6621 24.3809H32.5312L38.2891 40H35.9258L31.5967 27.3994L27.2676 40H24.9043L30.6621 24.3809ZM27.5576 34.4893H35.7754V36.5732H27.5576V34.4893ZM53.7578 33.2432C53.7578 32.4554 53.5537 31.8467 53.1455 31.417C52.7373 30.9873 52.1644 30.7725 51.4268 30.7725C50.7464 30.7725 50.2201 30.9801 49.8477 31.3955C49.4753 31.8109 49.2891 32.3981 49.2891 33.1572L48.8486 31.0088C49.1995 30.2712 49.6615 29.7018 50.2344 29.3008C50.8145 28.8926 51.4518 28.6885 52.1465 28.6885C52.9486 28.6885 53.6325 28.8675 54.1982 29.2256C54.7712 29.5765 55.2044 30.0921 55.498 30.7725C55.7988 31.4528 55.9492 32.2728 55.9492 33.2324V40H53.7578V33.2432ZM40.4375 28.8496H42.6289V40H40.4375V28.8496ZM47.0977 33.2432C47.0977 32.4554 46.9043 31.8467 46.5176 31.417C46.1309 30.9873 45.583 30.7725 44.874 30.7725C44.1579 30.7725 43.6029 30.9622 43.209 31.3418C42.8223 31.7214 42.6289 32.2549 42.6289 32.9424L42.4033 30.7939C42.7471 30.1208 43.1947 29.6016 43.7461 29.2363C44.3047 28.8711 44.9206 28.6885 45.5938 28.6885C46.3743 28.6885 47.0404 28.8675 47.5918 29.2256C48.1432 29.5765 48.5622 30.0921 48.8486 30.7725C49.1423 31.4528 49.2891 32.2728 49.2891 33.2324V40H47.0977V33.2432ZM64.2744 40.1611C63.5798 40.1611 62.9746 39.9964 62.459 39.667C61.9434 39.3304 61.5638 38.8577 61.3203 38.249L61.4707 35.918C61.4707 36.3978 61.5566 36.806 61.7285 37.1426C61.9004 37.4792 62.1475 37.737 62.4697 37.916C62.7992 38.0951 63.1966 38.1846 63.6621 38.1846C64.3854 38.1846 64.944 37.9661 65.3379 37.5293C65.7389 37.0853 65.9395 36.4622 65.9395 35.6602V33.2432C65.9395 32.4268 65.7389 31.793 65.3379 31.3418C64.944 30.8906 64.3854 30.665 63.6621 30.665C63.1966 30.665 62.7992 30.751 62.4697 30.9229C62.1475 31.0947 61.9004 31.349 61.7285 31.6855C61.5566 32.015 61.4707 32.4124 61.4707 32.8779L61.2451 30.7295C61.5817 30.0778 62.0221 29.5765 62.5664 29.2256C63.1107 28.8675 63.7158 28.6885 64.3818 28.6885C65.1696 28.6885 65.8428 28.8675 66.4014 29.2256C66.9671 29.5765 67.3968 30.0921 67.6904 30.7725C67.984 31.4528 68.1309 32.2728 68.1309 33.2324V35.6602C68.1309 36.6055 67.9805 37.4147 67.6797 38.0879C67.3789 38.7611 66.9385 39.2767 66.3584 39.6348C65.7783 39.9857 65.0837 40.1611 64.2744 40.1611ZM59.2793 24.3809H61.4707V40H59.2793V24.3809ZM71.2461 24.3809H73.4375V26.5723H71.2461V24.3809ZM71.2461 28.8496H73.4375V40H71.2461V28.8496ZM81.333 40.1611C80.3018 40.1611 79.4209 39.9678 78.6904 39.5811C77.96 39.1943 77.4014 38.6286 77.0146 37.8838C76.6351 37.1318 76.4453 36.2259 76.4453 35.166V33.9092C76.4453 32.8063 76.6279 31.8646 76.9932 31.084C77.3656 30.3034 77.9027 29.709 78.6045 29.3008C79.3063 28.8926 80.1514 28.6885 81.1396 28.6885C82.0706 28.6885 82.8656 28.9212 83.5244 29.3867C84.1833 29.8522 84.6846 30.5254 85.0283 31.4062C85.3792 32.2871 85.5547 33.3434 85.5547 34.5752V35.3057H78.0352V33.5439H83.4707C83.4062 32.6344 83.1699 31.929 82.7617 31.4277C82.3607 30.9193 81.82 30.665 81.1396 30.665C80.3089 30.665 79.6644 30.9372 79.2061 31.4814C78.7549 32.0257 78.5293 32.7956 78.5293 33.791V35.209C78.5293 36.1328 78.7728 36.8418 79.2598 37.3359C79.7467 37.8301 80.4378 38.0771 81.333 38.0771C81.777 38.0771 82.2174 37.9876 82.6543 37.8086C83.0911 37.6296 83.4814 37.3789 83.8252 37.0566L85.2646 38.4961C84.7132 39.026 84.0938 39.4378 83.4062 39.7314C82.7188 40.0179 82.0277 40.1611 81.333 40.1611ZM88.5625 28.8496H90.7539V40H88.5625V28.8496ZM95.3301 33.2432C95.3301 32.4554 95.126 31.8467 94.7178 31.417C94.3096 30.9873 93.7367 30.7725 92.999 30.7725C92.2829 30.7725 91.7279 30.9622 91.334 31.3418C90.9473 31.7214 90.7539 32.2549 90.7539 32.9424L90.5283 30.7939C90.8721 30.1208 91.3197 29.6016 91.8711 29.2363C92.4297 28.8711 93.0456 28.6885 93.7188 28.6885C94.929 28.6885 95.8636 29.0859 96.5225 29.8809C97.1885 30.6686 97.5215 31.7858 97.5215 33.2324V40H95.3301V33.2432ZM103.752 40.0537C102.85 40.0537 102.187 39.8066 101.765 39.3125C101.349 38.8112 101.142 38.0736 101.142 37.0996V25.6055H103.333V37.1211C103.333 37.3932 103.387 37.6045 103.494 37.7549C103.602 37.8981 103.759 37.9697 103.967 37.9697H105.02V40.0537H103.752ZM99.9922 28.8496H105.02V30.8262H99.9922V28.8496ZM112.002 24.3809H114.193V40H112.002V24.3809ZM113.098 37.916H122.035V40H113.098V37.916ZM124.398 24.3809H126.59V26.5723H124.398V24.3809ZM124.398 28.8496H126.59V40H124.398V28.8496ZM133.658 44.5332C132.82 44.5332 132.068 44.3757 131.402 44.0605C130.743 43.7526 130.231 43.3158 129.866 42.75L131.349 41.4072C131.635 41.8011 131.975 42.1055 132.369 42.3203C132.77 42.5352 133.189 42.6426 133.626 42.6426C134.464 42.6426 135.112 42.4098 135.57 41.9443C136.029 41.486 136.258 40.8343 136.258 39.9893V28.8496H138.449V39.667C138.449 40.6911 138.259 41.5684 137.88 42.2988C137.507 43.0293 136.963 43.5843 136.247 43.9639C135.531 44.3434 134.668 44.5332 133.658 44.5332ZM133.454 40.1934C132.638 40.1934 131.939 40.0179 131.359 39.667C130.786 39.3089 130.35 38.7897 130.049 38.1094C129.748 37.429 129.598 36.6126 129.598 35.6602V33.2002C129.598 32.2406 129.744 31.4206 130.038 30.7402C130.332 30.0599 130.758 29.5443 131.316 29.1934C131.882 28.8353 132.559 28.6562 133.347 28.6562C134.006 28.6562 134.607 28.8281 135.151 29.1719C135.703 29.5156 136.147 29.999 136.483 30.6221L136.258 32.8994C136.258 32.4268 136.172 32.0221 136 31.6855C135.828 31.349 135.577 31.0947 135.248 30.9229C134.926 30.7438 134.532 30.6543 134.066 30.6543C133.343 30.6543 132.781 30.8799 132.38 31.3311C131.986 31.7822 131.789 32.416 131.789 33.2324V35.6602C131.789 36.4694 131.986 37.096 132.38 37.54C132.781 37.9769 133.343 38.1953 134.066 38.1953C134.532 38.1953 134.926 38.1058 135.248 37.9268C135.577 37.7406 135.828 37.4756 136 37.1318C136.172 36.7881 136.258 36.3763 136.258 35.8965L136.408 38.249C136.186 38.8005 135.821 39.2624 135.312 39.6348C134.811 40.0072 134.192 40.1934 133.454 40.1934ZM141.779 24.3809H143.971V40H141.779V24.3809ZM148.547 33.2432C148.547 32.4554 148.343 31.8467 147.935 31.417C147.526 30.9873 146.953 30.7725 146.216 30.7725C145.5 30.7725 144.945 30.9587 144.551 31.3311C144.164 31.7035 143.971 32.2298 143.971 32.9102L143.745 30.7617C144.089 30.1029 144.536 29.5944 145.088 29.2363C145.646 28.8711 146.262 28.6885 146.936 28.6885C148.146 28.6885 149.08 29.0859 149.739 29.8809C150.405 30.6686 150.738 31.7858 150.738 33.2324V40H148.547V33.2432ZM156.969 40.0537C156.066 40.0537 155.404 39.8066 154.981 39.3125C154.566 38.8112 154.358 38.0736 154.358 37.0996V25.6055H156.55V37.1211C156.55 37.3932 156.604 37.6045 156.711 37.7549C156.818 37.8981 156.976 37.9697 157.184 37.9697H158.236V40.0537H156.969ZM153.209 28.8496H158.236V30.8262H153.209V28.8496Z" fill="black"/>
<circle cx="194" cy="32" r="20" stroke="black" stroke-width="3"/>
</svg>
