<svg xmlns="http://www.w3.org/2000/svg" xml:space="preserve" viewBox="0 0 229.71 134.86">
<path id="bg" fill="#f2f2f2" d="M8 0h213.71c4.43 0 8 3.57 8 8v118.86c0 4.43-3.57 8-8 8H8c-4.43 0-8-3.57-8-8V8c0-4.43 3.57-8 8-8z"/>
<path id="icon" fill="#4d4d4d" d="M112.45 52.01 58.44 81.94l54 29.93 54.02-29.93zm0 4.45 45.99 25.48-46 25.48-45.98-25.48zm6.2 20.95-6.57 7.31-7.2-6.92 6.56-7.32zM52.27 12.86h2.43l7.5 20.32h-3.08l-5.63-16.4-5.64 16.4h-3.07zM48.23 26h10.7v2.71h-10.7zm15.08-7.34h2.98l2.57 10.36 3.62-10.36h1.99l3.62 10.36 2.57-10.36h2.98l-4.48 14.51h-2.15l-3.54-10.02-3.53 10.02h-2.16zm31.6 5.31q0-1.42-.78-2.2-.75-.8-2.15-.8-.87 0-1.7.26-.83.27-1.47.74l-2.09-1.42q.83-1 2.17-1.54 1.36-.56 3-.56 1.8 0 3.1.64 1.28.63 1.95 1.85.67 1.2.67 2.9v9.33h-2.7zm-3.56 9.41q-2.68 0-4.01-1.1Q86 31.17 86 28.9q0-2.15 1.22-3.23 1.21-1.07 3.67-1.07h4.13l.2 2.29h-4.31q-1.12 0-1.68.5-.54.5-.54 1.51 0 1.1.72 1.64.74.53 2.24.53 1.63 0 2.43-.35.81-.35.81-1.09l.3 2.04q-.38.59-.94.96-.55.38-1.27.56-.73.2-1.64.2zm11.83-5.72 7.46-9H114l-11 12.39zm-1.23-14.81h2.85v20.32h-2.85zm4.6 11.95 1.83-1.9 6.33 10.27h-3.1zm16.47 8.58q-2 0-3.43-.76-1.43-.75-2.18-2.2-.75-1.47-.75-3.54v-1.64q0-2.15.72-3.67.72-1.53 2.1-2.32 1.36-.8 3.3-.8 1.81 0 3.1.91 1.28.9 1.95 2.63.69 1.72.69 4.12v.95h-9.79v-2.3h7.08q-.13-1.77-.93-2.74-.78-1-2.1-1-1.63 0-2.52 1.07-.88 1.06-.88 3v1.85q0 1.8.95 2.76.95.97 2.7.97.86 0 1.71-.35.86-.35 1.53-.98l1.87 1.87q-1.08 1.04-2.42 1.61-1.34.56-2.7.56zm9.41-14.72h2.85v14.51h-2.85zm8.8 5.72q0-1.54-.79-2.38-.8-.84-2.24-.84-1.4 0-2.16.74-.76.74-.76 2.09l-.29-2.8q.67-1.31 1.75-2.03 1.09-.7 2.4-.7 2.36 0 3.65 1.54 1.3 1.54 1.3 4.36v8.81h-2.85zm7.2-11.53h2.84v2.85h-2.85zm0 5.81h2.84v14.51h-2.85zm7.18 0h2.85v14.51h-2.85zm8.8 5.72q0-1.54-.8-2.38-.79-.84-2.23-.84-1.4 0-2.17.74-.75.74-.75 2.09l-.3-2.8q.68-1.31 1.75-2.03 1.1-.7 2.4-.7 2.37 0 3.65 1.54 1.3 1.54 1.3 4.36v8.81h-2.85zm12.05 14.69q-1.63 0-2.93-.62-1.29-.6-2-1.7l1.93-1.75q.56.77 1.32 1.19.79.42 1.64.42 1.64 0 2.53-.91.9-.9.9-2.54v-14.5h2.85v14.08q0 2-.74 3.42-.73 1.43-2.13 2.17t-3.37.74zm-.26-5.65q-1.6 0-2.73-.68-1.12-.7-1.7-2.03-.6-1.33-.6-3.19v-3.2q0-1.87.58-3.2.57-1.33 1.66-2.01 1.1-.7 2.65-.7 1.28 0 2.35.67t1.73 1.89l-.3 2.96q0-.92-.33-1.58-.34-.66-.98-1-.63-.34-1.54-.34-1.4 0-2.2.88-.76.88-.76 2.47v3.16q0 1.58.77 2.45.78.85 2.2.85.9 0 1.53-.35.64-.36.98-1.03.33-.67.33-1.61l.2 3.06q-.43 1.08-1.43 1.8-.97.73-2.41.73zM18.6 29.77a7.52 7.52 0 0 0-7.5 7.5v80.66c0 4.13 3.38 7.5 7.5 7.5h192.5c4.13 0 7.5-3.37 7.5-7.5V37.27c0-4.12-3.37-7.5-7.5-7.5h-21.44a1.5 1.5 90 0 0-1.5 1.5 1.5 1.5 90 0 0 1.5 1.5h21.45c2.51 0 4.5 1.99 4.5 4.5v80.66c0 2.52-1.99 4.5-4.5 4.5H18.6a4.46 4.46 0 0 1-4.5-4.5V37.27c0-2.51 1.98-4.5 4.5-4.5h19.2a1.5 1.5 90 0 0 1.5-1.5 1.5 1.5 90 0 0-1.5-1.5zm70.16 50.18 6.5-6.12 9.38-5.13-3.88 6.5.38 7.25 6.37 5.63 9.63-.63 5-5.62v-6.88l-3.63-5.62 9 5.25 7.25 6-8.12 6.37-6.25 5.38-8.9 2.12-9.23-2.37-7.25-6.25z" overflow="visible"/>
</svg>