<svg width="256" height="128" viewBox="0 0 256 128" fill="none" xmlns="http://www.w3.org/2000/svg">
<g clip-path="url(#clip0_89_1398)">
<rect width="256" height="128" rx="16" fill="white"/>
<path d="M51.8662 46.7402C50.3174 46.7402 49.2594 46.7275 48.6924 46.7021L48.3242 47.5781C48.2142 47.8236 48.1126 48.0817 48.0195 48.3525C47.8249 48.8773 47.554 49.1396 47.207 49.1396C47.0462 49.1396 46.915 49.0889 46.8135 48.9873C46.7119 48.8857 46.6611 48.7799 46.6611 48.6699C46.6611 48.4837 46.7415 48.2764 46.9023 48.0479C47.1562 47.6924 47.4059 47.2269 47.6514 46.6514C46.9235 46.5837 46.5596 46.3721 46.5596 46.0166C46.5596 45.6611 46.7669 45.4834 47.1816 45.4834C47.4355 45.4834 47.7318 45.5257 48.0703 45.6104L54.4053 30.2236L63.0889 49H56.4746L55.4209 46.7402H51.8662ZM49.0986 45.7119C49.9111 45.7796 50.639 45.8135 51.2822 45.8135H55.002L51.8281 38.9707L49.0986 45.7119ZM88.1748 31.4551C88.1748 31.582 88.1452 31.7386 88.0859 31.9248C87.8828 32.4749 87.7008 32.9531 87.54 33.3594L80.8115 49.6982L76.0254 39.0088L71.0615 49.6982L63.5459 31.0361H70.5029L74.0703 40.5449L78.9072 30.2236L83.4141 40.5195L86.5879 33.0674C86.6979 32.7881 86.791 32.513 86.8672 32.2422L87.083 31.4678C87.1761 31.0869 87.3792 30.8965 87.6924 30.8965C88.014 30.8965 88.1748 31.0827 88.1748 31.4551ZM94.0146 46.7402C92.4658 46.7402 91.4079 46.7275 90.8408 46.7021L90.4727 47.5781C90.3626 47.8236 90.2611 48.0817 90.168 48.3525C89.9733 48.8773 89.7025 49.1396 89.3555 49.1396C89.1947 49.1396 89.0635 49.0889 88.9619 48.9873C88.8604 48.8857 88.8096 48.7799 88.8096 48.6699C88.8096 48.4837 88.89 48.2764 89.0508 48.0479C89.3047 47.6924 89.5544 47.2269 89.7998 46.6514C89.0719 46.5837 88.708 46.3721 88.708 46.0166C88.708 45.6611 88.9154 45.4834 89.3301 45.4834C89.584 45.4834 89.8802 45.5257 90.2188 45.6104L96.5537 30.2236L105.237 49H98.623L97.5693 46.7402H94.0146ZM91.2471 45.7119C92.0596 45.7796 92.7874 45.8135 93.4307 45.8135H97.1504L93.9766 38.9707L91.2471 45.7119ZM108.056 31.0361H114.53V36.292L119.05 32.877C119.685 32.3945 120.146 32.001 120.434 31.6963C120.721 31.3916 120.899 31.2096 120.967 31.1504C121.043 31.0827 121.111 31.0319 121.17 30.998C121.271 30.9303 121.398 30.8965 121.551 30.8965C121.712 30.8965 121.839 30.943 121.932 31.0361C122.025 31.1208 122.071 31.2181 122.071 31.3281C122.071 31.4297 122.059 31.5186 122.033 31.5947C122.008 31.6624 121.957 31.7428 121.881 31.8359C121.712 32.0391 121.39 32.3226 120.916 32.6865L118.072 34.8447L122.833 46.4863C122.926 46.7064 123.015 46.901 123.1 47.0703L123.303 47.5273L123.531 47.959C123.59 48.0775 123.641 48.1917 123.684 48.3018C123.726 48.4118 123.743 48.5176 123.734 48.6191C123.726 48.7207 123.696 48.8138 123.646 48.8984C123.527 49.0846 123.383 49.1777 123.214 49.1777C122.977 49.1777 122.799 49.11 122.681 48.9746C122.528 48.7884 122.414 48.5811 122.338 48.3525L122.109 47.6416C122.033 47.4046 121.932 47.1211 121.805 46.791L117.196 35.5049L114.53 37.5234V49H108.056V31.0361ZM137.648 47.9082C138.08 47.9082 138.296 48.0775 138.296 48.416C138.296 48.5684 138.203 48.7038 138.017 48.8223C137.83 48.9408 137.509 49 137.052 49H126.299V31.0361C129.633 31.0361 132.968 31.0361 136.303 31.0361L137.344 30.998C137.979 30.998 138.296 31.1842 138.296 31.5566C138.296 31.7005 138.241 31.8359 138.131 31.9629C138.029 32.0814 137.911 32.1406 137.775 32.1406C137.555 32.1406 137.323 32.1152 137.077 32.0645C136.713 31.9883 136.214 31.9502 135.579 31.9502H132.773V35.8223H135.084C135.084 35.8223 135.604 35.8011 136.646 35.7588C136.832 35.7588 136.988 35.8053 137.115 35.8984C137.251 35.9831 137.318 36.1058 137.318 36.2666C137.318 36.6221 137.081 36.7998 136.607 36.7998L136.062 36.7871C135.782 36.7617 135.549 36.749 135.363 36.749H132.773V48.0732H135.579C136.205 48.0732 136.65 48.0479 136.912 47.9971C137.225 47.9378 137.471 47.9082 137.648 47.9082ZM142.841 47.1846L142.879 48.4541C142.879 48.6742 142.82 48.8434 142.701 48.9619C142.583 49.0804 142.439 49.1396 142.27 49.1396C142.109 49.1396 141.973 49.0846 141.863 48.9746C141.753 48.8646 141.698 48.7461 141.698 48.6191C141.698 48.4837 141.707 48.361 141.724 48.251C141.749 48.1325 141.77 48.0013 141.787 47.8574C141.829 47.612 141.851 46.9984 141.851 46.0166V30.2236L155.65 41.167V33.6006C155.65 33.0251 155.633 32.6146 155.6 32.3691C155.557 31.9714 155.536 31.6921 155.536 31.5312C155.536 31.1081 155.718 30.8965 156.082 30.8965C156.226 30.8965 156.361 30.9473 156.488 31.0488C156.624 31.1504 156.691 31.2985 156.691 31.4932V31.9375L156.641 33.7783V49.6982L142.841 38.8691V47.1846ZM160.982 31.0361H167.457V49H160.982V31.0361ZM172.878 47.1846L172.916 48.4541C172.916 48.6742 172.857 48.8434 172.738 48.9619C172.62 49.0804 172.476 49.1396 172.307 49.1396C172.146 49.1396 172.01 49.0846 171.9 48.9746C171.79 48.8646 171.735 48.7461 171.735 48.6191C171.735 48.4837 171.744 48.361 171.761 48.251C171.786 48.1325 171.807 48.0013 171.824 47.8574C171.867 47.612 171.888 46.9984 171.888 46.0166V30.2236L185.688 41.167V33.6006C185.688 33.0251 185.671 32.6146 185.637 32.3691C185.594 31.9714 185.573 31.6921 185.573 31.5312C185.573 31.1081 185.755 30.8965 186.119 30.8965C186.263 30.8965 186.398 30.9473 186.525 31.0488C186.661 31.1504 186.729 31.2985 186.729 31.4932V31.9375L186.678 33.7783V49.6982L172.878 38.8691V47.1846ZM206.305 48.0732L206.33 47.1973V45.1914C205.137 47.1803 203.376 48.4456 201.049 48.9873C200.312 49.1566 199.453 49.2412 198.472 49.2412C197.498 49.2412 196.487 49.0381 195.438 48.6318C194.396 48.2256 193.482 47.6374 192.695 46.8672C190.969 45.1914 190.105 42.9867 190.105 40.2529C190.105 37.6377 191.02 35.4245 192.848 33.6133C194.752 31.7428 197.143 30.8076 200.021 30.8076C201.476 30.8076 202.792 31.0785 203.969 31.6201C204.688 31.9417 205.196 32.2422 205.492 32.5215C205.788 32.7923 205.937 33.0124 205.937 33.1816C205.937 33.3424 205.886 33.4821 205.784 33.6006C205.683 33.7191 205.539 33.7783 205.353 33.7783C205.175 33.7783 204.976 33.681 204.756 33.4863C204.104 32.9108 203.529 32.5342 203.029 32.3564C202.538 32.1787 202.145 32.0518 201.849 31.9756C201.552 31.8994 201.286 31.8444 201.049 31.8105C200.685 31.7598 200.253 31.7344 199.754 31.7344C199.255 31.7344 198.793 31.7767 198.37 31.8613V48.2891C198.463 48.2975 198.556 48.3018 198.649 48.3018H198.903C201.417 48.3018 203.452 47.3496 205.01 45.4453C205.543 44.7936 205.983 44.0234 206.33 43.1348V41.916C206.33 41.916 206.309 41.5352 206.267 40.7734C206.267 40.3249 206.444 40.1006 206.8 40.1006C206.986 40.1006 207.13 40.1641 207.231 40.291C207.333 40.4095 207.384 40.5576 207.384 40.7354L207.308 41.7891V46.5117L207.384 48.4795C207.384 48.6826 207.325 48.8434 207.206 48.9619C207.096 49.0804 206.965 49.1396 206.812 49.1396C206.44 49.1396 206.254 48.945 206.254 48.5557C206.254 48.4541 206.271 48.2933 206.305 48.0732Z" fill="black"/>
<path d="M128 70L162.641 83.75V111.25L128 125L93.359 111.25V83.75L128 70Z" stroke="black" stroke-width="4" stroke-linejoin="round"/>
<path d="M93.3589 89.75L102.019 86.3125M128 76V63M128 76L119.34 79.4375M128 76L136.66 79.4375M162.641 89.75L153.981 86.3125M110.679 82.875V70M110.679 82.875L102.019 86.3125M110.679 82.875L119.34 79.4375M145.32 82.875V70M145.32 82.875L136.66 79.4375M145.32 82.875L153.981 86.3125M102.019 86.3125V73.5M119.34 79.4375V66.5M136.66 79.4375V66.5M153.981 86.3125V73.5" stroke="black" stroke-width="2" stroke-linejoin="round"/>
<path d="M128 22H28C27.4477 22 27 22.4477 27 23V58H229V23C229 22.4477 228.552 22 228 22H128ZM128 22V0" stroke="black" stroke-width="6"/>
<path d="M186 130V72.75H244V17.5682C244 12.5976 239.971 8.56818 235 8.56818H142V0M70 130V72.75H12V17.5682C12 12.5976 16.0294 8.56818 21 8.56818H114V0" stroke="black" stroke-width="6"/>
<path d="M-1.49983 65.7927L63.0001 130.293M-1.49983 85.7927L43.0001 130.293M-1.49984 105.793L23.0001 130.293M-1.49984 45.7927L12.3018 59.5944M69.7068 116.999L24.9056 72.1981M-1.50002 25.7933L12.3018 39.5951M69.7068 96.9997L44.9051 72.1981M-1.49982 5.79309L12.302 19.5949M8.50018 -4.20691L22.302 9.59493M28.5002 -4.20691L42.302 9.59493M48.5002 -4.20691L62.302 9.59493M68.5002 -4.20691L82.302 9.59493M88.5002 -4.20691L102.302 9.59493" stroke="black" stroke-width="3"/>
<path d="M257.5 65.7927L193 130.293M257.5 85.7927L213 130.293M257.5 105.793L233 130.293M257.5 45.7927L243.698 59.5944M186.293 116.999L231.094 72.1981M257.5 25.7933L243.698 39.5951M186.293 96.9997L211.095 72.1981M257.5 5.79309L243.698 19.5949M247.5 -4.20691L233.698 9.59493M227.5 -4.20691L213.698 9.59493M207.5 -4.20691L193.698 9.59493M187.5 -4.20691L173.698 9.59493M167.5 -4.20691L153.698 9.59493" stroke="black" stroke-width="3"/>
<circle cx="128" cy="99" r="18" stroke="black" stroke-width="2"/>
<circle cx="128" cy="99" r="9.48306" fill="black"/>
<path d="M132 92.0718C130.784 91.3696 129.404 91 128 91C126.596 91 125.216 91.3697 124 92.0718L126.518 96.4337C126.969 96.1736 127.48 96.0367 128 96.0367C128.52 96.0367 129.031 96.1736 129.482 96.4337L132 92.0718Z" fill="white"/>
</g>
<defs>
<clipPath id="clip0_89_1398">
<rect width="256" height="128" rx="16" fill="white"/>
</clipPath>
</defs>
</svg>
