<svg width="208" height="64" viewBox="0 0 208 64" fill="none" xmlns="http://www.w3.org/2000/svg">
<path d="M176 0C193.673 0 208 14.3269 208 32C208 49.6731 193.673 64 176 64H32C14.3269 64 0 49.6731 0 32C0 14.3269 14.3269 6.4426e-07 32 0H176ZM176 12C164.954 12 156 20.9543 156 32C156 43.0457 164.954 52 176 52C187.046 52 196 43.0457 196 32C196 20.9543 187.046 12 176 12Z" fill="white"/>
<path d="M27.3984 37.9697H31.6309C32.7409 37.9697 33.5501 37.7585 34.0586 37.3359C34.5671 36.9134 34.8213 36.319 34.8213 35.5527V35.5205C34.8213 34.9906 34.7282 34.5358 34.542 34.1562C34.363 33.7767 34.0765 33.4867 33.6826 33.2861C33.2887 33.0785 32.7839 32.9746 32.168 32.9746H27.3984V30.998H32.168C32.9772 30.998 33.5859 30.8083 33.9941 30.4287C34.4095 30.0492 34.6172 29.487 34.6172 28.7422C34.6172 27.9616 34.388 27.3779 33.9297 26.9912C33.4714 26.6045 32.7839 26.4111 31.8672 26.4111H27.3984V24.3809H32.2646C33.2744 24.3809 34.1195 24.5527 34.7998 24.8965C35.4801 25.2402 35.9886 25.7272 36.3252 26.3574C36.6618 26.9876 36.8301 27.7396 36.8301 28.6133C36.8301 29.1504 36.7262 29.6553 36.5186 30.1279C36.3109 30.5934 35.9922 30.9945 35.5625 31.3311C35.14 31.6605 34.6136 31.8825 33.9834 31.9971C34.6136 32.0902 35.1579 32.3158 35.6162 32.6738C36.0745 33.0247 36.4255 33.4652 36.6689 33.9951C36.9124 34.5251 37.0342 35.098 37.0342 35.7139V35.7461C37.0342 36.5911 36.848 37.3359 36.4756 37.9805C36.1032 38.625 35.5697 39.1227 34.875 39.4736C34.1803 39.8245 33.3711 40 32.4473 40H27.3984V37.9697ZM26.1094 24.3809H28.29V40H26.1094V24.3809ZM46.3906 32.9316C46.3906 32.2012 46.1937 31.6354 45.7998 31.2344C45.4131 30.8262 44.8617 30.6221 44.1455 30.6221C43.7015 30.6221 43.2646 30.6901 42.835 30.8262C42.4124 30.9622 42.0365 31.152 41.707 31.3955L40.1064 30.2998C40.529 29.7913 41.084 29.3975 41.7715 29.1182C42.4661 28.8317 43.236 28.6885 44.0811 28.6885C45.0049 28.6885 45.7962 28.8532 46.4551 29.1826C47.1139 29.5049 47.6152 29.9775 47.959 30.6006C48.3027 31.2165 48.4746 31.9613 48.4746 32.835V40H46.3906V32.9316ZM43.6621 40.1611C42.2871 40.1611 41.2594 39.8783 40.5791 39.3125C39.8988 38.7396 39.5586 37.873 39.5586 36.7129C39.5586 35.61 39.8701 34.7829 40.4932 34.2314C41.1162 33.68 42.0579 33.4043 43.3184 33.4043H46.4873L46.6377 35.166H43.3291C42.7562 35.166 42.3265 35.2949 42.04 35.5527C41.7607 35.8034 41.6211 36.1901 41.6211 36.7129C41.6211 37.2786 41.8073 37.6976 42.1797 37.9697C42.5592 38.2419 43.1322 38.3779 43.8984 38.3779C44.7363 38.3779 45.3594 38.2884 45.7676 38.1094C46.1829 37.9303 46.3906 37.651 46.3906 37.2715L46.6162 38.8398C46.4229 39.1406 46.1829 39.3877 45.8965 39.5811C45.6172 39.7744 45.2913 39.9176 44.9189 40.0107C44.5465 40.111 44.1276 40.1611 43.6621 40.1611ZM56.3057 40.1611C55.2887 40.1611 54.4186 39.9714 53.6953 39.5918C52.9792 39.2122 52.4313 38.6608 52.0518 37.9375C51.6722 37.2142 51.4824 36.3405 51.4824 35.3164V33.4795C51.4824 32.4697 51.6722 31.6068 52.0518 30.8906C52.4313 30.1745 52.9792 29.6302 53.6953 29.2578C54.4186 28.8783 55.2887 28.6885 56.3057 28.6885C56.8857 28.6885 57.43 28.7601 57.9385 28.9033C58.4541 29.0394 58.916 29.2399 59.3242 29.5049C59.7324 29.7699 60.0726 30.0921 60.3447 30.4717L58.7656 31.8896C58.4505 31.5316 58.0817 31.2559 57.6592 31.0625C57.2367 30.8691 56.7962 30.7725 56.3379 30.7725C55.4928 30.7725 54.8376 31.0088 54.3721 31.4814C53.9066 31.9541 53.6738 32.6201 53.6738 33.4795V35.3164C53.6738 36.1973 53.903 36.8776 54.3613 37.3574C54.8268 37.8372 55.4857 38.0771 56.3379 38.0771C56.8034 38.0771 57.2474 37.9733 57.6699 37.7656C58.0924 37.5579 58.4577 37.2643 58.7656 36.8848L60.3447 38.4102C60.0654 38.7826 59.7217 39.1012 59.3135 39.3662C58.9053 39.624 58.4434 39.821 57.9277 39.957C57.4193 40.0931 56.8786 40.1611 56.3057 40.1611ZM63.707 35.7676L69.4434 28.8496H72.0215L63.5674 38.3672L63.707 35.7676ZM62.7617 24.3809H64.9531V40H62.7617V24.3809ZM66.2959 33.5654L67.7031 32.1045L72.5693 40H70.1846L66.2959 33.5654ZM78.1445 44.5332C77.3066 44.5332 76.5547 44.3757 75.8887 44.0605C75.2298 43.7526 74.7178 43.3158 74.3525 42.75L75.835 41.4072C76.1214 41.8011 76.4616 42.1055 76.8555 42.3203C77.2565 42.5352 77.6755 42.6426 78.1123 42.6426C78.9502 42.6426 79.5983 42.4098 80.0566 41.9443C80.515 41.486 80.7441 40.8343 80.7441 39.9893V28.8496H82.9355V39.667C82.9355 40.6911 82.7458 41.5684 82.3662 42.2988C81.9938 43.0293 81.4495 43.5843 80.7334 43.9639C80.0173 44.3434 79.1543 44.5332 78.1445 44.5332ZM77.9404 40.1934C77.124 40.1934 76.4258 40.0179 75.8457 39.667C75.2728 39.3089 74.8359 38.7897 74.5352 38.1094C74.2344 37.429 74.084 36.6126 74.084 35.6602V33.2002C74.084 32.2406 74.2308 31.4206 74.5244 30.7402C74.818 30.0599 75.2441 29.5443 75.8027 29.1934C76.3685 28.8353 77.0452 28.6562 77.833 28.6562C78.4919 28.6562 79.0934 28.8281 79.6377 29.1719C80.1891 29.5156 80.6331 29.999 80.9697 30.6221L80.7441 32.8994C80.7441 32.4268 80.6582 32.0221 80.4863 31.6855C80.3145 31.349 80.0638 31.0947 79.7344 30.9229C79.4121 30.7438 79.0182 30.6543 78.5527 30.6543C77.8294 30.6543 77.2673 30.8799 76.8662 31.3311C76.4723 31.7822 76.2754 32.416 76.2754 33.2324V35.6602C76.2754 36.4694 76.4723 37.096 76.8662 37.54C77.2673 37.9769 77.8294 38.1953 78.5527 38.1953C79.0182 38.1953 79.4121 38.1058 79.7344 37.9268C80.0638 37.7406 80.3145 37.4756 80.4863 37.1318C80.6582 36.7881 80.7441 36.3763 80.7441 35.8965L80.8945 38.249C80.6725 38.8005 80.3073 39.2624 79.7988 39.6348C79.2975 40.0072 78.6781 40.1934 77.9404 40.1934ZM86.2656 28.8496H88.457V40H86.2656V28.8496ZM92.3994 31.4922C92.2061 31.2559 91.9626 31.0768 91.6689 30.9551C91.3753 30.8333 91.0352 30.7725 90.6484 30.7725C89.9538 30.7725 89.4131 30.9658 89.0264 31.3525C88.6468 31.7321 88.457 32.262 88.457 32.9424L88.2314 30.7939C88.5752 30.1279 89.0192 29.6123 89.5635 29.2471C90.1077 28.8747 90.7093 28.6885 91.3682 28.6885C91.8766 28.6885 92.335 28.7637 92.7432 28.9141C93.1585 29.0573 93.5202 29.2721 93.8281 29.5586L92.3994 31.4922ZM99.7148 40.1611C98.748 40.1611 97.9209 39.9714 97.2334 39.5918C96.5459 39.2122 96.0195 38.6608 95.6543 37.9375C95.2962 37.207 95.1172 36.3298 95.1172 35.3057V33.4902C95.1172 32.4805 95.2962 31.6175 95.6543 30.9014C96.0195 30.1781 96.5459 29.6302 97.2334 29.2578C97.9209 28.8783 98.748 28.6885 99.7148 28.6885C100.682 28.6885 101.509 28.8783 102.196 29.2578C102.884 29.6302 103.407 30.1781 103.765 30.9014C104.13 31.6175 104.312 32.4805 104.312 33.4902V35.3379C104.312 36.3548 104.13 37.2249 103.765 37.9482C103.407 38.6644 102.884 39.2122 102.196 39.5918C101.509 39.9714 100.682 40.1611 99.7148 40.1611ZM99.7148 38.0771C100.481 38.0771 101.072 37.8372 101.487 37.3574C101.91 36.8776 102.121 36.2044 102.121 35.3379V33.4902C102.121 32.6237 101.91 31.9541 101.487 31.4814C101.072 31.0088 100.481 30.7725 99.7148 30.7725C98.9486 30.7725 98.3542 31.0088 97.9316 31.4814C97.5163 31.9541 97.3086 32.6237 97.3086 33.4902V35.3379C97.3086 36.2044 97.5163 36.8776 97.9316 37.3574C98.3542 37.8372 98.9486 38.0771 99.7148 38.0771ZM113.873 28.8496H116.054V40H113.873V28.8496ZM109.34 35.6279C109.34 36.4085 109.537 37.0137 109.931 37.4434C110.332 37.8659 110.894 38.0771 111.617 38.0771C112.333 38.0771 112.888 37.8874 113.282 37.5078C113.676 37.1283 113.873 36.5876 113.873 35.8857L114.023 38.2168C113.794 38.7682 113.422 39.2301 112.906 39.6025C112.391 39.9749 111.757 40.1611 111.005 40.1611C109.773 40.1611 108.821 39.7673 108.147 38.9795C107.481 38.1846 107.148 37.0674 107.148 35.6279V28.8496H109.34V35.6279ZM119.395 28.8496H121.586V40H119.395V28.8496ZM126.162 33.2432C126.162 32.4554 125.958 31.8467 125.55 31.417C125.142 30.9873 124.569 30.7725 123.831 30.7725C123.115 30.7725 122.56 30.9622 122.166 31.3418C121.779 31.7214 121.586 32.2549 121.586 32.9424L121.36 30.7939C121.704 30.1208 122.152 29.6016 122.703 29.2363C123.262 28.8711 123.878 28.6885 124.551 28.6885C125.761 28.6885 126.696 29.0859 127.354 29.8809C128.021 30.6686 128.354 31.7858 128.354 33.2324V40H126.162V33.2432ZM138.021 24.3809H140.213V40H138.021V24.3809ZM135.218 40.1934C134.401 40.1934 133.703 40.0179 133.123 39.667C132.55 39.3089 132.113 38.7897 131.812 38.1094C131.512 37.429 131.361 36.6126 131.361 35.6602V33.2002C131.361 32.2406 131.508 31.4206 131.802 30.7402C132.095 30.0599 132.521 29.5443 133.08 29.1934C133.646 28.8353 134.323 28.6562 135.11 28.6562C135.769 28.6562 136.371 28.8281 136.915 29.1719C137.466 29.5156 137.91 29.999 138.247 30.6221L138.021 32.8994C138.021 32.4268 137.936 32.0221 137.764 31.6855C137.592 31.349 137.341 31.0947 137.012 30.9229C136.689 30.7438 136.296 30.6543 135.83 30.6543C135.107 30.6543 134.545 30.8799 134.144 31.3311C133.75 31.7822 133.553 32.416 133.553 33.2324V35.6602C133.553 36.4694 133.75 37.096 134.144 37.54C134.545 37.9769 135.107 38.1953 135.83 38.1953C136.296 38.1953 136.689 38.1058 137.012 37.9268C137.341 37.7406 137.592 37.4756 137.764 37.1318C137.936 36.7881 138.021 36.3763 138.021 35.8965L138.172 38.249C137.95 38.8005 137.585 39.2624 137.076 39.6348C136.575 40.0072 135.955 40.1934 135.218 40.1934Z" fill="black"/>
<circle cx="176" cy="32" r="20" stroke="black" stroke-width="3"/>
</svg>
