<svg id="jump_buttonSVG" viewBox="0 0 48.135 26.53" xmlns="http://www.w3.org/2000/svg">
  <path id="bg" style="fill: black;" d="M 29.113281 0.5 C 28.880867 0.50186737 28.647437 0.51150002 28.414062 0.52734375 C 24.680066 0.7803435 21.010044 2.8177223 18.498047 6.3867188 C 17.628048 7.6207175 16.949187 9.0900172 16.367188 10.666016 C 14.752189 9.266017 12.907982 8.2697499 10.833984 8.21875 C 8.1179871 8.1517501 5.3946231 9.4257054 3.515625 11.720703 C 1.6376269 14.016701 0.56581244 17.240645 0.5078125 21.181641 L 6.5078125 21.267578 C 6.5508125 18.362581 7.3242508 16.539483 8.15625 15.521484 C 8.9902492 14.503485 9.8435477 14.19775 10.685547 14.21875 C 12.370545 14.26075 14.833875 15.80013 14.796875 21.203125 L 14.800781 21.203125 C 14.801781 21.244125 14.795875 21.280266 14.796875 21.322266 L 20.794922 21.244141 C 20.794922 21.201141 20.777344 21.169953 20.777344 21.126953 L 20.794922 21.126953 C 20.618922 15.745959 21.818298 12.092841 23.404297 9.8398438 C 24.990295 7.587846 26.920314 6.6426717 28.820312 6.5136719 C 31.823231 6.3097359 35.141799 8.0987881 36.345703 12.699219 L 32.492188 12.642578 L 39.689453 25.53125 L 47.261719 12.861328 L 42.4375 12.789062 C 40.948522 5.2169577 35.236308 0.45080348 29.113281 0.5 z "/>
</svg>
