<svg width="256" height="128" viewBox="0 0 256 128" fill="none" xmlns="http://www.w3.org/2000/svg">
<g clip-path="url(#clip0_79_176)">
<rect width="256" height="128" rx="16" fill="white"/>
<path d="M47.2871 74.7197C45.8125 74.7197 44.5137 74.3926 43.3906 73.7383C42.2773 73.084 41.4131 72.1562 40.7979 70.9551C40.1826 69.7539 39.875 68.3623 39.875 66.7803V60.9355C39.875 59.3535 40.1826 57.9619 40.7979 56.7607C41.4131 55.5596 42.2773 54.6318 43.3906 53.9775C44.5137 53.3135 45.8125 52.9814 47.2871 52.9814C48.5078 52.9814 49.6309 53.2451 50.6562 53.7725C51.6816 54.29 52.5361 55.0273 53.2197 55.9844C53.9131 56.9414 54.3818 58.0498 54.626 59.3096H51.5645C51.3789 58.6455 51.0664 58.0547 50.627 57.5371C50.1973 57.0098 49.6895 56.6045 49.1035 56.3213C48.5176 56.0381 47.9121 55.8965 47.2871 55.8965C46.418 55.8965 45.6562 56.1064 45.002 56.5264C44.3477 56.9463 43.8398 57.5371 43.4785 58.2988C43.1172 59.0508 42.9365 59.9297 42.9365 60.9355V66.7803C42.9365 67.7764 43.1172 68.6553 43.4785 69.417C43.8398 70.1787 44.3477 70.7695 45.002 71.1895C45.6562 71.5996 46.418 71.8047 47.2871 71.8047C47.9219 71.8047 48.5273 71.6729 49.1035 71.4092C49.6895 71.1455 50.1973 70.7549 50.627 70.2373C51.0664 69.7197 51.3789 69.1045 51.5645 68.3916H54.626C54.3818 69.6514 53.9131 70.7598 53.2197 71.7168C52.5264 72.6738 51.667 73.416 50.6416 73.9434C49.6162 74.4609 48.498 74.7197 47.2871 74.7197ZM67.1797 64.8613C67.1797 63.8652 66.9111 63.0938 66.374 62.5469C65.8467 61.9902 65.0947 61.7119 64.1182 61.7119C63.5127 61.7119 62.917 61.8047 62.3311 61.9902C61.7549 62.1758 61.2422 62.4346 60.793 62.7666L58.6104 61.2725C59.1865 60.5791 59.9434 60.042 60.8809 59.6611C61.8281 59.2705 62.8779 59.0752 64.0303 59.0752C65.29 59.0752 66.3691 59.2998 67.2676 59.749C68.166 60.1885 68.8496 60.833 69.3184 61.6826C69.7871 62.5225 70.0215 63.5381 70.0215 64.7295V74.5H67.1797V64.8613ZM63.459 74.7197C61.584 74.7197 60.1826 74.334 59.2549 73.5625C58.3271 72.7812 57.8633 71.5996 57.8633 70.0176C57.8633 68.5137 58.2881 67.3857 59.1377 66.6338C59.9873 65.8818 61.2715 65.5059 62.9902 65.5059H67.3115L67.5166 67.9082H63.0049C62.2236 67.9082 61.6377 68.084 61.2471 68.4355C60.8662 68.7773 60.6758 69.3047 60.6758 70.0176C60.6758 70.7891 60.9297 71.3604 61.4375 71.7314C61.9551 72.1025 62.7363 72.2881 63.7812 72.2881C64.9238 72.2881 65.7734 72.166 66.3301 71.9219C66.8965 71.6777 67.1797 71.2969 67.1797 70.7793L67.4873 72.918C67.2236 73.3281 66.8965 73.665 66.5059 73.9287C66.125 74.1924 65.6807 74.3877 65.1729 74.5146C64.665 74.6514 64.0938 74.7197 63.459 74.7197ZM83.0732 59.2949H86.1934L80.4805 74.5H78.2246L72.5117 59.2949H75.6318L79.3525 70.1494L83.0732 59.2949ZM95.0557 74.7197C93.6494 74.7197 92.4482 74.4561 91.4521 73.9287C90.4561 73.4014 89.6943 72.6299 89.167 71.6143C88.6494 70.5889 88.3906 69.3535 88.3906 67.9082V66.1943C88.3906 64.6904 88.6396 63.4062 89.1377 62.3418C89.6455 61.2773 90.3779 60.4668 91.335 59.9102C92.292 59.3535 93.4443 59.0752 94.792 59.0752C96.0615 59.0752 97.1455 59.3926 98.0439 60.0273C98.9424 60.6621 99.626 61.5801 100.095 62.7812C100.573 63.9824 100.812 65.4229 100.812 67.1025V68.0986H90.5586V65.6963H97.9707C97.8828 64.4561 97.5605 63.4941 97.0039 62.8105C96.457 62.1172 95.7197 61.7705 94.792 61.7705C93.6592 61.7705 92.7803 62.1416 92.1553 62.8838C91.54 63.626 91.2324 64.6758 91.2324 66.0332V67.9668C91.2324 69.2266 91.5645 70.1934 92.2285 70.8672C92.8926 71.541 93.835 71.8779 95.0557 71.8779C95.6611 71.8779 96.2617 71.7559 96.8574 71.5117C97.4531 71.2676 97.9854 70.9258 98.4541 70.4863L100.417 72.4492C99.665 73.1719 98.8203 73.7334 97.8828 74.1338C96.9453 74.5244 96.0029 74.7197 95.0557 74.7197ZM104.914 59.2949H107.902V74.5H104.914V59.2949ZM113.278 62.8984C113.015 62.5762 112.683 62.332 112.282 62.166C111.882 62 111.418 61.917 110.891 61.917C109.943 61.917 109.206 62.1807 108.679 62.708C108.161 63.2256 107.902 63.9482 107.902 64.876L107.595 61.9463C108.063 61.0381 108.669 60.335 109.411 59.8369C110.153 59.3291 110.974 59.0752 111.872 59.0752C112.565 59.0752 113.19 59.1777 113.747 59.3828C114.313 59.5781 114.807 59.8711 115.227 60.2617L113.278 62.8984ZM117.717 59.2949H120.705V74.5H117.717V59.2949ZM126.945 65.2861C126.945 64.2119 126.667 63.3818 126.11 62.7959C125.554 62.21 124.772 61.917 123.767 61.917C122.79 61.917 122.033 62.1758 121.496 62.6934C120.969 63.2109 120.705 63.9385 120.705 64.876L120.397 61.9463C120.866 61.0283 121.477 60.3203 122.229 59.8223C122.99 59.3242 123.83 59.0752 124.748 59.0752C126.398 59.0752 127.673 59.6172 128.571 60.7012C129.479 61.7754 129.934 63.2988 129.934 65.2715V74.5H126.945V65.2861ZM145.695 53.2012H148.244L156.096 74.5H152.873L146.97 57.3174L141.066 74.5H137.844L145.695 53.2012ZM141.462 66.9854H152.668V69.8271H141.462V66.9854ZM165.837 74.7197C164.89 74.7197 164.064 74.4951 163.361 74.0459C162.658 73.5869 162.141 72.9424 161.809 72.1123L162.014 68.9336C162.014 69.5879 162.131 70.1445 162.365 70.6035C162.6 71.0625 162.937 71.4141 163.376 71.6582C163.825 71.9023 164.367 72.0244 165.002 72.0244C165.988 72.0244 166.75 71.7266 167.287 71.1309C167.834 70.5254 168.107 69.6758 168.107 68.582V65.2861C168.107 64.1729 167.834 63.3086 167.287 62.6934C166.75 62.0781 165.988 61.7705 165.002 61.7705C164.367 61.7705 163.825 61.8877 163.376 62.1221C162.937 62.3564 162.6 62.7031 162.365 63.1621C162.131 63.6113 162.014 64.1533 162.014 64.7881L161.706 61.8584C162.165 60.9697 162.766 60.2861 163.508 59.8076C164.25 59.3193 165.075 59.0752 165.983 59.0752C167.058 59.0752 167.976 59.3193 168.737 59.8076C169.509 60.2861 170.095 60.9893 170.495 61.917C170.896 62.8447 171.096 63.9629 171.096 65.2715V68.582C171.096 69.8711 170.891 70.9746 170.48 71.8926C170.07 72.8105 169.47 73.5137 168.679 74.002C167.888 74.4805 166.94 74.7197 165.837 74.7197ZM159.025 53.2012H162.014V74.5H159.025V53.2012ZM186.901 59.2949L180.427 78.0596C180.192 78.7529 179.885 79.2998 179.504 79.7002C179.123 80.1104 178.654 80.4033 178.098 80.5791C177.541 80.7549 176.857 80.8428 176.047 80.8428H175.446V77.9717H176.047C176.604 77.9717 177.043 77.8594 177.365 77.6348C177.697 77.4102 177.985 77.0244 178.229 76.4775L183.854 59.2949H186.901ZM173.439 59.2949H176.486L181.159 72.5078L179.504 75.7451L173.439 59.2949ZM194.929 74.7197C194.03 74.7197 193.186 74.6318 192.395 74.4561C191.613 74.2803 190.881 74.0166 190.197 73.665C189.514 73.3135 188.884 72.874 188.308 72.3467L190.08 70.1641C190.9 70.7891 191.716 71.2578 192.526 71.5703C193.337 71.8828 194.138 72.0391 194.929 72.0391C196.11 72.0391 196.994 71.8584 197.58 71.4971C198.176 71.126 198.474 70.5742 198.474 69.8418C198.474 69.3535 198.312 68.9873 197.99 68.7432C197.668 68.499 197.268 68.3379 196.789 68.2598C196.311 68.1719 195.637 68.0938 194.768 68.0254C194.689 68.0254 194.606 68.0254 194.519 68.0254C194.431 68.0156 194.348 68.0059 194.27 67.9961C194.23 67.9961 194.191 67.9961 194.152 67.9961C194.113 67.9863 194.074 67.9814 194.035 67.9814C193.049 67.9033 192.214 67.7617 191.53 67.5566C190.847 67.3418 190.275 66.9463 189.816 66.3701C189.367 65.7939 189.143 64.9688 189.143 63.8945C189.143 62.8203 189.362 61.9268 189.802 61.2139C190.241 60.501 190.896 59.9688 191.765 59.6172C192.634 59.2559 193.723 59.0752 195.031 59.0752C195.822 59.0752 196.574 59.1484 197.287 59.2949C198.01 59.4414 198.698 59.6611 199.353 59.9541C200.007 60.2373 200.637 60.5986 201.242 61.0381L199.44 63.2207C198.679 62.7324 197.927 62.3662 197.185 62.1221C196.452 61.8779 195.734 61.7559 195.031 61.7559C194.016 61.7559 193.254 61.9316 192.746 62.2832C192.238 62.625 191.984 63.1426 191.984 63.8359C191.984 64.2461 192.126 64.5537 192.409 64.7588C192.702 64.9639 193.068 65.1006 193.508 65.1689C193.947 65.2373 194.572 65.2959 195.383 65.3447C195.441 65.3545 195.5 65.3594 195.559 65.3594C195.627 65.3594 195.695 65.3643 195.764 65.374C195.793 65.374 195.822 65.374 195.852 65.374C195.881 65.374 195.91 65.3789 195.939 65.3887C197.004 65.457 197.907 65.5986 198.649 65.8135C199.401 66.0283 200.031 66.4531 200.539 67.0879C201.047 67.7227 201.301 68.6406 201.301 69.8418C201.301 70.9355 201.066 71.8438 200.598 72.5664C200.129 73.2793 199.421 73.8164 198.474 74.1777C197.536 74.5391 196.354 74.7197 194.929 74.7197ZM210.485 74.7197C209.587 74.7197 208.742 74.6318 207.951 74.4561C207.17 74.2803 206.438 74.0166 205.754 73.665C205.07 73.3135 204.44 72.874 203.864 72.3467L205.637 70.1641C206.457 70.7891 207.272 71.2578 208.083 71.5703C208.894 71.8828 209.694 72.0391 210.485 72.0391C211.667 72.0391 212.551 71.8584 213.137 71.4971C213.732 71.126 214.03 70.5742 214.03 69.8418C214.03 69.3535 213.869 68.9873 213.547 68.7432C213.225 68.499 212.824 68.3379 212.346 68.2598C211.867 68.1719 211.193 68.0938 210.324 68.0254C210.246 68.0254 210.163 68.0254 210.075 68.0254C209.987 68.0156 209.904 68.0059 209.826 67.9961C209.787 67.9961 209.748 67.9961 209.709 67.9961C209.67 67.9863 209.631 67.9814 209.592 67.9814C208.605 67.9033 207.771 67.7617 207.087 67.5566C206.403 67.3418 205.832 66.9463 205.373 66.3701C204.924 65.7939 204.699 64.9688 204.699 63.8945C204.699 62.8203 204.919 61.9268 205.358 61.2139C205.798 60.501 206.452 59.9688 207.321 59.6172C208.19 59.2559 209.279 59.0752 210.588 59.0752C211.379 59.0752 212.131 59.1484 212.844 59.2949C213.566 59.4414 214.255 59.6611 214.909 59.9541C215.563 60.2373 216.193 60.5986 216.799 61.0381L214.997 63.2207C214.235 62.7324 213.483 62.3662 212.741 62.1221C212.009 61.8779 211.291 61.7559 210.588 61.7559C209.572 61.7559 208.811 61.9316 208.303 62.2832C207.795 62.625 207.541 63.1426 207.541 63.8359C207.541 64.2461 207.683 64.5537 207.966 64.7588C208.259 64.9639 208.625 65.1006 209.064 65.1689C209.504 65.2373 210.129 65.2959 210.939 65.3447C210.998 65.3545 211.057 65.3594 211.115 65.3594C211.184 65.3594 211.252 65.3643 211.32 65.374C211.35 65.374 211.379 65.374 211.408 65.374C211.438 65.374 211.467 65.3789 211.496 65.3887C212.561 65.457 213.464 65.5986 214.206 65.8135C214.958 66.0283 215.588 66.4531 216.096 67.0879C216.604 67.7227 216.857 68.6406 216.857 69.8418C216.857 70.9355 216.623 71.8438 216.154 72.5664C215.686 73.2793 214.978 73.8164 214.03 74.1777C213.093 74.5391 211.911 74.7197 210.485 74.7197Z" fill="black"/>
<path fill-rule="evenodd" clip-rule="evenodd" d="M21.1208 30.136C21.0405 29.8793 20.9862 29.6152 20.9589 29.3476L17.9503 -0.0933576C17.7094 -2.45103 19.5596 -4.5 21.9296 -4.5H256.5C258.709 -4.5 260.5 -2.70914 260.5 -0.5V134.4C260.5 136.648 258.649 138.454 256.402 138.399L-0.0233912 132.098C-2.22319 132.044 -3.96622 130.223 -3.92439 128.023L-2.06987 30.4751C-1.98112 25.807 4.6705 25.0479 5.80873 29.576L9.87932 45.7699C9.95947 46.0888 10 46.4163 10 46.745V91.1134C10 91.3705 10.0248 91.6271 10.074 91.8794L11.8685 101.076C12.5868 104.757 17.5206 105.515 19.3099 102.219L22.3645 96.5916C23.0643 95.3027 24.4133 94.5 25.88 94.5H31.226C32.636 94.5 33.9419 95.2424 34.6631 96.4541L44.9447 113.727C45.6068 114.839 46.7662 115.563 48.0564 115.668L67.1444 117.226C69.0837 117.384 70.8556 116.124 71.3425 114.24L85.4206 59.7744C85.6346 58.9467 85.5776 58.0721 85.2582 57.279L72.5624 25.7584C71.8117 23.8945 69.7947 22.8768 67.8494 23.3805L45.0862 29.2746C43.9241 29.5755 42.9585 30.3824 42.4561 31.4726L34.3472 49.0673C32.8148 52.3924 27.9909 52.0821 26.8971 48.5881L21.1208 30.136ZM109.909 15.7091C108.177 15.8823 106.755 17.1568 106.394 18.8605L98.1895 57.605C98.0648 58.1941 98.0746 58.8037 98.2183 59.3884L111.669 114.12C112.146 116.058 113.977 117.349 115.962 117.145L130.21 115.684C131.348 115.567 132.382 114.968 133.05 114.039L140.596 103.541C142.087 101.466 145.116 101.302 146.822 103.205L155.109 112.449C155.981 113.421 157.272 113.906 158.569 113.749L170.63 112.287C172.09 112.11 173.335 111.147 173.872 109.778L187.504 75.0388C188.105 73.5073 189.582 72.5 191.227 72.5H194.962C196.758 72.5 198.333 73.6969 198.815 75.4269L208.282 109.422C208.717 110.982 210.049 112.127 211.656 112.321L233.982 115.015C236.194 115.282 238.197 113.691 238.438 111.477L243.407 65.8512C243.468 65.2901 243.41 64.7224 243.236 64.1854L232.714 31.7042C232.272 30.3408 231.135 29.3179 229.733 29.0227L217.196 26.3834C214.927 25.9058 212.729 27.4509 212.41 29.7473L209.26 52.4299C208.626 56.9956 202.045 57.0438 201.344 52.4878L198.227 32.2251C197.873 29.923 194.592 29.824 194.1 32.1007C193.65 34.1812 190.746 34.3486 190.06 32.3336L185.361 18.5294C184.84 16.9982 183.448 15.9317 181.834 15.8269L149.69 13.7396C147.607 13.6043 145.77 15.0935 145.471 17.1593L143.177 33.0468C142.524 37.5678 136.023 37.6383 135.272 33.1325L132.616 17.1953C132.269 15.1165 130.369 13.6631 128.272 13.8728L109.909 15.7091Z" fill="black"/>
<rect x="2" y="2" width="252" height="124" rx="14" stroke="white" stroke-width="4"/>
<path d="M192.5 80L182 108" stroke="white" stroke-width="4" stroke-linecap="round" stroke-linejoin="round"/>
<path d="M144 107L139 115" stroke="white" stroke-width="4" stroke-linecap="round" stroke-linejoin="round"/>
<path d="M85.5 82.5L78 115M31.5 42L27.1102 26.8797C27.0369 26.6272 26.9887 26.3681 26.9662 26.1061L25.5 9M27 100L24 105.5M83.5 38L87.5 50" stroke="white" stroke-width="4" stroke-linecap="round" stroke-linejoin="round"/>
</g>
<defs>
<clipPath id="clip0_79_176">
<rect width="256" height="128" rx="16" fill="white"/>
</clipPath>
</defs>
</svg>
