<svg width="192" height="53" viewBox="0 0 192 53" fill="none" xmlns="http://www.w3.org/2000/svg">
<g clip-path="url(#clip0_242_88)">
<path d="M165.257 53C180.026 53 192 41.1355 192 26.5006C192 11.8656 180.028 0 165.257 0H26.7441C11.9746 0 0 11.8645 0 26.5006C0 41.1355 11.9735 52.9989 26.7441 52.9989L165.257 53Z" fill="white"/>
<path d="M38.5551 16.5648C37.1958 16.5648 35.9968 16.869 34.9614 17.4753C33.9338 18.0749 33.137 18.9221 32.57 20.0203C32.0019 21.1174 31.7184 22.3899 31.7184 23.8356V29.1777C31.7184 30.6234 32.0019 31.8959 32.57 32.9941C33.137 34.0912 33.9338 34.9395 34.9614 35.5369C35.9968 36.1365 37.1958 36.4352 38.5551 36.4352C39.6287 36.4448 40.6892 36.2012 41.6491 35.7245C42.5941 35.2437 43.4097 34.5463 44.0281 33.6903C44.6668 32.8153 45.0994 31.8027 45.3246 30.6512H42.5007C42.3459 31.2712 42.0504 31.8481 41.6367 32.3379C41.2576 32.7975 40.7763 33.1638 40.2304 33.4083C39.7051 33.6481 39.1334 33.7717 38.5551 33.7703C37.7539 33.7703 37.0513 33.5826 36.4484 33.2073C35.8433 32.8242 35.376 32.2846 35.042 31.5883C34.7092 30.8921 34.5423 30.0893 34.5423 29.1788V23.8356C34.5423 22.9162 34.7092 22.1134 35.042 21.4261C35.376 20.7299 35.8444 20.1902 36.4473 19.8049C37.0513 19.4218 37.7539 19.2308 38.5551 19.2308C39.1322 19.2308 39.6903 19.3596 40.2304 19.6183C40.7716 19.8771 41.2389 20.2479 41.6367 20.7287C42.0413 21.2029 42.3293 21.7425 42.5007 22.3499H45.3246C45.1005 21.1985 44.6679 20.1847 44.0281 19.3108C43.4194 18.4547 42.6073 17.7602 41.6636 17.2888C40.7015 16.8028 39.635 16.5548 38.5551 16.5659V16.5648ZM48.9732 16.7669V36.2342H51.7299V27.3977C51.7299 26.5494 51.9731 25.8932 52.4583 25.429C52.9547 24.9649 53.6528 24.7328 54.5538 24.7328C55.4805 24.7328 56.2011 25.0004 56.7165 25.5367C57.2286 26.0719 57.4853 26.8303 57.4853 27.813V36.2342H60.2419V27.7986C60.2419 25.9964 59.8228 24.604 58.9857 23.6213C58.1565 22.6308 56.981 22.1356 55.4592 22.1356C54.6121 22.1356 53.8366 22.3632 53.134 22.8185C52.5816 23.1738 52.1165 23.6535 51.7299 24.2464V16.7669H48.9732ZM93.0484 16.7669V36.2342H95.805V32.2546L98.2771 29.4975L102.385 36.2342H105.385L99.9994 27.5754L104.696 22.3366H101.453L95.805 29.0855V16.7669H93.0484ZM115.384 16.7669V36.2342H118.141V28.6836H122.991C124.162 28.6836 125.194 28.4371 126.086 27.9463C126.964 27.4688 127.683 26.7475 128.153 25.871C128.648 24.9693 128.896 23.9255 128.896 22.7385C128.896 21.5504 128.648 20.5067 128.153 19.605C127.686 18.7228 126.967 17.9964 126.086 17.5164C125.194 17.0167 124.162 16.7669 122.991 16.7669H116.803H115.384ZM146.205 16.7669V19.4984H148.961V16.7669H146.205ZM168.972 18.2925V22.3366H167.526V24.7994H168.972V32.6188C168.972 33.8324 169.233 34.7519 169.756 35.377C170.287 35.9922 171.121 36.3009 172.255 36.3009H173.85V33.7025H172.525C172.264 33.7025 172.066 33.6137 171.931 33.436C171.797 33.2473 171.73 32.9841 171.73 32.6455V24.7994H173.85V22.3366H171.729V18.2925H168.972ZM118.141 19.3641H123.086C123.68 19.3641 124.202 19.5073 124.652 19.7927C125.103 20.0703 125.45 20.4623 125.693 20.9697C125.946 21.4805 126.071 22.069 126.071 22.7385C126.071 23.3981 125.946 23.9833 125.693 24.493C125.471 24.9781 125.109 25.3874 124.652 25.67C124.202 25.9476 123.681 26.0853 123.086 26.0853H118.141V19.3641ZM21.0705 21.8269V25.9642H16.9635V28.5626H21.0705V32.6998H23.8272V28.5626H27.9352V25.9642H23.8272V21.8269H21.0705ZM69.9306 22.1356C68.6867 22.1356 67.6244 22.3899 66.7414 22.8984C65.8583 23.407 65.1837 24.1476 64.7142 25.1215C64.2548 26.0942 64.025 27.2678 64.025 28.6425V30.2081C64.025 31.5295 64.2637 32.6588 64.7422 33.5959C65.2053 34.5013 65.9417 35.2411 66.8489 35.7123C67.7678 36.1943 68.8772 36.4341 70.1737 36.4341C71.0478 36.4341 71.9162 36.2564 72.7813 35.8989C73.6487 35.5314 74.4409 35.0098 75.1189 34.3599L73.308 32.5655C72.8794 32.9648 72.3803 33.2824 71.8356 33.5027C71.2865 33.7258 70.7318 33.8369 70.1737 33.8369C69.0475 33.8369 68.1779 33.5293 67.565 32.9131C66.9756 32.3201 66.6775 31.4729 66.6551 30.3825H75.4831V29.472C75.4831 27.9374 75.2623 26.6205 74.8219 25.5223C74.3883 24.4252 73.7585 23.5858 72.9293 23.0062C72.1 22.4254 71.1016 22.1356 69.9306 22.1356ZM84.9286 22.1356C83.6488 22.1356 82.5551 22.3721 81.6452 22.8463C80.7596 23.2952 80.037 24.0062 79.5777 24.8805C79.1004 25.7721 78.8606 26.8481 78.8606 28.1073V30.3969C78.8606 31.6738 79.1004 32.762 79.5777 33.6637C80.0359 34.5455 80.758 35.2653 81.6452 35.7245C82.5551 36.1987 83.6488 36.4352 84.9286 36.4352C85.6491 36.4352 86.3293 36.3497 86.968 36.1798C87.5839 36.0243 88.1719 35.776 88.7117 35.4436C89.2116 35.1256 89.6506 34.7222 90.0082 34.2522L88.0225 32.3512C87.6496 32.8124 87.1791 33.1869 86.6442 33.4483C86.113 33.7081 85.555 33.8369 84.9689 33.8369C83.8965 33.8369 83.0684 33.5382 82.4823 32.9408C81.9063 32.3423 81.6172 31.4951 81.6172 30.3969V28.1073C81.6172 27.0358 81.9108 26.2063 82.4958 25.6167C83.0818 25.0282 83.9055 24.7328 84.9689 24.7328C85.5449 24.7328 86.0996 24.8538 86.6307 25.0948C87.1619 25.3357 87.6258 25.6789 88.0225 26.1252L90.0082 24.3575C89.6607 23.8796 89.2254 23.4708 88.7251 23.1527C88.188 22.8123 87.5993 22.5593 86.9815 22.4032C86.3128 22.2209 85.622 22.1308 84.9286 22.1356ZM136.503 22.1356C135.287 22.1356 134.247 22.3721 133.382 22.8463C132.521 23.3069 131.826 24.0228 131.396 24.8938C130.946 25.7866 130.719 26.8614 130.719 28.1206V30.3825C130.719 31.6594 130.946 32.7532 131.396 33.6637C131.856 34.5653 132.517 35.2515 133.382 35.7245C134.247 36.1987 135.287 36.4352 136.503 36.4352C137.72 36.4352 138.76 36.1987 139.625 35.7245C140.48 35.261 141.169 34.5455 141.597 33.677C142.056 32.7754 142.286 31.6905 142.286 30.4236V28.1206C142.286 26.8614 142.056 25.7866 141.597 24.8938C141.175 24.0214 140.484 23.3041 139.625 22.8451C138.76 22.3721 137.72 22.1356 136.503 22.1356ZM159.635 22.1356C158.809 22.1294 158 22.3672 157.311 22.8185C156.743 23.2002 156.264 23.6976 155.906 24.2776V22.3366H153.149V36.2342H155.906V27.4377C155.906 26.5805 156.149 25.9165 156.635 25.4424C157.131 24.9693 157.83 24.7328 158.731 24.7328C159.658 24.7328 160.378 25.0004 160.891 25.5367C161.406 26.0719 161.662 26.8303 161.662 27.813V36.2342H164.419V27.7986C164.419 25.9964 164 24.604 163.162 23.6213C162.332 22.6308 161.158 22.1356 159.635 22.1356ZM146.205 22.3355V36.2342H148.961V22.3366L146.205 22.3355ZM69.9306 24.5985C70.7856 24.5985 71.4658 24.916 71.97 25.5501C72.4833 26.1741 72.7813 27.0535 72.862 28.1872H66.6652C66.71 27.1002 66.98 26.2363 67.4978 25.6167C68.0749 24.9393 68.8862 24.5985 69.9306 24.5985ZM136.503 24.7328C137.466 24.7328 138.21 25.0282 138.733 25.6167C139.264 26.2052 139.529 27.0402 139.529 28.1206V30.4236C139.529 31.5029 139.264 32.3423 138.733 32.9408C138.21 33.5382 137.466 33.8369 136.503 33.8369C135.539 33.8369 134.792 33.5382 134.259 32.9408C133.737 32.3423 133.476 31.5029 133.476 30.4236V28.1206C133.476 27.0402 133.737 26.2063 134.26 25.6167C134.792 25.0282 135.539 24.7328 136.503 24.7328Z" fill="black"/>
</g>
<defs>
<clipPath id="clip0_242_88">
<rect width="192" height="53" fill="white"/>
</clipPath>
</defs>
</svg>
