<svg xmlns="http://www.w3.org/2000/svg" width="647.578" height="180.401" viewBox="0 0 171.338 47.731">
  <path id="bg" d="M147.473 47.731c13.18 0 23.865-10.685 23.865-23.865C171.338 10.686 160.654 0 147.473 0H23.866C10.686 0 0 10.685 0 23.866 0 37.046 10.685 47.73 23.866 47.73z"/>
  <path id="icon" fill="#fff" d="M27.676 284.8c-1.213 0-2.283.274-3.207.82-.917.54-1.628 1.303-2.134 2.292-.507.988-.76 2.134-.76 3.436v4.811c0 1.302.253 2.448.76 3.437.506.988 1.217 1.752 2.134 2.29.924.54 1.994.809 3.207.809a6.04 6.04 0 0 0 2.761-.64 5.957 5.957 0 0 0 2.123-1.832c.57-.788.956-1.7 1.157-2.737h-2.52a3.782 3.782 0 0 1-.771 1.519 3.463 3.463 0 0 1-1.255.964 3.551 3.551 0 0 1-1.495.326c-.715 0-1.342-.169-1.88-.507-.54-.345-.957-.831-1.255-1.458-.297-.627-.446-1.35-.446-2.17v-4.812c0-.828.149-1.551.446-2.17.298-.627.716-1.113 1.254-1.46.539-.345 1.166-.517 1.881-.517.515 0 1.013.116 1.495.349.483.233.9.567 1.255 1 .361.427.618.913.771 1.46h2.52c-.2-1.037-.586-1.95-1.157-2.737a5.745 5.745 0 0 0-2.11-1.821 5.972 5.972 0 0 0-2.774-.651zm9.297.182v17.532h2.46v-7.958c0-.764.217-1.355.65-1.773.443-.418 1.066-.627 1.87-.627.827 0 1.47.241 1.93.724.457.482.686 1.165.686 2.05v7.584h2.46v-7.597c0-1.623-.374-2.877-1.121-3.762-.74-.892-1.789-1.338-3.147-1.338-.756 0-1.448.205-2.075.615-.493.32-.908.752-1.253 1.286v-6.736zm39.332 0v17.532h2.46v-3.584l2.206-2.483 3.666 6.067h2.677l-4.806-7.798 4.191-4.718h-2.894l-5.04 6.078v-11.094zm19.932 0v17.532h2.46v-6.8h4.328c1.045 0 1.966-.222 2.762-.664a4.59 4.59 0 0 0 1.845-1.869c.442-.812.663-1.752.663-2.821 0-1.07-.221-2.01-.663-2.822a4.571 4.571 0 0 0-1.845-1.881c-.796-.45-1.717-.675-2.762-.675h-5.522zm27.504 0v2.46h2.46v-2.46zm20.317 1.374v3.642h-1.29v2.218h1.29v7.042c0 1.093.233 1.921.7 2.484.474.554 1.218.832 2.23.832h1.423v-2.34h-1.182c-.233 0-.41-.08-.53-.24-.12-.17-.18-.407-.18-.712v-7.066h1.892v-2.218h-1.893v-3.642zm-45.361.965h4.413c.53 0 .996.129 1.398.386.402.25.712.603.929 1.06.225.46.337.99.337 1.593 0 .594-.112 1.121-.337 1.58a2.445 2.445 0 0 1-.929 1.06c-.402.25-.867.374-1.398.374h-4.413zm-86.624 2.218v3.726H8.408v2.34h3.665v3.726h2.46v-3.726h3.666v-2.34h-3.666v-3.726zm43.602.278c-1.11 0-2.058.229-2.846.687-.788.458-1.39 1.125-1.809 2.002-.41.876-.615 1.933-.615 3.171v1.41c0 1.19.213 2.207.64 3.051a4.395 4.395 0 0 0 1.88 1.906c.82.434 1.81.65 2.967.65.78 0 1.555-.16 2.327-.482a6.904 6.904 0 0 0 2.086-1.386l-1.616-1.616a4.278 4.278 0 0 1-1.314.844c-.49.201-.985.301-1.483.301-1.005 0-1.781-.277-2.328-.832-.526-.534-.792-1.297-.812-2.279h7.878v-.82c0-1.382-.197-2.568-.59-3.557-.387-.988-.949-1.744-1.689-2.266-.74-.523-1.631-.784-2.676-.784zm13.384 0c-1.142 0-2.118.213-2.93.64a4.275 4.275 0 0 0-1.845 1.832c-.426.803-.64 1.772-.64 2.906v2.062c0 1.15.214 2.13.64 2.942a4.33 4.33 0 0 0 1.845 1.856c.812.427 1.788.64 2.93.64.643 0 1.25-.077 1.82-.23a5.538 5.538 0 0 0 1.556-.663 4.481 4.481 0 0 0 1.157-1.073l-1.772-1.712a3.637 3.637 0 0 1-1.23.988c-.474.234-.972.35-1.495.35-.957 0-1.696-.269-2.219-.807-.514-.539-.772-1.302-.772-2.291v-2.062c0-.965.262-1.712.784-2.243.523-.53 1.258-.796 2.207-.796.514 0 1.009.109 1.483.326.474.217.888.526 1.242.928l1.772-1.592a4.22 4.22 0 0 0-1.145-1.085 5.333 5.333 0 0 0-1.556-.675 6.73 6.73 0 0 0-1.832-.241zm46.024 0c-1.085 0-2.013.213-2.785.64a4.187 4.187 0 0 0-1.772 1.844c-.402.804-.604 1.772-.604 2.906v2.037c0 1.15.202 2.135.604 2.955.41.812 1 1.43 1.772 1.856.772.427 1.7.64 2.785.64 1.086 0 2.014-.213 2.786-.64a4.2 4.2 0 0 0 1.76-1.844c.41-.812.615-1.789.615-2.93v-2.074c0-1.134-.205-2.102-.615-2.906a4.118 4.118 0 0 0-1.76-1.845c-.772-.426-1.7-.64-2.786-.64zm20.643 0a3.71 3.71 0 0 0-2.074.615 4.3 4.3 0 0 0-1.254 1.314v-1.748h-2.46v12.516h2.46v-7.922c0-.772.217-1.37.651-1.797.442-.426 1.066-.639 1.87-.639.827 0 1.47.241 1.928.724.459.482.688 1.165.688 2.05v7.584h2.46v-7.597c0-1.623-.374-2.877-1.122-3.762-.74-.892-1.788-1.338-3.147-1.338zm-11.985.18v12.517h2.46v-12.516Zm-68.066 2.038c.763 0 1.37.286 1.82.857.458.562.724 1.354.796 2.375h-5.53c.04-.979.281-1.757.743-2.315.515-.61 1.238-.917 2.17-.917zm59.408.121c.86 0 1.524.266 1.99.796.474.53.711 1.282.711 2.255v2.074c0 .972-.237 1.728-.711 2.267-.466.538-1.13.807-1.99.807-.86 0-1.527-.269-2.002-.807-.466-.539-.699-1.295-.699-2.267v-2.074c0-.973.233-1.724.7-2.255.474-.53 1.141-.796 2.001-.796z" font-family="Bahnschrift" font-size="24.694" style="-inkscape-font-specification:'Bahnschrift, Normal';text-align:center" text-anchor="middle" transform="translate(6.73 -269.882)"/>
</svg>
