<svg width="256" height="128" viewBox="0 0 256 128" fill="none" xmlns="http://www.w3.org/2000/svg">
<rect width="256" height="128" rx="24" fill="white"/>
<path d="M77.9779 76.352C75.6312 76.352 73.6152 75.8453 71.9299 74.832C70.2445 73.808 68.9539 72.4 68.0579 70.608C67.1619 68.8053 66.7139 66.7307 66.7139 64.384C66.7139 62.0267 67.1779 59.936 68.1059 58.112C69.0445 56.288 70.3565 54.8587 72.0419 53.824C73.7379 52.7893 75.7272 52.272 78.0099 52.272C79.7699 52.272 81.2259 52.512 82.3779 52.992C83.5299 53.4613 84.5432 54.0267 85.4179 54.688L84.1539 56.704C83.3432 56.0853 82.4419 55.6 81.4499 55.248C80.4579 54.8853 79.4125 54.704 78.3139 54.704C76.4259 54.704 74.8365 55.1253 73.5459 55.968C72.2659 56.8 71.2952 57.9467 70.6339 59.408C69.9725 60.8587 69.6419 62.5227 69.6419 64.4C69.6419 66.224 69.9459 67.856 70.5539 69.296C71.1725 70.7253 72.1005 71.856 73.3379 72.688C74.5859 73.5093 76.1592 73.92 78.0579 73.92C79.5085 73.92 80.7779 73.7333 81.8659 73.36C82.9645 72.976 83.9192 72.432 84.7299 71.728L85.6419 73.968C84.6925 74.736 83.5779 75.328 82.2979 75.744C81.0285 76.1493 79.5885 76.352 77.9779 76.352ZM90.1319 76V64.816C90.1319 63.888 89.9719 63.0773 89.6519 62.384C89.3319 61.6907 88.9852 61.0347 88.6119 60.416L91.2519 59.584C91.5399 60.0213 91.8012 60.464 92.0359 60.912C92.2705 61.3493 92.4305 61.824 92.5159 62.336C92.9425 61.472 93.5665 60.7413 94.3879 60.144C95.2199 59.536 96.1425 59.232 97.1559 59.232C97.8172 59.232 98.3185 59.264 98.6599 59.328C99.0119 59.392 99.3319 59.4667 99.6199 59.552L99.3959 61.872C99.2572 61.8187 99.0065 61.744 98.6439 61.648C98.2812 61.5413 97.7585 61.488 97.0759 61.488C95.9132 61.488 94.8999 61.9253 94.0359 62.8C93.1825 63.664 92.7559 65.0347 92.7559 66.912V76H90.1319ZM108.729 83.904C107.918 83.904 107.022 83.8133 106.041 83.632C105.06 83.4613 104.164 83.2267 103.353 82.928L103.657 80.48C104.393 80.8427 105.204 81.136 106.089 81.36C106.985 81.5947 107.79 81.712 108.505 81.712C110.18 81.712 111.529 81.2533 112.553 80.336C113.577 79.4187 114.089 78.208 114.089 76.704V73.952C112.862 75.552 111.113 76.352 108.841 76.352C107.806 76.352 106.82 76.1547 105.881 75.76C104.942 75.3547 104.185 74.6987 103.609 73.792C103.033 72.8853 102.766 71.6747 102.809 70.16L102.905 66.688C102.958 64.9813 102.905 63.6533 102.745 62.704C102.596 61.7547 102.436 61.0827 102.265 60.688C102.094 60.2827 101.993 60.0533 101.961 60L104.601 59.584C104.622 59.6373 104.718 59.8507 104.889 60.224C105.07 60.5973 105.236 61.2747 105.385 62.256C105.545 63.2267 105.598 64.6347 105.545 66.48L105.449 70.16C105.428 71.2053 105.598 72.016 105.961 72.592C106.324 73.168 106.798 73.5733 107.385 73.808C107.972 74.032 108.59 74.144 109.241 74.144C110.126 74.144 110.932 73.9467 111.657 73.552C112.393 73.1573 112.98 72.592 113.417 71.856C113.865 71.1093 114.089 70.2133 114.089 69.168V59.584H116.713V76.368C116.713 77.872 116.377 79.1893 115.705 80.32C115.044 81.4507 114.116 82.3307 112.921 82.96C111.726 83.5893 110.329 83.904 108.729 83.904ZM126.533 76.352C125.296 76.352 124.187 76.1867 123.205 75.856C122.224 75.5253 121.435 75.1947 120.837 74.864L121.637 72.608C122.256 73.0773 122.992 73.4507 123.845 73.728C124.709 74.0053 125.541 74.144 126.341 74.144C127.227 74.144 127.979 73.968 128.597 73.616C129.227 73.2533 129.541 72.6613 129.541 71.84C129.541 71.2747 129.328 70.8 128.901 70.416C128.485 70.0213 127.947 69.6693 127.285 69.36C126.624 69.0507 125.92 68.736 125.173 68.416C124.437 68.096 123.739 67.7333 123.077 67.328C122.416 66.912 121.883 66.4107 121.477 65.824C121.072 65.2373 120.875 64.5173 120.885 63.664C120.907 62.2987 121.408 61.2213 122.389 60.432C123.371 59.632 124.683 59.232 126.325 59.232C127.371 59.232 128.325 59.36 129.189 59.616C130.064 59.872 130.837 60.176 131.509 60.528L130.805 62.688C130.133 62.3253 129.413 62.0373 128.645 61.824C127.888 61.6 127.168 61.488 126.485 61.488C125.557 61.488 124.821 61.6747 124.277 62.048C123.744 62.4107 123.477 62.9227 123.477 63.584C123.477 64.0853 123.685 64.5173 124.101 64.88C124.528 65.2427 125.072 65.5787 125.733 65.888C126.395 66.1867 127.093 66.496 127.829 66.816C128.576 67.136 129.275 67.5093 129.925 67.936C130.587 68.352 131.12 68.8533 131.525 69.44C131.931 70.0267 132.123 70.7467 132.101 71.6C132.069 73.008 131.552 74.1547 130.549 75.04C129.557 75.9147 128.219 76.352 126.533 76.352ZM142.319 76.128C140.463 76.128 139.114 75.7387 138.271 74.96C137.429 74.1813 137.007 72.928 137.007 71.2V61.296H133.759V59.584H137.087V55.232L139.631 54.48V59.584H145.023V61.296H139.631V71.232C139.631 72.2347 139.871 72.9653 140.351 73.424C140.831 73.872 141.589 74.096 142.623 74.096C142.869 74.096 143.183 74.064 143.567 74C143.962 73.936 144.357 73.856 144.751 73.76C145.146 73.664 145.466 73.568 145.711 73.472L146.015 75.44C145.514 75.6107 144.885 75.7707 144.127 75.92C143.381 76.0587 142.778 76.128 142.319 76.128ZM154.58 76.352C153.247 76.352 152.079 76.048 151.076 75.44C150.084 74.8213 149.311 73.9627 148.756 72.864C148.202 71.7547 147.924 70.464 147.924 68.992C147.924 67.04 148.308 65.3333 149.076 63.872C149.844 62.4107 150.916 61.2747 152.292 60.464C153.679 59.6427 155.295 59.232 157.14 59.232C158.218 59.232 159.279 59.36 160.324 59.616C161.37 59.8613 162.212 60.192 162.852 60.608V71.424C162.852 72.128 163.034 72.6987 163.396 73.136C163.77 73.5627 164.255 73.776 164.852 73.776L164.308 76.064C163.38 76.064 162.575 75.8133 161.892 75.312C161.21 74.8107 160.778 74.1547 160.596 73.344C160.052 74.2507 159.231 74.9813 158.132 75.536C157.034 76.08 155.85 76.352 154.58 76.352ZM154.98 74.144C156.036 74.144 156.954 73.9093 157.732 73.44C158.522 72.96 159.135 72.3147 159.572 71.504C160.01 70.6933 160.228 69.776 160.228 68.752V62.048C159.898 61.8773 159.444 61.744 158.868 61.648C158.292 61.5413 157.7 61.488 157.092 61.488C155.802 61.488 154.671 61.7973 153.7 62.416C152.74 63.024 151.988 63.8773 151.444 64.976C150.911 66.0747 150.644 67.36 150.644 68.832C150.644 70.4213 151.039 71.7067 151.828 72.688C152.628 73.6587 153.679 74.144 154.98 74.144ZM177.286 75.44C176.208 75.9093 175.142 76.1813 174.086 76.256C173.04 76.3413 172.091 76.2187 171.238 75.888C170.395 75.5467 169.718 74.992 169.206 74.224C168.704 73.4453 168.454 72.4373 168.454 71.2V52.064L171.078 51.584V71.328C171.078 72.4373 171.366 73.216 171.942 73.664C172.518 74.112 173.248 74.3093 174.134 74.256C175.03 74.192 175.947 73.9627 176.886 73.568L177.286 75.44ZM184.158 76.352C182.921 76.352 181.812 76.1867 180.83 75.856C179.849 75.5253 179.06 75.1947 178.462 74.864L179.262 72.608C179.881 73.0773 180.617 73.4507 181.47 73.728C182.334 74.0053 183.166 74.144 183.966 74.144C184.852 74.144 185.604 73.968 186.222 73.616C186.852 73.2533 187.166 72.6613 187.166 71.84C187.166 71.2747 186.953 70.8 186.526 70.416C186.11 70.0213 185.572 69.6693 184.91 69.36C184.249 69.0507 183.545 68.736 182.798 68.416C182.062 68.096 181.364 67.7333 180.702 67.328C180.041 66.912 179.508 66.4107 179.102 65.824C178.697 65.2373 178.5 64.5173 178.51 63.664C178.532 62.2987 179.033 61.2213 180.014 60.432C180.996 59.632 182.308 59.232 183.95 59.232C184.996 59.232 185.95 59.36 186.814 59.616C187.689 59.872 188.462 60.176 189.134 60.528L188.43 62.688C187.758 62.3253 187.038 62.0373 186.27 61.824C185.513 61.6 184.793 61.488 184.11 61.488C183.182 61.488 182.446 61.6747 181.902 62.048C181.369 62.4107 181.102 62.9227 181.102 63.584C181.102 64.0853 181.31 64.5173 181.726 64.88C182.153 65.2427 182.697 65.5787 183.358 65.888C184.02 66.1867 184.718 66.496 185.454 66.816C186.201 67.136 186.9 67.5093 187.55 67.936C188.212 68.352 188.745 68.8533 189.15 69.44C189.556 70.0267 189.748 70.7467 189.726 71.6C189.694 73.008 189.177 74.1547 188.174 75.04C187.182 75.9147 185.844 76.352 184.158 76.352Z" fill="black"/>
</svg>
