<svg width="256" height="128" viewBox="0 0 256 128" fill="none" xmlns="http://www.w3.org/2000/svg">
<g clip-path="url(#clip0_79_174)">
<rect width="256" height="128" rx="24" fill="black"/>
<circle cx="128" cy="97" r="55" fill="white"/>
<path d="M80.4285 40C79.4045 39.04 78.6152 37.8027 78.0605 36.288C77.5272 34.7733 77.2605 33.0773 77.2605 31.2C77.2605 29.408 77.5378 27.7333 78.0925 26.176C78.6472 24.6187 79.4258 23.3173 80.4285 22.272H87.4685V22.368C85.9538 23.6267 84.7912 24.992 83.9805 26.464C83.1912 27.9147 82.7965 29.44 82.7965 31.04C82.7965 32.6827 83.1698 34.2187 83.9165 35.648C84.6845 37.056 85.8792 38.4747 87.5005 39.904V40H80.4285ZM88.658 40V22.272H100.562C101.117 22.6773 101.565 23.2533 101.906 24C102.269 24.7253 102.45 25.472 102.45 26.24C102.45 27.0933 102.237 27.936 101.81 28.768C101.405 29.5787 100.797 30.176 99.986 30.56V30.624C100.882 31.008 101.554 31.6267 102.002 32.48C102.45 33.3333 102.717 34.3573 102.802 35.552L103.09 40H97.458L97.17 35.552C97.042 33.3333 96.018 32.1493 94.098 32V40H88.658ZM94.098 30.464C94.9513 30.2293 95.634 29.7813 96.146 29.12C96.658 28.4587 96.914 27.7013 96.914 26.848C96.914 25.9733 96.6473 25.2267 96.114 24.608C95.602 23.968 94.93 23.5947 94.098 23.488V30.464ZM107.595 40L107.531 39.936C108.47 38.848 109.238 37.8773 109.835 37.024C110.433 36.1707 110.902 35.36 111.243 34.592L111.211 34.528H106.091C105.494 33.9307 105.014 33.0133 104.651 31.776C104.289 30.5387 104.107 29.216 104.107 27.808V22.272H109.483V26.848C109.483 28.3413 109.686 29.6427 110.091 30.752C110.497 31.84 111.062 32.6613 111.787 33.216C111.979 32.5973 112.118 31.9467 112.203 31.264C112.31 30.5813 112.363 29.8133 112.363 28.96V22.272H117.803V29.728C117.803 30.9867 117.665 32.256 117.387 33.536C117.11 34.816 116.705 36.0107 116.171 37.12C115.659 38.2293 115.051 39.1893 114.347 40H107.595ZM119.777 40V39.936C121.27 38.2933 122.017 36.8 122.017 35.456C122.017 35.0933 121.964 34.7307 121.857 34.368C121.772 34.0053 121.601 33.568 121.345 33.056C121.11 32.544 120.78 31.8827 120.353 31.072C119.67 29.7707 119.329 28.5333 119.329 27.36C119.329 26.5707 119.51 25.728 119.873 24.832C120.236 23.9147 120.769 23.0613 121.473 22.272H127.457V22.336C126.668 23.2107 126.102 24 125.761 24.704C125.42 25.3867 125.249 26.0907 125.249 26.816C125.249 27.3493 125.345 27.872 125.537 28.384C125.729 28.896 126.038 29.5573 126.465 30.368C127.041 31.4133 127.436 32.2667 127.649 32.928C127.884 33.568 128.001 34.2293 128.001 34.912C128.001 35.8293 127.852 36.6933 127.553 37.504C127.254 38.2933 126.764 39.1253 126.081 40H119.777ZM132.348 40V26.048H128.508V22.272H141.948L140.924 26.048H137.724V40H132.348ZM142.285 40C142.179 39.4667 142.072 38.784 141.965 37.952C141.859 37.12 141.773 36.2453 141.709 35.328C141.645 34.4107 141.613 33.5893 141.613 32.864C141.613 30.9227 141.827 29.024 142.253 27.168C142.68 25.312 143.277 23.68 144.045 22.272H154.285C155.053 23.68 155.651 25.312 156.077 27.168C156.504 29.024 156.717 30.9227 156.717 32.864C156.717 33.5893 156.685 34.4107 156.621 35.328C156.557 36.2453 156.472 37.12 156.365 37.952C156.28 38.784 156.173 39.4667 156.045 40H150.541C150.733 39.168 150.883 38.432 150.989 37.792C151.096 37.152 151.181 36.5013 151.245 35.84C151.309 35.1787 151.363 34.4213 151.405 33.568H146.925C146.968 34.4213 147.021 35.1787 147.085 35.84C147.149 36.5013 147.235 37.152 147.341 37.792C147.469 38.432 147.619 39.168 147.789 40H142.285ZM147.085 29.92H151.245C151.096 28.832 150.84 27.712 150.477 26.56C150.115 25.408 149.677 24.3947 149.165 23.52C148.653 24.3947 148.216 25.408 147.853 26.56C147.491 27.6907 147.235 28.8107 147.085 29.92ZM158.783 40V22.272H164.255V36H170.175L169.151 40H158.783ZM170.246 40V39.936C171.739 38.2933 172.486 36.8 172.486 35.456C172.486 35.0933 172.432 34.7307 172.326 34.368C172.24 34.0053 172.07 33.568 171.814 33.056C171.579 32.544 171.248 31.8827 170.822 31.072C170.139 29.7707 169.798 28.5333 169.798 27.36C169.798 26.5707 169.979 25.728 170.342 24.832C170.704 23.9147 171.238 23.0613 171.942 22.272H177.926V22.336C177.136 23.2107 176.571 24 176.23 24.704C175.888 25.3867 175.718 26.0907 175.718 26.816C175.718 27.3493 175.814 27.872 176.006 28.384C176.198 28.896 176.507 29.5573 176.934 30.368C177.51 31.4133 177.904 32.2667 178.118 32.928C178.352 33.568 178.47 34.2293 178.47 34.912C178.47 35.8293 178.32 36.6933 178.022 37.504C177.723 38.2933 177.232 39.1253 176.55 40H170.246Z" fill="black"/>
<path d="M130 72V51.5L146.5 67L130 72Z" fill="white"/>
<path d="M129.548 116L141.288 112.476L147 67.6214M129.548 116V72.7476M129.548 116L120.346 112.476L114 67.6214M147 67.6214L129.548 72.7476M147 67.6214L129.548 50M129.548 72.7476V50M129.548 72.7476L114 67.6214M129.548 50L114 67.6214" stroke="black" stroke-width="3" stroke-linecap="round" stroke-linejoin="round"/>
<path d="M141.5 83.5L148.5 78L143.5 111.5L141.5 83.5Z" fill="white"/>
<path d="M167 85L156 72.5L151 88V121.5L159 119.5L167 85Z" fill="white"/>
<path d="M150.5 121.5L159 120L167 84.5M150.5 121.5V88M150.5 121.5L143 118.723L141 83.3835M167 84.5L150.5 88M167 84.5L155.5 72M150.5 88L155.5 72M150.5 88L141 83.3835M155.5 72L141 83.3835" stroke="black" stroke-width="3" stroke-linecap="round" stroke-linejoin="round"/>
<path d="M112 122L100.5 74L121 83.5L122 116.5L112 122Z" fill="white"/>
<path d="M112.5 123L122 116.5L120.5 83.5M112.5 123L105.048 95M112.5 123L100 120L91 91M120.5 83.5L105.048 95M120.5 83.5L100 72.5M105.048 95L100 72.5M105.048 95L91 91M100 72.5L91 91" stroke="black" stroke-width="3" stroke-linecap="round" stroke-linejoin="round"/>
</g>
<rect x="2" y="2" width="252" height="124" rx="22" stroke="white" stroke-width="4"/>
<defs>
<clipPath id="clip0_79_174">
<rect width="256" height="128" rx="24" fill="white"/>
</clipPath>
</defs>
</svg>
