<svg width="256" height="128" viewBox="0 0 256 128" fill="none" xmlns="http://www.w3.org/2000/svg">
<g clip-path="url(#clip0_473_151)">
<rect width="256" height="128" rx="24" fill="black"/>
<circle cx="128" cy="99" r="112" fill="white"/>
<path d="M90.3973 40C89.3733 39.04 88.5839 37.8027 88.0293 36.288C87.4959 34.7733 87.2293 33.0773 87.2293 31.2C87.2293 29.408 87.5066 27.7333 88.0613 26.176C88.6159 24.6187 89.3946 23.3173 90.3973 22.272H97.4373V22.368C95.9226 23.6267 94.7599 24.992 93.9493 26.464C93.1599 27.9147 92.7653 29.44 92.7653 31.04C92.7653 32.6827 93.1386 34.2187 93.8853 35.648C94.6533 37.056 95.8479 38.4747 97.4693 39.904V40H90.3973ZM97.742 40V32.32C97.742 31.1467 97.8807 30.176 98.158 29.408C98.4567 28.6187 98.9367 27.8827 99.598 27.2H106.03L106.062 27.264C105.017 28.1387 104.281 29.0347 103.854 29.952C103.449 30.8693 103.246 32.032 103.246 33.44V40H97.742ZM112.541 45.568L112.509 45.504C113.042 44.8 113.49 44.0107 113.853 43.136C114.215 42.2613 114.429 41.216 114.493 40H108.317C107.741 39.3173 107.282 38.4107 106.941 37.28C106.621 36.128 106.461 34.9013 106.461 33.6V27.2H111.933V33.248C111.933 34.8053 112.189 36.0107 112.701 36.864C113.213 37.7173 113.821 38.3573 114.525 38.784V27.2H119.997V40.448C119.997 41.4293 119.879 42.4107 119.645 43.392C119.431 44.3733 119.175 45.0987 118.877 45.568H112.541ZM122.116 40L122.052 39.936C122.478 39.4027 122.809 38.8587 123.044 38.304C123.3 37.728 123.428 37.1733 123.428 36.64C123.428 36.2133 123.3 35.7333 123.044 35.2C122.809 34.6453 122.585 34.1653 122.372 33.76C122.158 33.376 121.966 32.9707 121.796 32.544C121.646 32.096 121.572 31.584 121.572 31.008C121.572 29.536 122.03 28.2667 122.948 27.2H128.516L128.58 27.264C128.11 27.7973 127.758 28.352 127.524 28.928C127.31 29.504 127.204 30.0267 127.204 30.496C127.204 30.9013 127.289 31.328 127.46 31.776C127.63 32.2027 127.833 32.6293 128.068 33.056C128.302 33.4613 128.537 33.952 128.772 34.528C129.006 35.104 129.124 35.7333 129.124 36.416C129.124 37.7387 128.718 38.9333 127.908 40H122.116ZM131.645 40C131.346 39.5307 131.079 38.8053 130.845 37.824C130.631 36.8427 130.525 35.8613 130.525 34.88V24H135.997V27.2H137.917V31.04H135.997V33.76C135.997 35.168 136.189 36.3627 136.573 37.344C136.978 38.304 137.458 39.168 138.013 39.936V40H131.645ZM140.367 40C139.663 39.424 139.172 38.7307 138.895 37.92C138.639 37.088 138.511 36.2987 138.511 35.552C138.511 34.6347 138.671 33.7493 138.991 32.896C139.311 32.0427 139.769 31.4133 140.367 31.008H146.095C145.924 30.2613 145.689 29.5787 145.391 28.96C145.092 28.3413 144.74 27.776 144.335 27.264V27.2H150.703C151.001 27.6693 151.257 28.3947 151.471 29.376C151.705 30.336 151.823 31.3173 151.823 32.32V40H140.367ZM146.351 38.944V33.44C146.351 33.2053 146.34 32.992 146.319 32.8C146.319 32.5867 146.308 32.384 146.286 32.192C145.689 32.4693 145.156 32.8853 144.687 33.44C144.217 33.9733 143.983 34.6453 143.983 35.456C143.983 36.16 144.175 36.8427 144.559 37.504C144.964 38.1653 145.561 38.6453 146.351 38.944ZM154.832 40C154.534 39.5307 154.267 38.8053 154.032 37.824C153.819 36.8427 153.712 35.8613 153.712 34.88V21.632H159.12V33.76C159.12 35.168 159.312 36.3627 159.696 37.344C160.08 38.304 160.56 39.168 161.136 39.936L161.104 40H154.832ZM161.866 40L161.802 39.936C162.228 39.4027 162.559 38.8587 162.794 38.304C163.05 37.728 163.178 37.1733 163.178 36.64C163.178 36.2133 163.05 35.7333 162.794 35.2C162.559 34.6453 162.335 34.1653 162.122 33.76C161.908 33.376 161.716 32.9707 161.546 32.544C161.396 32.096 161.322 31.584 161.322 31.008C161.322 29.536 161.78 28.2667 162.698 27.2H168.266L168.33 27.264C167.86 27.7973 167.508 28.352 167.274 28.928C167.06 29.504 166.954 30.0267 166.954 30.496C166.954 30.9013 167.039 31.328 167.21 31.776C167.38 32.2027 167.583 32.6293 167.818 33.056C168.052 33.4613 168.287 33.952 168.522 34.528C168.756 35.104 168.874 35.7333 168.874 36.416C168.874 37.7387 168.468 38.9333 167.658 40H161.866Z" fill="black"/>
<path d="M141.288 112.476L129.548 116L120.346 112.476L114 67.6214L129.548 50L147 67.6214L141.288 112.476Z" fill="white"/>
<path d="M129.548 116L141.288 112.476L147 67.6214M129.548 116V72.7476M129.548 116L120.346 112.476L114 67.6214M147 67.6214L129.548 72.7476M147 67.6214L129.548 50M129.548 72.7476V50M129.548 72.7476L114 67.6214M129.548 50L114 67.6214" stroke="black" stroke-width="2" stroke-linecap="round" stroke-linejoin="round"/>
<path d="M126.5 58L119.5 66L126.5 68.5V58Z" stroke="black" stroke-width="2" stroke-linecap="round" stroke-linejoin="round"/>
<path d="M126.5 76L118 73L119.5 107L126.5 111V76Z" stroke="black" stroke-width="2" stroke-linecap="round" stroke-linejoin="round"/>
<path d="M122 116.5L112.5 123L100 120L91 91L100 72.5L120.5 83.5L122 116.5Z" fill="white"/>
<path d="M112.5 123L122 116.5L120.5 83.5M112.5 123L105.048 95M112.5 123L100 120L91 91M120.5 83.5L105.048 95M120.5 83.5L100 72.5M105.048 95L100 72.5M105.048 95L91 91M100 72.5L91 91" stroke="black" stroke-width="2" stroke-linecap="round" stroke-linejoin="round"/>
<path d="M95.5 88.5L99 82.5L101 90.5L95.5 88.5Z" stroke="black" stroke-width="2" stroke-linecap="round" stroke-linejoin="round"/>
<path d="M103 97.5L95.5 95.5L102 117L109 119L103 97.5Z" stroke="black" stroke-width="2" stroke-linecap="round" stroke-linejoin="round"/>
<path d="M159 120L150.5 121.5L143 118.723L141 83.3835L155.5 72L167 84.5L159 120Z" fill="white"/>
<path d="M150.5 121.5L159 120L167 84.5M150.5 121.5V88M150.5 121.5L143 118.723L141 83.3835M167 84.5L150.5 88M167 84.5L155.5 72M150.5 88L155.5 72M150.5 88L141 83.3835M155.5 72L141 83.3835" stroke="black" stroke-width="2" stroke-linecap="round" stroke-linejoin="round"/>
<path d="M150.5 79L145.5 83L149 84.5L150.5 79Z" stroke="black" stroke-width="2" stroke-linecap="round" stroke-linejoin="round"/>
<path d="M147.5 90.5L144 89L145.5 117L148 118L147.5 90.5Z" stroke="black" stroke-width="2" stroke-linecap="round" stroke-linejoin="round"/>
</g>
<rect x="2" y="2" width="252" height="124" rx="22" stroke="white" stroke-width="4"/>
<defs>
<clipPath id="clip0_473_151">
<rect width="256" height="128" rx="24" fill="white"/>
</clipPath>
</defs>
</svg>
