<svg width="239" height="64" viewBox="0 0 239 64" fill="none" xmlns="http://www.w3.org/2000/svg">
<rect width="239" height="64" rx="32" fill="white"/>
<path d="M34.2812 43.7344C32.7083 43.7344 31.3229 43.3854 30.125 42.6875C28.9375 41.9896 28.0156 41 27.3594 39.7188C26.7031 38.4375 26.375 36.9531 26.375 35.2656V29.0312C26.375 27.3438 26.7031 25.8594 27.3594 24.5781C28.0156 23.2969 28.9375 22.3073 30.125 21.6094C31.3229 20.901 32.7083 20.5469 34.2812 20.5469C35.5833 20.5469 36.7812 20.8281 37.875 21.3906C38.9688 21.9427 39.8802 22.7292 40.6094 23.75C41.349 24.7708 41.849 25.9531 42.1094 27.2969H38.8438C38.6458 26.5885 38.3125 25.9583 37.8438 25.4062C37.3854 24.8438 36.8438 24.4115 36.2188 24.1094C35.5938 23.8073 34.9479 23.6562 34.2812 23.6562C33.3542 23.6562 32.5417 23.8802 31.8438 24.3281C31.1458 24.776 30.6042 25.4062 30.2188 26.2188C29.8333 27.0208 29.6406 27.9583 29.6406 29.0312V35.2656C29.6406 36.3281 29.8333 37.2656 30.2188 38.0781C30.6042 38.8906 31.1458 39.5208 31.8438 39.9688C32.5417 40.4062 33.3542 40.625 34.2812 40.625C34.9583 40.625 35.6042 40.4844 36.2188 40.2031C36.8438 39.9219 37.3854 39.5052 37.8438 38.9531C38.3125 38.401 38.6458 37.7448 38.8438 36.9844H42.1094C41.849 38.3281 41.349 39.5104 40.6094 40.5312C39.8698 41.5521 38.9531 42.3438 37.8594 42.9062C36.7656 43.4583 35.5729 43.7344 34.2812 43.7344ZM56.125 27.2812H59.2969V43.5H56.125V27.2812ZM49.5312 37.1406C49.5312 38.276 49.8177 39.1562 50.3906 39.7812C50.974 40.3958 51.7917 40.7031 52.8438 40.7031C53.8854 40.7031 54.6927 40.4271 55.2656 39.875C55.8385 39.3229 56.125 38.5365 56.125 37.5156L56.3438 40.9062C56.0104 41.7083 55.4688 42.3802 54.7188 42.9219C53.9688 43.4635 53.0469 43.7344 51.9531 43.7344C50.1615 43.7344 48.776 43.1615 47.7969 42.0156C46.8281 40.8594 46.3438 39.2344 46.3438 37.1406V27.2812H49.5312V37.1406ZM69.8906 43.7344C68.9323 43.7344 68.0312 43.6406 67.1875 43.4531C66.3542 43.2656 65.5729 42.9844 64.8438 42.6094C64.1146 42.2344 63.4427 41.7656 62.8281 41.2031L64.7188 38.875C65.5938 39.5417 66.4635 40.0417 67.3281 40.375C68.1927 40.7083 69.0469 40.875 69.8906 40.875C71.151 40.875 72.0938 40.6823 72.7188 40.2969C73.3542 39.901 73.6719 39.3125 73.6719 38.5312C73.6719 38.0104 73.5 37.6198 73.1562 37.3594C72.8125 37.099 72.3854 36.9271 71.875 36.8438C71.3646 36.75 70.6458 36.6667 69.7188 36.5938C69.6354 36.5938 69.5469 36.5938 69.4531 36.5938C69.3594 36.5833 69.2708 36.5729 69.1875 36.5625C69.1458 36.5625 69.1042 36.5625 69.0625 36.5625C69.0208 36.5521 68.9792 36.5469 68.9375 36.5469C67.8854 36.4635 66.9948 36.3125 66.2656 36.0938C65.5365 35.8646 64.9271 35.4427 64.4375 34.8281C63.9583 34.2135 63.7188 33.3333 63.7188 32.1875C63.7188 31.0417 63.9531 30.0885 64.4219 29.3281C64.8906 28.5677 65.5885 28 66.5156 27.625C67.4427 27.2396 68.6042 27.0469 70 27.0469C70.8438 27.0469 71.6458 27.125 72.4062 27.2812C73.1771 27.4375 73.9115 27.6719 74.6094 27.9844C75.3073 28.2865 75.9792 28.6719 76.625 29.1406L74.7031 31.4688C73.8906 30.9479 73.0885 30.5573 72.2969 30.2969C71.5156 30.0365 70.75 29.9062 70 29.9062C68.9167 29.9062 68.1042 30.0938 67.5625 30.4688C67.0208 30.8333 66.75 31.3854 66.75 32.125C66.75 32.5625 66.901 32.8906 67.2031 33.1094C67.5156 33.3281 67.9062 33.474 68.375 33.5469C68.8438 33.6198 69.5104 33.6823 70.375 33.7344C70.4375 33.7448 70.5 33.75 70.5625 33.75C70.6354 33.75 70.7083 33.7552 70.7812 33.7656C70.8125 33.7656 70.8438 33.7656 70.875 33.7656C70.9062 33.7656 70.9375 33.7708 70.9688 33.7812C72.1042 33.8542 73.0677 34.0052 73.8594 34.2344C74.6615 34.4635 75.3333 34.9167 75.875 35.5938C76.4167 36.2708 76.6875 37.25 76.6875 38.5312C76.6875 39.6979 76.4375 40.6667 75.9375 41.4375C75.4375 42.1979 74.6823 42.7708 73.6719 43.1562C72.6719 43.5417 71.4115 43.7344 69.8906 43.7344ZM84.9688 43.5781C83.6562 43.5781 82.6927 43.2188 82.0781 42.5C81.474 41.7708 81.1719 40.6979 81.1719 39.2812V22.5625H84.3594V39.3125C84.3594 39.7083 84.4375 40.0156 84.5938 40.2344C84.75 40.4427 84.9792 40.5469 85.2812 40.5469H86.8125V43.5781H84.9688ZM79.5 27.2812H86.8125V30.1562H79.5V27.2812ZM97.4062 43.7344C96 43.7344 94.7969 43.4583 93.7969 42.9062C92.7969 42.3542 92.0312 41.5521 91.5 40.5C90.9792 39.4375 90.7188 38.1615 90.7188 36.6719V34.0312C90.7188 32.5625 90.9792 31.3073 91.5 30.2656C92.0312 29.2135 92.7969 28.4167 93.7969 27.875C94.7969 27.3229 96 27.0469 97.4062 27.0469C98.8125 27.0469 100.016 27.3229 101.016 27.875C102.016 28.4167 102.776 29.2135 103.297 30.2656C103.828 31.3073 104.094 32.5625 104.094 34.0312V36.7188C104.094 38.1979 103.828 39.4635 103.297 40.5156C102.776 41.5573 102.016 42.3542 101.016 42.9062C100.016 43.4583 98.8125 43.7344 97.4062 43.7344ZM97.4062 40.7031C98.5208 40.7031 99.3802 40.3542 99.9844 39.6562C100.599 38.9583 100.906 37.9792 100.906 36.7188V34.0312C100.906 32.7708 100.599 31.7969 99.9844 31.1094C99.3802 30.4219 98.5208 30.0781 97.4062 30.0781C96.2917 30.0781 95.4271 30.4219 94.8125 31.1094C94.2083 31.7969 93.9062 32.7708 93.9062 34.0312V36.7188C93.9062 37.9792 94.2083 38.9583 94.8125 39.6562C95.4271 40.3542 96.2917 40.7031 97.4062 40.7031ZM128 33.6719C128 32.526 127.703 31.6406 127.109 31.0156C126.516 30.3906 125.682 30.0781 124.609 30.0781C123.62 30.0781 122.854 30.3802 122.312 30.9844C121.771 31.5885 121.5 32.4427 121.5 33.5469L120.859 30.4219C121.37 29.349 122.042 28.5208 122.875 27.9375C123.719 27.3438 124.646 27.0469 125.656 27.0469C126.823 27.0469 127.818 27.3073 128.641 27.8281C129.474 28.3385 130.104 29.0885 130.531 30.0781C130.969 31.0677 131.188 32.2604 131.188 33.6562V43.5H128V33.6719ZM108.625 27.2812H111.812V43.5H108.625V27.2812ZM118.312 33.6719C118.312 32.526 118.031 31.6406 117.469 31.0156C116.906 30.3906 116.109 30.0781 115.078 30.0781C114.036 30.0781 113.229 30.3542 112.656 30.9062C112.094 31.4583 111.812 32.2344 111.812 33.2344L111.484 30.1094C111.984 29.1302 112.635 28.375 113.438 27.8438C114.25 27.3125 115.146 27.0469 116.125 27.0469C117.26 27.0469 118.229 27.3073 119.031 27.8281C119.833 28.3385 120.443 29.0885 120.859 30.0781C121.286 31.0677 121.5 32.2604 121.5 33.6562V43.5H118.312V33.6719ZM158.141 20.7812H161.125V43.5H158.016V26.4844L158.172 27.4844L152.578 40.3438H150.359L144.766 27.7969L144.922 26.4844V43.5H141.812V20.7812H144.797L151.469 35.7812L158.141 20.7812ZM175.594 33.2188C175.594 32.1562 175.307 31.3333 174.734 30.75C174.172 30.1562 173.37 29.8594 172.328 29.8594C171.682 29.8594 171.047 29.9583 170.422 30.1562C169.807 30.3542 169.26 30.6302 168.781 30.9844L166.453 29.3906C167.068 28.651 167.875 28.0781 168.875 27.6719C169.885 27.2552 171.005 27.0469 172.234 27.0469C173.578 27.0469 174.729 27.2865 175.688 27.7656C176.646 28.2344 177.375 28.9219 177.875 29.8281C178.375 30.724 178.625 31.8073 178.625 33.0781V43.5H175.594V33.2188ZM171.625 43.7344C169.625 43.7344 168.13 43.3229 167.141 42.5C166.151 41.6667 165.656 40.4062 165.656 38.7188C165.656 37.1146 166.109 35.9115 167.016 35.1094C167.922 34.3073 169.292 33.9062 171.125 33.9062H175.734L175.953 36.4688H171.141C170.307 36.4688 169.682 36.6562 169.266 37.0312C168.859 37.3958 168.656 37.9583 168.656 38.7188C168.656 39.5417 168.927 40.151 169.469 40.5469C170.021 40.9427 170.854 41.1406 171.969 41.1406C173.188 41.1406 174.094 41.0104 174.688 40.75C175.292 40.4896 175.594 40.0833 175.594 39.5312L175.922 41.8125C175.641 42.25 175.292 42.6094 174.875 42.8906C174.469 43.1719 173.995 43.3802 173.453 43.5156C172.911 43.6615 172.302 43.7344 171.625 43.7344ZM183.469 27.2812H186.656V50.0938H183.469V27.2812ZM190.734 43.7344C189.724 43.7344 188.844 43.4948 188.094 43.0156C187.344 42.526 186.792 41.8385 186.438 40.9531L186.656 37.5625C186.656 38.2604 186.781 38.8542 187.031 39.3438C187.281 39.8333 187.641 40.2083 188.109 40.4688C188.589 40.7292 189.167 40.8594 189.844 40.8594C190.896 40.8594 191.708 40.5417 192.281 39.9062C192.865 39.2604 193.156 38.3542 193.156 37.1875V33.6719C193.156 32.4844 192.865 31.5625 192.281 30.9062C191.708 30.25 190.896 29.9219 189.844 29.9219C189.167 29.9219 188.589 30.0469 188.109 30.2969C187.641 30.5469 187.281 30.9167 187.031 31.4062C186.781 31.8854 186.656 32.4635 186.656 33.1406L186.328 30.0156C186.818 29.0677 187.458 28.3385 188.25 27.8281C189.042 27.3073 189.922 27.0469 190.891 27.0469C192.036 27.0469 193.016 27.3073 193.828 27.8281C194.651 28.3385 195.276 29.0885 195.703 30.0781C196.13 31.0677 196.344 32.2604 196.344 33.6562V37.1875C196.344 38.5625 196.125 39.7396 195.688 40.7188C195.25 41.6979 194.609 42.4479 193.766 42.9688C192.922 43.4792 191.911 43.7344 190.734 43.7344ZM206.609 43.7344C205.651 43.7344 204.75 43.6406 203.906 43.4531C203.073 43.2656 202.292 42.9844 201.562 42.6094C200.833 42.2344 200.161 41.7656 199.547 41.2031L201.438 38.875C202.312 39.5417 203.182 40.0417 204.047 40.375C204.911 40.7083 205.766 40.875 206.609 40.875C207.87 40.875 208.812 40.6823 209.438 40.2969C210.073 39.901 210.391 39.3125 210.391 38.5312C210.391 38.0104 210.219 37.6198 209.875 37.3594C209.531 37.099 209.104 36.9271 208.594 36.8438C208.083 36.75 207.365 36.6667 206.438 36.5938C206.354 36.5938 206.266 36.5938 206.172 36.5938C206.078 36.5833 205.99 36.5729 205.906 36.5625C205.865 36.5625 205.823 36.5625 205.781 36.5625C205.74 36.5521 205.698 36.5469 205.656 36.5469C204.604 36.4635 203.714 36.3125 202.984 36.0938C202.255 35.8646 201.646 35.4427 201.156 34.8281C200.677 34.2135 200.438 33.3333 200.438 32.1875C200.438 31.0417 200.672 30.0885 201.141 29.3281C201.609 28.5677 202.307 28 203.234 27.625C204.161 27.2396 205.323 27.0469 206.719 27.0469C207.562 27.0469 208.365 27.125 209.125 27.2812C209.896 27.4375 210.63 27.6719 211.328 27.9844C212.026 28.2865 212.698 28.6719 213.344 29.1406L211.422 31.4688C210.609 30.9479 209.807 30.5573 209.016 30.2969C208.234 30.0365 207.469 29.9062 206.719 29.9062C205.635 29.9062 204.823 30.0938 204.281 30.4688C203.74 30.8333 203.469 31.3854 203.469 32.125C203.469 32.5625 203.62 32.8906 203.922 33.1094C204.234 33.3281 204.625 33.474 205.094 33.5469C205.562 33.6198 206.229 33.6823 207.094 33.7344C207.156 33.7448 207.219 33.75 207.281 33.75C207.354 33.75 207.427 33.7552 207.5 33.7656C207.531 33.7656 207.562 33.7656 207.594 33.7656C207.625 33.7656 207.656 33.7708 207.688 33.7812C208.823 33.8542 209.786 34.0052 210.578 34.2344C211.38 34.4635 212.052 34.9167 212.594 35.5938C213.135 36.2708 213.406 37.25 213.406 38.5312C213.406 39.6979 213.156 40.6667 212.656 41.4375C212.156 42.1979 211.401 42.7708 210.391 43.1562C209.391 43.5417 208.13 43.7344 206.609 43.7344Z" fill="black"/>
</svg>
