<svg xmlns="http://www.w3.org/2000/svg" width="366.966" height="180.486" viewBox="0 0 97.093 47.753">
  <path id="bg" d="M73.228 47.731c13.18 0 23.865-10.685 23.865-23.865C97.093 10.686 86.408 0 73.228 0L23.866.022C10.686.022 0 10.708 0 23.888s10.685 23.865 23.866 23.865z"/>
  <path id="icon" fill="#fff" d="M51.373 673.797c-.937 0-1.762.21-2.475.633a4.242 4.242 0 0 0-1.646 1.767c-.39.763-.586 1.646-.586 2.651v3.711c0 1.005.195 1.889.586 2.651.39.763.94 1.352 1.646 1.768.713.415 1.538.623 2.475.623a4.66 4.66 0 0 0 2.13-.493 4.594 4.594 0 0 0 1.637-1.414 5.25 5.25 0 0 0 .893-2.111h-1.944a2.917 2.917 0 0 1-.596 1.172 2.74 2.74 0 0 1-2.12.995c-.552 0-1.036-.13-1.451-.39a2.65 2.65 0 0 1-.968-1.126c-.23-.484-.344-1.042-.344-1.675v-3.711c0-.639.115-1.197.344-1.674a2.65 2.65 0 0 1 .968-1.126c.415-.267.899-.4 1.45-.4.397 0 .782.09 1.154.27.372.18.695.437.967.772.28.329.478.704.596 1.125h1.944a5.25 5.25 0 0 0-.893-2.111 4.43 4.43 0 0 0-1.628-1.405 4.608 4.608 0 0 0-2.14-.502zm27.896 1.2v2.81h-.996v1.71h.996v5.433c0 .843.18 1.482.539 1.916.366.428.94.642 1.72.642h1.098v-1.805h-.911c-.18 0-.316-.062-.41-.186-.092-.13-.139-.313-.139-.548v-5.451h1.46v-1.712h-1.46v-2.809zm-6.651 2.67c-.831 0-1.523.114-2.075.344-.551.223-.967.561-1.246 1.014-.279.452-.419 1.02-.419 1.702 0 .682.143 1.206.428 1.572.292.366.655.617 1.089.753.434.13.964.22 1.59.27.025 0 .05.003.075.01h.074l.158.018h.158c.552.043.98.093 1.284.149.304.05.558.151.763.306.204.156.307.388.307.698 0 .465-.19.816-.568 1.051-.372.23-.933.344-1.683.344-.503 0-1.011-.099-1.526-.297a6.354 6.354 0 0 1-1.553-.893l-1.126 1.386a5.49 5.49 0 0 0 1.2.837c.434.223.9.39 1.395.502a7.406 7.406 0 0 0 1.61.168v-.001c.905 0 1.655-.115 2.25-.345.602-.229 1.052-.57 1.35-1.023.297-.459.446-1.035.446-1.73 0-.763-.161-1.346-.484-1.749a2.326 2.326 0 0 0-1.2-.809c-.471-.136-1.045-.226-1.72-.27a.18.18 0 0 0-.056-.009h-.056a.95.95 0 0 0-.13-.009.7.7 0 0 1-.112-.009 13.578 13.578 0 0 1-1.19-.111 1.64 1.64 0 0 1-.698-.26c-.18-.13-.27-.326-.27-.587 0-.44.161-.769.484-.986.322-.223.806-.335 1.45-.335.447 0 .903.078 1.368.233.471.155.949.388 1.433.698l1.144-1.386a6.303 6.303 0 0 0-1.2-.689 6.224 6.224 0 0 0-1.312-.418 7.106 7.106 0 0 0-1.432-.14zm16.315 0c-.837 0-1.553.164-2.149.493a3.23 3.23 0 0 0-1.367 1.423c-.31.62-.465 1.367-.465 2.242v1.572c0 .886.155 1.646.465 2.278a3.285 3.285 0 0 0 1.367 1.433c.596.329 1.312.493 2.15.493.836 0 1.552-.164 2.148-.493a3.241 3.241 0 0 0 1.358-1.423c.316-.627.474-1.38.474-2.26v-1.6c0-.875-.158-1.622-.474-2.242a3.177 3.177 0 0 0-1.358-1.423c-.596-.329-1.312-.493-2.149-.493zm11.144 0c-.583 0-1.117.158-1.6.474-.38.252-.701.592-.968 1.013v-1.348h-1.897v9.655h1.897v-6.11c0-.596.168-1.058.503-1.387.34-.329.821-.493 1.441-.493.614 0 1.089.186 1.424.558.334.372.502.9.502 1.582v5.85h1.897v-5.86c0-.028-.003-.053-.003-.08l.003.015c0-.657.162-1.166.484-1.525.323-.36.778-.54 1.367-.54.64 0 1.135.186 1.489.558.353.372.53.9.53 1.582v5.85h1.897v-5.86c0-.83-.13-1.54-.39-2.13-.254-.589-.63-1.035-1.126-1.34-.49-.31-1.082-.464-1.776-.464-.602 0-1.154.176-1.656.53-.474.332-.857.8-1.156 1.398-.015-.04-.027-.085-.044-.124-.248-.589-.61-1.035-1.088-1.34-.478-.31-1.054-.464-1.73-.464zm-41.533.14v5.869c0 1.246.289 2.213.865 2.902.583.682 1.408 1.023 2.475 1.023.65 0 1.2-.161 1.646-.484.362-.261.638-.577.837-.94v1.284h1.888v-9.655h-1.888v6.093c0 .608-.17 1.076-.511 1.404-.342.329-.822.493-1.442.493-.627 0-1.113-.183-1.46-.548-.342-.373-.512-.897-.512-1.572v-5.87zm30.39 1.664c.663 0 1.174.205 1.534.614.366.41.549.99.549 1.74v1.6c0 .75-.183 1.333-.55 1.748-.359.416-.87.623-1.534.623-.663 0-1.178-.207-1.544-.623-.36-.415-.54-.998-.54-1.749v-1.6c0-.75.18-1.33.54-1.739.366-.41.88-.614 1.544-.614zm-32.018 11.61v13.525h1.851v-9.14l3.237 7.261h1.321l3.237-7.441v9.32h1.851v-13.525h-1.776l-3.972 8.93-3.972-8.93zm18.11 3.73c-.73 0-1.397.124-1.999.372-.595.242-1.076.583-1.442 1.024l1.386.948c.286-.21.611-.375.977-.493.372-.117.75-.176 1.135-.176.62 0 1.097.176 1.432.53.341.347.512.837.512 1.47v.409h-2.66c-1.092 0-1.907.239-2.447.716-.54.478-.81 1.194-.81 2.149 0 1.004.295 1.755.885 2.25.589.49 1.479.736 2.67.736a4.19 4.19 0 0 0 1.087-.13c.323-.081.605-.205.847-.373.162-.109.3-.245.428-.394v.757h1.804v-6.204c0-.757-.148-1.402-.446-1.935a2.905 2.905 0 0 0-1.302-1.228c-.57-.285-1.256-.428-2.056-.428zm11.107 0c-.576 0-1.1.155-1.572.465-.373.241-.688.567-.949.972v-1.297h-1.897v13.58h1.897v-5.172c.208.397.49.72.856.959.447.285.97.428 1.572.428.701 0 1.302-.152 1.805-.456.502-.31.883-.757 1.144-1.34.26-.583.39-1.283.39-2.102v-2.102c0-.831-.127-1.541-.38-2.13-.255-.59-.627-1.036-1.117-1.34-.484-.31-1.067-.465-1.749-.465zm9.423 0c-.831 0-1.522.116-2.074.345-.552.223-.968.561-1.247 1.014-.279.453-.418 1.02-.418 1.702 0 .682.142 1.206.427 1.572.292.366.655.617 1.089.754.434.13.964.22 1.59.27.025 0 .05.002.075.008h.074l.158.019h.158c.552.043.98.093 1.284.149.304.05.558.152.763.307.205.155.307.387.307.697 0 .465-.19.816-.568 1.051-.372.23-.933.345-1.683.345-.502 0-1.011-.1-1.526-.298a6.354 6.354 0 0 1-1.553-.893l-1.126 1.386c.366.335.766.614 1.2.837.434.223.9.39 1.396.502a7.406 7.406 0 0 0 1.609.168c.905 0 1.656-.115 2.25-.345.602-.23 1.052-.57 1.35-1.023.297-.459.446-1.036.446-1.73 0-.763-.161-1.346-.484-1.749a2.326 2.326 0 0 0-1.2-.81c-.47-.136-1.044-.226-1.72-.269a.18.18 0 0 0-.056-.009h-.056a.95.95 0 0 0-.13-.009.7.7 0 0 1-.112-.009 13.582 13.582 0 0 1-1.19-.112 1.64 1.64 0 0 1-.698-.26c-.18-.13-.27-.326-.27-.586 0-.44.161-.769.484-.986.322-.223.806-.335 1.45-.335.447 0 .903.078 1.368.233.472.155.95.387 1.433.697l1.144-1.386a6.304 6.304 0 0 0-1.2-.688 6.223 6.223 0 0 0-1.312-.419 7.106 7.106 0 0 0-1.432-.14zm-10.046 1.712c.626 0 1.11.195 1.451.586.347.39.521.94.521 1.646v2.093c0 .695-.174 1.234-.52 1.619-.342.378-.826.567-1.452.567-.403 0-.747-.077-1.032-.232a1.557 1.557 0 0 1-.642-.67c-.15-.292-.224-.645-.224-1.06v-2.633c0-.403.075-.747.224-1.032.149-.292.362-.512.642-.66.285-.15.629-.224 1.032-.224zm-11.134 3.897h2.65v1.823c0 .33-.179.57-.539.726-.353.155-.893.233-1.618.233-.664 0-1.16-.118-1.488-.354-.323-.236-.484-.598-.484-1.088 0-.453.12-.788.363-1.005.248-.223.62-.335 1.116-.335z" font-family="Bahnschrift" font-size="19.05" style="line-height:.9;-inkscape-font-specification:'Bahnschrift, Normal';text-align:center" text-anchor="middle" transform="translate(-29.8 -666.505)"/>
</svg>
