<svg xmlns="http://www.w3.org/2000/svg" width="386.966" height="180.486" viewBox="0 0 102.385 47.753">
  <path id="bg" d="M78.52 47.731c13.18 0 23.865-10.685 23.865-23.865C102.385 10.686 91.7 0 78.52 0L23.866.022C10.686.022 0 10.708 0 23.888s10.685 23.865 23.866 23.865z"/>
  <path id="icon" fill="#fff" d="M51.228 594.59v13.525h4.279c1.085 0 2.012-.19 2.781-.568a3.945 3.945 0 0 0 1.768-1.655c.403-.726.604-1.6.604-2.623v-3.833c0-1.023-.201-1.897-.604-2.623a3.954 3.954 0 0 0-1.758-1.656c-.77-.378-1.696-.567-2.781-.567h-2.391zm22.53 0v11.013c0 .813.195 1.442.585 1.889.397.446.955.67 1.675.67h1.116v-1.805h-.893a.543.543 0 0 1-.437-.186c-.1-.13-.15-.313-.15-.55V594.59zm15.98 1.06v2.81h-.996v1.711h.996v5.432c0 .844.18 1.482.54 1.916.365.428.939.642 1.72.642h1.098v-1.804h-.912c-.18 0-.316-.062-.41-.186-.092-.13-.139-.313-.139-.55v-5.45h1.46v-1.711h-1.46v-2.81zm-36.612.745h2.446c.999 0 1.77.26 2.316.78.552.516.828 1.244.828 2.187v3.981c0 .943-.276 1.674-.828 2.195-.545.515-1.317.772-2.316.772h-2.446zm14.204 1.925c-.856 0-1.588.177-2.195.53-.608.354-1.073.868-1.396 1.544-.316.676-.474 1.492-.474 2.447v1.088c0 .918.164 1.702.493 2.353a3.39 3.39 0 0 0 1.45 1.47c.633.335 1.396.502 2.29.502.6 0 1.2-.124 1.794-.372a5.325 5.325 0 0 0 1.61-1.07l-1.247-1.246a3.3 3.3 0 0 1-1.014.651c-.378.155-.76.233-1.144.233-.775 0-1.373-.214-1.795-.642-.406-.412-.612-1.001-.627-1.758h6.078v-.633c0-1.066-.152-1.98-.456-2.744-.298-.762-.732-1.345-1.302-1.748-.57-.403-1.26-.605-2.065-.605zm15.729 0c-.856 0-1.587.177-2.195.53-.608.354-1.073.868-1.395 1.544-.317.676-.475 1.492-.475 2.447v1.088c0 .918.164 1.702.493 2.353a3.39 3.39 0 0 0 1.451 1.47c.633.335 1.395.502 2.288.502.602 0 1.2-.124 1.796-.372a5.325 5.325 0 0 0 1.609-1.07l-1.247-1.246a3.3 3.3 0 0 1-1.013.651c-.379.155-.76.233-1.145.233-.775 0-1.373-.214-1.795-.642-.406-.412-.612-1.001-.627-1.758h6.078v-.633c0-1.066-.152-1.98-.456-2.744-.297-.762-.731-1.345-1.302-1.748-.57-.403-1.259-.605-2.065-.605zm16.427 0c-.856 0-1.588.177-2.195.53-.608.354-1.073.868-1.396 1.544-.316.676-.474 1.492-.474 2.447v1.088c0 .918.164 1.702.493 2.353a3.39 3.39 0 0 0 1.451 1.47c.633.335 1.395.502 2.288.502.602 0 1.2-.124 1.796-.372a5.325 5.325 0 0 0 1.609-1.07l-1.247-1.246a3.3 3.3 0 0 1-1.014.651c-.378.155-.76.233-1.144.233-.775 0-1.373-.214-1.795-.642-.406-.412-.612-1.001-.627-1.758h6.078v-.633c0-1.066-.152-1.98-.456-2.744-.297-.762-.732-1.345-1.302-1.748-.57-.403-1.259-.605-2.065-.605zm-32.156 1.712c.589 0 1.057.22 1.404.66.354.434.558 1.045.614 1.832h-4.266c.032-.755.217-1.356.573-1.785.397-.472.955-.707 1.675-.707zm15.729 0c.59 0 1.057.22 1.405.66.353.434.558 1.045.613 1.832h-4.265c.03-.755.216-1.356.573-1.785.397-.472.955-.707 1.674-.707zm16.427 0c.589 0 1.057.22 1.404.66.354.434.559 1.045.614 1.832H97.24c.03-.755.216-1.356.573-1.785.396-.472.955-.707 1.674-.707zm-57.931 11.703v13.525h1.897v-5.246h3.34c.806 0 1.516-.17 2.13-.512a3.54 3.54 0 0 0 1.423-1.442c.34-.626.511-1.351.511-2.176 0-.825-.17-1.55-.511-2.177a3.526 3.526 0 0 0-1.423-1.45c-.614-.348-1.324-.522-2.13-.522h-3.34zm11.673 0v11.014c0 .812.196 1.441.586 1.888.397.446.955.67 1.675.67h1.116v-1.805h-.893a.543.543 0 0 1-.437-.186c-.1-.13-.15-.313-.15-.549v-11.032zm24.464 0c-.819 0-1.426.214-1.823.642-.39.422-.586 1.06-.586 1.916v1.312H74.26v1.618h1.023v8.037h1.897v-8.037h1.907v-1.618H77.18v-1.33c0-.217.047-.394.14-.53a.464.464 0 0 1 .41-.205h1.357v-1.805zm-8.65 1.06v2.81h-.996v1.711h.995v5.433c0 .843.18 1.482.54 1.916.366.428.94.642 1.72.642H72.4v-1.805h-.911c-.18 0-.317-.062-.41-.186-.093-.13-.14-.313-.14-.549v-5.45H72.4v-1.712h-1.46v-2.81zm-25.59.745h3.405c.409 0 .769.099 1.079.297.31.193.548.466.716.819.173.353.26.763.26 1.228 0 .459-.087.865-.26 1.218a1.886 1.886 0 0 1-.716.819c-.31.192-.67.288-1.08.288h-3.404zm18.65 1.925c-.732 0-1.398.124-2 .372-.595.242-1.076.583-1.441 1.024l1.385.948c.286-.21.611-.375.977-.493.372-.118.75-.176 1.135-.176.62 0 1.098.176 1.432.53.341.347.512.837.512 1.47v.409h-2.66c-1.092 0-1.907.238-2.447.716-.54.477-.809 1.194-.809 2.149 0 1.004.295 1.755.884 2.25.589.49 1.479.736 2.67.736a4.19 4.19 0 0 0 1.088-.13c.322-.081.604-.205.846-.373.162-.109.3-.246.428-.395v.758h1.805v-6.204c0-.757-.15-1.402-.447-1.935a2.905 2.905 0 0 0-1.302-1.228c-.57-.285-1.256-.428-2.056-.428zm22.362 0c-.838 0-1.554.165-2.15.493a3.23 3.23 0 0 0-1.366 1.423c-.31.62-.466 1.368-.466 2.242v1.572c0 .887.155 1.647.466 2.28a3.285 3.285 0 0 0 1.367 1.432c.595.328 1.311.493 2.149.493.837 0 1.553-.165 2.148-.493a3.241 3.241 0 0 0 1.358-1.424c.317-.626.475-1.38.475-2.26v-1.6c0-.874-.158-1.621-.475-2.242a3.177 3.177 0 0 0-1.358-1.423c-.595-.328-1.311-.493-2.148-.493zm11.097 0c-.57 0-1.092.161-1.563.484a3.36 3.36 0 0 0-.958 1.007v-1.351h-1.898v9.655h1.898v-6.111c0-.59.164-1.048.493-1.377.335-.335.803-.502 1.404-.502.335 0 .63.052.884.158.254.105.465.26.633.465l1.237-1.674a2.611 2.611 0 0 0-.94-.558 3.425 3.425 0 0 0-1.19-.196zm8.176 0c-.583 0-1.116.158-1.6.475-.38.252-.701.592-.967 1.013v-1.348h-1.898v9.655h1.898v-6.111c0-.596.167-1.058.502-1.386.34-.329.821-.493 1.442-.493.614 0 1.088.186 1.423.558.335.372.502.9.502 1.581v5.851h1.898v-5.86c0-.028-.003-.053-.003-.08l.003.015c0-.658.16-1.166.483-1.526.323-.36.779-.54 1.368-.54.638 0 1.134.187 1.488.559.353.372.53.9.53 1.581v5.851h1.898v-5.86c0-.831-.13-1.541-.391-2.13-.254-.59-.63-1.036-1.125-1.34-.49-.31-1.083-.465-1.777-.465-.602 0-1.154.177-1.656.53-.474.332-.857.8-1.155 1.398-.016-.04-.028-.084-.045-.123-.248-.59-.61-1.036-1.088-1.34-.478-.31-1.054-.465-1.73-.465zm-19.273 1.805c.663 0 1.175.204 1.534.614.366.409.55.989.55 1.74v1.599c0 .75-.184 1.333-.55 1.749-.36.415-.87.623-1.534.623s-1.179-.208-1.545-.623c-.36-.416-.539-.999-.539-1.749v-1.6c0-.75.18-1.33.54-1.74.365-.409.88-.613 1.544-.613zm-23.013 3.804h2.651v1.823c0 .329-.18.57-.54.726-.353.155-.892.232-1.618.232-.664 0-1.16-.117-1.488-.353-.323-.236-.484-.598-.484-1.088 0-.453.121-.788.363-1.005.248-.223.62-.335 1.116-.335z" font-family="Bahnschrift" font-size="19.05" style="line-height:.9;-inkscape-font-specification:'Bahnschrift, Normal';text-align:center" text-anchor="middle" transform="translate(-25.937 -587.176)"/>
</svg>
