<svg width="226" height="64" viewBox="0 0 226 64" fill="none" xmlns="http://www.w3.org/2000/svg">
<path d="M194 0C211.673 0 226 14.3269 226 32C226 49.6731 211.673 64 194 64H32C14.3269 64 0 49.6731 0 32C0 14.3269 14.3269 0 32 0H194ZM194 12C182.954 12 174 20.9543 174 32C174 43.0457 182.954 52 194 52C205.046 52 214 43.0457 214 32C214 20.9543 205.046 12 194 12Z" fill="white"/>
<path d="M27.7773 37.916H31.3115C32.4645 37.916 33.3561 37.6188 33.9863 37.0244C34.6237 36.4229 34.9424 35.5778 34.9424 34.4893V29.8916C34.9424 28.8031 34.6237 27.9616 33.9863 27.3672C33.3561 26.7656 32.4645 26.4648 31.3115 26.4648H27.7773V24.3809H31.2471C32.5003 24.3809 33.571 24.5993 34.459 25.0361C35.347 25.473 36.0238 26.1104 36.4893 26.9482C36.9548 27.7861 37.1875 28.7959 37.1875 29.9775V34.4033C37.1875 35.585 36.9548 36.5947 36.4893 37.4326C36.0238 38.2705 35.3434 38.9079 34.4482 39.3447C33.5602 39.7816 32.4896 40 31.2363 40H27.7773V37.916ZM26.2949 24.3809H28.4863V40H26.2949V24.3809ZM40.5176 24.3809H42.709V26.5723H40.5176V24.3809ZM40.5176 28.8496H42.709V40H40.5176V28.8496ZM46.0391 28.8496H48.2305V40H46.0391V28.8496ZM52.1729 31.4922C51.9795 31.2559 51.736 31.0768 51.4424 30.9551C51.1488 30.8333 50.8086 30.7725 50.4219 30.7725C49.7272 30.7725 49.1865 30.9658 48.7998 31.3525C48.4202 31.7321 48.2305 32.262 48.2305 32.9424L48.0049 30.7939C48.3486 30.1279 48.7926 29.6123 49.3369 29.2471C49.8812 28.8747 50.4827 28.6885 51.1416 28.6885C51.6501 28.6885 52.1084 28.7637 52.5166 28.9141C52.932 29.0573 53.2936 29.2721 53.6016 29.5586L52.1729 31.4922ZM59.7783 40.1611C58.7471 40.1611 57.8662 39.9678 57.1357 39.5811C56.4053 39.1943 55.8467 38.6286 55.46 37.8838C55.0804 37.1318 54.8906 36.2259 54.8906 35.166V33.9092C54.8906 32.8063 55.0732 31.8646 55.4385 31.084C55.8109 30.3034 56.348 29.709 57.0498 29.3008C57.7516 28.8926 58.5967 28.6885 59.585 28.6885C60.516 28.6885 61.3109 28.9212 61.9697 29.3867C62.6286 29.8522 63.1299 30.5254 63.4736 31.4062C63.8245 32.2871 64 33.3434 64 34.5752V35.3057H56.4805V33.5439H61.916C61.8516 32.6344 61.6152 31.929 61.207 31.4277C60.806 30.9193 60.2653 30.665 59.585 30.665C58.7542 30.665 58.1097 30.9372 57.6514 31.4814C57.2002 32.0257 56.9746 32.7956 56.9746 33.791V35.209C56.9746 36.1328 57.2181 36.8418 57.7051 37.3359C58.1921 37.8301 58.8831 38.0771 59.7783 38.0771C60.2223 38.0771 60.6628 37.9876 61.0996 37.8086C61.5365 37.6296 61.9268 37.3789 62.2705 37.0566L63.71 38.4961C63.1585 39.026 62.5391 39.4378 61.8516 39.7314C61.1641 40.0179 60.473 40.1611 59.7783 40.1611ZM71.5088 40.1611C70.4919 40.1611 69.6217 39.9714 68.8984 39.5918C68.1823 39.2122 67.6344 38.6608 67.2549 37.9375C66.8753 37.2142 66.6855 36.3405 66.6855 35.3164V33.4795C66.6855 32.4697 66.8753 31.6068 67.2549 30.8906C67.6344 30.1745 68.1823 29.6302 68.8984 29.2578C69.6217 28.8783 70.4919 28.6885 71.5088 28.6885C72.0889 28.6885 72.6331 28.7601 73.1416 28.9033C73.6572 29.0394 74.1191 29.2399 74.5273 29.5049C74.9355 29.7699 75.2757 30.0921 75.5479 30.4717L73.9688 31.8896C73.6536 31.5316 73.2848 31.2559 72.8623 31.0625C72.4398 30.8691 71.9993 30.7725 71.541 30.7725C70.696 30.7725 70.0407 31.0088 69.5752 31.4814C69.1097 31.9541 68.877 32.6201 68.877 33.4795V35.3164C68.877 36.1973 69.1061 36.8776 69.5645 37.3574C70.0299 37.8372 70.6888 38.0771 71.541 38.0771C72.0065 38.0771 72.4505 37.9733 72.873 37.7656C73.2956 37.5579 73.6608 37.2643 73.9688 36.8848L75.5479 38.4102C75.2686 38.7826 74.9248 39.1012 74.5166 39.3662C74.1084 39.624 73.6465 39.821 73.1309 39.957C72.6224 40.0931 72.0817 40.1611 71.5088 40.1611ZM80.8652 40.0537C79.9629 40.0537 79.3005 39.8066 78.8779 39.3125C78.4626 38.8112 78.2549 38.0736 78.2549 37.0996V25.6055H80.4463V37.1211C80.4463 37.3932 80.5 37.6045 80.6074 37.7549C80.7148 37.8981 80.8724 37.9697 81.0801 37.9697H82.1328V40.0537H80.8652ZM77.1055 28.8496H82.1328V30.8262H77.1055V28.8496ZM89.1152 24.3809H91.3066V40H89.1152V24.3809ZM90.2109 37.916H99.1484V40H90.2109V37.916ZM101.512 24.3809H103.703V26.5723H101.512V24.3809ZM101.512 28.8496H103.703V40H101.512V28.8496ZM110.771 44.5332C109.934 44.5332 109.182 44.3757 108.516 44.0605C107.857 43.7526 107.345 43.3158 106.979 42.75L108.462 41.4072C108.748 41.8011 109.089 42.1055 109.482 42.3203C109.883 42.5352 110.302 42.6426 110.739 42.6426C111.577 42.6426 112.225 42.4098 112.684 41.9443C113.142 41.486 113.371 40.8343 113.371 39.9893V28.8496H115.562V39.667C115.562 40.6911 115.373 41.5684 114.993 42.2988C114.621 43.0293 114.076 43.5843 113.36 43.9639C112.644 44.3434 111.781 44.5332 110.771 44.5332ZM110.567 40.1934C109.751 40.1934 109.053 40.0179 108.473 39.667C107.9 39.3089 107.463 38.7897 107.162 38.1094C106.861 37.429 106.711 36.6126 106.711 35.6602V33.2002C106.711 32.2406 106.858 31.4206 107.151 30.7402C107.445 30.0599 107.871 29.5443 108.43 29.1934C108.995 28.8353 109.672 28.6562 110.46 28.6562C111.119 28.6562 111.72 28.8281 112.265 29.1719C112.816 29.5156 113.26 29.999 113.597 30.6221L113.371 32.8994C113.371 32.4268 113.285 32.0221 113.113 31.6855C112.941 31.349 112.691 31.0947 112.361 30.9229C112.039 30.7438 111.645 30.6543 111.18 30.6543C110.456 30.6543 109.894 30.8799 109.493 31.3311C109.099 31.7822 108.902 32.416 108.902 33.2324V35.6602C108.902 36.4694 109.099 37.096 109.493 37.54C109.894 37.9769 110.456 38.1953 111.18 38.1953C111.645 38.1953 112.039 38.1058 112.361 37.9268C112.691 37.7406 112.941 37.4756 113.113 37.1318C113.285 36.7881 113.371 36.3763 113.371 35.8965L113.521 38.249C113.299 38.8005 112.934 39.2624 112.426 39.6348C111.924 40.0072 111.305 40.1934 110.567 40.1934ZM118.893 24.3809H121.084V40H118.893V24.3809ZM125.66 33.2432C125.66 32.4554 125.456 31.8467 125.048 31.417C124.64 30.9873 124.067 30.7725 123.329 30.7725C122.613 30.7725 122.058 30.9587 121.664 31.3311C121.277 31.7035 121.084 32.2298 121.084 32.9102L120.858 30.7617C121.202 30.1029 121.65 29.5944 122.201 29.2363C122.76 28.8711 123.376 28.6885 124.049 28.6885C125.259 28.6885 126.194 29.0859 126.853 29.8809C127.519 30.6686 127.852 31.7858 127.852 33.2324V40H125.66V33.2432ZM134.082 40.0537C133.18 40.0537 132.517 39.8066 132.095 39.3125C131.679 38.8112 131.472 38.0736 131.472 37.0996V25.6055H133.663V37.1211C133.663 37.3932 133.717 37.6045 133.824 37.7549C133.932 37.8981 134.089 37.9697 134.297 37.9697H135.35V40.0537H134.082ZM130.322 28.8496H135.35V30.8262H130.322V28.8496Z" fill="black"/>
<circle cx="194" cy="32" r="20" stroke="black" stroke-width="3"/>
</svg>
