<svg width="168" height="64" viewBox="0 0 168 64" fill="none" xmlns="http://www.w3.org/2000/svg">
<rect width="168" height="64" rx="32" fill="white"/>
<path d="M26.9688 20.7812H30.1562V43.5H26.9688V20.7812ZM28.5156 40.4688H41.5625V43.5H28.5156V40.4688ZM28.5156 30.7031H39.8438V33.7344H28.5156V30.7031ZM28.5156 20.7812H41.5625V23.8125H28.5156V20.7812ZM55 20.7812H58.1875V43.5H55V20.7812ZM50.9219 43.7812C49.7344 43.7812 48.7188 43.526 47.875 43.0156C47.0417 42.4948 46.4062 41.7396 45.9688 40.75C45.5312 39.7604 45.3125 38.5729 45.3125 37.1875V33.6094C45.3125 32.2135 45.526 31.0208 45.9531 30.0312C46.3802 29.0417 47 28.2917 47.8125 27.7812C48.6354 27.2604 49.6198 27 50.7656 27C51.724 27 52.599 27.25 53.3906 27.75C54.1927 28.25 54.8385 28.9531 55.3281 29.8594L55 33.1719C55 32.4844 54.875 31.8958 54.625 31.4062C54.375 30.9167 54.0104 30.5469 53.5312 30.2969C53.0625 30.0365 52.4896 29.9062 51.8125 29.9062C50.7604 29.9062 49.9427 30.2344 49.3594 30.8906C48.7865 31.5469 48.5 32.4688 48.5 33.6562V37.1875C48.5 38.3646 48.7865 39.276 49.3594 39.9219C49.9427 40.5573 50.7604 40.875 51.8125 40.875C52.4896 40.875 53.0625 40.7448 53.5312 40.4844C54.0104 40.2135 54.375 39.8281 54.625 39.3281C54.875 38.8281 55 38.2292 55 37.5312L55.2188 40.9531C54.8958 41.7552 54.3646 42.4271 53.625 42.9688C52.8958 43.5104 51.9948 43.7812 50.9219 43.7812ZM63.0312 20.7812H66.2188V23.9688H63.0312V20.7812ZM63.0312 27.2812H66.2188V43.5H63.0312V27.2812ZM75.2812 43.5781C73.9688 43.5781 73.0052 43.2188 72.3906 42.5C71.7865 41.7708 71.4844 40.6979 71.4844 39.2812V22.5625H74.6719V39.3125C74.6719 39.7083 74.75 40.0156 74.9062 40.2344C75.0625 40.4427 75.2917 40.5469 75.5938 40.5469H77.125V43.5781H75.2812ZM69.8125 27.2812H77.125V30.1562H69.8125V27.2812ZM103.609 20.7812H106.594V43.5H103.484V26.4844L103.641 27.4844L98.0469 40.3438H95.8281L90.2344 27.7969L90.3906 26.4844V43.5H87.2812V20.7812H90.2656L96.9375 35.7812L103.609 20.7812ZM121.062 33.2188C121.062 32.1562 120.776 31.3333 120.203 30.75C119.641 30.1562 118.839 29.8594 117.797 29.8594C117.151 29.8594 116.516 29.9583 115.891 30.1562C115.276 30.3542 114.729 30.6302 114.25 30.9844L111.922 29.3906C112.536 28.651 113.344 28.0781 114.344 27.6719C115.354 27.2552 116.474 27.0469 117.703 27.0469C119.047 27.0469 120.198 27.2865 121.156 27.7656C122.115 28.2344 122.844 28.9219 123.344 29.8281C123.844 30.724 124.094 31.8073 124.094 33.0781V43.5H121.062V33.2188ZM117.094 43.7344C115.094 43.7344 113.599 43.3229 112.609 42.5C111.62 41.6667 111.125 40.4062 111.125 38.7188C111.125 37.1146 111.578 35.9115 112.484 35.1094C113.391 34.3073 114.76 33.9062 116.594 33.9062H121.203L121.422 36.4688H116.609C115.776 36.4688 115.151 36.6562 114.734 37.0312C114.328 37.3958 114.125 37.9583 114.125 38.7188C114.125 39.5417 114.396 40.151 114.938 40.5469C115.49 40.9427 116.323 41.1406 117.438 41.1406C118.656 41.1406 119.562 41.0104 120.156 40.75C120.76 40.4896 121.062 40.0833 121.062 39.5312L121.391 41.8125C121.109 42.25 120.76 42.6094 120.344 42.8906C119.938 43.1719 119.464 43.3802 118.922 43.5156C118.38 43.6615 117.771 43.7344 117.094 43.7344ZM128.938 27.2812H132.125V50.0938H128.938V27.2812ZM136.203 43.7344C135.193 43.7344 134.312 43.4948 133.562 43.0156C132.812 42.526 132.26 41.8385 131.906 40.9531L132.125 37.5625C132.125 38.2604 132.25 38.8542 132.5 39.3438C132.75 39.8333 133.109 40.2083 133.578 40.4688C134.057 40.7292 134.635 40.8594 135.312 40.8594C136.365 40.8594 137.177 40.5417 137.75 39.9062C138.333 39.2604 138.625 38.3542 138.625 37.1875V33.6719C138.625 32.4844 138.333 31.5625 137.75 30.9062C137.177 30.25 136.365 29.9219 135.312 29.9219C134.635 29.9219 134.057 30.0469 133.578 30.2969C133.109 30.5469 132.75 30.9167 132.5 31.4062C132.25 31.8854 132.125 32.4635 132.125 33.1406L131.797 30.0156C132.286 29.0677 132.927 28.3385 133.719 27.8281C134.51 27.3073 135.391 27.0469 136.359 27.0469C137.505 27.0469 138.484 27.3073 139.297 27.8281C140.12 28.3385 140.745 29.0885 141.172 30.0781C141.599 31.0677 141.812 32.2604 141.812 33.6562V37.1875C141.812 38.5625 141.594 39.7396 141.156 40.7188C140.719 41.6979 140.078 42.4479 139.234 42.9688C138.391 43.4792 137.38 43.7344 136.203 43.7344Z" fill="black"/>
</svg>
