<svg width="256" height="128" viewBox="0 0 256 128" fill="none" xmlns="http://www.w3.org/2000/svg">
<rect width="256" height="128" rx="24" fill="white"/>
<path d="M51.3906 76H50.2656V50.125H62.7188V51.25H51.3906V52.375H62.7188V53.5H51.3906V54.625H62.7188V55.75H51.3906V61.375H62.1875V62.5H51.3906V63.625H62.1875V64.75H51.3906V65.875H62.1875V67H51.3906V76ZM49.1406 76H48.0156V50.125H49.1406V76ZM46.8906 76H45.7656V50.125H46.8906V76ZM44.6406 76H43.5156V50.125H44.6406V76ZM73.9844 61.5781C73.1094 62.4531 72.6719 63.5104 72.6719 64.75C72.6719 65.9896 73.1094 67.0521 73.9844 67.9375C74.8698 68.8125 75.9323 69.25 77.1719 69.25C78.4115 69.25 79.4688 68.8125 80.3438 67.9375C81.2292 67.0521 81.6719 65.9896 81.6719 64.75C81.6719 63.5104 81.2292 62.4531 80.3438 61.5781C79.4688 60.6927 78.4115 60.25 77.1719 60.25C75.9323 60.25 74.8698 60.6927 73.9844 61.5781ZM73.1875 68.7344C72.0938 67.6302 71.5469 66.3021 71.5469 64.75C71.5469 63.1979 72.0938 61.875 73.1875 60.7812C74.2917 59.6771 75.6198 59.125 77.1719 59.125C78.724 59.125 80.0469 59.6771 81.1406 60.7812C82.2448 61.875 82.7969 63.1979 82.7969 64.75C82.7969 66.3021 82.2448 67.6302 81.1406 68.7344C80.0469 69.8281 78.724 70.375 77.1719 70.375C75.6198 70.375 74.2917 69.8281 73.1875 68.7344ZM72.3906 59.9844C71.0781 61.3073 70.4219 62.8958 70.4219 64.75C70.4219 66.6042 71.0781 68.1927 72.3906 69.5156C73.7135 70.8385 75.3073 71.5 77.1719 71.5C79.0365 71.5 80.625 70.8385 81.9375 69.5156C83.2604 68.1927 83.9219 66.6042 83.9219 64.75C83.9219 62.8958 83.2604 61.3073 81.9375 59.9844C80.625 58.6615 79.0365 58 77.1719 58C75.3073 58 73.7135 58.6615 72.3906 59.9844ZM70.3438 68.7031C69.6458 67.4948 69.2969 66.1771 69.2969 64.75C69.2969 63.3229 69.6458 62.0052 70.3438 60.7969C71.0521 59.5885 72.0104 58.6354 73.2188 57.9375C74.4271 57.2292 75.7448 56.875 77.1719 56.875C78.599 56.875 79.9167 57.2292 81.125 57.9375C82.3333 58.6354 83.2865 59.5885 83.9844 60.7969C84.6927 62.0052 85.0469 63.3229 85.0469 64.75C85.0469 66.1771 84.6927 67.4948 83.9844 68.7031C83.2865 69.9115 82.3333 70.8698 81.125 71.5781C79.9167 72.276 78.599 72.625 77.1719 72.625C75.7448 72.625 74.4271 72.276 73.2188 71.5781C72.0104 70.8698 71.0521 69.9115 70.3438 68.7031ZM68.875 61.2656C68.4062 62.3698 68.1719 63.5312 68.1719 64.75C68.1719 65.9688 68.4062 67.1354 68.875 68.25C69.3542 69.3542 69.9948 70.3125 70.7969 71.125C71.6094 71.9271 72.5677 72.5677 73.6719 73.0469C74.7865 73.5156 75.9531 73.75 77.1719 73.75C78.3906 73.75 79.5521 73.5156 80.6562 73.0469C81.7708 72.5677 82.7292 71.9271 83.5312 71.125C84.3438 70.3125 84.9844 69.3542 85.4531 68.25C85.9323 67.1354 86.1719 65.9688 86.1719 64.75C86.1719 63.5312 85.9323 62.3698 85.4531 61.2656C84.9844 60.151 84.3438 59.1927 83.5312 58.3906C82.7292 57.5781 81.7708 56.9375 80.6562 56.4688C79.5521 55.9896 78.3906 55.75 77.1719 55.75C75.9531 55.75 74.7865 55.9896 73.6719 56.4688C72.5677 56.9375 71.6094 57.5781 70.7969 58.3906C69.9948 59.1927 69.3542 60.151 68.875 61.2656ZM67.8438 68.6875C67.3125 67.4375 67.0469 66.125 67.0469 64.75C67.0469 63.375 67.3125 62.0625 67.8438 60.8125C68.3854 59.5625 69.1042 58.4896 70 57.5938C70.9062 56.6875 71.9844 55.9688 73.2344 55.4375C74.4844 54.8958 75.7969 54.625 77.1719 54.625C78.5469 54.625 79.8594 54.8958 81.1094 55.4375C82.3594 55.9688 83.4323 56.6875 84.3281 57.5938C85.2344 58.4896 85.9531 59.5625 86.4844 60.8125C87.026 62.0625 87.2969 63.375 87.2969 64.75C87.2969 66.125 87.026 67.4375 86.4844 68.6875C85.9531 69.9375 85.2344 71.0156 84.3281 71.9219C83.4323 72.8177 82.3594 73.5365 81.1094 74.0781C79.8594 74.6094 78.5469 74.875 77.1719 74.875C75.7969 74.875 74.4844 74.6094 73.2344 74.0781C71.9844 73.5365 70.9062 72.8177 70 71.9219C69.1042 71.0156 68.3854 69.9375 67.8438 68.6875ZM66.8125 60.3906C66.2188 61.776 65.9219 63.2292 65.9219 64.75C65.9219 66.2708 66.2188 67.7292 66.8125 69.125C67.4062 70.5104 68.2031 71.7083 69.2031 72.7188C70.2135 73.7188 71.4115 74.5156 72.7969 75.1094C74.1927 75.7031 75.651 76 77.1719 76C78.6927 76 80.1458 75.7031 81.5312 75.1094C82.9271 74.5156 84.125 73.7188 85.125 72.7188C86.1354 71.7083 86.9375 70.5104 87.5312 69.125C88.125 67.7292 88.4219 66.2708 88.4219 64.75C88.4219 63.2292 88.125 61.776 87.5312 60.3906C86.9375 58.9948 86.1354 57.7969 85.125 56.7969C84.125 55.7865 82.9271 54.9844 81.5312 54.3906C80.1458 53.7969 78.6927 53.5 77.1719 53.5C75.651 53.5 74.1927 53.7969 72.7969 54.3906C71.4115 54.9844 70.2135 55.7865 69.2031 56.7969C68.2031 57.7969 67.4062 58.9948 66.8125 60.3906ZM65.7812 69.5625C65.125 68.0312 64.7969 66.4271 64.7969 64.75C64.7969 63.0729 65.125 61.474 65.7812 59.9531C66.4375 58.4219 67.3177 57.1042 68.4219 56C69.526 54.8958 70.8385 54.0156 72.3594 53.3594C73.8906 52.7031 75.4948 52.375 77.1719 52.375C78.849 52.375 80.4479 52.7031 81.9688 53.3594C83.5 54.0156 84.8177 54.8958 85.9219 56C87.026 57.1042 87.9062 58.4219 88.5625 59.9531C89.2188 61.474 89.5469 63.0729 89.5469 64.75C89.5469 66.4271 89.2188 68.0312 88.5625 69.5625C87.9062 71.0833 87.026 72.3958 85.9219 73.5C84.8177 74.6042 83.5 75.4844 81.9688 76.1406C80.4479 76.7969 78.849 77.125 77.1719 77.125C75.4948 77.125 73.8906 76.7969 72.3594 76.1406C70.8385 75.4844 69.526 74.6042 68.4219 73.5C67.3177 72.3958 66.4375 71.0833 65.7812 69.5625ZM100.578 65.25H107.359C108.255 65.25 109.016 64.9688 109.641 64.4062C110.266 63.8438 110.578 63.0521 110.578 62.0312C110.578 61.2812 110.25 60.6094 109.594 60.0156C108.948 59.4219 108.203 59.125 107.359 59.125H97.7031V76H96.5781V58H107.359C108.516 58 109.526 58.4062 110.391 59.2188C111.266 60.0312 111.703 60.9688 111.703 62.0312C111.703 63.3542 111.281 64.4115 110.438 65.2031C109.594 65.9844 108.568 66.375 107.359 66.375H100.578V65.25ZM100.578 67.5H107.359C108.859 67.5 110.146 66.9896 111.219 65.9688C112.292 64.9479 112.828 63.6354 112.828 62.0312C112.828 60.6667 112.281 59.4688 111.188 58.4375C110.094 57.3958 108.818 56.875 107.359 56.875H95.4531V76H94.3281V55.75H107.359C109.13 55.75 110.672 56.3802 111.984 57.6406C113.297 58.8906 113.953 60.3542 113.953 62.0312C113.953 63.9062 113.302 65.474 112 66.7344C110.708 67.9948 109.161 68.625 107.359 68.625H100.578V67.5ZM100.578 69.75H107.359C108.745 69.75 110.026 69.4167 111.203 68.75C112.38 68.0833 113.318 67.1562 114.016 65.9688C114.724 64.7812 115.078 63.4688 115.078 62.0312C115.078 60.7292 114.729 59.5104 114.031 58.375C113.333 57.2292 112.385 56.3177 111.188 55.6406C110 54.9635 108.724 54.625 107.359 54.625H93.2031V76H92.0781V53.5H107.359C108.536 53.5 109.667 53.7344 110.75 54.2031C111.844 54.6615 112.786 55.276 113.578 56.0469C114.37 56.8073 115.005 57.7135 115.484 58.7656C115.964 59.8177 116.203 60.9062 116.203 62.0312C116.203 63.8542 115.786 65.4479 114.953 66.8125C114.12 68.1667 113 69.1979 111.594 69.9062L113.953 76H112.75L110.516 70.3594C110.234 70.4531 109.906 70.5469 109.531 70.6406L111.641 76H110.438L108.375 70.8281C108.052 70.8594 107.714 70.875 107.359 70.875L109.344 76H108.156L106.188 70.875H105.172L107.062 76H105.875L103.969 70.875H100.578V69.75ZM99.9531 76H98.8281V60.25H107.359C107.943 60.25 108.438 60.4271 108.844 60.7812C109.25 61.125 109.453 61.5417 109.453 62.0312C109.453 63.4271 108.755 64.125 107.359 64.125H100.578V63H107.359C108.005 63 108.328 62.6771 108.328 62.0312C108.328 61.8542 108.229 61.7031 108.031 61.5781C107.844 61.4427 107.62 61.375 107.359 61.375H99.9531V76ZM124.328 76H123.203V53.5H124.328V76ZM122.078 76H120.953V53.5H122.078V76ZM119.828 76H118.703V53.5H119.828V76ZM126.578 70.375H137.344V71.5H126.578V72.625H137.344V73.75H126.578V74.875H137.344V76H125.453V53.5H137.344V54.625H126.578V55.75H137.344V56.875H126.578V58H137.344V59.125H126.578V61.9219H136.719V63.0469H126.578V64.1719H136.719V65.2969H126.578V66.4219H136.719V67.5469H126.578V70.375ZM139.156 53.5H140.375L148.672 74.4844L156.969 53.5H158.172L149.281 76H148.062L139.156 53.5ZM141.578 53.5H142.781L149.453 70.375L148.812 71.8125L141.578 53.5ZM144 53.5H145.219L150.656 67.2969L150.062 68.8438L144 53.5ZM146.422 53.5H147.625L151.844 64.1719L151.25 65.75L146.422 53.5ZM164.219 53.5H165.438L156.531 76H155.328L164.219 53.5ZM161.812 53.5H163.016L154.109 76H152.906L161.812 53.5ZM159.375 53.5H160.594L151.688 76H150.484L159.375 53.5ZM173.047 76H171.922V53.5H173.047V76ZM170.797 76H169.672V53.5H170.797V76ZM168.547 76H167.422V53.5H168.547V76ZM175.297 70.375H186.062V71.5H175.297V72.625H186.062V73.75H175.297V74.875H186.062V76H174.172V53.5H186.062V54.625H175.297V55.75H186.062V56.875H175.297V58H186.062V59.125H175.297V61.9219H185.438V63.0469H175.297V64.1719H185.438V65.2969H175.297V66.4219H185.438V67.5469H175.297V70.375ZM197.266 65.25H204.047C204.943 65.25 205.703 64.9688 206.328 64.4062C206.953 63.8438 207.266 63.0521 207.266 62.0312C207.266 61.2812 206.938 60.6094 206.281 60.0156C205.635 59.4219 204.891 59.125 204.047 59.125H194.391V76H193.266V58H204.047C205.203 58 206.214 58.4062 207.078 59.2188C207.953 60.0312 208.391 60.9688 208.391 62.0312C208.391 63.3542 207.969 64.4115 207.125 65.2031C206.281 65.9844 205.255 66.375 204.047 66.375H197.266V65.25ZM197.266 67.5H204.047C205.547 67.5 206.833 66.9896 207.906 65.9688C208.979 64.9479 209.516 63.6354 209.516 62.0312C209.516 60.6667 208.969 59.4688 207.875 58.4375C206.781 57.3958 205.505 56.875 204.047 56.875H192.141V76H191.016V55.75H204.047C205.818 55.75 207.359 56.3802 208.672 57.6406C209.984 58.8906 210.641 60.3542 210.641 62.0312C210.641 63.9062 209.99 65.474 208.688 66.7344C207.396 67.9948 205.849 68.625 204.047 68.625H197.266V67.5ZM197.266 69.75H204.047C205.432 69.75 206.714 69.4167 207.891 68.75C209.068 68.0833 210.005 67.1562 210.703 65.9688C211.411 64.7812 211.766 63.4688 211.766 62.0312C211.766 60.7292 211.417 59.5104 210.719 58.375C210.021 57.2292 209.073 56.3177 207.875 55.6406C206.688 54.9635 205.411 54.625 204.047 54.625H189.891V76H188.766V53.5H204.047C205.224 53.5 206.354 53.7344 207.438 54.2031C208.531 54.6615 209.474 55.276 210.266 56.0469C211.057 56.8073 211.693 57.7135 212.172 58.7656C212.651 59.8177 212.891 60.9062 212.891 62.0312C212.891 63.8542 212.474 65.4479 211.641 66.8125C210.807 68.1667 209.688 69.1979 208.281 69.9062L210.641 76H209.438L207.203 70.3594C206.922 70.4531 206.594 70.5469 206.219 70.6406L208.328 76H207.125L205.062 70.8281C204.74 70.8594 204.401 70.875 204.047 70.875L206.031 76H204.844L202.875 70.875H201.859L203.75 76H202.562L200.656 70.875H197.266V69.75ZM196.641 76H195.516V60.25H204.047C204.63 60.25 205.125 60.4271 205.531 60.7812C205.938 61.125 206.141 61.5417 206.141 62.0312C206.141 63.4271 205.443 64.125 204.047 64.125H197.266V63H204.047C204.693 63 205.016 62.6771 205.016 62.0312C205.016 61.8542 204.917 61.7031 204.719 61.5781C204.531 61.4427 204.307 61.375 204.047 61.375H196.641V76Z" fill="black"/>
</svg>
