<svg width="200" height="64" viewBox="0 0 200 64" fill="none" xmlns="http://www.w3.org/2000/svg">
<rect width="200" height="64" rx="32" fill="white"/>
<path d="M26 43.5H22.8125V20.7812H26V43.5ZM50.6875 33.6719C50.6875 32.526 50.3906 31.6406 49.7969 31.0156C49.2031 30.3906 48.3698 30.0781 47.2969 30.0781C46.3073 30.0781 45.5417 30.3802 45 30.9844C44.4583 31.5885 44.1875 32.4427 44.1875 33.5469L43.5469 30.4219C44.0573 29.349 44.7292 28.5208 45.5625 27.9375C46.4062 27.3438 47.3333 27.0469 48.3438 27.0469C49.5104 27.0469 50.5052 27.3073 51.3281 27.8281C52.1615 28.3385 52.7917 29.0885 53.2188 30.0781C53.6562 31.0677 53.875 32.2604 53.875 33.6562V43.5H50.6875V33.6719ZM31.3125 27.2812H34.5V43.5H31.3125V27.2812ZM41 33.6719C41 32.526 40.7188 31.6406 40.1562 31.0156C39.5938 30.3906 38.7969 30.0781 37.7656 30.0781C36.724 30.0781 35.9167 30.3542 35.3438 30.9062C34.7812 31.4583 34.5 32.2344 34.5 33.2344L34.1719 30.1094C34.6719 29.1302 35.3229 28.375 36.125 27.8438C36.9375 27.3125 37.8333 27.0469 38.8125 27.0469C39.9479 27.0469 40.9167 27.3073 41.7188 27.8281C42.5208 28.3385 43.1302 29.0885 43.5469 30.0781C43.974 31.0677 44.1875 32.2604 44.1875 33.6562V43.5H41V33.6719ZM58.7188 27.2812H61.9062V50.0938H58.7188V27.2812ZM65.9844 43.7344C64.974 43.7344 64.0938 43.4948 63.3438 43.0156C62.5938 42.526 62.0417 41.8385 61.6875 40.9531L61.9062 37.5625C61.9062 38.2604 62.0312 38.8542 62.2812 39.3438C62.5312 39.8333 62.8906 40.2083 63.3594 40.4688C63.8385 40.7292 64.4167 40.8594 65.0938 40.8594C66.1458 40.8594 66.9583 40.5417 67.5312 39.9062C68.1146 39.2604 68.4062 38.3542 68.4062 37.1875V33.6719C68.4062 32.4844 68.1146 31.5625 67.5312 30.9062C66.9583 30.25 66.1458 29.9219 65.0938 29.9219C64.4167 29.9219 63.8385 30.0469 63.3594 30.2969C62.8906 30.5469 62.5312 30.9167 62.2812 31.4062C62.0312 31.8854 61.9062 32.4635 61.9062 33.1406L61.5781 30.0156C62.0677 29.0677 62.7083 28.3385 63.5 27.8281C64.2917 27.3073 65.1719 27.0469 66.1406 27.0469C67.2865 27.0469 68.2656 27.3073 69.0781 27.8281C69.901 28.3385 70.526 29.0885 70.9531 30.0781C71.3802 31.0677 71.5938 32.2604 71.5938 33.6562V37.1875C71.5938 38.5625 71.375 39.7396 70.9375 40.7188C70.5 41.6979 69.8594 42.4479 69.0156 42.9688C68.1719 43.4792 67.1615 43.7344 65.9844 43.7344ZM82.3438 43.7344C80.9375 43.7344 79.7344 43.4583 78.7344 42.9062C77.7344 42.3542 76.9688 41.5521 76.4375 40.5C75.9167 39.4375 75.6562 38.1615 75.6562 36.6719V34.0312C75.6562 32.5625 75.9167 31.3073 76.4375 30.2656C76.9688 29.2135 77.7344 28.4167 78.7344 27.875C79.7344 27.3229 80.9375 27.0469 82.3438 27.0469C83.75 27.0469 84.9531 27.3229 85.9531 27.875C86.9531 28.4167 87.7135 29.2135 88.2344 30.2656C88.7656 31.3073 89.0312 32.5625 89.0312 34.0312V36.7188C89.0312 38.1979 88.7656 39.4635 88.2344 40.5156C87.7135 41.5573 86.9531 42.3542 85.9531 42.9062C84.9531 43.4583 83.75 43.7344 82.3438 43.7344ZM82.3438 40.7031C83.4583 40.7031 84.3177 40.3542 84.9219 39.6562C85.5365 38.9583 85.8438 37.9792 85.8438 36.7188V34.0312C85.8438 32.7708 85.5365 31.7969 84.9219 31.1094C84.3177 30.4219 83.4583 30.0781 82.3438 30.0781C81.2292 30.0781 80.3646 30.4219 79.75 31.1094C79.1458 31.7969 78.8438 32.7708 78.8438 34.0312V36.7188C78.8438 37.9792 79.1458 38.9583 79.75 39.6562C80.3646 40.3542 81.2292 40.7031 82.3438 40.7031ZM93.5625 27.2812H96.75V43.5H93.5625V27.2812ZM102.484 31.125C102.203 30.7812 101.849 30.5208 101.422 30.3438C100.995 30.1667 100.5 30.0781 99.9375 30.0781C98.9271 30.0781 98.1406 30.3594 97.5781 30.9219C97.026 31.474 96.75 32.2448 96.75 33.2344L96.4219 30.1094C96.9219 29.1406 97.5677 28.3906 98.3594 27.8594C99.151 27.3177 100.026 27.0469 100.984 27.0469C101.724 27.0469 102.391 27.1562 102.984 27.375C103.589 27.5833 104.115 27.8958 104.562 28.3125L102.484 31.125ZM111.438 43.5781C110.125 43.5781 109.161 43.2188 108.547 42.5C107.943 41.7708 107.641 40.6979 107.641 39.2812V22.5625H110.828V39.3125C110.828 39.7083 110.906 40.0156 111.062 40.2344C111.219 40.4427 111.448 40.5469 111.75 40.5469H113.281V43.5781H111.438ZM105.969 27.2812H113.281V30.1562H105.969V27.2812ZM139.766 20.7812H142.75V43.5H139.641V26.4844L139.797 27.4844L134.203 40.3438H131.984L126.391 27.7969L126.547 26.4844V43.5H123.438V20.7812H126.422L133.094 35.7812L139.766 20.7812ZM157.219 33.2188C157.219 32.1562 156.932 31.3333 156.359 30.75C155.797 30.1562 154.995 29.8594 153.953 29.8594C153.307 29.8594 152.672 29.9583 152.047 30.1562C151.432 30.3542 150.885 30.6302 150.406 30.9844L148.078 29.3906C148.693 28.651 149.5 28.0781 150.5 27.6719C151.51 27.2552 152.63 27.0469 153.859 27.0469C155.203 27.0469 156.354 27.2865 157.312 27.7656C158.271 28.2344 159 28.9219 159.5 29.8281C160 30.724 160.25 31.8073 160.25 33.0781V43.5H157.219V33.2188ZM153.25 43.7344C151.25 43.7344 149.755 43.3229 148.766 42.5C147.776 41.6667 147.281 40.4062 147.281 38.7188C147.281 37.1146 147.734 35.9115 148.641 35.1094C149.547 34.3073 150.917 33.9062 152.75 33.9062H157.359L157.578 36.4688H152.766C151.932 36.4688 151.307 36.6562 150.891 37.0312C150.484 37.3958 150.281 37.9583 150.281 38.7188C150.281 39.5417 150.552 40.151 151.094 40.5469C151.646 40.9427 152.479 41.1406 153.594 41.1406C154.812 41.1406 155.719 41.0104 156.312 40.75C156.917 40.4896 157.219 40.0833 157.219 39.5312L157.547 41.8125C157.266 42.25 156.917 42.6094 156.5 42.8906C156.094 43.1719 155.62 43.3802 155.078 43.5156C154.536 43.6615 153.927 43.7344 153.25 43.7344ZM165.094 27.2812H168.281V50.0938H165.094V27.2812ZM172.359 43.7344C171.349 43.7344 170.469 43.4948 169.719 43.0156C168.969 42.526 168.417 41.8385 168.062 40.9531L168.281 37.5625C168.281 38.2604 168.406 38.8542 168.656 39.3438C168.906 39.8333 169.266 40.2083 169.734 40.4688C170.214 40.7292 170.792 40.8594 171.469 40.8594C172.521 40.8594 173.333 40.5417 173.906 39.9062C174.49 39.2604 174.781 38.3542 174.781 37.1875V33.6719C174.781 32.4844 174.49 31.5625 173.906 30.9062C173.333 30.25 172.521 29.9219 171.469 29.9219C170.792 29.9219 170.214 30.0469 169.734 30.2969C169.266 30.5469 168.906 30.9167 168.656 31.4062C168.406 31.8854 168.281 32.4635 168.281 33.1406L167.953 30.0156C168.443 29.0677 169.083 28.3385 169.875 27.8281C170.667 27.3073 171.547 27.0469 172.516 27.0469C173.661 27.0469 174.641 27.3073 175.453 27.8281C176.276 28.3385 176.901 29.0885 177.328 30.0781C177.755 31.0677 177.969 32.2604 177.969 33.6562V37.1875C177.969 38.5625 177.75 39.7396 177.312 40.7188C176.875 41.6979 176.234 42.4479 175.391 42.9688C174.547 43.4792 173.536 43.7344 172.359 43.7344Z" fill="black"/>
</svg>
