<svg viewBox="0 0 128.16757 128.16757" xmlns="http://www.w3.org/2000/svg">
  
   <circle
   id="bg"
   cx="64.083786"
   cy="64.083786"
   r="64.083786" 
   style="fill:#000000;"
   />
   
   <path
   id="icon"
   d="m 76.259141,36.922063 c -0.46483,0.0037 -0.93169,0.023 -1.39844,0.05469 -7.46799,0.505999 -14.80804,4.580757 -19.83203,11.71875 -1.74,2.467997 -3.09772,5.406596 -4.26172,8.558594 -3.23,-2.799998 -6.91841,-4.792532 -11.06641,-4.894532 -5.43199,-0.134 -10.87872,2.413911 -14.63671,7.003906 -3.756,4.591996 -5.89963,11.039884 -6.01563,18.921876 l 12,0.17188 c 0.086,-5.809994 1.63288,-9.45619 3.29688,-11.492188 1.66799,-2.035998 3.37459,-2.647468 5.05859,-2.605468 3.37,0.084 8.29666,3.16276 8.22266,13.96875 h 0.008 c 0.002,0.082 -0.01,0.15428 -0.008,0.238282 l 11.99609,-0.15626 c 0,-0.086 -0.0352,-0.14838 -0.0352,-0.234376 h 0.0352 c -0.352,-10.761988 2.04675,-18.068224 5.21875,-22.574218 3.172,-4.503996 7.03203,-6.394345 10.83203,-6.652344 6.00584,-0.407872 12.64297,3.170232 15.05078,12.371094 l -7.70703,-0.11328 14.39453,25.777344 15.144529,-25.339844 -9.64844,-0.144532 C 99.929621,46.355978 88.505191,36.82367 76.259141,36.922063 Z"
   style="fill:#ffffff;" 
   />
</svg>
