<svg xmlns="http://www.w3.org/2000/svg" xml:space="preserve" viewBox="0 0 70 70">
<circle id="bg" cx="35" cy="35" r="35" fill="#f2f2f2"/>
<path id="icon" fill="#333" d="M42.05 20.12c-3.8.02-7.48 2.03-9.99 5.45-.63.86-1.19 1.8-1.68 2.81-2-1.8-4.43-2.86-7-2.83-6.06.08-11.51 5.77-11.48 14.11a3.4 3.4 0 0 0 3.41 3.4 3.4 3.4 0 0 0 3.4-3.42c-.03-5.7 2.67-7.25 4.76-7.28 2.08-.03 4.68 1.31 4.64 7.27v.02a3.4 3.4 0 0 0 6.8.03v-.03c0-4.79 1.19-8.08 2.63-10.05 1.45-1.96 3.05-2.67 4.55-2.67 1.5-.01 3.11.67 4.6 2.64.69.92 1.33 2.14 1.83 3.68h-2.17a1.6 1.6 0 0 0-1.39 2.4l2.9 5.04 2.89 5.04a1.6 1.6 0 0 0 2.78 0l2.91-5.02 2.92-5.03a1.6 1.6 0 0 0-1.38-2.4h-2.4c-.7-3.1-1.88-5.7-3.46-7.8-2.56-3.4-6.27-5.38-10.07-5.36z"/>
</svg>