<svg width="56" height="56" viewBox="0 0 56 56" fill="none" xmlns="http://www.w3.org/2000/svg">
<rect width="56" height="56" rx="28" fill="white"/>
<path fill-rule="evenodd" clip-rule="evenodd" d="M17.0949 42.4604C14.3334 42.4604 12.0948 40.2218 12.0948 37.4604V28.4636C12.0948 25.7022 14.3334 23.4636 17.0948 23.4636H29.8909C32.6524 23.4636 34.8909 25.7022 34.8909 28.4636V37.4604C34.8909 40.2218 32.6524 42.4604 29.8909 42.4604H17.0949ZM24.6327 33.8544C24.6327 33.447 24.8897 33.0926 25.2243 32.8603C26.0148 32.3114 26.5324 31.3971 26.5324 30.3618C26.5324 28.6832 25.1716 27.3223 23.4929 27.3223C21.8142 27.3223 20.4534 28.6832 20.4534 30.3618C20.4534 31.3971 20.971 32.3114 21.7615 32.8603C22.0961 33.0926 22.3531 33.447 22.3531 33.8544V36.8207C22.3531 37.4502 22.8634 37.9605 23.4929 37.9605C24.1224 37.9605 24.6327 37.4502 24.6327 36.8207V33.8544Z" fill="black"/>
<path d="M41.9052 23.1516V20.1374C41.9052 16.7478 39.1573 14 35.7677 14V14C32.3781 14 29.6303 16.7478 29.6303 20.1374V27.1516" stroke="black" stroke-width="4"/>
</svg>
