<svg width="56" height="56" viewBox="0 0 56 56" fill="none" xmlns="http://www.w3.org/2000/svg">
<rect width="56" height="56" rx="28" fill="white"/>
<path fill-rule="evenodd" clip-rule="evenodd" d="M21 44.4604C17.6863 44.4604 15 41.7741 15 38.4604V28.7937C15 25.48 17.6863 22.7937 21 22.7937H35C38.3137 22.7937 41 25.48 41 28.7937V38.4604C41 41.7741 38.3137 44.4604 35 44.4604H21ZM29.3 33.8761C30.5705 33.3618 31.4667 32.1163 31.4667 30.6614C31.4667 28.7468 29.9146 27.1947 28 27.1947C26.0854 27.1947 24.5333 28.7468 24.5333 30.6614C24.5333 32.1163 25.4295 33.3618 26.7 33.8761V38.0281C26.7 38.746 27.282 39.3281 28 39.3281C28.718 39.3281 29.3 38.746 29.3 38.0281V33.8761Z" fill="black"/>
<rect x="21.0667" y="12.4614" width="13.8667" height="29.4667" rx="6.93333" stroke="black" stroke-width="5"/>
</svg>
