<svg xmlns="http://www.w3.org/2000/svg" viewBox="0 0 171.338 47.731">
  <path id="bg" d="M147.473 47.731c13.18 0 23.865-10.685 23.865-23.865C171.338 10.686 160.654 0 147.473 0H23.866C10.686 0 0 10.685 0 23.866 0 37.046 10.685 47.73 23.866 47.73z"/>
  <path id="icon" fill="#fff" d="M46.194-54.538h2.632v20.036h-2.742v-15.007l.138.882-4.933 11.342h-1.957l-4.934-11.066.138-1.158v15.007h-2.742v-20.036h2.632L40.31-41.31zM61.587-43.57q0-1.406-.758-2.178-.744-.785-2.122-.785-.854 0-1.681.262-.813.262-1.447.73l-2.053-1.405q.813-.979 2.136-1.516 1.336-.552 2.962-.552 1.778 0 3.046.634 1.268.62 1.929 1.82.661 1.184.661 2.866v9.191h-2.673zm-3.5 9.274q-2.646 0-3.955-1.089-1.31-1.102-1.31-3.335 0-2.122 1.2-3.183 1.199-1.061 3.624-1.061h4.065l.193 2.26H57.66q-1.103 0-1.654.496-.537.482-.537 1.488 0 1.089.716 1.613.73.523 2.205.523 1.612 0 2.398-.344.8-.345.8-1.075l.288 2.012q-.372.579-.923.95-.537.373-1.254.552-.716.193-1.612.193zm10.445-14.51h2.812v20.118h-2.812zm6.408 14.51q-1.336 0-2.329-.634-.992-.648-1.46-1.819l.193-2.99q0 .923.33 1.57.331.648.951.993.634.344 1.53.344 1.392 0 2.15-.84.771-.855.771-2.398v-3.1q0-1.572-.771-2.44-.758-.868-2.15-.868-.896 0-1.53.33-.62.331-.95.98-.331.633-.331 1.529l-.29-2.756q.648-1.254 1.695-1.93 1.047-.689 2.33-.689 1.515 0 2.59.69 1.088.675 1.653 1.984t.565 3.156v3.114q0 1.819-.578 3.114-.58 1.296-1.695 1.985-1.117.675-2.674.675zM91.74-54.538h2.81v20.036h-2.81zm1.364 17.363h11.506v2.673H93.103Zm0-8.613h9.99v2.673h-9.99zm0-8.75h11.506v2.673H93.103Zm23.358 0h2.81v20.036h-2.81zm-3.597 20.284q-1.571 0-2.687-.675-1.103-.689-1.682-1.998-.578-1.31-.578-3.142v-3.156q0-1.846.565-3.155.565-1.31 1.64-1.985 1.088-.689 2.604-.689 1.268 0 2.315.662 1.061.661 1.709 1.86l-.29 2.921q0-.91-.33-1.557-.33-.648-.965-.978-.62-.345-1.516-.345-1.392 0-2.163.868-.758.869-.758 2.44v3.114q0 1.557.758 2.411.771.841 2.163.841.896 0 1.516-.344.634-.359.965-1.02.33-.662.33-1.585l.193 3.018q-.427 1.061-1.405 1.778-.965.716-2.384.716zm10.68-20.284h2.81v2.81h-2.81zm0 5.732h2.81v14.304h-2.81zm10.803 14.373q-1.736 0-2.549-.95-.8-.965-.8-2.84v-14.745h2.812v14.773q0 .524.207.813.206.276.606.276h1.35v2.673zm-4.823-14.373h6.45v2.536h-6.45zm15.793 14.51q-1.86 0-3.184-.73-1.323-.73-2.025-2.122-.69-1.405-.69-3.376v-2.329q0-1.943.69-3.32.702-1.393 2.025-2.11 1.323-.73 3.184-.73 1.86 0 3.183.73 1.323.717 2.012 2.11.703 1.377.703 3.32v2.37q0 1.957-.703 3.35-.69 1.377-2.012 2.108-1.323.73-3.183.73zm0-2.673q1.474 0 2.273-.923.813-.923.813-2.59v-2.37q0-1.668-.813-2.578-.799-.91-2.273-.91-1.475 0-2.288.91-.8.91-.8 2.577v2.37q0 1.668.8 2.591.813.923 2.288.923zm9.894-11.837h2.811v14.304h-2.811zm7.869 3.39q-.373-.455-.938-.689-.565-.234-1.309-.234-1.336 0-2.08.744-.73.73-.73 2.04l-.29-2.757q.661-1.281 1.708-1.984 1.048-.717 2.316-.717.978 0 1.763.29.8.275 1.392.827z" aria-label="Map Editor" direction="rtl" font-family="Bahnschrift" font-size="28.222" style="-inkscape-font-specification:'Bahnschrift, Normal';text-align:center" text-anchor="middle" transform="translate(-10.583 67.35)"/>
</svg>
