<svg width="96" height="53" viewBox="0 0 96 53" fill="none" xmlns="http://www.w3.org/2000/svg">
<g clip-path="url(#clip0_242_91)">
<path d="M69.5171 52.9752C84.1429 52.9752 96 41.1163 96 26.4883C96 11.8604 84.1429 0.000396729 69.5171 0.000396729L26.4829 0.0248137C11.8582 0.0248137 0 11.8848 0 26.5128C0 41.1407 11.8571 52.9996 26.4841 52.9996L69.5171 52.9752Z" fill="white"/>
<path d="M28.0376 8.0824V23.0933H30.0906V12.9491L33.6838 21.0079H35.1486L38.7418 12.7494V23.0933H40.7947V8.0824H38.8239L34.4162 17.9935L30.0084 8.0824H28.0376ZM48.1343 12.2222C47.3231 12.2222 46.5829 12.3598 45.9149 12.6351C45.2546 12.9037 44.7208 13.2821 44.3158 13.7716L45.8538 14.8237C46.1701 14.5906 46.5307 14.4075 46.9369 14.2766C47.3497 14.1456 47.7692 14.0812 48.1964 14.0812C48.8844 14.0812 49.4149 14.2765 49.7866 14.6694C50.1639 15.0545 50.3537 15.5984 50.3537 16.3009V16.7549H47.4019C46.1901 16.7549 45.2857 17.019 44.6864 17.5495C44.0883 18.0789 43.7887 18.8747 43.7887 19.9346C43.7887 21.0489 44.116 21.8824 44.7697 22.4318C45.4233 22.9756 46.4109 23.2487 47.7326 23.2487C48.1798 23.2487 48.5815 23.1998 48.9399 23.1044C49.2972 23.0145 49.6102 22.8769 49.8787 22.6904C50.0563 22.5705 50.2138 22.4274 50.3537 22.2642V23.0933H52.3567V16.2077C52.3567 15.3675 52.1902 14.6517 51.8606 14.0601C51.5344 13.4651 51.0288 12.9881 50.4158 12.6972C49.7833 12.3809 49.022 12.2222 48.1343 12.2222ZM60.4597 12.2222C59.8194 12.2222 59.2379 12.3942 58.7152 12.7383C58.3002 13.0057 57.9507 13.3676 57.661 13.8171V12.3776H55.5559V27.4495H57.6621V21.7093C57.8918 22.1499 58.2059 22.5084 58.612 22.7736C59.107 23.0899 59.6884 23.2487 60.3565 23.2487C61.1333 23.2487 61.8013 23.08 62.3584 22.7426C62.9154 22.3985 63.3393 21.9024 63.6279 21.2554C63.9164 20.6083 64.0606 19.8314 64.0606 18.9224V16.5895C64.0606 15.6672 63.9208 14.8792 63.639 14.2255C63.356 13.5707 62.9432 13.0757 62.3994 12.7383C61.8635 12.3942 61.2165 12.2222 60.4597 12.2222ZM59.7672 14.1223C60.463 14.1223 60.999 14.3387 61.3774 14.7727C61.7636 15.2055 61.9556 15.8159 61.9556 16.5995V18.9224C61.9556 19.6938 61.7636 20.292 61.3785 20.7193C60.999 21.1388 60.463 21.3486 59.7672 21.3486C59.32 21.3486 58.9383 21.2631 58.622 21.09C58.3145 20.9202 58.066 20.6609 57.9096 20.3464C57.7442 20.0245 57.6621 19.6316 57.6621 19.1699V16.2488C57.6621 15.8015 57.7442 15.4197 57.9096 15.1023C58.0749 14.7793 58.3124 14.5351 58.622 14.3698C58.9383 14.2044 59.3211 14.1223 59.7672 14.1223ZM47.4118 18.4474H50.3537V20.4707C50.3537 20.8358 50.1539 21.1033 49.7544 21.2764C49.3627 21.4485 48.7646 21.5339 47.9589 21.5339C47.2232 21.5339 46.6717 21.4041 46.3077 21.1421C45.9493 20.8802 45.7706 20.4785 45.7706 19.9346C45.7706 19.4319 45.9049 19.06 46.1734 18.8192C46.4486 18.5717 46.8614 18.4474 47.4118 18.4474ZM24.2902 26.9556C23.2515 26.9556 22.3371 27.1898 21.5448 27.6581C20.7588 28.121 20.1242 28.8023 19.7182 29.6193C19.2843 30.4661 19.0679 31.4472 19.0679 32.5615V36.6813C19.0679 37.7956 19.2843 38.7767 19.7182 39.6224C20.151 40.4693 20.7602 41.1241 21.5448 41.5847C22.336 42.0453 23.2515 42.2761 24.2902 42.2761C25.1103 42.2838 25.9205 42.0962 26.6538 41.729C27.3756 41.3579 27.9984 40.8199 28.4704 40.1596C28.9692 39.4612 29.3076 38.6611 29.4614 37.8167H27.3041C27.1858 38.2949 26.96 38.7397 26.6438 39.1175C26.3577 39.464 25.9983 39.7427 25.5915 39.9337C25.1847 40.1246 24.7406 40.223 24.2913 40.2218C23.6776 40.2218 23.1416 40.0775 22.68 39.7889C22.2106 39.4831 21.8383 39.0495 21.6069 38.5392C21.3517 38.0021 21.2252 37.3827 21.2252 36.6813V32.5615C21.2252 31.8534 21.3517 31.233 21.6069 30.7036C21.8383 30.1933 22.2106 29.7597 22.68 29.4539C23.1416 29.1587 23.6787 29.01 24.2902 29.01C24.7307 29.01 25.158 29.1098 25.5708 29.3096C25.9836 29.5094 26.3409 29.7946 26.6438 30.1664C26.9546 30.5316 27.1743 30.9478 27.3041 31.4161H29.4614C29.3078 30.5713 28.9694 29.7709 28.4704 29.0721C28.0056 28.4124 27.3855 27.8772 26.6649 27.5139C25.93 27.1389 25.1152 26.9473 24.2902 26.9556ZM43.7687 27.111V39.3339C43.7687 40.2362 43.9851 40.9343 44.419 41.4293C44.8595 41.9254 45.4788 42.1729 46.2766 42.1729H47.5151V40.1707H46.5241C46.4329 40.1753 46.3419 40.1591 46.2579 40.1233C46.1739 40.0876 46.0991 40.0332 46.0391 39.9643C45.9282 39.82 45.8738 39.6158 45.8738 39.3539V27.111H43.7687ZM36.357 31.2507C35.4282 31.2507 34.6337 31.4328 33.9723 31.7979C33.3143 32.1532 32.7839 32.7054 32.4553 33.3773C32.1113 34.0654 31.9393 34.8944 31.9393 35.8656V37.6103C31.9393 38.5947 32.1113 39.4371 32.4553 40.1396C32.7855 40.8128 33.3153 41.3678 33.9723 41.729C34.6337 42.0941 35.4282 42.2761 36.357 42.2761C37.2859 42.2761 38.0804 42.0941 38.7418 41.729C39.3956 41.3714 39.9221 40.8195 40.2487 40.1496C40.5994 39.4548 40.7747 38.618 40.7747 37.6414V35.8656C40.7747 34.8944 40.5994 34.0654 40.2487 33.3773C39.9261 32.7046 39.3985 32.1517 38.7418 31.7979C38.0804 31.4328 37.2859 31.2507 36.357 31.2507ZM53.9979 31.2507C53.0691 31.2507 52.2734 31.4328 51.6132 31.7979C50.9552 32.1532 50.4248 32.7054 50.0962 33.3773C49.7522 34.0654 49.5802 34.8944 49.5802 35.8656V37.6103C49.5802 38.5947 49.7522 39.4371 50.0962 40.1396C50.4264 40.8128 50.9561 41.3678 51.6132 41.729C52.2734 42.0941 53.0691 42.2761 53.9979 42.2761C54.9267 42.2761 55.7213 42.0941 56.3815 41.729C57.0353 41.3714 57.5619 40.8195 57.8885 40.1496C58.2403 39.4548 58.4156 38.618 58.4156 37.6414V35.8656C58.4156 34.8944 58.2403 34.0654 57.8885 33.3773C57.5659 32.7046 57.0383 32.1517 56.3815 31.7979C55.7213 31.4328 54.9267 31.2507 53.9979 31.2507ZM66.3122 31.2507C65.6797 31.2507 65.1004 31.4294 64.5778 31.7879C64.1495 32.082 63.7874 32.4623 63.5147 32.9045V31.4061H61.4085V42.1219H63.5147V35.3384C63.5147 34.6847 63.6967 34.1752 64.0618 33.8112C64.4335 33.4394 64.9529 33.2541 65.6198 33.2541C65.9915 33.2541 66.3189 33.3118 66.6007 33.4294C66.8826 33.546 67.1168 33.718 67.3032 33.9455L68.6759 32.0865C68.3758 31.8087 68.0203 31.5977 67.6328 31.4672C67.2088 31.3175 66.7617 31.2442 66.3122 31.2507ZM74.291 31.2507C73.3688 31.2507 72.602 31.3784 71.9894 31.6337C71.3769 31.8812 70.9153 32.2552 70.6057 32.7591C70.296 33.2607 70.1418 33.8911 70.1418 34.648C70.1418 35.405 70.2994 35.9866 70.6156 36.3928C70.9397 36.799 71.3425 37.0775 71.8241 37.2285C72.3057 37.3728 72.8939 37.4726 73.5885 37.5281C73.6163 37.5281 73.644 37.5315 73.6717 37.5381H73.7539L73.9292 37.5592H74.1045C74.7171 37.6069 75.192 37.6624 75.5294 37.7235C75.8667 37.779 76.1486 37.8922 76.3761 38.0642C76.6025 38.2362 76.7168 38.4948 76.7168 38.8389C76.7168 39.355 76.5059 39.7434 76.0865 40.0053C75.6736 40.2606 75.0511 40.3872 74.2188 40.3872C73.6607 40.3872 73.0969 40.2772 72.5254 40.0575C71.9071 39.8102 71.3268 39.4765 70.8021 39.0664L69.5526 40.6047C69.953 40.9724 70.4009 41.2848 70.8842 41.5336C71.3658 41.7811 71.8829 41.9665 72.4333 42.0908C73.0199 42.2176 73.6187 42.2797 74.2188 42.2761C75.2231 42.2761 76.0554 42.1485 76.7157 41.8943C77.3837 41.6391 77.8831 41.2617 78.2137 40.7589C78.5433 40.2484 78.7087 39.6091 78.7087 38.8389C78.7087 37.9921 78.53 37.345 78.1716 36.8966C77.8345 36.4633 77.368 36.1488 76.8399 35.9988C76.3184 35.8478 75.6814 35.7479 74.9313 35.6991C74.9111 35.6929 74.8902 35.6899 74.8691 35.6902H74.807C74.7592 35.6832 74.711 35.6795 74.6627 35.6791C74.6211 35.6795 74.5795 35.6765 74.5384 35.6702C74.0966 35.6482 73.656 35.6067 73.2179 35.5459C72.941 35.5104 72.676 35.4117 72.4433 35.2574C72.2436 35.1131 72.1437 34.8956 72.1437 34.607C72.1437 34.1186 72.3224 33.7524 72.6808 33.5127C73.0381 33.2641 73.5752 33.1408 74.2898 33.1408C74.7859 33.1408 75.2919 33.2263 75.8079 33.3983C76.3317 33.5704 76.8621 33.829 77.3981 34.173L78.6676 32.6348C78.2531 32.3321 77.8065 32.0761 77.336 31.8712C76.8694 31.6628 76.3811 31.5068 75.88 31.4061C75.357 31.3007 74.8245 31.2486 74.291 31.2507ZM36.357 33.253C37.0928 33.253 37.6609 33.4805 38.0604 33.9344C38.4666 34.3894 38.6696 35.0332 38.6696 35.8656V37.6414C38.6696 38.4738 38.4666 39.1208 38.0593 39.5814C37.6609 40.0431 37.0939 40.2739 36.357 40.2739C35.6202 40.2739 35.0498 40.0431 34.6437 39.5814C34.2442 39.1208 34.0444 38.4738 34.0444 37.6414V35.8656C34.0444 35.0332 34.2442 34.3894 34.6437 33.9344C35.0498 33.4805 35.6202 33.253 36.357 33.253ZM53.9979 33.253C54.7336 33.253 55.3018 33.4805 55.7002 33.9344C56.1063 34.3894 56.3105 35.0332 56.3105 35.8656V37.6414C56.3105 38.4738 56.1063 39.1208 55.7002 39.5814C55.3007 40.0431 54.7348 40.2739 53.9979 40.2739C53.2611 40.2739 52.6896 40.0431 52.2845 39.5814C51.885 39.1208 51.6853 38.4738 51.6853 37.6414V35.8656C51.6853 35.0332 51.885 34.3894 52.2845 33.9344C52.6896 33.4805 53.2611 33.253 53.9979 33.253Z" fill="black"/>
</g>
<defs>
<clipPath id="clip0_242_91">
<rect width="96" height="53" fill="white"/>
</clipPath>
</defs>
</svg>
