<svg xmlns="http://www.w3.org/2000/svg" width="366.966" height="180.485" viewBox="0 0 97.093 47.753">
  <path id="bg" d="M73.228 47.731c13.18 0 23.865-10.685 23.865-23.865C97.093 10.686 86.408 0 73.228 0L23.866.022C10.686.022 0 10.708 0 23.888s10.685 23.865 23.866 23.865z"/>
  <path id="icon" fill="#fff" d="M60.776 515.139v13.524h1.85v-9.14l3.238 7.261h1.32l3.238-7.441v9.32h1.85V515.14h-1.776l-3.972 8.93-3.972-8.93zm18.11 3.73c-.732 0-1.398.124-2 .372-.595.241-1.076.583-1.442 1.023l1.386.949c.286-.211.611-.376.977-.493.372-.118.75-.177 1.135-.177.62 0 1.098.177 1.432.53.341.347.512.837.512 1.47v.41h-2.66c-1.092 0-1.907.238-2.447.715-.54.478-.809 1.194-.809 2.149 0 1.005.295 1.755.884 2.251.589.49 1.479.735 2.67.735a4.19 4.19 0 0 0 1.088-.13c.322-.081.604-.205.846-.372a2.16 2.16 0 0 0 .428-.385v.747h1.805v-6.204c0-.756-.15-1.401-.447-1.935a2.905 2.905 0 0 0-1.302-1.228c-.57-.285-1.256-.427-2.056-.427zm11.106 0c-.576 0-1.1.155-1.572.465-.373.24-.688.566-.948.97v-1.296h-1.898v13.58h1.898v-5.17c.207.396.49.718.855.957.447.285.97.428 1.572.428.701 0 1.303-.152 1.805-.456.502-.31.884-.756 1.144-1.34.26-.582.39-1.283.39-2.102v-2.102c0-.83-.126-1.54-.38-2.13-.255-.589-.627-1.035-1.117-1.34-.484-.31-1.066-.464-1.749-.464zm-.623 1.711c.627 0 1.11.195 1.451.586.348.39.521.94.521 1.647v2.092c0 .695-.173 1.234-.52 1.619-.342.378-.825.567-1.452.567-.403 0-.747-.077-1.032-.232a1.558 1.558 0 0 1-.642-.67c-.149-.291-.223-.645-.223-1.06v-2.633c0-.403.074-.747.223-1.032.149-.292.363-.512.642-.66.285-.15.63-.224 1.032-.224zm-11.134 3.898h2.651v1.823c0 .328-.18.57-.54.725-.353.155-.892.233-1.618.233-.664 0-1.16-.118-1.488-.354-.323-.235-.484-.598-.484-1.088 0-.453.121-.788.363-1.005.248-.223.62-.334 1.116-.334zm-27.594 7.667c-1.01 0-1.876.155-2.595.465-.72.31-1.268.763-1.646 1.358-.372.59-.558 1.303-.558 2.14v.009c0 .955.201 1.693.604 2.214.403.514.887.87 1.451 1.07.57.192 1.309.365 2.214.52l.14.028a.18.18 0 0 0 .055.01c.025 0 .047.002.066.008a9.9 9.9 0 0 1 1.497.372c.39.13.707.335.949.614.248.273.372.645.372 1.116v.01c0 .663-.27 1.178-.81 1.543-.539.36-1.298.54-2.278.54a5.917 5.917 0 0 1-2.019-.335 5.343 5.343 0 0 1-1.702-1.005l-1.181 1.452c.44.372.911.682 1.414.93a7.077 7.077 0 0 0 1.637.558 8.88 8.88 0 0 0 1.85.186c1.049 0 1.942-.152 2.68-.455.744-.31 1.311-.757 1.702-1.34.39-.589.586-1.296.586-2.12v-.02c0-.886-.186-1.584-.558-2.092a3.154 3.154 0 0 0-1.377-1.116c-.545-.23-1.228-.428-2.046-.596l-.102-.018-.103-.019a.315.315 0 0 0-.074-.009.894.894 0 0 0-.065-.018c-.701-.137-1.25-.267-1.647-.391-.39-.13-.72-.329-.986-.595-.26-.267-.39-.633-.39-1.098v-.01c0-.675.254-1.196.762-1.562.515-.372 1.234-.558 2.158-.558.515 0 1.027.096 1.535.289.515.186 1.03.468 1.544.846l1.08-1.507a7.664 7.664 0 0 0-1.35-.781 6.783 6.783 0 0 0-1.385-.475 6.418 6.418 0 0 0-1.424-.158zm29.58.139v1.897h1.897v-1.897zm-12.176 1.06v2.81h-.995v1.71h.995v5.433c0 .843.18 1.482.54 1.916.365.428.939.642 1.72.642h1.098v-1.805h-.912c-.18 0-.316-.062-.409-.186-.093-.13-.14-.313-.14-.548v-5.451h1.46v-1.712h-1.46v-2.809zm6.214 0v2.81h-.996v1.71h.996v5.433c0 .843.18 1.482.539 1.916.366.428.94.642 1.72.642h1.098v-1.805h-.911c-.18 0-.316-.062-.41-.186-.092-.13-.139-.313-.139-.548v-5.451h1.46v-1.712h-1.46v-2.809zm24.352 2.642c-.683 0-1.269.155-1.759.465-.483.304-.852.75-1.106 1.34-.255.589-.382 1.299-.382 2.13v2.13c0 .824.13 1.531.39 2.12.261.59.64 1.04 1.136 1.35.502.303 1.107.455 1.814.455.638 0 1.175-.161 1.609-.484.354-.26.625-.572.818-.932v1.24c0 .731-.198 1.295-.595 1.692-.397.403-.958.605-1.684.605-.378 0-.74-.093-1.088-.28a2.671 2.671 0 0 1-.884-.79l-1.283 1.163c.316.49.76.868 1.33 1.135.577.272 1.228.409 1.953.409.875 0 1.622-.164 2.242-.493a3.276 3.276 0 0 0 1.414-1.442c.329-.632.493-1.392.493-2.279v-9.367h-1.898v1.22a3.185 3.185 0 0 0-.958-.94 2.868 2.868 0 0 0-1.562-.447zm-37.245.028c-.855 0-1.587.177-2.195.53-.608.353-1.073.868-1.395 1.544-.316.676-.475 1.491-.475 2.446v1.089c0 .918.165 1.702.493 2.353a3.39 3.39 0 0 0 1.451 1.47c.633.335 1.396.502 2.289.502.601 0 1.2-.124 1.795-.372a5.326 5.326 0 0 0 1.61-1.07l-1.247-1.246a3.3 3.3 0 0 1-1.014.651c-.378.155-.76.233-1.144.233-.775 0-1.374-.214-1.796-.642-.406-.412-.611-1.001-.626-1.758h6.077v-.633c0-1.066-.152-1.981-.455-2.744-.298-.763-.732-1.346-1.303-1.749-.57-.403-1.259-.604-2.065-.604zm28.1 0c-.582 0-1.115.158-1.599.474-.38.252-.701.592-.967 1.013v-1.348h-1.898v9.656H86.9v-6.112c0-.595.167-1.057.502-1.386.341-.328.822-.493 1.442-.493.638 0 1.134.186 1.488.558.353.372.53.9.53 1.582v5.85h1.898v-5.86c0-1.252-.289-2.22-.865-2.902-.57-.688-1.38-1.032-2.428-1.032zm19.925 0c-.83 0-1.522.114-2.074.344-.552.223-.967.561-1.246 1.014-.28.453-.42 1.02-.42 1.702 0 .682.144 1.206.429 1.572.291.366.654.617 1.088.753.434.13.964.22 1.59.27.026 0 .05.003.075.01h.075l.158.018h.158c.552.043.98.093 1.283.149.304.05.559.152.763.307.205.155.307.387.307.697 0 .465-.189.816-.567 1.051-.372.23-.934.345-1.684.345-.502 0-1.01-.1-1.525-.298a6.354 6.354 0 0 1-1.554-.893l-1.125 1.386a5.49 5.49 0 0 0 1.2.837c.434.223.899.39 1.395.502a7.406 7.406 0 0 0 1.61.168c.904 0 1.655-.115 2.25-.345.602-.23 1.051-.57 1.349-1.023.298-.459.446-1.036.446-1.73 0-.763-.16-1.346-.483-1.749a2.326 2.326 0 0 0-1.2-.81c-.472-.136-1.045-.226-1.721-.269a.18.18 0 0 0-.056-.009h-.056a.95.95 0 0 0-.13-.009.7.7 0 0 1-.112-.009 13.577 13.577 0 0 1-1.19-.112 1.64 1.64 0 0 1-.698-.26c-.18-.13-.27-.326-.27-.586 0-.44.162-.769.484-.986.323-.223.806-.335 1.451-.335.447 0 .903.078 1.368.233.47.155.948.387 1.432.697l1.144-1.386a6.303 6.303 0 0 0-1.2-.688 6.223 6.223 0 0 0-1.311-.419 7.106 7.106 0 0 0-1.433-.14zm-29.17.14v9.655h1.897v-9.656zm19.013 1.562c.403 0 .744.078 1.023.233.285.148.502.369.651.66.149.291.223.642.223 1.051v2.595c0 .416-.074.772-.223 1.07a1.588 1.588 0 0 1-.651.688c-.28.155-.62.233-1.023.233-.627 0-1.113-.19-1.46-.568-.342-.384-.512-.927-.512-1.627v-2.103c0-.707.17-1.255.511-1.646.348-.39.834-.586 1.46-.586zm-37.868.009c.59 0 1.058.22 1.405.66.353.435.558 1.045.614 1.833h-4.266c.031-.755.217-1.356.573-1.786.397-.471.955-.707 1.674-.707z" font-family="Bahnschrift" font-size="19.05" style="line-height:.9;-inkscape-font-specification:'Bahnschrift, Normal';text-align:center" text-anchor="middle" transform="translate(-30.468 -507.847)"/>
</svg>
