<svg width="108" height="53" viewBox="0 0 108 53" fill="none" xmlns="http://www.w3.org/2000/svg">
<g clip-path="url(#clip0_242_94)">
<path d="M81.4541 52.9754C96.1147 52.9754 108 41.1164 108 26.4883C108 11.8602 96.1147 0.000152588 81.4541 0.000152588L26.547 0.0245698C11.8864 0.0245698 0 11.8847 0 26.5128C0 41.1409 11.8853 52.9998 26.547 52.9998L81.4541 52.9754Z" fill="white"/>
<path d="M33.7126 8.09331V23.1033H35.7705V12.959L39.3722 21.0178H40.8405L44.4422 12.7593V23.1033H46.5001V8.09446H44.5245L40.1063 18.0056L35.6881 8.09446L33.7126 8.09331ZM53.857 12.2332C53.0428 12.2332 52.302 12.3708 51.6324 12.6461C50.9705 12.9135 50.4355 13.2931 50.0284 13.7814L51.5701 14.8347C51.8882 14.6005 52.2497 14.4174 52.6568 14.2875C53.0706 14.1565 53.4911 14.0911 53.9193 14.0911C54.609 14.0911 55.1407 14.2875 55.5122 14.6793C55.8915 15.0644 56.0817 15.6083 56.0817 16.3109V16.7659H53.1229C51.9082 16.7659 51.0017 17.0301 50.401 17.5595C49.8003 18.09 49.5011 18.8846 49.5011 19.9446C49.5011 21.06 49.8293 21.8924 50.4844 22.4429C51.1396 22.9867 52.1296 23.2586 53.4544 23.2586C53.8624 23.2636 54.2693 23.2151 54.6646 23.1143C55.0228 23.0244 55.3364 22.8868 55.6056 22.7015C55.7827 22.5809 55.9428 22.4372 56.0817 22.2742V23.1033H58.0895V16.2176C58.0895 15.3785 57.9226 14.6627 57.5923 14.07C57.2653 13.4749 56.7585 12.998 56.144 12.7071C55.51 12.3908 54.7469 12.2332 53.857 12.2332ZM66.2106 12.2332C65.5699 12.2332 64.9871 12.4052 64.462 12.7492C64.0471 13.0156 63.6968 13.3775 63.4076 13.8258V12.3874H61.2963V27.4595H63.4076V21.7215C63.6378 22.161 63.9526 22.5183 64.3586 22.7836C64.8558 23.0999 65.4376 23.2586 66.1072 23.2586C66.8869 23.2586 67.5566 23.0899 68.115 22.7525C68.6733 22.4084 69.0983 21.9135 69.3875 21.2653C69.6767 20.6194 69.8213 19.8414 69.8213 18.9324V16.5994C69.8213 15.6782 69.6811 14.8902 69.3986 14.2353C69.1149 13.5816 68.7012 13.0867 68.1561 12.7481C67.6177 12.4041 66.9704 12.2332 66.2106 12.2332ZM65.5177 14.1322C66.2151 14.1322 66.7523 14.3486 67.1316 14.7825C67.5187 15.2154 67.7112 15.8258 67.7112 16.6105V18.9324C67.7112 19.7037 67.5187 20.3019 67.1328 20.7292C66.7523 21.1487 66.2151 21.3585 65.5177 21.3585C65.0694 21.3585 64.6867 21.2731 64.3697 21.101C64.0615 20.9313 63.8124 20.6719 63.6556 20.3574C63.4899 20.0345 63.4076 19.6416 63.4076 19.181V16.2586C63.4076 15.8114 63.4899 15.4296 63.6556 15.1133C63.8213 14.7892 64.0594 14.545 64.3697 14.3808C64.6867 14.2143 65.0705 14.1322 65.5177 14.1322ZM53.1329 18.4585H56.0817V20.4817C56.0817 20.8458 55.8815 21.1143 55.481 21.2864C55.0884 21.4584 54.4888 21.5449 53.6813 21.5449C52.9427 21.5449 52.391 21.414 52.0261 21.1521C51.6668 20.8913 51.4878 20.4884 51.4878 19.9446C51.4878 19.4418 51.6224 19.07 51.8915 18.8291C52.1674 18.5816 52.5812 18.4585 53.1329 18.4585ZM22.4391 26.9678C21.3157 26.9678 20.3524 27.1398 19.5526 27.4839C18.7517 27.8279 18.1422 28.3308 17.7217 28.9911C17.3079 29.6459 17.101 30.4372 17.101 31.3662V31.3762C17.101 32.4362 17.3246 33.2552 17.7729 33.8335C18.2211 34.4039 18.7595 34.7991 19.3869 35.021C20.0209 35.2341 20.8429 35.4262 21.8496 35.5982L22.0053 35.6292C22.025 35.6361 22.0456 35.6398 22.0665 35.6403C22.0943 35.6403 22.1188 35.6425 22.1399 35.6492C22.7049 35.7434 23.2616 35.8815 23.8051 36.0621C24.2389 36.2064 24.5915 36.4339 24.8607 36.7436C25.1365 37.0466 25.2745 37.4594 25.2745 37.9821V37.9932C25.2745 38.7291 24.9741 39.3007 24.3735 39.7058C23.7739 40.1054 22.9297 40.3051 21.8396 40.3051C21.075 40.3123 20.315 40.1865 19.5938 39.9334C18.8987 39.6823 18.2566 39.304 17.7006 38.8179L16.3869 40.4294C16.8763 40.8423 17.4002 41.1863 17.9597 41.4616C18.539 41.7415 19.1506 41.9496 19.7806 42.081C20.4574 42.2214 21.1472 42.2906 21.8385 42.2874C23.0053 42.2874 23.9986 42.1186 24.8195 41.7824C25.6471 41.4383 26.2778 40.9422 26.7127 40.2952C27.1465 39.6414 27.3645 38.8568 27.3645 37.9422V37.92C27.3645 36.9367 27.1576 36.162 26.7439 35.5982C26.3625 35.0477 25.8309 34.6178 25.2122 34.3595C24.6059 34.1043 23.8462 33.8845 22.9363 33.6981L22.8229 33.6781L22.7083 33.657C22.6814 33.6504 22.6537 33.6471 22.626 33.647C22.6021 33.6395 22.578 33.6328 22.5537 33.6271C21.7739 33.475 21.1633 33.3307 20.7217 33.1931C20.2879 33.0488 19.9208 32.8279 19.6249 32.5327C19.3357 32.2364 19.1911 31.8301 19.1911 31.314V31.303C19.1911 30.5538 19.4736 29.9756 20.0387 29.5694C20.6116 29.1565 21.4113 28.9501 22.4391 28.9501C23.012 28.9501 23.5815 29.0566 24.1466 29.2708C24.7194 29.4772 25.2923 29.7902 25.864 30.2097L27.0653 28.5372C26.5956 28.1981 26.0925 27.9076 25.5637 27.6704C25.0707 27.4397 24.5542 27.2629 24.0231 27.1431C23.5033 27.0259 22.972 26.9671 22.4391 26.9678ZM55.342 27.1221V29.2275H57.4521V27.1221H55.342ZM41.7982 28.2985V31.4173H40.6914V33.3152H41.7982V39.3451C41.7982 40.2807 41.9984 40.9899 42.3989 41.4716C42.8049 41.9466 43.4434 42.1841 44.3121 42.1841H45.5334V40.1808H44.519C44.3188 40.1808 44.1675 40.112 44.064 39.9744C43.9606 39.8301 43.9083 39.627 43.9083 39.3662V33.3163H45.5323V31.4162H43.9083V28.2985H41.7982ZM48.7103 28.2985V31.4173H47.6024V33.3152H48.7103V39.3451C48.7103 40.2807 48.9105 40.9899 49.3098 41.4716C49.7169 41.9466 50.3554 42.1841 51.223 42.1841H52.4444V40.1808H51.431C51.2308 40.1808 51.0795 40.112 50.975 39.9744C50.8726 39.8301 50.8204 39.627 50.8204 39.3662V33.3163H52.4444V31.4162H50.8204V28.2985H48.7103ZM75.7979 31.2309C75.0381 31.2309 74.3863 31.4028 73.8413 31.7469C73.304 32.0843 72.8936 32.5793 72.611 33.2342C72.3274 33.8879 72.1861 34.6759 72.1861 35.5982V37.9622C72.1861 38.8768 72.3307 39.6614 72.6199 40.3151C72.9102 40.97 73.3318 41.4694 73.8835 41.8134C74.4419 42.1497 75.1149 42.3185 75.9013 42.3185C76.611 42.3185 77.2083 42.1398 77.6911 41.7813C78.0848 41.4927 78.3863 41.1464 78.6009 40.7469V42.1231C78.6009 42.9344 78.3807 43.5604 77.9391 44.001C77.4975 44.4483 76.8735 44.6725 76.0659 44.6725C75.6455 44.6725 75.2428 44.5693 74.8557 44.3617C74.4662 44.1467 74.1302 43.847 73.8724 43.4849L72.4453 44.7757C72.7968 45.3195 73.2907 45.7391 73.9247 46.0354C74.5665 46.3373 75.2906 46.4893 76.0971 46.4893C77.0704 46.4893 77.9013 46.3073 78.5909 45.9422C79.271 45.5873 79.8215 45.0272 80.1638 44.3417C80.5297 43.6403 80.7122 42.7968 80.7122 41.8124V31.4162H78.6009V32.7702C78.324 32.3509 77.9608 31.9952 77.5353 31.7269C77.0162 31.3979 76.4128 31.2257 75.7979 31.2309ZM34.3689 31.2619C33.4179 31.2619 32.6036 31.4584 31.9273 31.8501C31.251 32.2419 30.7338 32.8135 30.3756 33.5638C30.0241 34.3141 29.8473 35.2186 29.8473 36.2785V37.4872C29.8473 38.506 30.0308 39.3762 30.3957 40.0987C30.7505 40.7968 31.3147 41.3671 32.0097 41.7302C32.7138 42.102 33.5625 42.2874 34.5558 42.2874C35.2243 42.2874 35.8906 42.1497 36.5524 41.8745C37.217 41.5909 37.8239 41.1884 38.3433 40.6869L36.9562 39.304C36.6279 39.6119 36.2455 39.8568 35.8283 40.0266C35.4078 40.1986 34.9829 40.2851 34.5558 40.2851C33.6937 40.2851 33.0274 40.0477 32.558 39.5726C32.1064 39.1154 31.8784 38.4617 31.8617 37.6215H38.6214V36.9189C38.6214 35.7358 38.4523 34.7203 38.1153 33.8734C37.7838 33.0266 37.301 32.3795 36.6659 31.9322C36.0319 31.485 35.2655 31.2619 34.3689 31.2619ZM65.6256 31.2619C64.9782 31.2619 64.3853 31.4372 63.8469 31.788C63.4242 32.0676 63.0672 32.445 62.7713 32.9123V31.4162H60.6601V42.1331H62.7713V35.3496C62.7713 34.6892 62.9571 34.1764 63.3297 33.8112C63.709 33.4472 64.244 33.2641 64.9337 33.2641C65.6433 33.2641 66.1951 33.4705 66.5888 33.8834C66.9815 34.2963 67.1784 34.8823 67.1784 35.6392V42.132H69.2896V35.6281C69.2896 34.2386 68.9681 33.1642 68.3274 32.4073C67.6934 31.6437 66.7913 31.2619 65.6256 31.2619ZM87.7888 31.2619C86.8656 31.2619 86.0959 31.3884 85.4819 31.6437C84.8678 31.8912 84.4062 32.2663 84.0959 32.7691C83.7844 33.2719 83.6287 33.9011 83.6287 34.6581C83.6287 35.415 83.7889 35.9966 84.1059 36.4028C84.4296 36.809 84.8334 37.0876 85.3161 37.2385C85.7989 37.3828 86.3884 37.4827 87.0847 37.5382C87.1136 37.5382 87.1403 37.5416 87.1682 37.5493H87.2516L87.4273 37.5693H87.6031C88.2171 37.617 88.6932 37.6725 89.0302 37.7347C89.3684 37.7902 89.652 37.9034 89.8789 38.0754C90.1069 38.2474 90.2204 38.5049 90.2204 38.849C90.2204 39.365 90.0102 39.7546 89.5897 40.0155C89.1759 40.2707 88.5508 40.3983 87.7165 40.3983C87.1581 40.3983 86.5931 40.2874 86.0202 40.0676C85.4 39.8204 84.818 39.4867 84.2917 39.0765L83.0403 40.6148C83.4417 40.9825 83.8906 41.2949 84.3751 41.5438C84.8578 41.7913 85.3751 41.9766 85.9268 42.1009C86.5151 42.2282 87.1157 42.2907 87.7176 42.2874C88.7232 42.2874 89.5586 42.1598 90.2204 41.9045C90.89 41.6492 91.3895 41.2719 91.7209 40.7691C92.0524 40.2596 92.217 39.6192 92.217 38.849C92.217 38.0021 92.0391 37.3551 91.6798 36.9078C91.342 36.4741 90.8744 36.1592 90.345 36.0088C89.82 35.8579 89.1826 35.758 88.4307 35.7102C88.4106 35.7036 88.3895 35.7003 88.3684 35.7003H88.3061C88.2582 35.6937 88.2098 35.6903 88.1615 35.6903C88.1197 35.6903 88.0781 35.6869 88.0369 35.6803C87.594 35.6583 87.1524 35.6168 86.7132 35.556C86.4356 35.5205 86.17 35.4217 85.9368 35.2674C85.7366 35.1231 85.6365 34.9056 85.6365 34.617C85.6365 34.1287 85.8167 33.7636 86.1748 33.5227C86.5341 33.2752 87.0714 33.1509 87.7888 33.1509C88.286 33.1509 88.7933 33.2374 89.3105 33.4095C89.8333 33.5815 90.365 33.839 90.9034 34.1831L92.1759 32.6448C91.7604 32.3422 91.3127 32.0861 90.8411 31.8812C90.3737 31.6729 89.8846 31.5169 89.3828 31.4162C88.8581 31.3107 88.3241 31.2597 87.7888 31.2619ZM55.342 31.4173V42.1331H57.4521V31.4162L55.342 31.4173ZM76.4908 33.1509C76.9391 33.1509 77.3184 33.2374 77.6288 33.4095C77.9458 33.5737 78.1871 33.8191 78.3529 34.142C78.5186 34.465 78.6009 34.8545 78.6009 35.3085V38.1886C78.6009 38.6503 78.5186 39.0454 78.3529 39.3762C78.195 39.6983 77.9424 39.9647 77.6288 40.1398C77.3173 40.3118 76.9391 40.3983 76.4908 40.3983C75.7934 40.3983 75.2528 40.1875 74.8668 39.7679C74.4864 39.3417 74.2973 38.7391 74.2973 37.9622V35.6281C74.2973 34.8435 74.4864 34.2352 74.8657 33.8013C75.2528 33.3684 75.7945 33.1509 76.4908 33.1509ZM34.3689 33.1609C35.0252 33.1609 35.5458 33.4051 35.9317 33.8934C36.3244 34.3762 36.5524 35.0532 36.6147 35.9278H31.8695C31.904 35.0899 32.1109 34.4228 32.5069 33.9456C32.9485 33.4228 33.5691 33.1609 34.3689 33.1609Z" fill="black"/>
</g>
<defs>
<clipPath id="clip0_242_94">
<rect width="108" height="53" fill="white"/>
</clipPath>
</defs>
</svg>
