<svg width="200" height="65" viewBox="0 0 200 65" fill="none" xmlns="http://www.w3.org/2000/svg">
<rect x="0.5" y="0.5" width="199" height="64" rx="32" fill="white"/>
<path d="M43.75 21.2812H46.7344V44H43.625V26.9844L43.7812 27.9844L38.1875 40.8438H35.9688L30.375 28.2969L30.5312 26.9844V44H27.4219V21.2812H30.4062L37.0781 36.2812L43.75 21.2812ZM61.2031 33.7188C61.2031 32.6562 60.9167 31.8333 60.3438 31.25C59.7812 30.6562 58.9792 30.3594 57.9375 30.3594C57.2917 30.3594 56.6562 30.4583 56.0312 30.6562C55.4167 30.8542 54.8698 31.1302 54.3906 31.4844L52.0625 29.8906C52.6771 29.151 53.4844 28.5781 54.4844 28.1719C55.4948 27.7552 56.6146 27.5469 57.8438 27.5469C59.1875 27.5469 60.3385 27.7865 61.2969 28.2656C62.2552 28.7344 62.9844 29.4219 63.4844 30.3281C63.9844 31.224 64.2344 32.3073 64.2344 33.5781V44H61.2031V33.7188ZM57.2344 44.2344C55.2344 44.2344 53.7396 43.8229 52.75 43C51.7604 42.1667 51.2656 40.9062 51.2656 39.2188C51.2656 37.6146 51.7188 36.4115 52.625 35.6094C53.5312 34.8073 54.901 34.4062 56.7344 34.4062H61.3438L61.5625 36.9688H56.75C55.9167 36.9688 55.2917 37.1562 54.875 37.5312C54.4688 37.8958 54.2656 38.4583 54.2656 39.2188C54.2656 40.0417 54.5365 40.651 55.0781 41.0469C55.6302 41.4427 56.4635 41.6406 57.5781 41.6406C58.7969 41.6406 59.7031 41.5104 60.2969 41.25C60.901 40.9896 61.2031 40.5833 61.2031 40.0312L61.5312 42.3125C61.25 42.75 60.901 43.1094 60.4844 43.3906C60.0781 43.6719 59.6042 43.8802 59.0625 44.0156C58.5208 44.1615 57.9115 44.2344 57.2344 44.2344ZM69.0781 27.7812H72.2656V50.5938H69.0781V27.7812ZM76.3438 44.2344C75.3333 44.2344 74.4531 43.9948 73.7031 43.5156C72.9531 43.026 72.401 42.3385 72.0469 41.4531L72.2656 38.0625C72.2656 38.7604 72.3906 39.3542 72.6406 39.8438C72.8906 40.3333 73.25 40.7083 73.7188 40.9688C74.1979 41.2292 74.776 41.3594 75.4531 41.3594C76.5052 41.3594 77.3177 41.0417 77.8906 40.4062C78.474 39.7604 78.7656 38.8542 78.7656 37.6875V34.1719C78.7656 32.9844 78.474 32.0625 77.8906 31.4062C77.3177 30.75 76.5052 30.4219 75.4531 30.4219C74.776 30.4219 74.1979 30.5469 73.7188 30.7969C73.25 31.0469 72.8906 31.4167 72.6406 31.9062C72.3906 32.3854 72.2656 32.9635 72.2656 33.6406L71.9375 30.5156C72.4271 29.5677 73.0677 28.8385 73.8594 28.3281C74.651 27.8073 75.5312 27.5469 76.5 27.5469C77.6458 27.5469 78.625 27.8073 79.4375 28.3281C80.2604 28.8385 80.8854 29.5885 81.3125 30.5781C81.7396 31.5677 81.9531 32.7604 81.9531 34.1562V37.6875C81.9531 39.0625 81.7344 40.2396 81.2969 41.2188C80.8594 42.1979 80.2188 42.9479 79.375 43.4688C78.5312 43.9792 77.5208 44.2344 76.3438 44.2344ZM92.2656 21.2812H95.4531V44H92.2656V21.2812ZM93.8125 40.9688H106.859V44H93.8125V40.9688ZM93.8125 31.2031H105.141V34.2344H93.8125V31.2031ZM93.8125 21.2812H106.859V24.3125H93.8125V21.2812ZM120.297 21.2812H123.484V44H120.297V21.2812ZM116.219 44.2812C115.031 44.2812 114.016 44.026 113.172 43.5156C112.339 42.9948 111.703 42.2396 111.266 41.25C110.828 40.2604 110.609 39.0729 110.609 37.6875V34.1094C110.609 32.7135 110.823 31.5208 111.25 30.5312C111.677 29.5417 112.297 28.7917 113.109 28.2812C113.932 27.7604 114.917 27.5 116.062 27.5C117.021 27.5 117.896 27.75 118.688 28.25C119.49 28.75 120.135 29.4531 120.625 30.3594L120.297 33.6719C120.297 32.9844 120.172 32.3958 119.922 31.9062C119.672 31.4167 119.307 31.0469 118.828 30.7969C118.359 30.5365 117.786 30.4062 117.109 30.4062C116.057 30.4062 115.24 30.7344 114.656 31.3906C114.083 32.0469 113.797 32.9688 113.797 34.1562V37.6875C113.797 38.8646 114.083 39.776 114.656 40.4219C115.24 41.0573 116.057 41.375 117.109 41.375C117.786 41.375 118.359 41.2448 118.828 40.9844C119.307 40.7135 119.672 40.3281 119.922 39.8281C120.172 39.3281 120.297 38.7292 120.297 38.0312L120.516 41.4531C120.193 42.2552 119.661 42.9271 118.922 43.4688C118.193 44.0104 117.292 44.2812 116.219 44.2812ZM128.328 21.2812H131.516V24.4688H128.328V21.2812ZM128.328 27.7812H131.516V44H128.328V27.7812ZM140.578 44.0781C139.266 44.0781 138.302 43.7188 137.688 43C137.083 42.2708 136.781 41.1979 136.781 39.7812V23.0625H139.969V39.8125C139.969 40.2083 140.047 40.5156 140.203 40.7344C140.359 40.9427 140.589 41.0469 140.891 41.0469H142.422V44.0781H140.578ZM135.109 27.7812H142.422V30.6562H135.109V27.7812ZM153.016 44.2344C151.609 44.2344 150.406 43.9583 149.406 43.4062C148.406 42.8542 147.641 42.0521 147.109 41C146.589 39.9375 146.328 38.6615 146.328 37.1719V34.5312C146.328 33.0625 146.589 31.8073 147.109 30.7656C147.641 29.7135 148.406 28.9167 149.406 28.375C150.406 27.8229 151.609 27.5469 153.016 27.5469C154.422 27.5469 155.625 27.8229 156.625 28.375C157.625 28.9167 158.385 29.7135 158.906 30.7656C159.438 31.8073 159.703 33.0625 159.703 34.5312V37.2188C159.703 38.6979 159.438 39.9635 158.906 41.0156C158.385 42.0573 157.625 42.8542 156.625 43.4062C155.625 43.9583 154.422 44.2344 153.016 44.2344ZM153.016 41.2031C154.13 41.2031 154.99 40.8542 155.594 40.1562C156.208 39.4583 156.516 38.4792 156.516 37.2188V34.5312C156.516 33.2708 156.208 32.2969 155.594 31.6094C154.99 30.9219 154.13 30.5781 153.016 30.5781C151.901 30.5781 151.036 30.9219 150.422 31.6094C149.818 32.2969 149.516 33.2708 149.516 34.5312V37.2188C149.516 38.4792 149.818 39.4583 150.422 40.1562C151.036 40.8542 151.901 41.2031 153.016 41.2031ZM164.234 27.7812H167.422V44H164.234V27.7812ZM173.156 31.625C172.875 31.2812 172.521 31.0208 172.094 30.8438C171.667 30.6667 171.172 30.5781 170.609 30.5781C169.599 30.5781 168.812 30.8594 168.25 31.4219C167.698 31.974 167.422 32.7448 167.422 33.7344L167.094 30.6094C167.594 29.6406 168.24 28.8906 169.031 28.3594C169.823 27.8177 170.698 27.5469 171.656 27.5469C172.396 27.5469 173.062 27.6562 173.656 27.875C174.26 28.0833 174.786 28.3958 175.234 28.8125L173.156 31.625Z" fill="black"/>
</svg>
