<svg xmlns="http://www.w3.org/2000/svg" width="326.966" height="180.486" viewBox="0 0 86.51 47.753">
  <path id="bg" d="M62.645 47.731c13.18 0 23.865-10.685 23.865-23.865C86.51 10.686 75.825 0 62.645 0l-38.78.022C10.686.022 0 10.708 0 23.888s10.685 23.865 23.866 23.865z"/>
  <path id="icon" fill="#fff" d="M60.225 435.8v13.525h1.85v-9.14l3.238 7.261h1.32l3.238-7.441v9.32h1.85V435.8h-1.776l-3.972 8.93-3.972-8.93zm18.11 3.73c-.731 0-1.398.124-2 .372-.595.242-1.076.583-1.441 1.024l1.386.948c.285-.21.61-.375.976-.493.372-.118.75-.176 1.135-.176.62 0 1.098.176 1.433.53.34.347.511.837.511 1.47v.409h-2.66c-1.092 0-1.907.238-2.447.716-.539.477-.809 1.194-.809 2.149 0 1.004.295 1.755.884 2.25.589.49 1.479.736 2.67.736.403 0 .765-.044 1.088-.13.322-.081.604-.205.846-.373.16-.108.302-.237.428-.384v.747h1.805v-6.204c0-.757-.15-1.402-.447-1.935a2.905 2.905 0 0 0-1.302-1.228c-.57-.285-1.256-.428-2.056-.428zm11.107 0c-.577 0-1.101.155-1.572.465-.374.241-.689.567-.95.972v-1.297h-1.897v13.58h1.898v-5.172c.207.397.49.72.856.959.446.285.97.428 1.572.428.7 0 1.302-.152 1.804-.456.502-.31.884-.757 1.144-1.34.26-.583.39-1.283.39-2.102v-2.102c0-.831-.126-1.541-.38-2.13-.255-.59-.627-1.036-1.117-1.34-.483-.31-1.066-.465-1.748-.465zm-.624 1.712c.627 0 1.11.195 1.451.586.348.39.521.94.521 1.646v2.093c0 .695-.173 1.234-.52 1.619-.342.378-.825.567-1.452.567-.403 0-.747-.077-1.032-.233a1.558 1.558 0 0 1-.642-.67c-.149-.29-.223-.644-.223-1.06v-2.632c0-.403.074-.747.223-1.033.149-.291.363-.511.642-.66.285-.149.63-.223 1.032-.223zm-11.134 3.897h2.651v1.823c0 .329-.18.57-.54.726-.353.155-.892.232-1.618.232-.663 0-1.16-.117-1.488-.353-.323-.236-.484-.598-.484-1.088 0-.453.121-.788.363-1.005.248-.223.62-.335 1.116-.335zm-20.836 7.666c-.936 0-1.76.211-2.474.633a4.241 4.241 0 0 0-1.646 1.767c-.391.763-.586 1.647-.586 2.651v3.712c0 1.004.195 1.888.586 2.65.39.763.939 1.353 1.646 1.768.713.415 1.538.623 2.474.623a4.66 4.66 0 0 0 2.13-.493 4.594 4.594 0 0 0 1.637-1.414 5.25 5.25 0 0 0 .893-2.111h-1.944a2.918 2.918 0 0 1-.595 1.172 2.74 2.74 0 0 1-2.12.995c-.553 0-1.036-.13-1.452-.39a2.65 2.65 0 0 1-.967-1.126c-.23-.484-.344-1.042-.344-1.674v-3.712c0-.638.114-1.197.344-1.674a2.65 2.65 0 0 1 .967-1.126c.416-.266.9-.4 1.451-.4.397 0 .782.09 1.154.27.372.18.694.437.967.772.28.329.478.704.595 1.126h1.944a5.25 5.25 0 0 0-.893-2.112 4.43 4.43 0 0 0-1.627-1.404 4.608 4.608 0 0 0-2.14-.503zm17.553.14v11.013c0 .813.195 1.442.586 1.888.397.447.955.67 1.674.67h1.116v-1.804h-.893a.543.543 0 0 1-.437-.186c-.1-.13-.149-.314-.149-.55v-11.031zm-6.679 3.73c-.837 0-1.553.164-2.149.493a3.23 3.23 0 0 0-1.367 1.423c-.31.62-.465 1.367-.465 2.242v1.572c0 .887.155 1.646.465 2.279a3.285 3.285 0 0 0 1.367 1.432c.596.329 1.312.493 2.149.493s1.553-.164 2.149-.493a3.241 3.241 0 0 0 1.358-1.423c.316-.626.474-1.38.474-2.26v-1.6c0-.875-.158-1.622-.474-2.242a3.177 3.177 0 0 0-1.358-1.423c-.596-.329-1.312-.493-2.149-.493zm15.897 0c-.837 0-1.554.164-2.149.493a3.23 3.23 0 0 0-1.367 1.423c-.31.62-.465 1.367-.465 2.242v1.572c0 .887.155 1.646.465 2.279a3.285 3.285 0 0 0 1.367 1.432c.595.329 1.312.493 2.149.493s1.553-.164 2.148-.493a3.241 3.241 0 0 0 1.358-1.423c.317-.626.475-1.38.475-2.26v-1.6c0-.875-.158-1.622-.475-2.242a3.177 3.177 0 0 0-1.358-1.423c-.595-.329-1.311-.493-2.148-.493zm11.097 0c-.57 0-1.092.161-1.563.484a3.36 3.36 0 0 0-.958 1.006v-1.35h-1.898v9.655h1.898v-6.112c0-.589.164-1.048.493-1.376.335-.335.803-.502 1.404-.502.335 0 .63.052.884.158.254.105.465.26.633.465l1.237-1.675a2.61 2.61 0 0 0-.94-.558 3.425 3.425 0 0 0-1.19-.195zm7.19 0c-.831 0-1.522.115-2.074.345-.552.223-.968.56-1.247 1.014-.279.452-.418 1.02-.418 1.702 0 .682.142 1.206.427 1.572.292.366.655.617 1.089.753.434.13.964.22 1.59.27.025 0 .05.003.075.009h.074l.158.019h.158c.552.043.98.093 1.284.148.304.05.558.152.763.307.204.155.307.388.307.698 0 .465-.19.815-.568 1.051-.372.23-.933.344-1.683.344-.503 0-1.011-.099-1.526-.297a6.354 6.354 0 0 1-1.553-.893l-1.126 1.386a5.49 5.49 0 0 0 1.2.837c.434.223.9.39 1.396.502a7.406 7.406 0 0 0 1.609.167c.905 0 1.655-.115 2.25-.344.602-.23 1.052-.57 1.35-1.023.297-.46.446-1.036.446-1.73 0-.763-.161-1.346-.484-1.75a2.326 2.326 0 0 0-1.2-.809c-.47-.136-1.044-.226-1.72-.27a.18.18 0 0 0-.056-.008h-.056a.95.95 0 0 0-.13-.01.7.7 0 0 1-.112-.008 13.582 13.582 0 0 1-1.19-.112 1.64 1.64 0 0 1-.698-.26c-.18-.13-.27-.326-.27-.586 0-.44.161-.77.484-.986.322-.224.806-.335 1.45-.335.447 0 .903.077 1.368.232.472.155.95.388 1.433.698l1.144-1.386a6.303 6.303 0 0 0-1.2-.688 6.225 6.225 0 0 0-1.312-.419 7.106 7.106 0 0 0-1.432-.14zm-34.184 1.804c.663 0 1.175.205 1.535.614.366.41.549.99.549 1.74v1.6c0 .75-.183 1.333-.55 1.748-.359.416-.87.624-1.534.624s-1.178-.208-1.544-.624c-.36-.415-.54-.998-.54-1.748v-1.6c0-.75.18-1.33.54-1.74.366-.409.88-.614 1.544-.614zm15.897 0c.663 0 1.175.205 1.534.614.366.41.55.99.55 1.74v1.6c0 .75-.184 1.333-.55 1.748-.36.416-.87.624-1.534.624s-1.179-.208-1.544-.624c-.36-.415-.54-.998-.54-1.748v-1.6c0-.75.18-1.33.54-1.74.365-.409.88-.614 1.544-.614z" font-family="Bahnschrift" font-size="19.05" style="line-height:.9;-inkscape-font-specification:'Bahnschrift, Normal';text-align:center" text-anchor="middle" transform="translate(-34.959 -428.518)"/>
</svg>
