<svg width="256" height="128" viewBox="0 0 256 128" fill="none" xmlns="http://www.w3.org/2000/svg">
<rect width="256" height="128" rx="24" fill="white"/>
<path d="M76.8594 54.2812H79.8438V77H76.7344V59.9844L76.8906 60.9844L71.2969 73.8438H69.0781L63.4844 61.2969L63.6406 59.9844V77H60.5312V54.2812H63.5156L70.1875 69.2812L76.8594 54.2812ZM91.375 77.2344C89.9688 77.2344 88.7656 76.9583 87.7656 76.4062C86.7656 75.8542 86 75.0521 85.4688 74C84.9479 72.9375 84.6875 71.6615 84.6875 70.1719V67.5312C84.6875 66.0625 84.9479 64.8073 85.4688 63.7656C86 62.7135 86.7656 61.9167 87.7656 61.375C88.7656 60.8229 89.9688 60.5469 91.375 60.5469C92.7812 60.5469 93.9844 60.8229 94.9844 61.375C95.9844 61.9167 96.7448 62.7135 97.2656 63.7656C97.7969 64.8073 98.0625 66.0625 98.0625 67.5312V70.2188C98.0625 71.6979 97.7969 72.9635 97.2656 74.0156C96.7448 75.0573 95.9844 75.8542 94.9844 76.4062C93.9844 76.9583 92.7812 77.2344 91.375 77.2344ZM91.375 74.2031C92.4896 74.2031 93.349 73.8542 93.9531 73.1562C94.5677 72.4583 94.875 71.4792 94.875 70.2188V67.5312C94.875 66.2708 94.5677 65.2969 93.9531 64.6094C93.349 63.9219 92.4896 63.5781 91.375 63.5781C90.2604 63.5781 89.3958 63.9219 88.7812 64.6094C88.1771 65.2969 87.875 66.2708 87.875 67.5312V70.2188C87.875 71.4792 88.1771 72.4583 88.7812 73.1562C89.3958 73.8542 90.2604 74.2031 91.375 74.2031ZM108.812 77.2344C107.406 77.2344 106.203 76.9583 105.203 76.4062C104.203 75.8542 103.438 75.0521 102.906 74C102.385 72.9375 102.125 71.6615 102.125 70.1719V67.5312C102.125 66.0625 102.385 64.8073 102.906 63.7656C103.438 62.7135 104.203 61.9167 105.203 61.375C106.203 60.8229 107.406 60.5469 108.812 60.5469C110.219 60.5469 111.422 60.8229 112.422 61.375C113.422 61.9167 114.182 62.7135 114.703 63.7656C115.234 64.8073 115.5 66.0625 115.5 67.5312V70.2188C115.5 71.6979 115.234 72.9635 114.703 74.0156C114.182 75.0573 113.422 75.8542 112.422 76.4062C111.422 76.9583 110.219 77.2344 108.812 77.2344ZM108.812 74.2031C109.927 74.2031 110.786 73.8542 111.391 73.1562C112.005 72.4583 112.312 71.4792 112.312 70.2188V67.5312C112.312 66.2708 112.005 65.2969 111.391 64.6094C110.786 63.9219 109.927 63.5781 108.812 63.5781C107.698 63.5781 106.833 63.9219 106.219 64.6094C105.615 65.2969 105.312 66.2708 105.312 67.5312V70.2188C105.312 71.4792 105.615 72.4583 106.219 73.1562C106.833 73.8542 107.698 74.2031 108.812 74.2031ZM120.031 60.7812H123.219V77H120.031V60.7812ZM129.875 67.1719C129.875 66.026 129.578 65.1406 128.984 64.5156C128.391 63.8906 127.557 63.5781 126.484 63.5781C125.443 63.5781 124.635 63.8542 124.062 64.4062C123.5 64.9583 123.219 65.7344 123.219 66.7344L122.891 63.6094C123.391 62.6302 124.042 61.875 124.844 61.3438C125.656 60.8125 126.552 60.5469 127.531 60.5469C129.292 60.5469 130.651 61.125 131.609 62.2812C132.578 63.4271 133.062 65.0521 133.062 67.1562V77H129.875V67.1719ZM141.094 72.8125C141.094 73.2083 141.177 73.5156 141.344 73.7344C141.521 73.9427 141.766 74.0469 142.078 74.0469H143.578V77.0781H141.703C140.495 77.0781 139.557 76.7031 138.891 75.9531C138.234 75.2031 137.906 74.1458 137.906 72.7812V54.2812H141.094V72.8125ZM147.188 54.2812H150.375V57.4688H147.188V54.2812ZM147.188 60.7812H150.375V77H147.188V60.7812ZM160.656 83.5938C159.438 83.5938 158.344 83.3646 157.375 82.9062C156.417 82.4583 155.672 81.8229 155.141 81L157.297 79.0469C157.714 79.6198 158.208 80.0625 158.781 80.375C159.365 80.6875 159.974 80.8438 160.609 80.8438C161.828 80.8438 162.771 80.5052 163.438 79.8281C164.104 79.1615 164.438 78.2135 164.438 76.9844V60.7812H167.625V76.5156C167.625 78.0052 167.349 79.2812 166.797 80.3438C166.255 81.4062 165.464 82.2135 164.422 82.7656C163.38 83.3177 162.125 83.5938 160.656 83.5938ZM160.359 77.2812C159.172 77.2812 158.156 77.026 157.312 76.5156C156.479 75.9948 155.844 75.2396 155.406 74.25C154.969 73.2604 154.75 72.0729 154.75 70.6875V67.1094C154.75 65.7135 154.964 64.5208 155.391 63.5312C155.818 62.5417 156.438 61.7917 157.25 61.2812C158.073 60.7604 159.057 60.5 160.203 60.5C161.161 60.5 162.036 60.75 162.828 61.25C163.63 61.75 164.276 62.4531 164.766 63.3594L164.438 66.6719C164.438 65.9844 164.312 65.3958 164.062 64.9062C163.812 64.4167 163.448 64.0469 162.969 63.7969C162.5 63.5365 161.927 63.4062 161.25 63.4062C160.198 63.4062 159.38 63.7344 158.797 64.3906C158.224 65.0469 157.938 65.9688 157.938 67.1562V70.6875C157.938 71.8646 158.224 72.776 158.797 73.4219C159.38 74.0573 160.198 74.375 161.25 74.375C161.927 74.375 162.5 74.2448 162.969 73.9844C163.448 73.7135 163.812 73.3281 164.062 72.8281C164.312 72.3281 164.438 71.7292 164.438 71.0312L164.656 74.4531C164.333 75.2552 163.802 75.9271 163.062 76.4688C162.333 77.0104 161.432 77.2812 160.359 77.2812ZM172.469 54.2812H175.656V77H172.469V54.2812ZM182.312 67.1719C182.312 66.026 182.016 65.1406 181.422 64.5156C180.828 63.8906 179.995 63.5781 178.922 63.5781C177.88 63.5781 177.073 63.849 176.5 64.3906C175.938 64.9323 175.656 65.6979 175.656 66.6875L175.328 63.5625C175.828 62.6042 176.479 61.8646 177.281 61.3438C178.094 60.8125 178.99 60.5469 179.969 60.5469C181.729 60.5469 183.089 61.125 184.047 62.2812C185.016 63.4271 185.5 65.0521 185.5 67.1562V77H182.312V67.1719ZM194.562 77.0781C193.25 77.0781 192.286 76.7188 191.672 76C191.068 75.2708 190.766 74.1979 190.766 72.7812V56.0625H193.953V72.8125C193.953 73.2083 194.031 73.5156 194.188 73.7344C194.344 73.9427 194.573 74.0469 194.875 74.0469H196.406V77.0781H194.562ZM189.094 60.7812H196.406V63.6562H189.094V60.7812Z" fill="black"/>
</svg>
