<svg width="169" height="64" viewBox="0 0 169 64" fill="none" xmlns="http://www.w3.org/2000/svg">
<rect width="169" height="64" rx="32" fill="white"/>
<path d="M22.8906 20.7812H25.7812L36.8906 38.3438L36.5156 38.75V20.7812H39.6719V43.4844H36.75L25.6719 26.1875L26.0469 25.7812V43.4844H22.8906V20.7812ZM51.625 43.7344C50.125 43.7344 48.8438 43.4531 47.7812 42.8906C46.7188 42.3281 45.9062 41.5052 45.3438 40.4219C44.7917 39.3281 44.5156 38.0104 44.5156 36.4688V34.6406C44.5156 33.0365 44.7812 31.6667 45.3125 30.5312C45.8542 29.3958 46.6354 28.5312 47.6562 27.9375C48.6771 27.3438 49.9062 27.0469 51.3438 27.0469C52.6979 27.0469 53.8542 27.3854 54.8125 28.0625C55.7708 28.7396 56.5 29.7188 57 31C57.5104 32.2812 57.7656 33.8177 57.7656 35.6094V36.6719H46.8281V34.1094H54.7344C54.6406 32.7865 54.2969 31.7604 53.7031 31.0312C53.1198 30.2917 52.3333 29.9219 51.3438 29.9219C50.1354 29.9219 49.1979 30.3177 48.5312 31.1094C47.875 31.901 47.5469 33.0208 47.5469 34.4688V36.5312C47.5469 37.875 47.901 38.9062 48.6094 39.625C49.3177 40.3438 50.3229 40.7031 51.625 40.7031C52.2708 40.7031 52.9115 40.5729 53.5469 40.3125C54.1823 40.0521 54.75 39.6875 55.25 39.2188L57.3438 41.3125C56.5417 42.0833 55.6406 42.6823 54.6406 43.1094C53.6406 43.526 52.6354 43.7344 51.625 43.7344ZM60.4219 27.2812H63.75L66.625 38.8594L70.6719 27.2812H72.8906L76.9375 38.8594L79.8125 27.2812H83.1406L78.1406 43.5H75.7344L71.7812 32.2969L67.8281 43.5H65.4219L60.4219 27.2812ZM108.688 20.7812H111.672V43.5H108.562V26.4844L108.719 27.4844L103.125 40.3438H100.906L95.3125 27.7969L95.4688 26.4844V43.5H92.3594V20.7812H95.3438L102.016 35.7812L108.688 20.7812ZM126.141 33.2188C126.141 32.1562 125.854 31.3333 125.281 30.75C124.719 30.1562 123.917 29.8594 122.875 29.8594C122.229 29.8594 121.594 29.9583 120.969 30.1562C120.354 30.3542 119.807 30.6302 119.328 30.9844L117 29.3906C117.615 28.651 118.422 28.0781 119.422 27.6719C120.432 27.2552 121.552 27.0469 122.781 27.0469C124.125 27.0469 125.276 27.2865 126.234 27.7656C127.193 28.2344 127.922 28.9219 128.422 29.8281C128.922 30.724 129.172 31.8073 129.172 33.0781V43.5H126.141V33.2188ZM122.172 43.7344C120.172 43.7344 118.677 43.3229 117.688 42.5C116.698 41.6667 116.203 40.4062 116.203 38.7188C116.203 37.1146 116.656 35.9115 117.562 35.1094C118.469 34.3073 119.839 33.9062 121.672 33.9062H126.281L126.5 36.4688H121.688C120.854 36.4688 120.229 36.6562 119.812 37.0312C119.406 37.3958 119.203 37.9583 119.203 38.7188C119.203 39.5417 119.474 40.151 120.016 40.5469C120.568 40.9427 121.401 41.1406 122.516 41.1406C123.734 41.1406 124.641 41.0104 125.234 40.75C125.839 40.4896 126.141 40.0833 126.141 39.5312L126.469 41.8125C126.188 42.25 125.839 42.6094 125.422 42.8906C125.016 43.1719 124.542 43.3802 124 43.5156C123.458 43.6615 122.849 43.7344 122.172 43.7344ZM134.016 27.2812H137.203V50.0938H134.016V27.2812ZM141.281 43.7344C140.271 43.7344 139.391 43.4948 138.641 43.0156C137.891 42.526 137.339 41.8385 136.984 40.9531L137.203 37.5625C137.203 38.2604 137.328 38.8542 137.578 39.3438C137.828 39.8333 138.188 40.2083 138.656 40.4688C139.135 40.7292 139.714 40.8594 140.391 40.8594C141.443 40.8594 142.255 40.5417 142.828 39.9062C143.411 39.2604 143.703 38.3542 143.703 37.1875V33.6719C143.703 32.4844 143.411 31.5625 142.828 30.9062C142.255 30.25 141.443 29.9219 140.391 29.9219C139.714 29.9219 139.135 30.0469 138.656 30.2969C138.188 30.5469 137.828 30.9167 137.578 31.4062C137.328 31.8854 137.203 32.4635 137.203 33.1406L136.875 30.0156C137.365 29.0677 138.005 28.3385 138.797 27.8281C139.589 27.3073 140.469 27.0469 141.438 27.0469C142.583 27.0469 143.562 27.3073 144.375 27.8281C145.198 28.3385 145.823 29.0885 146.25 30.0781C146.677 31.0677 146.891 32.2604 146.891 33.6562V37.1875C146.891 38.5625 146.672 39.7396 146.234 40.7188C145.797 41.6979 145.156 42.4479 144.312 42.9688C143.469 43.4792 142.458 43.7344 141.281 43.7344Z" fill="black"/>
</svg>
