<svg width="256" height="128" viewBox="0 0 256 128" fill="none" xmlns="http://www.w3.org/2000/svg">
<rect width="256" height="128" rx="24" fill="white"/>
<path d="M70.8906 65.1562H78.1562C78.8438 65.1562 79.4479 64.9948 79.9688 64.6719C80.4896 64.349 80.8906 63.8906 81.1719 63.2969C81.4635 62.7031 81.6094 62.0208 81.6094 61.25C81.6094 60.4688 81.4635 59.7812 81.1719 59.1875C80.8906 58.5938 80.4896 58.1354 79.9688 57.8125C79.4479 57.4792 78.8438 57.3125 78.1562 57.3125H70.8906V54.2812H78.0469C79.401 54.2812 80.5938 54.5729 81.625 55.1562C82.6562 55.7292 83.4531 56.5417 84.0156 57.5938C84.5885 58.6458 84.875 59.8646 84.875 61.25C84.875 62.6354 84.5885 63.8542 84.0156 64.9062C83.4531 65.9479 82.6562 66.7552 81.625 67.3281C80.5938 67.901 79.401 68.1875 78.0469 68.1875H70.8906V65.1562ZM69.25 54.2812H72.4375V77H69.25V54.2812ZM88.875 54.2812H92.0625V57.4688H88.875V54.2812ZM88.875 60.7812H92.0625V77H88.875V60.7812ZM96.9062 60.7812H100.094V77H96.9062V60.7812ZM106.75 67.1719C106.75 66.026 106.453 65.1406 105.859 64.5156C105.266 63.8906 104.432 63.5781 103.359 63.5781C102.318 63.5781 101.51 63.8542 100.938 64.4062C100.375 64.9583 100.094 65.7344 100.094 66.7344L99.7656 63.6094C100.266 62.6302 100.917 61.875 101.719 61.3438C102.531 60.8125 103.427 60.5469 104.406 60.5469C106.167 60.5469 107.526 61.125 108.484 62.2812C109.453 63.4271 109.938 65.0521 109.938 67.1562V77H106.75V67.1719ZM114.781 60.7812H117.969V77H114.781V60.7812ZM124.625 67.1719C124.625 66.026 124.328 65.1406 123.734 64.5156C123.141 63.8906 122.307 63.5781 121.234 63.5781C120.193 63.5781 119.385 63.8542 118.812 64.4062C118.25 64.9583 117.969 65.7344 117.969 66.7344L117.641 63.6094C118.141 62.6302 118.792 61.875 119.594 61.3438C120.406 60.8125 121.302 60.5469 122.281 60.5469C124.042 60.5469 125.401 61.125 126.359 62.2812C127.328 63.4271 127.812 65.0521 127.812 67.1562V77H124.625V67.1719ZM141.812 66.7188C141.812 65.6562 141.526 64.8333 140.953 64.25C140.391 63.6562 139.589 63.3594 138.547 63.3594C137.901 63.3594 137.266 63.4583 136.641 63.6562C136.026 63.8542 135.479 64.1302 135 64.4844L132.672 62.8906C133.286 62.151 134.094 61.5781 135.094 61.1719C136.104 60.7552 137.224 60.5469 138.453 60.5469C139.797 60.5469 140.948 60.7865 141.906 61.2656C142.865 61.7344 143.594 62.4219 144.094 63.3281C144.594 64.224 144.844 65.3073 144.844 66.5781V77H141.812V66.7188ZM137.844 77.2344C135.844 77.2344 134.349 76.8229 133.359 76C132.37 75.1667 131.875 73.9062 131.875 72.2188C131.875 70.6146 132.328 69.4115 133.234 68.6094C134.141 67.8073 135.51 67.4062 137.344 67.4062H141.953L142.172 69.9688H137.359C136.526 69.9688 135.901 70.1562 135.484 70.5312C135.078 70.8958 134.875 71.4583 134.875 72.2188C134.875 73.0417 135.146 73.651 135.688 74.0469C136.24 74.4427 137.073 74.6406 138.188 74.6406C139.406 74.6406 140.312 74.5104 140.906 74.25C141.51 73.9896 141.812 73.5833 141.812 73.0312L142.141 75.3125C141.859 75.75 141.51 76.1094 141.094 76.3906C140.688 76.6719 140.214 76.8802 139.672 77.0156C139.13 77.1615 138.521 77.2344 137.844 77.2344ZM156.234 77.2344C154.755 77.2344 153.49 76.9583 152.438 76.4062C151.396 75.8542 150.599 75.0521 150.047 74C149.495 72.9479 149.219 71.6771 149.219 70.1875V67.5156C149.219 66.0469 149.495 64.7917 150.047 63.75C150.599 62.7083 151.396 61.9167 152.438 61.375C153.49 60.8229 154.755 60.5469 156.234 60.5469C157.078 60.5469 157.87 60.651 158.609 60.8594C159.359 61.0573 160.031 61.349 160.625 61.7344C161.219 62.1198 161.714 62.5885 162.109 63.1406L159.812 65.2031C159.354 64.6823 158.818 64.2812 158.203 64C157.589 63.7188 156.948 63.5781 156.281 63.5781C155.052 63.5781 154.099 63.9219 153.422 64.6094C152.745 65.2969 152.406 66.2656 152.406 67.5156V70.1875C152.406 71.4688 152.74 72.4583 153.406 73.1562C154.083 73.8542 155.042 74.2031 156.281 74.2031C156.958 74.2031 157.604 74.0521 158.219 73.75C158.833 73.4479 159.365 73.0208 159.812 72.4688L162.109 74.6875C161.703 75.2292 161.203 75.6927 160.609 76.0781C160.016 76.4531 159.344 76.7396 158.594 76.9375C157.854 77.1354 157.068 77.2344 156.234 77.2344ZM168.812 72.8125C168.812 73.2083 168.896 73.5156 169.062 73.7344C169.24 73.9427 169.484 74.0469 169.797 74.0469H171.297V77.0781H169.422C168.214 77.0781 167.276 76.7031 166.609 75.9531C165.953 75.2031 165.625 74.1458 165.625 72.7812V54.2812H168.812V72.8125ZM181.547 77.2344C180.047 77.2344 178.766 76.9531 177.703 76.3906C176.641 75.8281 175.828 75.0052 175.266 73.9219C174.714 72.8281 174.438 71.5104 174.438 69.9688V68.1406C174.438 66.5365 174.703 65.1667 175.234 64.0312C175.776 62.8958 176.557 62.0312 177.578 61.4375C178.599 60.8438 179.828 60.5469 181.266 60.5469C182.62 60.5469 183.776 60.8854 184.734 61.5625C185.693 62.2396 186.422 63.2188 186.922 64.5C187.432 65.7812 187.688 67.3177 187.688 69.1094V70.1719H176.75V67.6094H184.656C184.562 66.2865 184.219 65.2604 183.625 64.5312C183.042 63.7917 182.255 63.4219 181.266 63.4219C180.057 63.4219 179.12 63.8177 178.453 64.6094C177.797 65.401 177.469 66.5208 177.469 67.9688V70.0312C177.469 71.375 177.823 72.4062 178.531 73.125C179.24 73.8438 180.245 74.2031 181.547 74.2031C182.193 74.2031 182.833 74.0729 183.469 73.8125C184.104 73.5521 184.672 73.1875 185.172 72.7188L187.266 74.8125C186.464 75.5833 185.562 76.1823 184.562 76.6094C183.562 77.026 182.557 77.2344 181.547 77.2344Z" fill="black"/>
</svg>
