<svg width="256" height="128" viewBox="0 0 256 128" fill="none" xmlns="http://www.w3.org/2000/svg">
<rect width="256" height="128" rx="16" fill="white"/>
<ellipse cx="128" cy="64" rx="100" ry="19" fill="black"/>
<path d="M89.6562 89.5H86.0625C85.9583 89.5 85.9062 89.4479 85.9062 89.3438L85.9688 67.3594C85.9688 67.276 86.0104 67.2344 86.0938 67.2344H92.25C94.2083 67.2344 95.7552 67.8333 96.8906 69.0312C98.0365 70.2188 98.6094 71.8385 98.6094 73.8906C98.6094 75.3906 98.3125 76.6979 97.7188 77.8125C97.1146 78.9167 96.3333 79.7708 95.375 80.375C94.4167 80.9792 93.375 81.2812 92.25 81.2812H89.8125V89.3438C89.8125 89.4479 89.7604 89.5 89.6562 89.5ZM92.25 71.0312L89.8125 71.0625V77.4062H92.25C92.9271 77.4062 93.5156 77.0833 94.0156 76.4375C94.5156 75.7812 94.7656 74.9323 94.7656 73.8906C94.7656 73.0573 94.5417 72.375 94.0938 71.8438C93.6458 71.3021 93.0312 71.0312 92.25 71.0312ZM104.312 89.5H100.688C100.583 89.5 100.531 89.4479 100.531 89.3438L100.562 67.3594C100.562 67.276 100.604 67.2344 100.688 67.2344H104.281C104.365 67.2344 104.406 67.276 104.406 67.3594L104.438 89.3438C104.438 89.4479 104.396 89.5 104.312 89.5ZM114.078 89.5H110.469C110.375 89.5 110.328 89.4479 110.328 89.3438V71.0938H106.172C106.068 71.0938 106.016 71.0417 106.016 70.9375L106.047 67.3594C106.047 67.276 106.089 67.2344 106.172 67.2344H118.328C118.443 67.2344 118.5 67.276 118.5 67.3594V70.9375C118.5 71.0417 118.458 71.0938 118.375 71.0938H114.172L114.203 89.3438C114.203 89.4479 114.161 89.5 114.078 89.5ZM123.812 89.5H120.219C120.115 89.5 120.062 89.4479 120.062 89.3438L120.125 67.3594C120.125 67.276 120.167 67.2344 120.25 67.2344H130.5C130.604 67.2344 130.656 67.276 130.656 67.3594V70.9688C130.656 71.0521 130.615 71.0938 130.531 71.0938H123.969V76.0625H130.531C130.615 76.0625 130.656 76.1146 130.656 76.2188L130.688 79.8438C130.688 79.9271 130.635 79.9688 130.531 79.9688H123.969V89.3438C123.969 89.4479 123.917 89.5 123.812 89.5ZM132.453 89.3438L136.422 67.3594C136.443 67.276 136.495 67.2344 136.578 67.2344H141.219C141.302 67.2344 141.354 67.276 141.375 67.3594L145.188 89.3438C145.198 89.4479 145.156 89.5 145.062 89.5H141.516C141.411 89.5 141.354 89.4479 141.344 89.3438L141 87H136.641L136.297 89.3438C136.286 89.4479 136.234 89.5 136.141 89.5H132.578C132.495 89.5 132.453 89.4479 132.453 89.3438ZM139.047 74.5938L138.859 73.4062L138.719 74.5938L137.281 83.5781H140.359L139.047 74.5938ZM157.656 89.5H147.312C147.229 89.5 147.188 89.4479 147.188 89.3438L147.219 67.3906C147.219 67.2865 147.271 67.2344 147.375 67.2344H150.938C151.042 67.2344 151.094 67.2865 151.094 67.3906L151.062 85.5625H157.656C157.76 85.5625 157.812 85.6146 157.812 85.7188V89.3438C157.812 89.4479 157.76 89.5 157.656 89.5ZM170.375 89.5H160.031C159.948 89.5 159.906 89.4479 159.906 89.3438L159.938 67.3906C159.938 67.2865 159.99 67.2344 160.094 67.2344H163.656C163.76 67.2344 163.812 67.2865 163.812 67.3906L163.781 85.5625H170.375C170.479 85.5625 170.531 85.6146 170.531 85.7188V89.3438C170.531 89.4479 170.479 89.5 170.375 89.5Z" fill="white"/>
<mask id="mask0_79_293" style="mask-type:alpha" maskUnits="userSpaceOnUse" x="28" y="45" width="200" height="38">
<ellipse cx="128" cy="64" rx="100" ry="19" fill="#D9D9D9"/>
</mask>
<g mask="url(#mask0_79_293)">
<path d="M78 81H178" stroke="black" stroke-width="4"/>
<path d="M78 77.5H178" stroke="black" stroke-width="2"/>
<path d="M78 74H178" stroke="black" stroke-width="2"/>
<path d="M78 71H178" stroke="black"/>
</g>
<rect x="8" y="8" width="240" height="112" rx="8" stroke="black" stroke-width="4"/>
</svg>
