<svg width="256" height="128" viewBox="0 0 256 128" fill="none" xmlns="http://www.w3.org/2000/svg">
<rect width="256" height="128" rx="16" fill="white"/>
<ellipse cx="128" cy="64" rx="100" ry="19" fill="black"/>
<path d="M89.6562 75.5H86.0625C85.9583 75.5 85.9062 75.4479 85.9062 75.3438L85.9688 53.3594C85.9688 53.276 86.0104 53.2344 86.0938 53.2344H92.25C94.2083 53.2344 95.7552 53.8333 96.8906 55.0312C98.0365 56.2188 98.6094 57.8385 98.6094 59.8906C98.6094 61.3906 98.3125 62.6979 97.7188 63.8125C97.1146 64.9167 96.3333 65.7708 95.375 66.375C94.4167 66.9792 93.375 67.2812 92.25 67.2812H89.8125V75.3438C89.8125 75.4479 89.7604 75.5 89.6562 75.5ZM92.25 57.0312L89.8125 57.0625V63.4062H92.25C92.9271 63.4062 93.5156 63.0833 94.0156 62.4375C94.5156 61.7812 94.7656 60.9323 94.7656 59.8906C94.7656 59.0573 94.5417 58.375 94.0938 57.8438C93.6458 57.3021 93.0312 57.0312 92.25 57.0312ZM104.312 75.5H100.688C100.583 75.5 100.531 75.4479 100.531 75.3438L100.562 53.3594C100.562 53.276 100.604 53.2344 100.688 53.2344H104.281C104.365 53.2344 104.406 53.276 104.406 53.3594L104.438 75.3438C104.438 75.4479 104.396 75.5 104.312 75.5ZM114.078 75.5H110.469C110.375 75.5 110.328 75.4479 110.328 75.3438V57.0938H106.172C106.068 57.0938 106.016 57.0417 106.016 56.9375L106.047 53.3594C106.047 53.276 106.089 53.2344 106.172 53.2344H118.328C118.443 53.2344 118.5 53.276 118.5 53.3594V56.9375C118.5 57.0417 118.458 57.0938 118.375 57.0938H114.172L114.203 75.3438C114.203 75.4479 114.161 75.5 114.078 75.5ZM123.812 75.5H120.219C120.115 75.5 120.062 75.4479 120.062 75.3438L120.125 53.3594C120.125 53.276 120.167 53.2344 120.25 53.2344H130.5C130.604 53.2344 130.656 53.276 130.656 53.3594V56.9688C130.656 57.0521 130.615 57.0938 130.531 57.0938H123.969V62.0625H130.531C130.615 62.0625 130.656 62.1146 130.656 62.2188L130.688 65.8438C130.688 65.9271 130.635 65.9688 130.531 65.9688H123.969V75.3438C123.969 75.4479 123.917 75.5 123.812 75.5ZM132.453 75.3438L136.422 53.3594C136.443 53.276 136.495 53.2344 136.578 53.2344H141.219C141.302 53.2344 141.354 53.276 141.375 53.3594L145.188 75.3438C145.198 75.4479 145.156 75.5 145.062 75.5H141.516C141.411 75.5 141.354 75.4479 141.344 75.3438L141 73H136.641L136.297 75.3438C136.286 75.4479 136.234 75.5 136.141 75.5H132.578C132.495 75.5 132.453 75.4479 132.453 75.3438ZM139.047 60.5938L138.859 59.4062L138.719 60.5938L137.281 69.5781H140.359L139.047 60.5938ZM157.656 75.5H147.312C147.229 75.5 147.188 75.4479 147.188 75.3438L147.219 53.3906C147.219 53.2865 147.271 53.2344 147.375 53.2344H150.938C151.042 53.2344 151.094 53.2865 151.094 53.3906L151.062 71.5625H157.656C157.76 71.5625 157.812 71.6146 157.812 71.7188V75.3438C157.812 75.4479 157.76 75.5 157.656 75.5ZM170.375 75.5H160.031C159.948 75.5 159.906 75.4479 159.906 75.3438L159.938 53.3906C159.938 53.2865 159.99 53.2344 160.094 53.2344H163.656C163.76 53.2344 163.812 53.2865 163.812 53.3906L163.781 71.5625H170.375C170.479 71.5625 170.531 71.6146 170.531 71.7188V75.3438C170.531 75.4479 170.479 75.5 170.375 75.5Z" fill="white"/>
<mask id="mask0_88_1095" style="mask-type:alpha" maskUnits="userSpaceOnUse" x="28" y="45" width="200" height="38">
<ellipse cx="128" cy="64" rx="100" ry="19" fill="#D9D9D9"/>
</mask>
<g mask="url(#mask0_88_1095)">
<path d="M78 81H178" stroke="black" stroke-width="4"/>
<path d="M78 77.5H178" stroke="black" stroke-width="2"/>
<path d="M78 74H178" stroke="black" stroke-width="2"/>
<path d="M78 71H178" stroke="black"/>
</g>
<rect x="9" y="9" width="238" height="110" rx="7" stroke="black" stroke-width="6"/>
</svg>
