<svg xmlns="http://www.w3.org/2000/svg" width="527.578" height="180.401" viewBox="0 0 139.588 47.731">
  <path id="bg" d="M115.723 47.731c13.18 0 23.865-10.685 23.865-23.865C139.588 10.686 128.904 0 115.723 0H23.866C10.686 0 0 10.685 0 23.866 0 37.046 10.685 47.73 23.866 47.73z"/>
  <path id="icon" fill="#fff" d="M37.779 363.691v17.532h2.46v-6.8h4.328c1.045 0 1.966-.221 2.761-.663a4.59 4.59 0 0 0 1.845-1.87c.442-.811.663-1.752.663-2.821 0-1.07-.22-2.01-.663-2.822a4.571 4.571 0 0 0-1.845-1.88c-.795-.45-1.716-.676-2.761-.676h-5.522Zm15.132 0v14.277c0 1.053.253 1.869.76 2.448.514.578 1.238.868 2.17.868h1.447v-2.34H56.13c-.24 0-.43-.08-.566-.241-.13-.169-.193-.406-.193-.711V363.69zm31.712 0c-1.06 0-1.849.277-2.363.832-.507.547-.76 1.375-.76 2.484v1.7h-1.326v2.098H81.5v10.418h2.46v-10.418h2.472v-2.098H83.96v-1.724c0-.282.06-.51.18-.688a.601.601 0 0 1 .531-.265h1.76v-2.339zm-11.214 1.375v3.641h-1.29v2.219h1.29v7.042c0 1.093.233 1.921.7 2.484.474.554 1.218.832 2.23.832h1.423v-2.34H76.58c-.233 0-.41-.08-.53-.241-.12-.169-.18-.406-.18-.711v-7.066h1.892v-2.219H75.87v-3.641zm-33.17.964h4.413c.53 0 .996.13 1.398.386.402.25.711.603.929 1.061.225.459.337.99.337 1.592 0 .595-.112 1.121-.337 1.58a2.445 2.445 0 0 1-.93 1.06c-.401.25-.867.374-1.397.374h-4.414Zm-12.324 2.219v3.726H24.25v2.34h3.665v3.725h2.46v-3.726h3.665v-2.34h-3.665v-3.725zm36.5.277c-.95 0-1.814.16-2.593.482-.772.314-1.395.756-1.87 1.327l1.797 1.23a4.36 4.36 0 0 1 1.266-.64 4.847 4.847 0 0 1 1.472-.228c.803 0 1.422.229 1.856.687.442.45.664 1.085.664 1.905v.53h-3.45c-1.414 0-2.47.31-3.17.93-.7.618-1.049 1.547-1.049 2.785 0 1.302.381 2.275 1.145 2.918.764.635 1.918.952 3.46.952.523 0 .994-.056 1.412-.169a3.324 3.324 0 0 0 1.097-.482c.21-.142.39-.319.555-.512v.982h2.339v-8.042c0-.98-.193-1.817-.58-2.509a3.765 3.765 0 0 0-1.687-1.591c-.74-.37-1.628-.555-2.665-.555zm28.986 0c-1.085 0-2.014.214-2.785.64a4.187 4.187 0 0 0-1.773 1.844c-.402.804-.602 1.773-.602 2.906v2.038c0 1.15.2 2.134.602 2.954.41.812 1.001 1.43 1.773 1.857.771.426 1.7.64 2.785.64 1.085 0 2.014-.214 2.785-.64a4.202 4.202 0 0 0 1.761-1.845c.41-.812.615-1.789.615-2.93v-2.074c0-1.133-.205-2.102-.615-2.906a4.12 4.12 0 0 0-1.76-1.844c-.772-.426-1.7-.64-2.786-.64zm14.385 0c-.74 0-1.415.21-2.026.627a4.358 4.358 0 0 0-1.242 1.306v-1.752h-2.46v12.516h2.46v-7.922c0-.763.213-1.358.64-1.784.433-.434 1.04-.651 1.82-.651.434 0 .816.068 1.146.204.33.137.603.338.82.603l1.603-2.17a3.385 3.385 0 0 0-1.218-.723 4.438 4.438 0 0 0-1.543-.254zm10.599 0c-.756 0-1.447.205-2.074.615a4.298 4.298 0 0 0-1.254 1.313v-1.747h-2.46v12.516h2.46v-7.922c0-.771.217-1.37.651-1.797.442-.426 1.065-.638 1.869-.638.796 0 1.41.24 1.845.723.434.483.65 1.165.65 2.05v7.584h2.46v-7.596c0-.036-.003-.069-.003-.105l.004.02c0-.851.209-1.51.627-1.977.418-.466 1.009-.7 1.772-.7.828 0 1.471.242 1.93.724.458.483.687 1.165.687 2.05v7.584h2.46v-7.596c0-1.077-.17-1.998-.507-2.761-.33-.764-.816-1.343-1.459-1.737-.635-.401-1.403-.603-2.303-.603-.78 0-1.495.23-2.146.688-.614.43-1.111 1.037-1.498 1.811-.02-.052-.036-.109-.058-.16-.321-.763-.791-1.342-1.41-1.736-.62-.401-1.367-.603-2.243-.603zm-24.984 2.34c.86 0 1.523.265 1.99.796.474.53.711 1.282.711 2.254v2.074c0 .973-.237 1.728-.711 2.267-.467.539-1.13.808-1.99.808-.86 0-1.527-.27-2.001-.808-.467-.539-.7-1.294-.7-2.267v-2.074c0-.972.233-1.724.7-2.254.474-.531 1.14-.796 2.001-.796zm-29.83 4.931h3.436v2.363c0 .426-.234.74-.7.94-.458.202-1.157.303-2.098.303-.86 0-1.503-.153-1.93-.459-.417-.305-.626-.775-.626-1.41 0-.587.157-1.021.47-1.303.322-.29.804-.434 1.447-.434z" font-family="Bahnschrift" font-size="24.694" style="-inkscape-font-specification:'Bahnschrift, Normal';text-align:center" text-anchor="middle" transform="translate(-8.393 -349.211)"/>
</svg>
