<svg width="156" height="53" viewBox="0 0 156 53" fill="none" xmlns="http://www.w3.org/2000/svg">
<g clip-path="url(#clip0_242_85)">
<path d="M129.329 53C144.059 53 156 41.1355 156 26.5006C156 11.8656 144.06 0 129.329 0H26.672C11.9424 0 0 11.8645 0 26.5006C0 41.1355 11.9413 52.9989 26.672 52.9989L129.329 53Z" fill="white"/>
<path d="M32.8411 16.0784V35.5458H35.5903V27.9951H40.4272C41.595 27.9951 42.6243 27.7498 43.5128 27.259C44.389 26.7812 45.1057 26.0595 45.5747 25.1825C46.0687 24.282 46.3157 23.2371 46.3157 22.0501C46.3157 20.862 46.0698 19.8182 45.5747 18.9166C45.1084 18.0348 44.3914 17.3088 43.5128 16.8291C42.6243 16.3294 41.595 16.0784 40.4272 16.0784H34.2559H32.8411ZM49.7522 16.0784V31.9315C49.7522 33.1007 50.0349 34.0068 50.6016 34.6497C51.176 35.2915 51.9851 35.6135 53.0267 35.6135H54.6438V33.0152H53.3497C53.0815 33.0152 52.8691 32.9264 52.7171 32.7476C52.5718 32.56 52.5014 32.2968 52.5014 31.9581V16.0773L49.7522 16.0784ZM85.1927 16.0784C84.0081 16.0784 83.1263 16.386 82.5519 17.0023C81.9853 17.6097 81.7025 18.5291 81.7025 19.7605V21.6482H80.2206V23.9777H81.7025V35.5458H84.4518V23.9777H87.2144V21.6482H84.4518V19.7338C84.4518 19.4207 84.5188 19.1676 84.6529 18.9699C84.7177 18.874 84.8065 18.7965 84.9105 18.7449C85.0145 18.6933 85.1303 18.6695 85.2463 18.6756H87.2133V16.0784H85.1927ZM72.6602 17.6052V21.6482H71.2186V24.1121H72.6602V31.9315C72.6602 33.1451 72.9206 34.0645 73.4425 34.6897C73.9723 35.3048 74.8037 35.6135 75.9347 35.6135H77.525V33.0152H76.2041C75.9437 33.0152 75.7459 32.9264 75.6117 32.7476C75.4776 32.56 75.4106 32.2968 75.4106 31.9581V24.1121H77.525V21.6482H75.4106V17.6052H72.6602ZM35.5903 18.6756H40.5222C41.1145 18.6756 41.6353 18.82 42.0845 19.1042C42.5338 19.3818 42.8791 19.7738 43.1227 20.2824C43.3742 20.792 43.4994 21.3817 43.4994 22.0501C43.4994 22.7108 43.3742 23.2948 43.1227 23.8045C42.9002 24.2898 42.5387 24.6992 42.0834 24.9816C41.6353 25.2592 41.1145 25.3968 40.5222 25.3968H35.5892L35.5903 18.6756ZM21.8173 21.1396V25.2769H17.7214V27.8752H21.8173V32.0114H24.5665V27.8741H28.6625V25.2758H24.5665V21.1396H21.8173ZM62.6088 21.4472C61.5471 21.4472 60.5815 21.6248 59.7109 21.9824C58.8481 22.331 58.1519 22.8218 57.621 23.4559L59.6293 24.8216C60.0587 24.5096 60.5367 24.2695 61.0442 24.111C61.5761 23.9429 62.131 23.8575 62.6892 23.8578C63.5866 23.8578 64.2784 24.1121 64.7635 24.6207C65.2574 25.1203 65.5055 25.8254 65.5055 26.736V27.3245H61.6499C60.0696 27.3245 58.8895 27.6687 58.1072 28.3571C57.3249 29.0433 56.9348 30.0749 56.9348 31.4496C56.9348 32.8953 57.3606 33.9757 58.2145 34.6897C59.0683 35.3948 60.358 35.7468 62.0813 35.7468C62.6658 35.7468 63.1921 35.6846 63.6593 35.5591C64.0972 35.456 64.5126 35.2746 64.8853 35.0239C65.12 34.8662 65.3211 34.6697 65.5055 34.4554V35.5458H68.1195V26.616C68.1195 25.5279 67.9038 24.5985 67.4713 23.8301C67.0456 23.0588 66.3859 22.4406 65.586 22.0634C64.759 21.6526 63.7677 21.4472 62.6088 21.4472ZM95.0028 21.4472C93.7902 21.4472 92.752 21.6848 91.8903 22.1578C91.031 22.6182 90.3382 23.3342 89.9089 24.2054C89.4596 25.0981 89.2361 26.1741 89.2361 27.4322V29.6952C89.2361 30.9721 89.4596 32.0647 89.9089 32.9752C90.3671 33.8769 91.0276 34.5631 91.8903 35.0372C92.752 35.5103 93.7902 35.7479 95.0028 35.7479C96.2153 35.7479 97.2536 35.5103 98.1152 35.0372C98.969 34.5734 99.6567 33.8576 100.083 32.9886C100.541 32.0869 100.771 31.0021 100.771 29.7351V27.4322C100.771 26.1741 100.541 25.0981 100.083 24.2054C99.662 23.3334 98.9733 22.6166 98.1163 22.1578C97.2536 21.6848 96.2165 21.4472 95.0028 21.4472ZM111.079 21.4472C110.252 21.4472 109.498 21.6804 108.815 22.1434C108.256 22.5254 107.783 23.0194 107.427 23.5936V21.6482H104.678V35.5458H107.427V26.7493C107.427 25.902 107.665 25.2414 108.142 24.7683C108.626 24.2864 109.304 24.0455 110.176 24.0455C110.661 24.0455 111.088 24.121 111.457 24.272C111.826 24.4241 112.131 24.6473 112.373 24.9416L114.165 22.532C113.773 22.172 113.309 21.8984 112.803 21.7292C112.25 21.5345 111.666 21.439 111.079 21.4472ZM122.924 21.4472C122.079 21.4472 121.307 21.6748 120.606 22.1301C120.04 22.5113 119.562 23.0084 119.205 23.588V21.6482H116.456V35.5458H119.205V26.7493C119.205 25.8932 119.447 25.228 119.932 24.7539C120.426 24.2809 121.123 24.0455 122.021 24.0455C122.911 24.0455 123.597 24.312 124.083 24.8483C124.568 25.3846 124.81 26.1419 124.81 27.1246V35.5458H127.559V27.1113C127.559 27.0713 127.555 27.0347 127.555 26.9947L127.56 27.0169C127.56 26.0719 127.794 25.3402 128.261 24.8216C128.728 24.3042 129.388 24.0444 130.241 24.0444C131.166 24.0444 131.885 24.3131 132.398 24.8483C132.91 25.3846 133.166 26.1419 133.166 27.1246V35.5458H135.915V27.1113C135.915 25.9154 135.725 24.8927 135.348 24.0455C134.98 23.1971 134.436 22.5542 133.718 22.1167C133.008 21.6715 132.15 21.4472 131.144 21.4472C130.272 21.4472 129.473 21.7025 128.746 22.2111C128.059 22.6886 127.504 23.3626 127.072 24.222C127.049 24.1643 127.031 24.101 127.007 24.0444C126.648 23.1971 126.123 22.5542 125.431 22.1167C124.738 21.6715 123.903 21.4472 122.924 21.4472ZM95.0028 24.0455C95.9639 24.0455 96.7048 24.3397 97.2267 24.9293C97.7565 25.5178 98.0213 26.3529 98.0213 27.4322V29.7351C98.0213 30.8155 97.7565 31.6539 97.2267 32.2524C96.7048 32.8509 95.9639 33.1496 95.0028 33.1496C94.0417 33.1496 93.2962 32.8497 92.7665 32.2524C92.2446 31.6539 91.9842 30.8155 91.9842 29.7351V27.4322C91.9842 26.3529 92.2446 25.5178 92.7665 24.9293C93.2962 24.3397 94.0405 24.0455 95.0028 24.0455ZM61.6655 29.5208H65.5055V32.1447C65.5055 32.6177 65.244 32.9664 64.7232 33.1884C64.2114 33.4127 63.4302 33.5249 62.3785 33.5249C61.4174 33.5249 60.6988 33.355 60.2216 33.0152C59.7556 32.6765 59.522 32.1547 59.522 31.4496C59.522 30.7978 59.6975 30.3158 60.0473 30.0027C60.4071 29.6807 60.9469 29.5208 61.6655 29.5208Z" fill="black"/>
</g>
<defs>
<clipPath id="clip0_242_85">
<rect width="156" height="53" fill="white"/>
</clipPath>
</defs>
</svg>
