<svg width="110" height="64" viewBox="0 0 110 64" fill="none" xmlns="http://www.w3.org/2000/svg">
<rect width="110" height="64" rx="32" fill="white"/>
<path d="M28.9062 31.6562H36.1719C36.8594 31.6562 37.4635 31.4948 37.9844 31.1719C38.5052 30.849 38.9062 30.3906 39.1875 29.7969C39.4792 29.2031 39.625 28.5208 39.625 27.75C39.625 26.9688 39.4792 26.2812 39.1875 25.6875C38.9062 25.0938 38.5052 24.6354 37.9844 24.3125C37.4635 23.9792 36.8594 23.8125 36.1719 23.8125H28.9062V20.7812H36.0625C37.4167 20.7812 38.6094 21.0729 39.6406 21.6562C40.6719 22.2292 41.4688 23.0417 42.0312 24.0938C42.6042 25.1458 42.8906 26.3646 42.8906 27.75C42.8906 29.1354 42.6042 30.3542 42.0312 31.4062C41.4688 32.4479 40.6719 33.2552 39.6406 33.8281C38.6094 34.401 37.4167 34.6875 36.0625 34.6875H28.9062V31.6562ZM27.2656 20.7812H30.4531V43.5H27.2656V20.7812ZM50.0781 39.3125C50.0781 39.7083 50.1615 40.0156 50.3281 40.2344C50.5052 40.4427 50.75 40.5469 51.0625 40.5469H52.5625V43.5781H50.6875C49.4792 43.5781 48.5417 43.2031 47.875 42.4531C47.2188 41.7031 46.8906 40.6458 46.8906 39.2812V20.7812H50.0781V39.3125ZM65.1719 33.2188C65.1719 32.1562 64.8854 31.3333 64.3125 30.75C63.75 30.1562 62.9479 29.8594 61.9062 29.8594C61.2604 29.8594 60.625 29.9583 60 30.1562C59.3854 30.3542 58.8385 30.6302 58.3594 30.9844L56.0312 29.3906C56.6458 28.651 57.4531 28.0781 58.4531 27.6719C59.4635 27.2552 60.5833 27.0469 61.8125 27.0469C63.1562 27.0469 64.3073 27.2865 65.2656 27.7656C66.224 28.2344 66.9531 28.9219 67.4531 29.8281C67.9531 30.724 68.2031 31.8073 68.2031 33.0781V43.5H65.1719V33.2188ZM61.2031 43.7344C59.2031 43.7344 57.7083 43.3229 56.7188 42.5C55.7292 41.6667 55.2344 40.4062 55.2344 38.7188C55.2344 37.1146 55.6875 35.9115 56.5938 35.1094C57.5 34.3073 58.8698 33.9062 60.7031 33.9062H65.3125L65.5312 36.4688H60.7188C59.8854 36.4688 59.2604 36.6562 58.8438 37.0312C58.4375 37.3958 58.2344 37.9583 58.2344 38.7188C58.2344 39.5417 58.5052 40.151 59.0469 40.5469C59.599 40.9427 60.4323 41.1406 61.5469 41.1406C62.7656 41.1406 63.6719 41.0104 64.2656 40.75C64.8698 40.4896 65.1719 40.0833 65.1719 39.5312L65.5 41.8125C65.2188 42.25 64.8698 42.6094 64.4531 42.8906C64.0469 43.1719 63.5729 43.3802 63.0312 43.5156C62.4896 43.6615 61.8802 43.7344 61.2031 43.7344ZM85.2188 27.2812L78.3125 47.2969C78.0625 48.0365 77.7344 48.6198 77.3281 49.0469C76.9219 49.4844 76.4219 49.7969 75.8281 49.9844C75.2344 50.1719 74.5052 50.2656 73.6406 50.2656H73V47.2031H73.6406C74.2344 47.2031 74.7031 47.0833 75.0469 46.8438C75.401 46.6042 75.7083 46.1927 75.9688 45.6094L81.9688 27.2812H85.2188ZM70.8594 27.2812H74.1094L79.0938 41.375L77.3281 44.8281L70.8594 27.2812Z" fill="black"/>
</svg>
