<svg xmlns="http://www.w3.org/2000/svg" width="407.578" height="180.401" viewBox="0 0 107.838 47.731">
  <path id="bg" d="M83.973 47.731c13.18 0 23.865-10.685 23.865-23.865C107.838 10.686 97.154 0 83.973 0H23.866C10.686 0 0 10.685 0 23.866 0 37.046 10.685 47.73 23.866 47.73z"/>
  <path id="icon" fill="#fff" d="M73.216-164.516h6.408q.91 0 1.598-.427.69-.427 1.061-1.213.386-.785.386-1.805 0-1.033-.386-1.819-.372-.785-1.06-1.213-.69-.44-1.6-.44h-6.407v-2.674h6.311q1.792 0 3.156.772 1.364.758 2.108 2.15.758 1.391.758 3.224 0 1.833-.758 3.225-.744 1.378-2.108 2.136-1.364.758-3.156.758h-6.311zm-1.447-9.591h2.811v20.037H71.77zm20.105 16.344q0 .523.221.813.234.275.648.275h1.323V-154h-1.654q-1.599 0-2.48-.993-.869-.992-.869-2.797v-16.316h2.811Zm13.299-5.375q0-1.405-.758-2.177-.745-.786-2.123-.786-.854 0-1.68.262-.814.262-1.448.73l-2.053-1.405q.813-.978 2.136-1.516 1.337-.551 2.963-.551 1.777 0 3.045.634 1.268.62 1.93 1.819.661 1.185.661 2.866v9.192h-2.673zm-3.5 9.274q-2.646 0-3.956-1.088-1.309-1.103-1.309-3.335 0-2.122 1.2-3.183 1.198-1.061 3.623-1.061h4.066l.193 2.26h-4.245q-1.102 0-1.653.496-.538.482-.538 1.488 0 1.089.717 1.612.73.524 2.205.524 1.612 0 2.397-.345.8-.344.8-1.075l.289 2.012q-.372.58-.923.951-.538.372-1.254.551-.717.193-1.613.193zm21.18-14.51-6.091 17.652q-.33.979-.868 1.544-.538.579-1.323.827-.786.248-1.93.248h-.564v-2.701h.565q.785 0 1.24-.317.468-.317.813-1.089l5.291-16.164zm-12.664 0h2.866l4.396 12.43-1.557 3.045z" aria-label="Play" direction="rtl" font-family="Bahnschrift" font-size="28.222" style="-inkscape-font-specification:'Bahnschrift, Normal';text-align:center" text-anchor="middle" transform="translate(-43.392 186.686)"/>
</svg>
