<svg width="208" height="64" viewBox="0 0 208 64" fill="none" xmlns="http://www.w3.org/2000/svg">
<path d="M176 0C193.673 0 208 14.3269 208 32C208 49.6731 193.673 64 176 64H32C14.3269 64 0 49.6731 0 32C0 14.3269 14.3269 6.4426e-07 32 0H176ZM158.5 23V40.5L171 53.5L184 40.5V23L171 10L158.5 23Z" fill="white"/>
<path d="M28.6562 31.6562H35.9219C36.6094 31.6562 37.2135 31.4948 37.7344 31.1719C38.2552 30.849 38.6562 30.3906 38.9375 29.7969C39.2292 29.2031 39.375 28.5208 39.375 27.75C39.375 26.9688 39.2292 26.2812 38.9375 25.6875C38.6562 25.0938 38.2552 24.6354 37.7344 24.3125C37.2135 23.9792 36.6094 23.8125 35.9219 23.8125H28.6562V20.7812H35.8125C37.1667 20.7812 38.3594 21.0729 39.3906 21.6562C40.4219 22.2292 41.2188 23.0417 41.7812 24.0938C42.3542 25.1458 42.6406 26.3646 42.6406 27.75C42.6406 29.1354 42.3542 30.3542 41.7812 31.4062C41.2188 32.4479 40.4219 33.2552 39.3906 33.8281C38.3594 34.401 37.1667 34.6875 35.8125 34.6875H28.6562V31.6562ZM27.0156 20.7812H30.2031V43.5H27.0156V20.7812ZM49.8281 39.3125C49.8281 39.7083 49.9115 40.0156 50.0781 40.2344C50.2552 40.4427 50.5 40.5469 50.8125 40.5469H52.3125V43.5781H50.4375C49.2292 43.5781 48.2917 43.2031 47.625 42.4531C46.9688 41.7031 46.6406 40.6458 46.6406 39.2812V20.7812H49.8281V39.3125ZM64.9219 33.2188C64.9219 32.1562 64.6354 31.3333 64.0625 30.75C63.5 30.1562 62.6979 29.8594 61.6562 29.8594C61.0104 29.8594 60.375 29.9583 59.75 30.1562C59.1354 30.3542 58.5885 30.6302 58.1094 30.9844L55.7812 29.3906C56.3958 28.651 57.2031 28.0781 58.2031 27.6719C59.2135 27.2552 60.3333 27.0469 61.5625 27.0469C62.9062 27.0469 64.0573 27.2865 65.0156 27.7656C65.974 28.2344 66.7031 28.9219 67.2031 29.8281C67.7031 30.724 67.9531 31.8073 67.9531 33.0781V43.5H64.9219V33.2188ZM60.9531 43.7344C58.9531 43.7344 57.4583 43.3229 56.4688 42.5C55.4792 41.6667 54.9844 40.4062 54.9844 38.7188C54.9844 37.1146 55.4375 35.9115 56.3438 35.1094C57.25 34.3073 58.6198 33.9062 60.4531 33.9062H65.0625L65.2812 36.4688H60.4688C59.6354 36.4688 59.0104 36.6562 58.5938 37.0312C58.1875 37.3958 57.9844 37.9583 57.9844 38.7188C57.9844 39.5417 58.2552 40.151 58.7969 40.5469C59.349 40.9427 60.1823 41.1406 61.2969 41.1406C62.5156 41.1406 63.4219 41.0104 64.0156 40.75C64.6198 40.4896 64.9219 40.0833 64.9219 39.5312L65.25 41.8125C64.9688 42.25 64.6198 42.6094 64.2031 42.8906C63.7969 43.1719 63.3229 43.3802 62.7812 43.5156C62.2396 43.6615 61.6302 43.7344 60.9531 43.7344ZM84.9688 27.2812L78.0625 47.2969C77.8125 48.0365 77.4844 48.6198 77.0781 49.0469C76.6719 49.4844 76.1719 49.7969 75.5781 49.9844C74.9844 50.1719 74.2552 50.2656 73.3906 50.2656H72.75V47.2031H73.3906C73.9844 47.2031 74.4531 47.0833 74.7969 46.8438C75.151 46.6042 75.4583 46.1927 75.7188 45.6094L81.7188 27.2812H84.9688ZM70.6094 27.2812H73.8594L78.8438 41.375L77.0781 44.8281L70.6094 27.2812ZM94.125 43.7344C92.625 43.7344 91.3438 43.4531 90.2812 42.8906C89.2188 42.3281 88.4062 41.5052 87.8438 40.4219C87.2917 39.3281 87.0156 38.0104 87.0156 36.4688V34.6406C87.0156 33.0365 87.2812 31.6667 87.8125 30.5312C88.3542 29.3958 89.1354 28.5312 90.1562 27.9375C91.1771 27.3438 92.4062 27.0469 93.8438 27.0469C95.1979 27.0469 96.3542 27.3854 97.3125 28.0625C98.2708 28.7396 99 29.7188 99.5 31C100.01 32.2812 100.266 33.8177 100.266 35.6094V36.6719H89.3281V34.1094H97.2344C97.1406 32.7865 96.7969 31.7604 96.2031 31.0312C95.6198 30.2917 94.8333 29.9219 93.8438 29.9219C92.6354 29.9219 91.6979 30.3177 91.0312 31.1094C90.375 31.901 90.0469 33.0208 90.0469 34.4688V36.5312C90.0469 37.875 90.401 38.9062 91.1094 39.625C91.8177 40.3438 92.8229 40.7031 94.125 40.7031C94.7708 40.7031 95.4115 40.5729 96.0469 40.3125C96.6823 40.0521 97.25 39.6875 97.75 39.2188L99.8438 41.3125C99.0417 42.0833 98.1406 42.6823 97.1406 43.1094C96.1406 43.526 95.1354 43.7344 94.125 43.7344ZM104.641 27.2812H107.828V43.5H104.641V27.2812ZM113.562 31.125C113.281 30.7812 112.927 30.5208 112.5 30.3438C112.073 30.1667 111.578 30.0781 111.016 30.0781C110.005 30.0781 109.219 30.3594 108.656 30.9219C108.104 31.474 107.828 32.2448 107.828 33.2344L107.5 30.1094C108 29.1406 108.646 28.3906 109.438 27.8594C110.229 27.3177 111.104 27.0469 112.062 27.0469C112.802 27.0469 113.469 27.1562 114.062 27.375C114.667 27.5833 115.193 27.8958 115.641 28.3125L113.562 31.125Z" fill="black"/>
<path d="M158.544 23L171.272 10.2721L184 23M158.544 23L171.272 35.7279M158.544 23V41L171.272 53.7279M184 23L171.272 35.7279M184 23V41L171.272 53.7279M171.272 35.7279V53.7279" stroke="black" stroke-width="3" stroke-linecap="round" stroke-linejoin="round"/>
<path d="M174.607 26.6066L166.241 24.3651L172.365 18.2414L174.607 26.6066Z" stroke="black" stroke-width="2" stroke-linejoin="round"/>
</svg>
