<svg width="256" height="128" viewBox="0 0 256 128" fill="none" xmlns="http://www.w3.org/2000/svg">
<rect width="256" height="128" rx="24" fill="white"/>
<path d="M75.4062 64.3594H83.1562C83.7604 64.3594 84.2969 64.2135 84.7656 63.9219C85.2344 63.6302 85.5938 63.2188 85.8438 62.6875C86.1042 62.1458 86.2344 61.526 86.2344 60.8281C86.2344 60.1302 86.1042 59.5156 85.8438 58.9844C85.5938 58.4427 85.2344 58.026 84.7656 57.7344C84.3073 57.4427 83.7708 57.2969 83.1562 57.2969H75.4062V54.2656H83.0312C84.3438 54.2656 85.4948 54.5365 86.4844 55.0781C87.4844 55.6198 88.2552 56.3906 88.7969 57.3906C89.349 58.3802 89.625 59.526 89.625 60.8281C89.625 62.1302 89.349 63.2812 88.7969 64.2812C88.2448 65.2708 87.4688 66.0365 86.4688 66.5781C85.4792 67.1198 84.3333 67.3906 83.0312 67.3906H75.4062V64.3594ZM74.0156 54.2656H77.2031V77H74.0156V54.2656ZM81.5938 66.6875L84.7656 65.9688L90.5781 77H86.7969L81.5938 66.6875ZM103.266 66.7188C103.266 65.6562 102.979 64.8333 102.406 64.25C101.844 63.6562 101.042 63.3594 100 63.3594C99.3542 63.3594 98.7188 63.4583 98.0938 63.6562C97.4792 63.8542 96.9323 64.1302 96.4531 64.4844L94.125 62.8906C94.7396 62.151 95.5469 61.5781 96.5469 61.1719C97.5573 60.7552 98.6771 60.5469 99.9062 60.5469C101.25 60.5469 102.401 60.7865 103.359 61.2656C104.318 61.7344 105.047 62.4219 105.547 63.3281C106.047 64.224 106.297 65.3073 106.297 66.5781V77H103.266V66.7188ZM99.2969 77.2344C97.2969 77.2344 95.8021 76.8229 94.8125 76C93.8229 75.1667 93.3281 73.9062 93.3281 72.2188C93.3281 70.6146 93.7812 69.4115 94.6875 68.6094C95.5938 67.8073 96.9635 67.4062 98.7969 67.4062H103.406L103.625 69.9688H98.8125C97.9792 69.9688 97.3542 70.1562 96.9375 70.5312C96.5312 70.8958 96.3281 71.4583 96.3281 72.2188C96.3281 73.0417 96.599 73.651 97.1406 74.0469C97.6927 74.4427 98.526 74.6406 99.6406 74.6406C100.859 74.6406 101.766 74.5104 102.359 74.25C102.964 73.9896 103.266 73.5833 103.266 73.0312L103.594 75.3125C103.312 75.75 102.964 76.1094 102.547 76.3906C102.141 76.6719 101.667 76.8802 101.125 77.0156C100.583 77.1615 99.974 77.2344 99.2969 77.2344ZM111.141 60.7812H114.328V83.5938H111.141V60.7812ZM118.406 77.2344C117.396 77.2344 116.516 76.9948 115.766 76.5156C115.016 76.026 114.464 75.3385 114.109 74.4531L114.328 71.0625C114.328 71.7604 114.453 72.3542 114.703 72.8438C114.953 73.3333 115.312 73.7083 115.781 73.9688C116.26 74.2292 116.839 74.3594 117.516 74.3594C118.568 74.3594 119.38 74.0417 119.953 73.4062C120.536 72.7604 120.828 71.8542 120.828 70.6875V67.1719C120.828 65.9844 120.536 65.0625 119.953 64.4062C119.38 63.75 118.568 63.4219 117.516 63.4219C116.839 63.4219 116.26 63.5469 115.781 63.7969C115.312 64.0469 114.953 64.4167 114.703 64.9062C114.453 65.3854 114.328 65.9635 114.328 66.6406L114 63.5156C114.49 62.5677 115.13 61.8385 115.922 61.3281C116.714 60.8073 117.594 60.5469 118.562 60.5469C119.708 60.5469 120.688 60.8073 121.5 61.3281C122.323 61.8385 122.948 62.5885 123.375 63.5781C123.802 64.5677 124.016 65.7604 124.016 67.1562V70.6875C124.016 72.0625 123.797 73.2396 123.359 74.2188C122.922 75.1979 122.281 75.9479 121.438 76.4688C120.594 76.9792 119.583 77.2344 118.406 77.2344ZM132.766 77.0781C131.453 77.0781 130.49 76.7188 129.875 76C129.271 75.2708 128.969 74.1979 128.969 72.7812V56.0625H132.156V72.8125C132.156 73.2083 132.234 73.5156 132.391 73.7344C132.547 73.9427 132.776 74.0469 133.078 74.0469H134.609V77.0781H132.766ZM127.297 60.7812H134.609V63.6562H127.297V60.7812ZM148.766 60.7812H151.938V77H148.766V60.7812ZM142.172 70.6406C142.172 71.776 142.458 72.6562 143.031 73.2812C143.615 73.8958 144.432 74.2031 145.484 74.2031C146.526 74.2031 147.333 73.9271 147.906 73.375C148.479 72.8229 148.766 72.0365 148.766 71.0156L148.984 74.4062C148.651 75.2083 148.109 75.8802 147.359 76.4219C146.609 76.9635 145.688 77.2344 144.594 77.2344C142.802 77.2344 141.417 76.6615 140.438 75.5156C139.469 74.3594 138.984 72.7344 138.984 70.6406V60.7812H142.172V70.6406ZM156.797 60.7812H159.984V77H156.797V60.7812ZM165.719 64.625C165.438 64.2812 165.083 64.0208 164.656 63.8438C164.229 63.6667 163.734 63.5781 163.172 63.5781C162.161 63.5781 161.375 63.8594 160.812 64.4219C160.26 64.974 159.984 65.7448 159.984 66.7344L159.656 63.6094C160.156 62.6406 160.802 61.8906 161.594 61.3594C162.385 60.8177 163.26 60.5469 164.219 60.5469C164.958 60.5469 165.625 60.6562 166.219 60.875C166.823 61.0833 167.349 61.3958 167.797 61.8125L165.719 64.625ZM176.781 77.2344C175.281 77.2344 174 76.9531 172.938 76.3906C171.875 75.8281 171.062 75.0052 170.5 73.9219C169.948 72.8281 169.672 71.5104 169.672 69.9688V68.1406C169.672 66.5365 169.938 65.1667 170.469 64.0312C171.01 62.8958 171.792 62.0312 172.812 61.4375C173.833 60.8438 175.062 60.5469 176.5 60.5469C177.854 60.5469 179.01 60.8854 179.969 61.5625C180.927 62.2396 181.656 63.2188 182.156 64.5C182.667 65.7812 182.922 67.3177 182.922 69.1094V70.1719H171.984V67.6094H179.891C179.797 66.2865 179.453 65.2604 178.859 64.5312C178.276 63.7917 177.49 63.4219 176.5 63.4219C175.292 63.4219 174.354 63.8177 173.688 64.6094C173.031 65.401 172.703 66.5208 172.703 67.9688V70.0312C172.703 71.375 173.057 72.4062 173.766 73.125C174.474 73.8438 175.479 74.2031 176.781 74.2031C177.427 74.2031 178.068 74.0729 178.703 73.8125C179.339 73.5521 179.906 73.1875 180.406 72.7188L182.5 74.8125C181.698 75.5833 180.797 76.1823 179.797 76.6094C178.797 77.026 177.792 77.2344 176.781 77.2344Z" fill="black"/>
</svg>
