<svg xmlns="http://www.w3.org/2000/svg" width="128.168" height="128.168" viewBox="0 0 33.911 33.911">
  <g transform="translate(-61.982 -54.613)">
    <circle id="bg" cx="78.938" cy="71.568" r="16.956"/>
    <path id="icon" fill="#fff" d="m72.045 61.711-1.99 7.443 7.443-1.99-1.347-1.347a6.512 6.512 0 0 1 2.786-.62 6.526 6.526 0 0 1 6.55 6.549 6.526 6.526 0 0 1-6.55 6.549 6.525 6.525 0 0 1-6.548-6.549h-3.131c0 5.328 4.352 9.68 9.68 9.68 5.327 0 9.681-4.352 9.681-9.68 0-5.328-4.354-9.682-9.682-9.682-1.862 0-3.609.532-5.09 1.449z" color="#000" style="-inkscape-stroke:none"/>
  </g>
</svg>
