<svg width="68" height="68" viewBox="0 0 68 68" fill="none" xmlns="http://www.w3.org/2000/svg">
<rect width="68" height="68" rx="34" fill="white"/>
<path d="M22 34C22 31.7909 20.2091 30 18 30C15.7909 30 14 31.7909 14 34L18 34L22 34ZM18 34L14 34C14 38.5537 15.554 42.9711 18.405 46.5218L21.524 44.0174L24.643 41.5131C22.9324 39.3826 22 36.7322 22 34L18 34ZM21.524 44.0174L18.405 46.5218C21.256 50.0726 25.2334 52.5441 29.6796 53.5278L30.5437 49.6222L31.4078 45.7167C28.7401 45.1264 26.3536 43.6435 24.643 41.5131L21.524 44.0174ZM30.5437 49.6222L29.6796 53.5278C34.1258 54.5115 38.7746 53.9484 42.8574 51.9317L41.0859 48.3454L39.3144 44.759C36.8647 45.969 34.0755 46.3069 31.4078 45.7167L30.5437 49.6222ZM41.0859 48.3454L42.8574 51.9317C46.9402 49.915 50.2125 46.5654 52.1334 42.4367L48.5067 40.7494L44.8801 39.062C43.7275 41.5393 41.7641 43.549 39.3144 44.759L41.0859 48.3454ZM48.5067 40.7494L52.1334 42.4367C54.0543 38.308 54.5088 33.6474 53.4217 29.2253L49.5374 30.1803L45.653 31.1352C46.3053 33.7884 46.0326 36.5848 44.8801 39.062L48.5067 40.7494ZM49.5374 30.1803L53.4217 29.2253C52.3346 24.8033 49.771 20.8846 46.1547 18.1172L43.7237 21.2938L41.2928 24.4703C43.4626 26.1308 45.0007 28.482 45.653 31.1352L49.5374 30.1803ZM43.7237 21.2938L46.1547 18.1172C42.5384 15.3498 38.086 13.8992 33.5335 14.0054L33.6268 18.0044L33.7201 22.0033C36.4516 21.9395 39.123 22.8099 41.2928 24.4703L43.7237 21.2938ZM33.6268 18.0044L33.5335 14.0054C28.9811 14.1117 24.6011 15.7682 21.1178 18.7013L23.6943 21.761L26.2707 24.8208C28.3607 23.0609 30.9886 22.067 33.7201 22.0033L33.6268 18.0044Z" fill="black"/>
<path d="M18.0316 26.0387C16.4852 25.8367 15.7548 24.021 16.7305 22.8043L25.6617 11.6678C26.6187 10.4745 28.5065 10.7535 29.0774 12.1726L34.3014 25.1586C34.8722 26.5778 33.7035 28.0864 32.1867 27.8882L18.0316 26.0387Z" fill="black"/>
</svg>
