<svg width="38" height="38" viewBox="0 0 38 38" fill="none" xmlns="http://www.w3.org/2000/svg">
<rect width="38" height="38" rx="19" transform="matrix(-1 0 0 1 38 0)" fill="white"/>
<path d="M11.5156 28.3191C10.3993 28.6212 9.37537 27.5998 9.67482 26.4828L11.8526 18.3591C12.1496 17.2513 13.5295 16.8731 14.3498 17.6747L20.3876 23.5745C21.2178 24.3857 20.8516 25.792 19.7312 26.0953L11.5156 28.3191Z" fill="black"/>
<path fill-rule="evenodd" clip-rule="evenodd" d="M23.6523 20.3253C24.4727 21.1268 25.8527 20.7484 26.1495 19.6405L28.3257 11.5172C28.6249 10.4002 27.6009 9.37893 26.4846 9.68125L18.271 11.9058C17.1507 12.2092 16.7847 13.6154 17.6149 14.4265L23.6523 20.3253Z" fill="black"/>
</svg>
