<svg xmlns="http://www.w3.org/2000/svg" width="527.578" height="180.401" viewBox="0 0 139.588 47.731">
  <path id="bg" d="M115.723 47.731c13.18 0 23.865-10.685 23.865-23.865C139.588 10.686 128.904 0 115.723 0H23.866C10.686 0 0 10.685 0 23.866 0 37.046 10.685 47.73 23.866 47.73z"/>
  <path id="icon" fill="#fff" d="M53.016-95.732q-1.447 0-2.742-.275-1.295-.276-2.425-.827-1.117-.551-2.095-1.378l1.75-2.15q1.144.992 2.522 1.488t2.99.496q2.177 0 3.376-.799 1.2-.813 1.2-2.287v-.014q0-1.047-.552-1.654-.537-.62-1.406-.91-.854-.302-2.218-.55-.042-.014-.097-.014-.041 0-.082-.014l-.207-.041q-2.012-.345-3.28-.772-1.254-.441-2.15-1.585-.895-1.157-.895-3.28v-.013q0-1.86.827-3.17.84-1.323 2.439-2.012 1.598-.689 3.844-.689 1.075 0 2.109.234 1.047.235 2.053.703 1.02.455 1.998 1.158l-1.598 2.232q-1.144-.84-2.288-1.254-1.13-.427-2.274-.427-2.053 0-3.197.827-1.13.813-1.13 2.315v.014q0 1.033.58 1.626.592.592 1.46.882.882.275 2.439.579.055.013.096.027.056 0 .11.014.07.014.152.028.083.013.152.027 1.819.372 3.032.882 1.226.51 2.04 1.654.826 1.13.826 3.1v.028q0 1.833-.868 3.142-.868 1.295-2.522 1.984-1.64.675-3.969.675zm16.936 0q-1.984 0-3.39-.744-1.405-.744-2.15-2.177-.73-1.447-.73-3.487v-1.612q0-2.122.703-3.624.717-1.502 2.067-2.288 1.35-.785 3.252-.785 1.792 0 3.06.896 1.267.895 1.929 2.59.675 1.695.675 4.065v.938h-9.646v-2.26h6.973q-.124-1.75-.91-2.715-.772-.979-2.08-.979-1.6 0-2.481 1.048-.868 1.047-.868 2.963v1.819q0 1.777.937 2.728.937.95 2.66.95.854 0 1.694-.344t1.502-.964l1.847 1.846q-1.061 1.02-2.384 1.585-1.323.551-2.66.551zm12.995-.138q-1.736 0-2.55-.95-.799-.965-.799-2.84v-14.744h2.812v14.772q0 .524.206.813.207.276.607.276h1.35v2.673zm-4.823-14.372h6.45v2.535h-6.45zM92.152-95.87q-1.736 0-2.549-.95-.8-.965-.8-2.84v-14.744h2.812v14.772q0 .524.207.813.206.276.606.276h1.35v2.673zm-4.823-14.372h6.45v2.535h-6.45zm10.308-5.733h2.811v2.811h-2.811zm0 5.733h2.811v14.304h-2.811zm7.083 0h2.811v14.304h-2.81zm8.682 5.636q0-1.516-.786-2.343-.785-.827-2.205-.827-1.378 0-2.136.73-.744.73-.744 2.054l-.29-2.756q.662-1.296 1.723-1.998 1.075-.703 2.37-.703 2.33 0 3.597 1.53 1.282 1.515 1.282 4.299v8.682h-2.811zm11.878 14.483q-1.612 0-2.893-.606-1.268-.593-1.971-1.682l1.902-1.722q.55.758 1.309 1.171.771.414 1.612.414 1.612 0 2.494-.896.882-.882.882-2.508v-14.29h2.811v13.876q0 1.971-.73 3.377-.716 1.405-2.094 2.136-1.379.73-3.322.73zm-.261-5.567q-1.571 0-2.688-.676-1.102-.689-1.68-1.998-.58-1.309-.58-3.142v-3.155q0-1.847.565-3.156.565-1.31 1.64-1.984 1.089-.69 2.605-.69 1.268 0 2.315.662 1.061.661 1.709 1.86l-.29 2.922q0-.91-.33-1.557-.331-.648-.965-.979-.62-.344-1.516-.344-1.392 0-2.163.868-.758.868-.758 2.439v3.114q0 1.557.758 2.412.771.84 2.163.84.896 0 1.516-.344.634-.358.965-1.02.33-.661.33-1.585l.193 3.018q-.427 1.061-1.405 1.778-.965.717-2.384.717zm15.737-.042q-1.268 0-2.384-.248-1.103-.248-2.067-.744-.965-.496-1.778-1.24l1.667-2.053q1.158.882 2.302 1.322 1.144.441 2.26.441 1.667 0 2.494-.51.84-.523.84-1.557 0-.689-.454-1.033-.455-.345-1.13-.455-.675-.124-1.902-.22h-.234l-.234-.028h-.11q-.056-.014-.11-.014-1.393-.11-2.357-.4-.965-.303-1.613-1.116-.633-.813-.633-2.328 0-1.516.62-2.522.62-1.006 1.846-1.502 1.227-.51 3.073-.51 1.116 0 2.122.206 1.02.207 1.943.62.924.4 1.778 1.02L145-106.549q-1.075-.69-2.122-1.034-1.034-.344-2.026-.344-1.433 0-2.15.496-.716.482-.716 1.46 0 .58.4.869.413.289 1.033.385.62.097 1.764.166.083.014.165.014.097 0 .193.013h.083q.041 0 .083.014 1.502.097 2.549.4 1.061.303 1.778 1.199.716.895.716 2.59 0 1.544-.661 2.564-.662 1.006-1.998 1.515-1.323.51-3.335.51z" aria-label="Settings" direction="rtl" font-family="Bahnschrift" font-size="28.222" style="-inkscape-font-specification:'Bahnschrift, Normal';text-align:center" text-anchor="middle" transform="translate(-26.458 127.852)"/>
</svg>
