<svg width="166" height="65" viewBox="0 0 166 65" fill="none" xmlns="http://www.w3.org/2000/svg">
<rect y="0.5" width="166" height="64" rx="32" fill="white"/>
<path d="M33.8906 44.2344C32.7969 44.2344 31.7604 44.1302 30.7812 43.9219C29.8021 43.7135 28.8854 43.401 28.0312 42.9844C27.1875 42.5677 26.3958 42.0469 25.6562 41.4219L27.6406 38.9844C28.5052 39.7344 29.4583 40.2969 30.5 40.6719C31.5417 41.0469 32.6719 41.2344 33.8906 41.2344C35.5365 41.2344 36.8125 40.9323 37.7188 40.3281C38.625 39.7135 39.0781 38.849 39.0781 37.7344V37.7188C39.0781 36.9271 38.8698 36.3021 38.4531 35.8438C38.0469 35.375 37.5156 35.0312 36.8594 34.8125C36.2135 34.5833 35.375 34.375 34.3438 34.1875C34.3125 34.1771 34.276 34.1719 34.2344 34.1719C34.2031 34.1719 34.1719 34.1667 34.1406 34.1562L33.9062 34.1094C32.3854 33.849 31.1458 33.5573 30.1875 33.2344C29.2396 32.901 28.4271 32.3021 27.75 31.4375C27.0729 30.5625 26.7344 29.3229 26.7344 27.7188V27.7031C26.7344 26.2969 27.0469 25.099 27.6719 24.1094C28.3073 23.1094 29.2292 22.349 30.4375 21.8281C31.6458 21.3073 33.099 21.0469 34.7969 21.0469C35.6094 21.0469 36.4062 21.1354 37.1875 21.3125C37.9792 21.4896 38.7552 21.7552 39.5156 22.1094C40.2865 22.4531 41.0417 22.8906 41.7812 23.4219L39.9688 25.9531C39.1042 25.3177 38.2396 24.8438 37.375 24.5312C36.5208 24.2083 35.6615 24.0469 34.7969 24.0469C33.2448 24.0469 32.0365 24.3594 31.1719 24.9844C30.3177 25.599 29.8906 26.474 29.8906 27.6094V27.625C29.8906 28.4062 30.1094 29.0208 30.5469 29.4688C30.9948 29.9167 31.5469 30.25 32.2031 30.4688C32.8698 30.6771 33.7917 30.8958 34.9688 31.125C35.0104 31.1354 35.0469 31.1458 35.0781 31.1562C35.1198 31.1562 35.1615 31.1615 35.2031 31.1719C35.2552 31.1823 35.3125 31.1927 35.375 31.2031C35.4375 31.2135 35.4948 31.224 35.5469 31.2344C36.9219 31.5156 38.0677 31.849 38.9844 32.2344C39.9115 32.6198 40.6823 33.2448 41.2969 34.1094C41.9219 34.9635 42.2344 36.1354 42.2344 37.625V37.6562C42.2344 39.0417 41.9062 40.2292 41.25 41.2188C40.5938 42.1979 39.6406 42.9479 38.3906 43.4688C37.151 43.9792 35.651 44.2344 33.8906 44.2344ZM53.1094 44.2344C51.6094 44.2344 50.3281 43.9531 49.2656 43.3906C48.2031 42.8281 47.3906 42.0052 46.8281 40.9219C46.276 39.8281 46 38.5104 46 36.9688V35.1406C46 33.5365 46.2656 32.1667 46.7969 31.0312C47.3385 29.8958 48.1198 29.0312 49.1406 28.4375C50.1615 27.8438 51.3906 27.5469 52.8281 27.5469C54.1823 27.5469 55.3385 27.8854 56.2969 28.5625C57.2552 29.2396 57.9844 30.2188 58.4844 31.5C58.9948 32.7812 59.25 34.3177 59.25 36.1094V37.1719H48.3125V34.6094H56.2188C56.125 33.2865 55.7812 32.2604 55.1875 31.5312C54.6042 30.7917 53.8177 30.4219 52.8281 30.4219C51.6198 30.4219 50.6823 30.8177 50.0156 31.6094C49.3594 32.401 49.0312 33.5208 49.0312 34.9688V37.0312C49.0312 38.375 49.3854 39.4062 50.0938 40.125C50.8021 40.8438 51.8073 41.2031 53.1094 41.2031C53.7552 41.2031 54.3958 41.0729 55.0312 40.8125C55.6667 40.5521 56.2344 40.1875 56.7344 39.7188L58.8281 41.8125C58.026 42.5833 57.125 43.1823 56.125 43.6094C55.125 44.026 54.1198 44.2344 53.1094 44.2344ZM67.8438 44.0781C66.5312 44.0781 65.5677 43.7188 64.9531 43C64.349 42.2708 64.0469 41.1979 64.0469 39.7812V23.0625H67.2344V39.8125C67.2344 40.2083 67.3125 40.5156 67.4688 40.7344C67.625 40.9427 67.8542 41.0469 68.1562 41.0469H69.6875V44.0781H67.8438ZM62.375 27.7812H69.6875V30.6562H62.375V27.7812ZM78.2812 44.0781C76.9688 44.0781 76.0052 43.7188 75.3906 43C74.7865 42.2708 74.4844 41.1979 74.4844 39.7812V23.0625H77.6719V39.8125C77.6719 40.2083 77.75 40.5156 77.9062 40.7344C78.0625 40.9427 78.2917 41.0469 78.5938 41.0469H80.125V44.0781H78.2812ZM72.8125 27.7812H80.125V30.6562H72.8125V27.7812ZM84.5 21.2812H87.6875V24.4688H84.5V21.2812ZM84.5 27.7812H87.6875V44H84.5V27.7812ZM92.5312 27.7812H95.7188V44H92.5312V27.7812ZM102.375 34.1719C102.375 33.026 102.078 32.1406 101.484 31.5156C100.891 30.8906 100.057 30.5781 98.9844 30.5781C97.9427 30.5781 97.1354 30.8542 96.5625 31.4062C96 31.9583 95.7188 32.7344 95.7188 33.7344L95.3906 30.6094C95.8906 29.6302 96.5417 28.875 97.3438 28.3438C98.1562 27.8125 99.0521 27.5469 100.031 27.5469C101.792 27.5469 103.151 28.125 104.109 29.2812C105.078 30.4271 105.562 32.0521 105.562 34.1562V44H102.375V34.1719ZM115.844 50.5938C114.625 50.5938 113.531 50.3646 112.562 49.9062C111.604 49.4583 110.859 48.8229 110.328 48L112.484 46.0469C112.901 46.6198 113.396 47.0625 113.969 47.375C114.552 47.6875 115.161 47.8438 115.797 47.8438C117.016 47.8438 117.958 47.5052 118.625 46.8281C119.292 46.1615 119.625 45.2135 119.625 43.9844V27.7812H122.812V43.5156C122.812 45.0052 122.536 46.2812 121.984 47.3438C121.443 48.4062 120.651 49.2135 119.609 49.7656C118.568 50.3177 117.312 50.5938 115.844 50.5938ZM115.547 44.2812C114.359 44.2812 113.344 44.026 112.5 43.5156C111.667 42.9948 111.031 42.2396 110.594 41.25C110.156 40.2604 109.938 39.0729 109.938 37.6875V34.1094C109.938 32.7135 110.151 31.5208 110.578 30.5312C111.005 29.5417 111.625 28.7917 112.438 28.2812C113.26 27.7604 114.245 27.5 115.391 27.5C116.349 27.5 117.224 27.75 118.016 28.25C118.818 28.75 119.464 29.4531 119.953 30.3594L119.625 33.6719C119.625 32.9844 119.5 32.3958 119.25 31.9062C119 31.4167 118.635 31.0469 118.156 30.7969C117.688 30.5365 117.115 30.4062 116.438 30.4062C115.385 30.4062 114.568 30.7344 113.984 31.3906C113.411 32.0469 113.125 32.9688 113.125 34.1562V37.6875C113.125 38.8646 113.411 39.776 113.984 40.4219C114.568 41.0573 115.385 41.375 116.438 41.375C117.115 41.375 117.688 41.2448 118.156 40.9844C118.635 40.7135 119 40.3281 119.25 39.8281C119.5 39.3281 119.625 38.7292 119.625 38.0312L119.844 41.4531C119.521 42.2552 118.99 42.9271 118.25 43.4688C117.521 44.0104 116.62 44.2812 115.547 44.2812ZM133.391 44.2344C132.432 44.2344 131.531 44.1406 130.688 43.9531C129.854 43.7656 129.073 43.4844 128.344 43.1094C127.615 42.7344 126.943 42.2656 126.328 41.7031L128.219 39.375C129.094 40.0417 129.964 40.5417 130.828 40.875C131.693 41.2083 132.547 41.375 133.391 41.375C134.651 41.375 135.594 41.1823 136.219 40.7969C136.854 40.401 137.172 39.8125 137.172 39.0312C137.172 38.5104 137 38.1198 136.656 37.8594C136.312 37.599 135.885 37.4271 135.375 37.3438C134.865 37.25 134.146 37.1667 133.219 37.0938C133.135 37.0938 133.047 37.0938 132.953 37.0938C132.859 37.0833 132.771 37.0729 132.688 37.0625C132.646 37.0625 132.604 37.0625 132.562 37.0625C132.521 37.0521 132.479 37.0469 132.438 37.0469C131.385 36.9635 130.495 36.8125 129.766 36.5938C129.036 36.3646 128.427 35.9427 127.938 35.3281C127.458 34.7135 127.219 33.8333 127.219 32.6875C127.219 31.5417 127.453 30.5885 127.922 29.8281C128.391 29.0677 129.089 28.5 130.016 28.125C130.943 27.7396 132.104 27.5469 133.5 27.5469C134.344 27.5469 135.146 27.625 135.906 27.7812C136.677 27.9375 137.411 28.1719 138.109 28.4844C138.807 28.7865 139.479 29.1719 140.125 29.6406L138.203 31.9688C137.391 31.4479 136.589 31.0573 135.797 30.7969C135.016 30.5365 134.25 30.4062 133.5 30.4062C132.417 30.4062 131.604 30.5938 131.062 30.9688C130.521 31.3333 130.25 31.8854 130.25 32.625C130.25 33.0625 130.401 33.3906 130.703 33.6094C131.016 33.8281 131.406 33.974 131.875 34.0469C132.344 34.1198 133.01 34.1823 133.875 34.2344C133.938 34.2448 134 34.25 134.062 34.25C134.135 34.25 134.208 34.2552 134.281 34.2656C134.312 34.2656 134.344 34.2656 134.375 34.2656C134.406 34.2656 134.438 34.2708 134.469 34.2812C135.604 34.3542 136.568 34.5052 137.359 34.7344C138.161 34.9635 138.833 35.4167 139.375 36.0938C139.917 36.7708 140.188 37.75 140.188 39.0312C140.188 40.1979 139.938 41.1667 139.438 41.9375C138.938 42.6979 138.182 43.2708 137.172 43.6562C136.172 44.0417 134.911 44.2344 133.391 44.2344Z" fill="black"/>
</svg>
