<svg width="152" height="64" viewBox="0 0 152 64" fill="none" xmlns="http://www.w3.org/2000/svg">
<path d="M120 0C137.673 0 152 14.3269 152 32C152 49.6731 137.673 64 120 64H32C14.3269 64 0 49.6731 0 32C0 14.3269 14.3269 0 32 0H120ZM115.728 35.5L103 23.5V41L115.728 53.5L128.456 41V23L115.728 35.5Z" fill="white"/>
<path d="M34.0625 43.7344C32.9688 43.7344 31.9323 43.6302 30.9531 43.4219C29.974 43.2135 29.0573 42.901 28.2031 42.4844C27.3594 42.0677 26.5677 41.5469 25.8281 40.9219L27.8125 38.4844C28.6771 39.2344 29.6302 39.7969 30.6719 40.1719C31.7135 40.5469 32.8438 40.7344 34.0625 40.7344C35.7083 40.7344 36.9844 40.4323 37.8906 39.8281C38.7969 39.2135 39.25 38.349 39.25 37.2344V37.2188C39.25 36.4271 39.0417 35.8021 38.625 35.3438C38.2188 34.875 37.6875 34.5312 37.0312 34.3125C36.3854 34.0833 35.5469 33.875 34.5156 33.6875C34.4844 33.6771 34.4479 33.6719 34.4062 33.6719C34.375 33.6719 34.3438 33.6667 34.3125 33.6562L34.0781 33.6094C32.5573 33.349 31.3177 33.0573 30.3594 32.7344C29.4115 32.401 28.599 31.8021 27.9219 30.9375C27.2448 30.0625 26.9062 28.8229 26.9062 27.2188V27.2031C26.9062 25.7969 27.2188 24.599 27.8438 23.6094C28.4792 22.6094 29.401 21.849 30.6094 21.3281C31.8177 20.8073 33.2708 20.5469 34.9688 20.5469C35.7812 20.5469 36.5781 20.6354 37.3594 20.8125C38.151 20.9896 38.9271 21.2552 39.6875 21.6094C40.4583 21.9531 41.2135 22.3906 41.9531 22.9219L40.1406 25.4531C39.276 24.8177 38.4115 24.3438 37.5469 24.0312C36.6927 23.7083 35.8333 23.5469 34.9688 23.5469C33.4167 23.5469 32.2083 23.8594 31.3438 24.4844C30.4896 25.099 30.0625 25.974 30.0625 27.1094V27.125C30.0625 27.9062 30.2812 28.5208 30.7188 28.9688C31.1667 29.4167 31.7188 29.75 32.375 29.9688C33.0417 30.1771 33.9635 30.3958 35.1406 30.625C35.1823 30.6354 35.2188 30.6458 35.25 30.6562C35.2917 30.6562 35.3333 30.6615 35.375 30.6719C35.4271 30.6823 35.4844 30.6927 35.5469 30.7031C35.6094 30.7135 35.6667 30.724 35.7188 30.7344C37.0938 31.0156 38.2396 31.349 39.1562 31.7344C40.0833 32.1198 40.8542 32.7448 41.4688 33.6094C42.0938 34.4635 42.4062 35.6354 42.4062 37.125V37.1562C42.4062 38.5417 42.0781 39.7292 41.4219 40.7188C40.7656 41.6979 39.8125 42.4479 38.5625 42.9688C37.3229 43.4792 35.8229 43.7344 34.0625 43.7344ZM46.6406 20.7812H49.8281V23.9688H46.6406V20.7812ZM46.6406 27.2812H49.8281V43.5H46.6406V27.2812ZM63.8906 20.7812H67.0781V43.5H63.8906V20.7812ZM59.8125 43.7812C58.625 43.7812 57.6094 43.526 56.7656 43.0156C55.9323 42.4948 55.2969 41.7396 54.8594 40.75C54.4219 39.7604 54.2031 38.5729 54.2031 37.1875V33.6094C54.2031 32.2135 54.4167 31.0208 54.8438 30.0312C55.2708 29.0417 55.8906 28.2917 56.7031 27.7812C57.526 27.2604 58.5104 27 59.6562 27C60.6146 27 61.4896 27.25 62.2812 27.75C63.0833 28.25 63.7292 28.9531 64.2188 29.8594L63.8906 33.1719C63.8906 32.4844 63.7656 31.8958 63.5156 31.4062C63.2656 30.9167 62.901 30.5469 62.4219 30.2969C61.9531 30.0365 61.3802 29.9062 60.7031 29.9062C59.651 29.9062 58.8333 30.2344 58.25 30.8906C57.6771 31.5469 57.3906 32.4688 57.3906 33.6562V37.1875C57.3906 38.3646 57.6771 39.276 58.25 39.9219C58.8333 40.5573 59.651 40.875 60.7031 40.875C61.3802 40.875 61.9531 40.7448 62.4219 40.4844C62.901 40.2135 63.2656 39.8281 63.5156 39.3281C63.7656 38.8281 63.8906 38.2292 63.8906 37.5312L64.1094 40.9531C63.7865 41.7552 63.2552 42.4271 62.5156 42.9688C61.7865 43.5104 60.8854 43.7812 59.8125 43.7812ZM78.5625 43.7344C77.0625 43.7344 75.7812 43.4531 74.7188 42.8906C73.6562 42.3281 72.8438 41.5052 72.2812 40.4219C71.7292 39.3281 71.4531 38.0104 71.4531 36.4688V34.6406C71.4531 33.0365 71.7188 31.6667 72.25 30.5312C72.7917 29.3958 73.5729 28.5312 74.5938 27.9375C75.6146 27.3438 76.8438 27.0469 78.2812 27.0469C79.6354 27.0469 80.7917 27.3854 81.75 28.0625C82.7083 28.7396 83.4375 29.7188 83.9375 31C84.4479 32.2812 84.7031 33.8177 84.7031 35.6094V36.6719H73.7656V34.1094H81.6719C81.5781 32.7865 81.2344 31.7604 80.6406 31.0312C80.0573 30.2917 79.2708 29.9219 78.2812 29.9219C77.0729 29.9219 76.1354 30.3177 75.4688 31.1094C74.8125 31.901 74.4844 33.0208 74.4844 34.4688V36.5312C74.4844 37.875 74.8385 38.9062 75.5469 39.625C76.2552 40.3438 77.2604 40.7031 78.5625 40.7031C79.2083 40.7031 79.849 40.5729 80.4844 40.3125C81.1198 40.0521 81.6875 39.6875 82.1875 39.2188L84.2812 41.3125C83.4792 42.0833 82.5781 42.6823 81.5781 43.1094C80.5781 43.526 79.5729 43.7344 78.5625 43.7344Z" fill="black"/>
<path d="M102.544 23L115.272 10.2721L128 23M102.544 23L115.272 35.7279M102.544 23V41L115.272 53.7279M128 23L115.272 35.7279M128 23V41L115.272 53.7279M115.272 35.7279V53.7279" stroke="black" stroke-width="3" stroke-linecap="round" stroke-linejoin="round"/>
</svg>
