<svg width="256" height="128" viewBox="0 0 256 128" fill="none" xmlns="http://www.w3.org/2000/svg">
<rect width="256" height="128" rx="24" fill="white"/>
<path d="M68.9062 77.2344C67.8125 77.2344 66.776 77.1302 65.7969 76.9219C64.8177 76.7135 63.901 76.401 63.0469 75.9844C62.2031 75.5677 61.4115 75.0469 60.6719 74.4219L62.6562 71.9844C63.5208 72.7344 64.474 73.2969 65.5156 73.6719C66.5573 74.0469 67.6875 74.2344 68.9062 74.2344C70.5521 74.2344 71.8281 73.9323 72.7344 73.3281C73.6406 72.7135 74.0938 71.849 74.0938 70.7344V70.7188C74.0938 69.9271 73.8854 69.3021 73.4688 68.8438C73.0625 68.375 72.5312 68.0312 71.875 67.8125C71.2292 67.5833 70.3906 67.375 69.3594 67.1875C69.3281 67.1771 69.2917 67.1719 69.25 67.1719C69.2188 67.1719 69.1875 67.1667 69.1562 67.1562L68.9219 67.1094C67.401 66.849 66.1615 66.5573 65.2031 66.2344C64.2552 65.901 63.4427 65.3021 62.7656 64.4375C62.0885 63.5625 61.75 62.3229 61.75 60.7188V60.7031C61.75 59.2969 62.0625 58.099 62.6875 57.1094C63.3229 56.1094 64.2448 55.349 65.4531 54.8281C66.6615 54.3073 68.1146 54.0469 69.8125 54.0469C70.625 54.0469 71.4219 54.1354 72.2031 54.3125C72.9948 54.4896 73.7708 54.7552 74.5312 55.1094C75.3021 55.4531 76.0573 55.8906 76.7969 56.4219L74.9844 58.9531C74.1198 58.3177 73.2552 57.8438 72.3906 57.5312C71.5365 57.2083 70.6771 57.0469 69.8125 57.0469C68.2604 57.0469 67.0521 57.3594 66.1875 57.9844C65.3333 58.599 64.9062 59.474 64.9062 60.6094V60.625C64.9062 61.4062 65.125 62.0208 65.5625 62.4688C66.0104 62.9167 66.5625 63.25 67.2188 63.4688C67.8854 63.6771 68.8073 63.8958 69.9844 64.125C70.026 64.1354 70.0625 64.1458 70.0938 64.1562C70.1354 64.1562 70.1771 64.1615 70.2188 64.1719C70.2708 64.1823 70.3281 64.1927 70.3906 64.2031C70.4531 64.2135 70.5104 64.224 70.5625 64.2344C71.9375 64.5156 73.0833 64.849 74 65.2344C74.9271 65.6198 75.6979 66.2448 76.3125 67.1094C76.9375 67.9635 77.25 69.1354 77.25 70.625V70.6562C77.25 72.0417 76.9219 73.2292 76.2656 74.2188C75.6094 75.1979 74.6562 75.9479 73.4062 76.4688C72.1667 76.9792 70.6667 77.2344 68.9062 77.2344ZM91.2656 60.7812H94.4375V77H91.2656V60.7812ZM84.6719 70.6406C84.6719 71.776 84.9583 72.6562 85.5312 73.2812C86.1146 73.8958 86.9323 74.2031 87.9844 74.2031C89.026 74.2031 89.8333 73.9271 90.4062 73.375C90.9792 72.8229 91.2656 72.0365 91.2656 71.0156L91.4844 74.4062C91.151 75.2083 90.6094 75.8802 89.8594 76.4219C89.1094 76.9635 88.1875 77.2344 87.0938 77.2344C85.3021 77.2344 83.9167 76.6615 82.9375 75.5156C81.9688 74.3594 81.4844 72.7344 81.4844 70.6406V60.7812H84.6719V70.6406ZM99.2969 60.7812H102.484V77H99.2969V60.7812ZM108.219 64.625C107.938 64.2812 107.583 64.0208 107.156 63.8438C106.729 63.6667 106.234 63.5781 105.672 63.5781C104.661 63.5781 103.875 63.8594 103.312 64.4219C102.76 64.974 102.484 65.7448 102.484 66.7344L102.156 63.6094C102.656 62.6406 103.302 61.8906 104.094 61.3594C104.885 60.8177 105.76 60.5469 106.719 60.5469C107.458 60.5469 108.125 60.6562 108.719 60.875C109.323 61.0833 109.849 61.3958 110.297 61.8125L108.219 64.625ZM113.422 58.5781C113.422 57.1406 113.75 56.0677 114.406 55.3594C115.073 54.6406 116.094 54.2812 117.469 54.2812H119.812V57.3125H117.531C117.229 57.3125 117 57.4271 116.844 57.6562C116.688 57.8854 116.609 58.1823 116.609 58.5469V77H113.422V58.5781ZM111.703 60.7812H119.812V63.5H111.703V60.7812ZM132.266 66.7188C132.266 65.6562 131.979 64.8333 131.406 64.25C130.844 63.6562 130.042 63.3594 129 63.3594C128.354 63.3594 127.719 63.4583 127.094 63.6562C126.479 63.8542 125.932 64.1302 125.453 64.4844L123.125 62.8906C123.74 62.151 124.547 61.5781 125.547 61.1719C126.557 60.7552 127.677 60.5469 128.906 60.5469C130.25 60.5469 131.401 60.7865 132.359 61.2656C133.318 61.7344 134.047 62.4219 134.547 63.3281C135.047 64.224 135.297 65.3073 135.297 66.5781V77H132.266V66.7188ZM128.297 77.2344C126.297 77.2344 124.802 76.8229 123.812 76C122.823 75.1667 122.328 73.9062 122.328 72.2188C122.328 70.6146 122.781 69.4115 123.688 68.6094C124.594 67.8073 125.964 67.4062 127.797 67.4062H132.406L132.625 69.9688H127.812C126.979 69.9688 126.354 70.1562 125.938 70.5312C125.531 70.8958 125.328 71.4583 125.328 72.2188C125.328 73.0417 125.599 73.651 126.141 74.0469C126.693 74.4427 127.526 74.6406 128.641 74.6406C129.859 74.6406 130.766 74.5104 131.359 74.25C131.964 73.9896 132.266 73.5833 132.266 73.0312L132.594 75.3125C132.312 75.75 131.964 76.1094 131.547 76.3906C131.141 76.6719 130.667 76.8802 130.125 77.0156C129.583 77.1615 128.974 77.2344 128.297 77.2344ZM146.688 77.2344C145.208 77.2344 143.943 76.9583 142.891 76.4062C141.849 75.8542 141.052 75.0521 140.5 74C139.948 72.9479 139.672 71.6771 139.672 70.1875V67.5156C139.672 66.0469 139.948 64.7917 140.5 63.75C141.052 62.7083 141.849 61.9167 142.891 61.375C143.943 60.8229 145.208 60.5469 146.688 60.5469C147.531 60.5469 148.323 60.651 149.062 60.8594C149.812 61.0573 150.484 61.349 151.078 61.7344C151.672 62.1198 152.167 62.5885 152.562 63.1406L150.266 65.2031C149.807 64.6823 149.271 64.2812 148.656 64C148.042 63.7188 147.401 63.5781 146.734 63.5781C145.505 63.5781 144.552 63.9219 143.875 64.6094C143.198 65.2969 142.859 66.2656 142.859 67.5156V70.1875C142.859 71.4688 143.193 72.4583 143.859 73.1562C144.536 73.8542 145.495 74.2031 146.734 74.2031C147.411 74.2031 148.057 74.0521 148.672 73.75C149.286 73.4479 149.818 73.0208 150.266 72.4688L152.562 74.6875C152.156 75.2292 151.656 75.6927 151.062 76.0781C150.469 76.4531 149.797 76.7396 149.047 76.9375C148.307 77.1354 147.521 77.2344 146.688 77.2344ZM156.078 54.2812H159.266V57.4688H156.078V54.2812ZM156.078 60.7812H159.266V77H156.078V60.7812ZM164.109 60.7812H167.297V77H164.109V60.7812ZM173.953 67.1719C173.953 66.026 173.656 65.1406 173.062 64.5156C172.469 63.8906 171.635 63.5781 170.562 63.5781C169.521 63.5781 168.714 63.8542 168.141 64.4062C167.578 64.9583 167.297 65.7344 167.297 66.7344L166.969 63.6094C167.469 62.6302 168.12 61.875 168.922 61.3438C169.734 60.8125 170.63 60.5469 171.609 60.5469C173.37 60.5469 174.729 61.125 175.688 62.2812C176.656 63.4271 177.141 65.0521 177.141 67.1562V77H173.953V67.1719ZM187.422 83.5938C186.203 83.5938 185.109 83.3646 184.141 82.9062C183.182 82.4583 182.438 81.8229 181.906 81L184.062 79.0469C184.479 79.6198 184.974 80.0625 185.547 80.375C186.13 80.6875 186.74 80.8438 187.375 80.8438C188.594 80.8438 189.536 80.5052 190.203 79.8281C190.87 79.1615 191.203 78.2135 191.203 76.9844V60.7812H194.391V76.5156C194.391 78.0052 194.115 79.2812 193.562 80.3438C193.021 81.4062 192.229 82.2135 191.188 82.7656C190.146 83.3177 188.891 83.5938 187.422 83.5938ZM187.125 77.2812C185.938 77.2812 184.922 77.026 184.078 76.5156C183.245 75.9948 182.609 75.2396 182.172 74.25C181.734 73.2604 181.516 72.0729 181.516 70.6875V67.1094C181.516 65.7135 181.729 64.5208 182.156 63.5312C182.583 62.5417 183.203 61.7917 184.016 61.2812C184.839 60.7604 185.823 60.5 186.969 60.5C187.927 60.5 188.802 60.75 189.594 61.25C190.396 61.75 191.042 62.4531 191.531 63.3594L191.203 66.6719C191.203 65.9844 191.078 65.3958 190.828 64.9062C190.578 64.4167 190.214 64.0469 189.734 63.7969C189.266 63.5365 188.693 63.4062 188.016 63.4062C186.964 63.4062 186.146 63.7344 185.562 64.3906C184.99 65.0469 184.703 65.9688 184.703 67.1562V70.6875C184.703 71.8646 184.99 72.776 185.562 73.4219C186.146 74.0573 186.964 74.375 188.016 74.375C188.693 74.375 189.266 74.2448 189.734 73.9844C190.214 73.7135 190.578 73.3281 190.828 72.8281C191.078 72.3281 191.203 71.7292 191.203 71.0312L191.422 74.4531C191.099 75.2552 190.568 75.9271 189.828 76.4688C189.099 77.0104 188.198 77.2812 187.125 77.2812Z" fill="black"/>
</svg>
