<svg width="256" height="128" viewBox="0 0 256 128" fill="none" xmlns="http://www.w3.org/2000/svg">
<rect width="256" height="128" rx="24" fill="white"/>
<path d="M29.9375 56.1406H33.125V77H29.9375V56.1406ZM23.5156 54.2812H39.5469V57.3125H23.5156V54.2812ZM49.6406 66.7188C49.6406 65.6562 49.3542 64.8333 48.7812 64.25C48.2188 63.6562 47.4167 63.3594 46.375 63.3594C45.7292 63.3594 45.0938 63.4583 44.4688 63.6562C43.8542 63.8542 43.3073 64.1302 42.8281 64.4844L40.5 62.8906C41.1146 62.151 41.9219 61.5781 42.9219 61.1719C43.9323 60.7552 45.0521 60.5469 46.2812 60.5469C47.625 60.5469 48.776 60.7865 49.7344 61.2656C50.6927 61.7344 51.4219 62.4219 51.9219 63.3281C52.4219 64.224 52.6719 65.3073 52.6719 66.5781V77H49.6406V66.7188ZM45.6719 77.2344C43.6719 77.2344 42.1771 76.8229 41.1875 76C40.1979 75.1667 39.7031 73.9062 39.7031 72.2188C39.7031 70.6146 40.1562 69.4115 41.0625 68.6094C41.9688 67.8073 43.3385 67.4062 45.1719 67.4062H49.7812L50 69.9688H45.1875C44.3542 69.9688 43.7292 70.1562 43.3125 70.5312C42.9062 70.8958 42.7031 71.4583 42.7031 72.2188C42.7031 73.0417 42.974 73.651 43.5156 74.0469C44.0677 74.4427 44.901 74.6406 46.0156 74.6406C47.2344 74.6406 48.1406 74.5104 48.7344 74.25C49.3385 73.9896 49.6406 73.5833 49.6406 73.0312L49.9688 75.3125C49.6875 75.75 49.3385 76.1094 48.9219 76.3906C48.5156 76.6719 48.0417 76.8802 47.5 77.0156C46.9583 77.1615 46.349 77.2344 45.6719 77.2344ZM57.5156 60.7812H60.7031V77H57.5156V60.7812ZM67.3594 67.1719C67.3594 66.026 67.0625 65.1406 66.4688 64.5156C65.875 63.8906 65.0417 63.5781 63.9688 63.5781C62.9271 63.5781 62.1198 63.8542 61.5469 64.4062C60.9844 64.9583 60.7031 65.7344 60.7031 66.7344L60.375 63.6094C60.875 62.6302 61.526 61.875 62.3281 61.3438C63.1406 60.8125 64.0365 60.5469 65.0156 60.5469C66.776 60.5469 68.1354 61.125 69.0938 62.2812C70.0625 63.4271 70.5469 65.0521 70.5469 67.1562V77H67.3594V67.1719ZM80.8281 83.5938C79.6094 83.5938 78.5156 83.3646 77.5469 82.9062C76.5885 82.4583 75.8438 81.8229 75.3125 81L77.4688 79.0469C77.8854 79.6198 78.3802 80.0625 78.9531 80.375C79.5365 80.6875 80.1458 80.8438 80.7812 80.8438C82 80.8438 82.9427 80.5052 83.6094 79.8281C84.276 79.1615 84.6094 78.2135 84.6094 76.9844V60.7812H87.7969V76.5156C87.7969 78.0052 87.5208 79.2812 86.9688 80.3438C86.4271 81.4062 85.6354 82.2135 84.5938 82.7656C83.5521 83.3177 82.2969 83.5938 80.8281 83.5938ZM80.5312 77.2812C79.3438 77.2812 78.3281 77.026 77.4844 76.5156C76.651 75.9948 76.0156 75.2396 75.5781 74.25C75.1406 73.2604 74.9219 72.0729 74.9219 70.6875V67.1094C74.9219 65.7135 75.1354 64.5208 75.5625 63.5312C75.9896 62.5417 76.6094 61.7917 77.4219 61.2812C78.2448 60.7604 79.2292 60.5 80.375 60.5C81.3333 60.5 82.2083 60.75 83 61.25C83.8021 61.75 84.4479 62.4531 84.9375 63.3594L84.6094 66.6719C84.6094 65.9844 84.4844 65.3958 84.2344 64.9062C83.9844 64.4167 83.6198 64.0469 83.1406 63.7969C82.6719 63.5365 82.099 63.4062 81.4219 63.4062C80.3698 63.4062 79.5521 63.7344 78.9688 64.3906C78.3958 65.0469 78.1094 65.9688 78.1094 67.1562V70.6875C78.1094 71.8646 78.3958 72.776 78.9688 73.4219C79.5521 74.0573 80.3698 74.375 81.4219 74.375C82.099 74.375 82.6719 74.2448 83.1406 73.9844C83.6198 73.7135 83.9844 73.3281 84.2344 72.8281C84.4844 72.3281 84.6094 71.7292 84.6094 71.0312L84.8281 74.4531C84.5052 75.2552 83.974 75.9271 83.2344 76.4688C82.5052 77.0104 81.6042 77.2812 80.5312 77.2812ZM95.8281 72.8125C95.8281 73.2083 95.9115 73.5156 96.0781 73.7344C96.2552 73.9427 96.5 74.0469 96.8125 74.0469H98.3125V77.0781H96.4375C95.2292 77.0781 94.2917 76.7031 93.625 75.9531C92.9688 75.2031 92.6406 74.1458 92.6406 72.7812V54.2812H95.8281V72.8125ZM108.562 77.2344C107.062 77.2344 105.781 76.9531 104.719 76.3906C103.656 75.8281 102.844 75.0052 102.281 73.9219C101.729 72.8281 101.453 71.5104 101.453 69.9688V68.1406C101.453 66.5365 101.719 65.1667 102.25 64.0312C102.792 62.8958 103.573 62.0312 104.594 61.4375C105.615 60.8438 106.844 60.5469 108.281 60.5469C109.635 60.5469 110.792 60.8854 111.75 61.5625C112.708 62.2396 113.438 63.2188 113.938 64.5C114.448 65.7812 114.703 67.3177 114.703 69.1094V70.1719H103.766V67.6094H111.672C111.578 66.2865 111.234 65.2604 110.641 64.5312C110.057 63.7917 109.271 63.4219 108.281 63.4219C107.073 63.4219 106.135 63.8177 105.469 64.6094C104.812 65.401 104.484 66.5208 104.484 67.9688V70.0312C104.484 71.375 104.839 72.4062 105.547 73.125C106.255 73.8438 107.26 74.2031 108.562 74.2031C109.208 74.2031 109.849 74.0729 110.484 73.8125C111.12 73.5521 111.688 73.1875 112.188 72.7188L114.281 74.8125C113.479 75.5833 112.578 76.1823 111.578 76.6094C110.578 77.026 109.573 77.2344 108.562 77.2344ZM128.297 54.2812H131.484V77H128.297V54.2812ZM124.219 77.2812C123.031 77.2812 122.016 77.026 121.172 76.5156C120.339 75.9948 119.703 75.2396 119.266 74.25C118.828 73.2604 118.609 72.0729 118.609 70.6875V67.1094C118.609 65.7135 118.823 64.5208 119.25 63.5312C119.677 62.5417 120.297 61.7917 121.109 61.2812C121.932 60.7604 122.917 60.5 124.062 60.5C125.021 60.5 125.896 60.75 126.688 61.25C127.49 61.75 128.135 62.4531 128.625 63.3594L128.297 66.6719C128.297 65.9844 128.172 65.3958 127.922 64.9062C127.672 64.4167 127.307 64.0469 126.828 63.7969C126.359 63.5365 125.786 63.4062 125.109 63.4062C124.057 63.4062 123.24 63.7344 122.656 64.3906C122.083 65.0469 121.797 65.9688 121.797 67.1562V70.6875C121.797 71.8646 122.083 72.776 122.656 73.4219C123.24 74.0573 124.057 74.375 125.109 74.375C125.786 74.375 126.359 74.2448 126.828 73.9844C127.307 73.7135 127.672 73.3281 127.922 72.8281C128.172 72.3281 128.297 71.7292 128.297 71.0312L128.516 74.4531C128.193 75.2552 127.661 75.9271 126.922 76.4688C126.193 77.0104 125.292 77.2812 124.219 77.2812ZM142.109 54.2812H145.297V77H142.109V54.2812ZM143.672 64.4062H154.688V67.4375H143.672V64.4062ZM143.672 54.2812H156.406V57.3125H143.672V54.2812ZM165.922 77.2344C164.516 77.2344 163.312 76.9583 162.312 76.4062C161.312 75.8542 160.547 75.0521 160.016 74C159.495 72.9375 159.234 71.6615 159.234 70.1719V67.5312C159.234 66.0625 159.495 64.8073 160.016 63.7656C160.547 62.7135 161.312 61.9167 162.312 61.375C163.312 60.8229 164.516 60.5469 165.922 60.5469C167.328 60.5469 168.531 60.8229 169.531 61.375C170.531 61.9167 171.292 62.7135 171.812 63.7656C172.344 64.8073 172.609 66.0625 172.609 67.5312V70.2188C172.609 71.6979 172.344 72.9635 171.812 74.0156C171.292 75.0573 170.531 75.8542 169.531 76.4062C168.531 76.9583 167.328 77.2344 165.922 77.2344ZM165.922 74.2031C167.036 74.2031 167.896 73.8542 168.5 73.1562C169.115 72.4583 169.422 71.4792 169.422 70.2188V67.5312C169.422 66.2708 169.115 65.2969 168.5 64.6094C167.896 63.9219 167.036 63.5781 165.922 63.5781C164.807 63.5781 163.943 63.9219 163.328 64.6094C162.724 65.2969 162.422 66.2708 162.422 67.5312V70.2188C162.422 71.4792 162.724 72.4583 163.328 73.1562C163.943 73.8542 164.807 74.2031 165.922 74.2031ZM177.141 60.7812H180.328V77H177.141V60.7812ZM186.062 64.625C185.781 64.2812 185.427 64.0208 185 63.8438C184.573 63.6667 184.078 63.5781 183.516 63.5781C182.505 63.5781 181.719 63.8594 181.156 64.4219C180.604 64.974 180.328 65.7448 180.328 66.7344L180 63.6094C180.5 62.6406 181.146 61.8906 181.938 61.3594C182.729 60.8177 183.604 60.5469 184.562 60.5469C185.302 60.5469 185.969 60.6562 186.562 60.875C187.167 61.0833 187.693 61.3958 188.141 61.8125L186.062 64.625ZM197.125 77.2344C195.625 77.2344 194.344 76.9531 193.281 76.3906C192.219 75.8281 191.406 75.0052 190.844 73.9219C190.292 72.8281 190.016 71.5104 190.016 69.9688V68.1406C190.016 66.5365 190.281 65.1667 190.812 64.0312C191.354 62.8958 192.135 62.0312 193.156 61.4375C194.177 60.8438 195.406 60.5469 196.844 60.5469C198.198 60.5469 199.354 60.8854 200.312 61.5625C201.271 62.2396 202 63.2188 202.5 64.5C203.01 65.7812 203.266 67.3177 203.266 69.1094V70.1719H192.328V67.6094H200.234C200.141 66.2865 199.797 65.2604 199.203 64.5312C198.62 63.7917 197.833 63.4219 196.844 63.4219C195.635 63.4219 194.698 63.8177 194.031 64.6094C193.375 65.401 193.047 66.5208 193.047 67.9688V70.0312C193.047 71.375 193.401 72.4062 194.109 73.125C194.818 73.8438 195.823 74.2031 197.125 74.2031C197.771 74.2031 198.411 74.0729 199.047 73.8125C199.682 73.5521 200.25 73.1875 200.75 72.7188L202.844 74.8125C202.042 75.5833 201.141 76.1823 200.141 76.6094C199.141 77.026 198.135 77.2344 197.125 77.2344ZM213.375 77.2344C212.417 77.2344 211.516 77.1406 210.672 76.9531C209.839 76.7656 209.057 76.4844 208.328 76.1094C207.599 75.7344 206.927 75.2656 206.312 74.7031L208.203 72.375C209.078 73.0417 209.948 73.5417 210.812 73.875C211.677 74.2083 212.531 74.375 213.375 74.375C214.635 74.375 215.578 74.1823 216.203 73.7969C216.839 73.401 217.156 72.8125 217.156 72.0312C217.156 71.5104 216.984 71.1198 216.641 70.8594C216.297 70.599 215.87 70.4271 215.359 70.3438C214.849 70.25 214.13 70.1667 213.203 70.0938C213.12 70.0938 213.031 70.0938 212.938 70.0938C212.844 70.0833 212.755 70.0729 212.672 70.0625C212.63 70.0625 212.589 70.0625 212.547 70.0625C212.505 70.0521 212.464 70.0469 212.422 70.0469C211.37 69.9635 210.479 69.8125 209.75 69.5938C209.021 69.3646 208.411 68.9427 207.922 68.3281C207.443 67.7135 207.203 66.8333 207.203 65.6875C207.203 64.5417 207.438 63.5885 207.906 62.8281C208.375 62.0677 209.073 61.5 210 61.125C210.927 60.7396 212.089 60.5469 213.484 60.5469C214.328 60.5469 215.13 60.625 215.891 60.7812C216.661 60.9375 217.396 61.1719 218.094 61.4844C218.792 61.7865 219.464 62.1719 220.109 62.6406L218.188 64.9688C217.375 64.4479 216.573 64.0573 215.781 63.7969C215 63.5365 214.234 63.4062 213.484 63.4062C212.401 63.4062 211.589 63.5938 211.047 63.9688C210.505 64.3333 210.234 64.8854 210.234 65.625C210.234 66.0625 210.385 66.3906 210.688 66.6094C211 66.8281 211.391 66.974 211.859 67.0469C212.328 67.1198 212.995 67.1823 213.859 67.2344C213.922 67.2448 213.984 67.25 214.047 67.25C214.12 67.25 214.193 67.2552 214.266 67.2656C214.297 67.2656 214.328 67.2656 214.359 67.2656C214.391 67.2656 214.422 67.2708 214.453 67.2812C215.589 67.3542 216.552 67.5052 217.344 67.7344C218.146 67.9635 218.818 68.4167 219.359 69.0938C219.901 69.7708 220.172 70.75 220.172 72.0312C220.172 73.1979 219.922 74.1667 219.422 74.9375C218.922 75.6979 218.167 76.2708 217.156 76.6562C216.156 77.0417 214.896 77.2344 213.375 77.2344ZM228.453 77.0781C227.141 77.0781 226.177 76.7188 225.562 76C224.958 75.2708 224.656 74.1979 224.656 72.7812V56.0625H227.844V72.8125C227.844 73.2083 227.922 73.5156 228.078 73.7344C228.234 73.9427 228.464 74.0469 228.766 74.0469H230.297V77.0781H228.453ZM222.984 60.7812H230.297V63.6562H222.984V60.7812Z" fill="black"/>
</svg>
