<svg xmlns="http://www.w3.org/2000/svg" width="326.965" height="180.486" viewBox="0 0 86.509 47.754">
  <path fill="#fff" d="M23.298 4.35c-10.779 0-19.517 8.739-19.517 19.518 0 10.78 8.738 19.517 19.517 19.517l41.498.019-.044-39.036z"/>
  <path d="m23.865 0 38.779.023c13.18 0 23.865 10.685 23.865 23.865 0 13.18-10.685 23.866-23.865 23.866l-38.779-.023C10.685 47.73 0 37.046 0 23.866 0 10.686 10.685 0 23.865 0zm.339 5.959c-9.891 0-17.91 8.019-17.91 17.91 0 9.89 8.019 17.909 17.91 17.909l38.078.017c-9.883-.012-17.889-8.027-17.89-17.91.001-9.867 7.983-17.875 17.85-17.91z"/>
</svg>
