<svg width="152" height="64" viewBox="0 0 152 64" fill="none" xmlns="http://www.w3.org/2000/svg">
<path d="M120 0C137.673 0 152 14.3269 152 32C152 49.6731 137.673 64 120 64H32C14.3269 64 0 49.6731 0 32C0 14.3269 14.3269 0 32 0H120ZM103 22.7275L115.728 35.4561L128.456 22.7275L115.728 10L103 22.7275Z" fill="white"/>
<path d="M30.3438 22.6406H33.5312V43.5H30.3438V22.6406ZM23.9219 20.7812H39.9531V23.8125H23.9219V20.7812ZM46.6406 43.7344C45.2344 43.7344 44.0312 43.4583 43.0312 42.9062C42.0312 42.3542 41.2656 41.5521 40.7344 40.5C40.2135 39.4375 39.9531 38.1615 39.9531 36.6719V34.0312C39.9531 32.5625 40.2135 31.3073 40.7344 30.2656C41.2656 29.2135 42.0312 28.4167 43.0312 27.875C44.0312 27.3229 45.2344 27.0469 46.6406 27.0469C48.0469 27.0469 49.25 27.3229 50.25 27.875C51.25 28.4167 52.0104 29.2135 52.5312 30.2656C53.0625 31.3073 53.3281 32.5625 53.3281 34.0312V36.7188C53.3281 38.1979 53.0625 39.4635 52.5312 40.5156C52.0104 41.5573 51.25 42.3542 50.25 42.9062C49.25 43.4583 48.0469 43.7344 46.6406 43.7344ZM46.6406 40.7031C47.7552 40.7031 48.6146 40.3542 49.2188 39.6562C49.8333 38.9583 50.1406 37.9792 50.1406 36.7188V34.0312C50.1406 32.7708 49.8333 31.7969 49.2188 31.1094C48.6146 30.4219 47.7552 30.0781 46.6406 30.0781C45.526 30.0781 44.6615 30.4219 44.0469 31.1094C43.4427 31.7969 43.1406 32.7708 43.1406 34.0312V36.7188C43.1406 37.9792 43.4427 38.9583 44.0469 39.6562C44.6615 40.3542 45.526 40.7031 46.6406 40.7031ZM57.8594 27.2812H61.0469V50.0938H57.8594V27.2812ZM65.125 43.7344C64.1146 43.7344 63.2344 43.4948 62.4844 43.0156C61.7344 42.526 61.1823 41.8385 60.8281 40.9531L61.0469 37.5625C61.0469 38.2604 61.1719 38.8542 61.4219 39.3438C61.6719 39.8333 62.0312 40.2083 62.5 40.4688C62.9792 40.7292 63.5573 40.8594 64.2344 40.8594C65.2865 40.8594 66.099 40.5417 66.6719 39.9062C67.2552 39.2604 67.5469 38.3542 67.5469 37.1875V33.6719C67.5469 32.4844 67.2552 31.5625 66.6719 30.9062C66.099 30.25 65.2865 29.9219 64.2344 29.9219C63.5573 29.9219 62.9792 30.0469 62.5 30.2969C62.0312 30.5469 61.6719 30.9167 61.4219 31.4062C61.1719 31.8854 61.0469 32.4635 61.0469 33.1406L60.7188 30.0156C61.2083 29.0677 61.849 28.3385 62.6406 27.8281C63.4323 27.3073 64.3125 27.0469 65.2812 27.0469C66.4271 27.0469 67.4062 27.3073 68.2188 27.8281C69.0417 28.3385 69.6667 29.0885 70.0938 30.0781C70.5208 31.0677 70.7344 32.2604 70.7344 33.6562V37.1875C70.7344 38.5625 70.5156 39.7396 70.0781 40.7188C69.6406 41.6979 69 42.4479 68.1562 42.9688C67.3125 43.4792 66.3021 43.7344 65.125 43.7344Z" fill="black"/>
<path d="M102.544 23L115.272 10.2721L128 23M102.544 23L115.272 35.7279M102.544 23V41L115.272 53.7279M128 23L115.272 35.7279M128 23V41L115.272 53.7279M115.272 35.7279V53.7279" stroke="black" stroke-width="3" stroke-linecap="round" stroke-linejoin="round"/>
</svg>
