<svg width="38" height="38" viewBox="0 0 38 38" fill="none" xmlns="http://www.w3.org/2000/svg">
<g clip-path="url(#clip0_242_81)">
<path d="M19.0006 38.0011C29.4943 38.0011 38.0011 29.4943 38.0011 19.0006C38.0011 8.50685 29.4943 0 19.0006 0C8.50684 0 0 8.50685 0 19.0006C0 29.4943 8.50684 38.0011 19.0006 38.0011Z" fill="white"/>
<path d="M20.2194 4.64175C19.6209 3.80933 18.3823 3.80923 17.7837 4.64155L14.2612 9.53932C13.5476 10.5316 14.2567 11.9151 15.479 11.9151H17.3768V15.8768C17.3768 16.7053 16.7053 17.3768 15.8768 17.3768H11.914V15.4784C11.914 14.256 10.5303 13.5469 9.53802 14.2607L4.64102 17.7837C3.80888 18.3824 3.80903 19.6208 4.64132 20.2192L9.53832 23.7404C10.5306 24.4539 11.914 23.7447 11.914 22.5225V20.622H15.8768C16.7053 20.622 17.3768 21.2936 17.3768 22.122V26.086H15.4789C14.2566 26.086 13.5475 27.4695 14.2611 28.4618L17.7828 33.3586C18.3813 34.1909 19.6198 34.1909 20.2184 33.3586L23.74 28.4618C24.4536 27.4695 23.7445 26.086 22.5222 26.086H20.622V22.1232C20.622 21.2947 21.2936 20.6232 22.122 20.6232H26.0849V22.524C26.0849 23.7461 27.4681 24.4553 28.4604 23.7419L33.3603 20.2194C34.1928 19.6209 34.1929 18.3823 33.3605 17.7837L28.4606 14.2599C27.4683 13.5463 26.0849 14.2555 26.0849 15.4777V17.378H22.1232C21.2947 17.378 20.6232 16.7064 20.6232 15.878V11.9151H22.5227C23.7449 11.9151 24.4541 10.5318 23.7406 9.53952L20.2194 4.64175Z" fill="black"/>
</g>
<defs>
<clipPath id="clip0_242_81">
<rect width="38" height="38" fill="white"/>
</clipPath>
</defs>
</svg>
