<svg width="64" height="64" viewBox="0 0 64 64" fill="none" xmlns="http://www.w3.org/2000/svg">
<rect width="64" height="64" rx="32" fill="white"/>
<path d="M28.75 17.4286V16.9286C28.75 15.2717 30.0931 13.9286 31.75 13.9286V13.9286C33.4069 13.9286 34.75 15.2717 34.75 16.9286V17.4286" stroke="black" stroke-width="3"/>
<path d="M44.75 22.449H19.25C18.1454 22.449 17.25 21.5535 17.25 20.449V19.2755C17.25 18.1709 18.1454 17.2755 19.25 17.2755H44.75C45.8546 17.2755 46.75 18.1709 46.75 19.2755V20.449C46.75 21.5536 45.8546 22.449 44.75 22.449Z" fill="black"/>
<path fill-rule="evenodd" clip-rule="evenodd" d="M24.0228 50.0715C23.033 50.0715 22.1922 49.3476 22.045 48.3689L18.5955 25.4301C18.4136 24.2207 19.3502 23.1327 20.5732 23.1327H43.4742C44.6808 23.1327 45.6126 24.193 45.4576 25.3896L42.486 48.3284C42.3569 49.3253 41.5078 50.0715 40.5026 50.0715H24.0228ZM24.8762 27.0667C25.4931 27.007 26.0417 27.4584 26.1017 28.0752L27.7853 45.4732C27.845 46.09 27.3937 46.6387 26.7769 46.6986C26.16 46.7583 25.6113 46.307 25.5514 45.6902L23.8677 28.2922C23.808 27.6753 24.2594 27.1267 24.8762 27.0667ZM31.1582 45.5817V28.1837C31.1582 27.5638 31.6607 27.0613 32.2806 27.0613C32.9005 27.0613 33.4031 27.5638 33.4031 28.1837V45.5817C33.4031 46.2016 32.9005 46.7041 32.2806 46.7041C31.6607 46.7041 31.1582 46.2016 31.1582 45.5817ZM39.685 27.0667C40.3019 27.1267 40.7532 27.6753 40.6935 28.2922L39.0098 45.6902C38.9499 46.307 38.4012 46.7583 37.7843 46.6986C37.1675 46.6387 36.7162 46.09 36.7759 45.4732L38.4596 28.0752C38.5195 27.4584 39.0682 27.007 39.685 27.0667Z" fill="black"/>
</svg>
