<svg width="256" height="128" viewBox="0 0 256 128" fill="none" xmlns="http://www.w3.org/2000/svg">
<rect width="256" height="128" rx="24" fill="white"/>
<path d="M69.6719 56.1406H72.8594V77H69.6719V56.1406ZM63.25 54.2812H79.2812V57.3125H63.25V54.2812ZM80.2188 60.7812H83.4062V77H80.2188V60.7812ZM89.1406 64.625C88.8594 64.2812 88.5052 64.0208 88.0781 63.8438C87.651 63.6667 87.1562 63.5781 86.5938 63.5781C85.5833 63.5781 84.7969 63.8594 84.2344 64.4219C83.6823 64.974 83.4062 65.7448 83.4062 66.7344L83.0781 63.6094C83.5781 62.6406 84.224 61.8906 85.0156 61.3594C85.8073 60.8177 86.6823 60.5469 87.6406 60.5469C88.3802 60.5469 89.0469 60.6562 89.6406 60.875C90.2448 61.0833 90.7708 61.3958 91.2188 61.8125L89.1406 64.625ZM100.203 77.2344C98.7031 77.2344 97.4219 76.9531 96.3594 76.3906C95.2969 75.8281 94.4844 75.0052 93.9219 73.9219C93.3698 72.8281 93.0938 71.5104 93.0938 69.9688V68.1406C93.0938 66.5365 93.3594 65.1667 93.8906 64.0312C94.4323 62.8958 95.2135 62.0312 96.2344 61.4375C97.2552 60.8438 98.4844 60.5469 99.9219 60.5469C101.276 60.5469 102.432 60.8854 103.391 61.5625C104.349 62.2396 105.078 63.2188 105.578 64.5C106.089 65.7812 106.344 67.3177 106.344 69.1094V70.1719H95.4062V67.6094H103.312C103.219 66.2865 102.875 65.2604 102.281 64.5312C101.698 63.7917 100.911 63.4219 99.9219 63.4219C98.7135 63.4219 97.776 63.8177 97.1094 64.6094C96.4531 65.401 96.125 66.5208 96.125 67.9688V70.0312C96.125 71.375 96.4792 72.4062 97.1875 73.125C97.8958 73.8438 98.901 74.2031 100.203 74.2031C100.849 74.2031 101.49 74.0729 102.125 73.8125C102.76 73.5521 103.328 73.1875 103.828 72.7188L105.922 74.8125C105.12 75.5833 104.219 76.1823 103.219 76.6094C102.219 77.026 101.214 77.2344 100.203 77.2344ZM116.453 77.2344C115.495 77.2344 114.594 77.1406 113.75 76.9531C112.917 76.7656 112.135 76.4844 111.406 76.1094C110.677 75.7344 110.005 75.2656 109.391 74.7031L111.281 72.375C112.156 73.0417 113.026 73.5417 113.891 73.875C114.755 74.2083 115.609 74.375 116.453 74.375C117.714 74.375 118.656 74.1823 119.281 73.7969C119.917 73.401 120.234 72.8125 120.234 72.0312C120.234 71.5104 120.062 71.1198 119.719 70.8594C119.375 70.599 118.948 70.4271 118.438 70.3438C117.927 70.25 117.208 70.1667 116.281 70.0938C116.198 70.0938 116.109 70.0938 116.016 70.0938C115.922 70.0833 115.833 70.0729 115.75 70.0625C115.708 70.0625 115.667 70.0625 115.625 70.0625C115.583 70.0521 115.542 70.0469 115.5 70.0469C114.448 69.9635 113.557 69.8125 112.828 69.5938C112.099 69.3646 111.49 68.9427 111 68.3281C110.521 67.7135 110.281 66.8333 110.281 65.6875C110.281 64.5417 110.516 63.5885 110.984 62.8281C111.453 62.0677 112.151 61.5 113.078 61.125C114.005 60.7396 115.167 60.5469 116.562 60.5469C117.406 60.5469 118.208 60.625 118.969 60.7812C119.74 60.9375 120.474 61.1719 121.172 61.4844C121.87 61.7865 122.542 62.1719 123.188 62.6406L121.266 64.9688C120.453 64.4479 119.651 64.0573 118.859 63.7969C118.078 63.5365 117.312 63.4062 116.562 63.4062C115.479 63.4062 114.667 63.5938 114.125 63.9688C113.583 64.3333 113.312 64.8854 113.312 65.625C113.312 66.0625 113.464 66.3906 113.766 66.6094C114.078 66.8281 114.469 66.974 114.938 67.0469C115.406 67.1198 116.073 67.1823 116.938 67.2344C117 67.2448 117.062 67.25 117.125 67.25C117.198 67.25 117.271 67.2552 117.344 67.2656C117.375 67.2656 117.406 67.2656 117.438 67.2656C117.469 67.2656 117.5 67.2708 117.531 67.2812C118.667 67.3542 119.63 67.5052 120.422 67.7344C121.224 67.9635 121.896 68.4167 122.438 69.0938C122.979 69.7708 123.25 70.75 123.25 72.0312C123.25 73.1979 123 74.1667 122.5 74.9375C122 75.6979 121.245 76.2708 120.234 76.6562C119.234 77.0417 117.974 77.2344 116.453 77.2344ZM127.312 60.7812H130.5V83.5938H127.312V60.7812ZM134.578 77.2344C133.568 77.2344 132.688 76.9948 131.938 76.5156C131.188 76.026 130.635 75.3385 130.281 74.4531L130.5 71.0625C130.5 71.7604 130.625 72.3542 130.875 72.8438C131.125 73.3333 131.484 73.7083 131.953 73.9688C132.432 74.2292 133.01 74.3594 133.688 74.3594C134.74 74.3594 135.552 74.0417 136.125 73.4062C136.708 72.7604 137 71.8542 137 70.6875V67.1719C137 65.9844 136.708 65.0625 136.125 64.4062C135.552 63.75 134.74 63.4219 133.688 63.4219C133.01 63.4219 132.432 63.5469 131.953 63.7969C131.484 64.0469 131.125 64.4167 130.875 64.9062C130.625 65.3854 130.5 65.9635 130.5 66.6406L130.172 63.5156C130.661 62.5677 131.302 61.8385 132.094 61.3281C132.885 60.8073 133.766 60.5469 134.734 60.5469C135.88 60.5469 136.859 60.8073 137.672 61.3281C138.495 61.8385 139.12 62.5885 139.547 63.5781C139.974 64.5677 140.188 65.7604 140.188 67.1562V70.6875C140.188 72.0625 139.969 73.2396 139.531 74.2188C139.094 75.1979 138.453 75.9479 137.609 76.4688C136.766 76.9792 135.755 77.2344 134.578 77.2344ZM153.875 66.7188C153.875 65.6562 153.589 64.8333 153.016 64.25C152.453 63.6562 151.651 63.3594 150.609 63.3594C149.964 63.3594 149.328 63.4583 148.703 63.6562C148.089 63.8542 147.542 64.1302 147.062 64.4844L144.734 62.8906C145.349 62.151 146.156 61.5781 147.156 61.1719C148.167 60.7552 149.286 60.5469 150.516 60.5469C151.859 60.5469 153.01 60.7865 153.969 61.2656C154.927 61.7344 155.656 62.4219 156.156 63.3281C156.656 64.224 156.906 65.3073 156.906 66.5781V77H153.875V66.7188ZM149.906 77.2344C147.906 77.2344 146.411 76.8229 145.422 76C144.432 75.1667 143.938 73.9062 143.938 72.2188C143.938 70.6146 144.391 69.4115 145.297 68.6094C146.203 67.8073 147.573 67.4062 149.406 67.4062H154.016L154.234 69.9688H149.422C148.589 69.9688 147.964 70.1562 147.547 70.5312C147.141 70.8958 146.938 71.4583 146.938 72.2188C146.938 73.0417 147.208 73.651 147.75 74.0469C148.302 74.4427 149.135 74.6406 150.25 74.6406C151.469 74.6406 152.375 74.5104 152.969 74.25C153.573 73.9896 153.875 73.5833 153.875 73.0312L154.203 75.3125C153.922 75.75 153.573 76.1094 153.156 76.3906C152.75 76.6719 152.276 76.8802 151.734 77.0156C151.193 77.1615 150.583 77.2344 149.906 77.2344ZM167.484 77.2344C166.526 77.2344 165.625 77.1406 164.781 76.9531C163.948 76.7656 163.167 76.4844 162.438 76.1094C161.708 75.7344 161.036 75.2656 160.422 74.7031L162.312 72.375C163.188 73.0417 164.057 73.5417 164.922 73.875C165.786 74.2083 166.641 74.375 167.484 74.375C168.745 74.375 169.688 74.1823 170.312 73.7969C170.948 73.401 171.266 72.8125 171.266 72.0312C171.266 71.5104 171.094 71.1198 170.75 70.8594C170.406 70.599 169.979 70.4271 169.469 70.3438C168.958 70.25 168.24 70.1667 167.312 70.0938C167.229 70.0938 167.141 70.0938 167.047 70.0938C166.953 70.0833 166.865 70.0729 166.781 70.0625C166.74 70.0625 166.698 70.0625 166.656 70.0625C166.615 70.0521 166.573 70.0469 166.531 70.0469C165.479 69.9635 164.589 69.8125 163.859 69.5938C163.13 69.3646 162.521 68.9427 162.031 68.3281C161.552 67.7135 161.312 66.8333 161.312 65.6875C161.312 64.5417 161.547 63.5885 162.016 62.8281C162.484 62.0677 163.182 61.5 164.109 61.125C165.036 60.7396 166.198 60.5469 167.594 60.5469C168.438 60.5469 169.24 60.625 170 60.7812C170.771 60.9375 171.505 61.1719 172.203 61.4844C172.901 61.7865 173.573 62.1719 174.219 62.6406L172.297 64.9688C171.484 64.4479 170.682 64.0573 169.891 63.7969C169.109 63.5365 168.344 63.4062 167.594 63.4062C166.51 63.4062 165.698 63.5938 165.156 63.9688C164.615 64.3333 164.344 64.8854 164.344 65.625C164.344 66.0625 164.495 66.3906 164.797 66.6094C165.109 66.8281 165.5 66.974 165.969 67.0469C166.438 67.1198 167.104 67.1823 167.969 67.2344C168.031 67.2448 168.094 67.25 168.156 67.25C168.229 67.25 168.302 67.2552 168.375 67.2656C168.406 67.2656 168.438 67.2656 168.469 67.2656C168.5 67.2656 168.531 67.2708 168.562 67.2812C169.698 67.3542 170.661 67.5052 171.453 67.7344C172.255 67.9635 172.927 68.4167 173.469 69.0938C174.01 69.7708 174.281 70.75 174.281 72.0312C174.281 73.1979 174.031 74.1667 173.531 74.9375C173.031 75.6979 172.276 76.2708 171.266 76.6562C170.266 77.0417 169.005 77.2344 167.484 77.2344ZM184.078 77.2344C183.12 77.2344 182.219 77.1406 181.375 76.9531C180.542 76.7656 179.76 76.4844 179.031 76.1094C178.302 75.7344 177.63 75.2656 177.016 74.7031L178.906 72.375C179.781 73.0417 180.651 73.5417 181.516 73.875C182.38 74.2083 183.234 74.375 184.078 74.375C185.339 74.375 186.281 74.1823 186.906 73.7969C187.542 73.401 187.859 72.8125 187.859 72.0312C187.859 71.5104 187.688 71.1198 187.344 70.8594C187 70.599 186.573 70.4271 186.062 70.3438C185.552 70.25 184.833 70.1667 183.906 70.0938C183.823 70.0938 183.734 70.0938 183.641 70.0938C183.547 70.0833 183.458 70.0729 183.375 70.0625C183.333 70.0625 183.292 70.0625 183.25 70.0625C183.208 70.0521 183.167 70.0469 183.125 70.0469C182.073 69.9635 181.182 69.8125 180.453 69.5938C179.724 69.3646 179.115 68.9427 178.625 68.3281C178.146 67.7135 177.906 66.8333 177.906 65.6875C177.906 64.5417 178.141 63.5885 178.609 62.8281C179.078 62.0677 179.776 61.5 180.703 61.125C181.63 60.7396 182.792 60.5469 184.188 60.5469C185.031 60.5469 185.833 60.625 186.594 60.7812C187.365 60.9375 188.099 61.1719 188.797 61.4844C189.495 61.7865 190.167 62.1719 190.812 62.6406L188.891 64.9688C188.078 64.4479 187.276 64.0573 186.484 63.7969C185.703 63.5365 184.938 63.4062 184.188 63.4062C183.104 63.4062 182.292 63.5938 181.75 63.9688C181.208 64.3333 180.938 64.8854 180.938 65.625C180.938 66.0625 181.089 66.3906 181.391 66.6094C181.703 66.8281 182.094 66.974 182.562 67.0469C183.031 67.1198 183.698 67.1823 184.562 67.2344C184.625 67.2448 184.688 67.25 184.75 67.25C184.823 67.25 184.896 67.2552 184.969 67.2656C185 67.2656 185.031 67.2656 185.062 67.2656C185.094 67.2656 185.125 67.2708 185.156 67.2812C186.292 67.3542 187.255 67.5052 188.047 67.7344C188.849 67.9635 189.521 68.4167 190.062 69.0938C190.604 69.7708 190.875 70.75 190.875 72.0312C190.875 73.1979 190.625 74.1667 190.125 74.9375C189.625 75.6979 188.87 76.2708 187.859 76.6562C186.859 77.0417 185.599 77.2344 184.078 77.2344Z" fill="black"/>
</svg>
