<svg width="256" height="128" viewBox="0 0 256 128" fill="none" xmlns="http://www.w3.org/2000/svg">
<rect width="256" height="128" rx="24" fill="white"/>
<path d="M80.2188 56.1406H83.4062V77H80.2188V56.1406ZM73.7969 54.2812H89.8281V57.3125H73.7969V54.2812ZM100.547 60.7812H103.719V77H100.547V60.7812ZM93.9531 70.6406C93.9531 71.776 94.2396 72.6562 94.8125 73.2812C95.3958 73.8958 96.2135 74.2031 97.2656 74.2031C98.3073 74.2031 99.1146 73.9271 99.6875 73.375C100.26 72.8229 100.547 72.0365 100.547 71.0156L100.766 74.4062C100.432 75.2083 99.8906 75.8802 99.1406 76.4219C98.3906 76.9635 97.4688 77.2344 96.375 77.2344C94.5833 77.2344 93.1979 76.6615 92.2188 75.5156C91.25 74.3594 90.7656 72.7344 90.7656 70.6406V60.7812H93.9531V70.6406ZM108.578 60.7812H111.766V77H108.578V60.7812ZM117.5 64.625C117.219 64.2812 116.865 64.0208 116.438 63.8438C116.01 63.6667 115.516 63.5781 114.953 63.5781C113.943 63.5781 113.156 63.8594 112.594 64.4219C112.042 64.974 111.766 65.7448 111.766 66.7344L111.438 63.6094C111.938 62.6406 112.583 61.8906 113.375 61.3594C114.167 60.8177 115.042 60.5469 116 60.5469C116.74 60.5469 117.406 60.6562 118 60.875C118.604 61.0833 119.13 61.3958 119.578 61.8125L117.5 64.625ZM141.609 67.1719C141.609 66.026 141.312 65.1406 140.719 64.5156C140.125 63.8906 139.292 63.5781 138.219 63.5781C137.229 63.5781 136.464 63.8802 135.922 64.4844C135.38 65.0885 135.109 65.9427 135.109 67.0469L134.469 63.9219C134.979 62.849 135.651 62.0208 136.484 61.4375C137.328 60.8438 138.255 60.5469 139.266 60.5469C140.432 60.5469 141.427 60.8073 142.25 61.3281C143.083 61.8385 143.714 62.5885 144.141 63.5781C144.578 64.5677 144.797 65.7604 144.797 67.1562V77H141.609V67.1719ZM122.234 60.7812H125.422V77H122.234V60.7812ZM131.922 67.1719C131.922 66.026 131.641 65.1406 131.078 64.5156C130.516 63.8906 129.719 63.5781 128.688 63.5781C127.646 63.5781 126.839 63.8542 126.266 64.4062C125.703 64.9583 125.422 65.7344 125.422 66.7344L125.094 63.6094C125.594 62.6302 126.245 61.875 127.047 61.3438C127.859 60.8125 128.755 60.5469 129.734 60.5469C130.87 60.5469 131.839 60.8073 132.641 61.3281C133.443 61.8385 134.052 62.5885 134.469 63.5781C134.896 64.5677 135.109 65.7604 135.109 67.1562V77H131.922V67.1719ZM155.859 77.2344C154.453 77.2344 153.25 76.9583 152.25 76.4062C151.25 75.8542 150.484 75.0521 149.953 74C149.432 72.9375 149.172 71.6615 149.172 70.1719V67.5312C149.172 66.0625 149.432 64.8073 149.953 63.7656C150.484 62.7135 151.25 61.9167 152.25 61.375C153.25 60.8229 154.453 60.5469 155.859 60.5469C157.266 60.5469 158.469 60.8229 159.469 61.375C160.469 61.9167 161.229 62.7135 161.75 63.7656C162.281 64.8073 162.547 66.0625 162.547 67.5312V70.2188C162.547 71.6979 162.281 72.9635 161.75 74.0156C161.229 75.0573 160.469 75.8542 159.469 76.4062C158.469 76.9583 157.266 77.2344 155.859 77.2344ZM155.859 74.2031C156.974 74.2031 157.833 73.8542 158.438 73.1562C159.052 72.4583 159.359 71.4792 159.359 70.2188V67.5312C159.359 66.2708 159.052 65.2969 158.438 64.6094C157.833 63.9219 156.974 63.5781 155.859 63.5781C154.745 63.5781 153.88 63.9219 153.266 64.6094C152.661 65.2969 152.359 66.2708 152.359 67.5312V70.2188C152.359 71.4792 152.661 72.4583 153.266 73.1562C153.88 73.8542 154.745 74.2031 155.859 74.2031ZM167.078 54.2812H170.266V57.4688H167.078V54.2812ZM167.078 60.7812H170.266V77H167.078V60.7812ZM178.297 72.8125C178.297 73.2083 178.38 73.5156 178.547 73.7344C178.724 73.9427 178.969 74.0469 179.281 74.0469H180.781V77.0781H178.906C177.698 77.0781 176.76 76.7031 176.094 75.9531C175.438 75.2031 175.109 74.1458 175.109 72.7812V54.2812H178.297V72.8125Z" fill="black"/>
</svg>
