<svg width="256" height="128" viewBox="0 0 256 128" fill="none" xmlns="http://www.w3.org/2000/svg">
<rect width="256" height="128" rx="24" fill="white"/>
<path d="M49.5781 54.2812H51.7656L56.4219 72.0938L60.4375 54.2812H63.75L58.2031 77H54.9531L50.7656 61.125L46.3906 77H43.1406L37.5938 54.2812H40.9062L44.9219 72.0938L49.5781 54.2812ZM66.7188 54.2812H69.9062V77H66.7188V54.2812ZM76.5625 67.1719C76.5625 66.026 76.2656 65.1406 75.6719 64.5156C75.0781 63.8906 74.2448 63.5781 73.1719 63.5781C72.1302 63.5781 71.3229 63.849 70.75 64.3906C70.1875 64.9323 69.9062 65.6979 69.9062 66.6875L69.5781 63.5625C70.0781 62.6042 70.7292 61.8646 71.5312 61.3438C72.3438 60.8125 73.2396 60.5469 74.2188 60.5469C75.9792 60.5469 77.3385 61.125 78.2969 62.2812C79.2656 63.4271 79.75 65.0521 79.75 67.1562V77H76.5625V67.1719ZM91.2344 77.2344C89.7344 77.2344 88.4531 76.9531 87.3906 76.3906C86.3281 75.8281 85.5156 75.0052 84.9531 73.9219C84.401 72.8281 84.125 71.5104 84.125 69.9688V68.1406C84.125 66.5365 84.3906 65.1667 84.9219 64.0312C85.4635 62.8958 86.2448 62.0312 87.2656 61.4375C88.2865 60.8438 89.5156 60.5469 90.9531 60.5469C92.3073 60.5469 93.4635 60.8854 94.4219 61.5625C95.3802 62.2396 96.1094 63.2188 96.6094 64.5C97.1198 65.7812 97.375 67.3177 97.375 69.1094V70.1719H86.4375V67.6094H94.3438C94.25 66.2865 93.9062 65.2604 93.3125 64.5312C92.7292 63.7917 91.9427 63.4219 90.9531 63.4219C89.7448 63.4219 88.8073 63.8177 88.1406 64.6094C87.4844 65.401 87.1562 66.5208 87.1562 67.9688V70.0312C87.1562 71.375 87.5104 72.4062 88.2188 73.125C88.9271 73.8438 89.9323 74.2031 91.2344 74.2031C91.8802 74.2031 92.5208 74.0729 93.1562 73.8125C93.7917 73.5521 94.3594 73.1875 94.8594 72.7188L96.9531 74.8125C96.151 75.5833 95.25 76.1823 94.25 76.6094C93.25 77.026 92.2448 77.2344 91.2344 77.2344ZM110.906 66.7188C110.906 65.6562 110.62 64.8333 110.047 64.25C109.484 63.6562 108.682 63.3594 107.641 63.3594C106.995 63.3594 106.359 63.4583 105.734 63.6562C105.12 63.8542 104.573 64.1302 104.094 64.4844L101.766 62.8906C102.38 62.151 103.188 61.5781 104.188 61.1719C105.198 60.7552 106.318 60.5469 107.547 60.5469C108.891 60.5469 110.042 60.7865 111 61.2656C111.958 61.7344 112.688 62.4219 113.188 63.3281C113.688 64.224 113.938 65.3073 113.938 66.5781V77H110.906V66.7188ZM106.938 77.2344C104.938 77.2344 103.443 76.8229 102.453 76C101.464 75.1667 100.969 73.9062 100.969 72.2188C100.969 70.6146 101.422 69.4115 102.328 68.6094C103.234 67.8073 104.604 67.4062 106.438 67.4062H111.047L111.266 69.9688H106.453C105.62 69.9688 104.995 70.1562 104.578 70.5312C104.172 70.8958 103.969 71.4583 103.969 72.2188C103.969 73.0417 104.24 73.651 104.781 74.0469C105.333 74.4427 106.167 74.6406 107.281 74.6406C108.5 74.6406 109.406 74.5104 110 74.25C110.604 73.9896 110.906 73.5833 110.906 73.0312L111.234 75.3125C110.953 75.75 110.604 76.1094 110.188 76.3906C109.781 76.6719 109.307 76.8802 108.766 77.0156C108.224 77.1615 107.615 77.2344 106.938 77.2344ZM123 77.0781C121.688 77.0781 120.724 76.7188 120.109 76C119.505 75.2708 119.203 74.1979 119.203 72.7812V56.0625H122.391V72.8125C122.391 73.2083 122.469 73.5156 122.625 73.7344C122.781 73.9427 123.01 74.0469 123.312 74.0469H124.844V77.0781H123ZM117.531 60.7812H124.844V63.6562H117.531V60.7812ZM135 54.2812H138.188V77H135V54.2812ZM136.562 64.4062H147.578V67.4375H136.562V64.4062ZM136.562 54.2812H149.297V57.3125H136.562V54.2812ZM153.062 54.2812H156.25V57.4688H153.062V54.2812ZM153.062 60.7812H156.25V77H153.062V60.7812ZM167.734 77.2344C166.234 77.2344 164.953 76.9531 163.891 76.3906C162.828 75.8281 162.016 75.0052 161.453 73.9219C160.901 72.8281 160.625 71.5104 160.625 69.9688V68.1406C160.625 66.5365 160.891 65.1667 161.422 64.0312C161.964 62.8958 162.745 62.0312 163.766 61.4375C164.786 60.8438 166.016 60.5469 167.453 60.5469C168.807 60.5469 169.964 60.8854 170.922 61.5625C171.88 62.2396 172.609 63.2188 173.109 64.5C173.62 65.7812 173.875 67.3177 173.875 69.1094V70.1719H162.938V67.6094H170.844C170.75 66.2865 170.406 65.2604 169.812 64.5312C169.229 63.7917 168.443 63.4219 167.453 63.4219C166.245 63.4219 165.307 63.8177 164.641 64.6094C163.984 65.401 163.656 66.5208 163.656 67.9688V70.0312C163.656 71.375 164.01 72.4062 164.719 73.125C165.427 73.8438 166.432 74.2031 167.734 74.2031C168.38 74.2031 169.021 74.0729 169.656 73.8125C170.292 73.5521 170.859 73.1875 171.359 72.7188L173.453 74.8125C172.651 75.5833 171.75 76.1823 170.75 76.6094C169.75 77.026 168.745 77.2344 167.734 77.2344ZM181.438 72.8125C181.438 73.2083 181.521 73.5156 181.688 73.7344C181.865 73.9427 182.109 74.0469 182.422 74.0469H183.922V77.0781H182.047C180.839 77.0781 179.901 76.7031 179.234 75.9531C178.578 75.2031 178.25 74.1458 178.25 72.7812V54.2812H181.438V72.8125ZM196.75 54.2812H199.938V77H196.75V54.2812ZM192.672 77.2812C191.484 77.2812 190.469 77.026 189.625 76.5156C188.792 75.9948 188.156 75.2396 187.719 74.25C187.281 73.2604 187.062 72.0729 187.062 70.6875V67.1094C187.062 65.7135 187.276 64.5208 187.703 63.5312C188.13 62.5417 188.75 61.7917 189.562 61.2812C190.385 60.7604 191.37 60.5 192.516 60.5C193.474 60.5 194.349 60.75 195.141 61.25C195.943 61.75 196.589 62.4531 197.078 63.3594L196.75 66.6719C196.75 65.9844 196.625 65.3958 196.375 64.9062C196.125 64.4167 195.76 64.0469 195.281 63.7969C194.812 63.5365 194.24 63.4062 193.562 63.4062C192.51 63.4062 191.693 63.7344 191.109 64.3906C190.536 65.0469 190.25 65.9688 190.25 67.1562V70.6875C190.25 71.8646 190.536 72.776 191.109 73.4219C191.693 74.0573 192.51 74.375 193.562 74.375C194.24 74.375 194.812 74.2448 195.281 73.9844C195.76 73.7135 196.125 73.3281 196.375 72.8281C196.625 72.3281 196.75 71.7292 196.75 71.0312L196.969 74.4531C196.646 75.2552 196.115 75.9271 195.375 76.4688C194.646 77.0104 193.745 77.2812 192.672 77.2812ZM210.516 77.2344C209.557 77.2344 208.656 77.1406 207.812 76.9531C206.979 76.7656 206.198 76.4844 205.469 76.1094C204.74 75.7344 204.068 75.2656 203.453 74.7031L205.344 72.375C206.219 73.0417 207.089 73.5417 207.953 73.875C208.818 74.2083 209.672 74.375 210.516 74.375C211.776 74.375 212.719 74.1823 213.344 73.7969C213.979 73.401 214.297 72.8125 214.297 72.0312C214.297 71.5104 214.125 71.1198 213.781 70.8594C213.438 70.599 213.01 70.4271 212.5 70.3438C211.99 70.25 211.271 70.1667 210.344 70.0938C210.26 70.0938 210.172 70.0938 210.078 70.0938C209.984 70.0833 209.896 70.0729 209.812 70.0625C209.771 70.0625 209.729 70.0625 209.688 70.0625C209.646 70.0521 209.604 70.0469 209.562 70.0469C208.51 69.9635 207.62 69.8125 206.891 69.5938C206.161 69.3646 205.552 68.9427 205.062 68.3281C204.583 67.7135 204.344 66.8333 204.344 65.6875C204.344 64.5417 204.578 63.5885 205.047 62.8281C205.516 62.0677 206.214 61.5 207.141 61.125C208.068 60.7396 209.229 60.5469 210.625 60.5469C211.469 60.5469 212.271 60.625 213.031 60.7812C213.802 60.9375 214.536 61.1719 215.234 61.4844C215.932 61.7865 216.604 62.1719 217.25 62.6406L215.328 64.9688C214.516 64.4479 213.714 64.0573 212.922 63.7969C212.141 63.5365 211.375 63.4062 210.625 63.4062C209.542 63.4062 208.729 63.5938 208.188 63.9688C207.646 64.3333 207.375 64.8854 207.375 65.625C207.375 66.0625 207.526 66.3906 207.828 66.6094C208.141 66.8281 208.531 66.974 209 67.0469C209.469 67.1198 210.135 67.1823 211 67.2344C211.062 67.2448 211.125 67.25 211.188 67.25C211.26 67.25 211.333 67.2552 211.406 67.2656C211.438 67.2656 211.469 67.2656 211.5 67.2656C211.531 67.2656 211.562 67.2708 211.594 67.2812C212.729 67.3542 213.693 67.5052 214.484 67.7344C215.286 67.9635 215.958 68.4167 216.5 69.0938C217.042 69.7708 217.312 70.75 217.312 72.0312C217.312 73.1979 217.062 74.1667 216.562 74.9375C216.062 75.6979 215.307 76.2708 214.297 76.6562C213.297 77.0417 212.036 77.2344 210.516 77.2344Z" fill="black"/>
</svg>
