<svg xmlns="http://www.w3.org/2000/svg" fill="none" viewBox="0 0 896 414"><g clip-path="url(#a)"><path fill="url(#b)" d="m81 119 58-58 58 58-58 58-58-58Z"/><path fill="url(#c)" d="m139 177 58-58v255.87l-58 58V177Z"/><path fill="url(#d)" d="m139 177-58-58v255.87l58 58V177Z"/><path fill="url(#e)" d="m-9 214 58-58 58 58-58 58-58-58Z"/><path fill="url(#f)" d="m49 272 58-58v215.87l-58 58V272Z"/><path fill="url(#g)" d="m49 272-58-58v215.87l58 58V272Z"/><path fill="url(#h)" d="m159 246 58-58 58 58-58 58-58-58Z"/><path fill="url(#i)" d="m217 304 58-58v215.87l-58 58V304Z"/><path fill="url(#j)" d="m217 304-58-58v215.87l58 58V304Z"/><path fill="url(#k)" d="m197 222 20-20 20 20-20 20-20-20Z"/><path fill="url(#l)" d="m217 242 20-20v28.23l-20 20.1V242Z"/><path fill="url(#m)" d="m217 242-20-20v28.23l20 20.09V242Z"/><path stroke="#E52424" stroke-linecap="round" d="m197.5 251 19.5 19.5 19.5-19.5"/><path fill="url(#n)" d="m17 323 58-58 58 58-58 58-58-58Z"/><path fill="url(#o)" d="m75 381 58-58v215.87l-58 58V381Z"/><path fill="url(#p)" d="m75 381-58-58v215.87l58 58V381Z"/><path fill="url(#q)" d="m711 119 58-58 58 58-58 58-58-58Z"/><path fill="url(#r)" d="m769 177 58-58v255.87l-58 58V177Z"/><path fill="url(#s)" d="m769 177-58-58v255.87l58 58V177Z"/><path fill="url(#t)" d="m616 233 58-58 58 58-58 58-58-58Z"/><path fill="url(#u)" d="m674 291 58-58v215.87l-58 58V291Z"/><path fill="url(#v)" d="m674 291-58-58v215.87l58 58V291Z"/><path fill="url(#w)" d="m788 215 58-58 58 58-58 58-58-58Z"/><path fill="url(#x)" d="m846 273 58-58v215.87l-58 58V273Z"/><path fill="url(#y)" d="m846 273-58-58v215.87l58 58V273Z"/><path fill="url(#z)" d="m688 332 58-58 58 58-58 58-58-58Z"/><path fill="url(#A)" d="m746 390 58-58v215.87l-58 58V390Z"/><path fill="url(#B)" d="m746 390-58-58v215.87l58 58V390Z"/></g><defs><linearGradient id="b" x1="109.09" x2="169.81" y1="90" y2="147.09" gradientUnits="userSpaceOnUse"><stop stop-color="#FF5757"/><stop offset="1" stop-color="#FE3030"/></linearGradient><linearGradient id="c" x1="168.9" x2="216.93" y1="148" y2="196.03" gradientUnits="userSpaceOnUse"><stop stop-color="#C01616"/><stop offset="1" stop-color="#E72C2C"/></linearGradient><linearGradient id="d" x1="108.19" x2="60.16" y1="148" y2="196.03" gradientUnits="userSpaceOnUse"><stop stop-color="#E23A3A"/><stop offset="1" stop-color="#FE4747"/></linearGradient><linearGradient id="e" x1="19.09" x2="79.81" y1="185" y2="242.09" gradientUnits="userSpaceOnUse"><stop stop-color="#FF7676"/><stop offset="1" stop-color="#FE3030"/></linearGradient><linearGradient id="f" x1="78.9" x2="126.93" y1="243" y2="291.03" gradientUnits="userSpaceOnUse"><stop stop-color="#C01616"/><stop offset="1" stop-color="#E72C2C"/></linearGradient><linearGradient id="g" x1="18.19" x2="-29.84" y1="243" y2="291.03" gradientUnits="userSpaceOnUse"><stop stop-color="#E23A3A"/><stop offset="1" stop-color="#FE4747"/></linearGradient><linearGradient id="h" x1="187.09" x2="247.81" y1="217" y2="274.09" gradientUnits="userSpaceOnUse"><stop stop-color="#FF7676"/><stop offset="1" stop-color="#FE3030"/></linearGradient><linearGradient id="i" x1="246.9" x2="294.93" y1="275" y2="323.03" gradientUnits="userSpaceOnUse"><stop stop-color="#C01616"/><stop offset="1" stop-color="#E72C2C"/></linearGradient><linearGradient id="j" x1="186.19" x2="138.16" y1="275" y2="323.03" gradientUnits="userSpaceOnUse"><stop stop-color="#E23A3A"/><stop offset="1" stop-color="#FE4747"/></linearGradient><linearGradient id="k" x1="206.69" x2="227.63" y1="212" y2="231.69" gradientUnits="userSpaceOnUse"><stop stop-color="#fff"/><stop offset="1" stop-color="#EBEBEB"/></linearGradient><linearGradient id="l" x1="227.31" x2="243.95" y1="232.05" y2="248.61" gradientUnits="userSpaceOnUse"><stop stop-color="#C8C8C8"/><stop offset="1" stop-color="#DCDCDC"/></linearGradient><linearGradient id="m" x1="206.38" x2="189.74" y1="232.05" y2="248.61" gradientUnits="userSpaceOnUse"><stop stop-color="#DCDCDC"/><stop offset="1" stop-color="#F0F0F0"/></linearGradient><linearGradient id="n" x1="45.09" x2="105.81" y1="294" y2="351.09" gradientUnits="userSpaceOnUse"><stop stop-color="#FF7676"/><stop offset="1" stop-color="#FE3030"/></linearGradient><linearGradient id="o" x1="104.9" x2="152.93" y1="352" y2="400.03" gradientUnits="userSpaceOnUse"><stop stop-color="#C01616"/><stop offset="1" stop-color="#E72C2C"/></linearGradient><linearGradient id="p" x1="44.19" x2="-3.84" y1="352" y2="400.03" gradientUnits="userSpaceOnUse"><stop stop-color="#E23A3A"/><stop offset="1" stop-color="#FE4747"/></linearGradient><linearGradient id="q" x1="739.09" x2="799.81" y1="90" y2="147.09" gradientUnits="userSpaceOnUse"><stop stop-color="#FF5757"/><stop offset="1" stop-color="#FE3030"/></linearGradient><linearGradient id="r" x1="798.9" x2="846.93" y1="148" y2="196.03" gradientUnits="userSpaceOnUse"><stop stop-color="#C01616"/><stop offset="1" stop-color="#E72C2C"/></linearGradient><linearGradient id="s" x1="738.19" x2="690.16" y1="148" y2="196.03" gradientUnits="userSpaceOnUse"><stop stop-color="#E23A3A"/><stop offset="1" stop-color="#FE4747"/></linearGradient><linearGradient id="t" x1="644.09" x2="704.81" y1="204" y2="261.09" gradientUnits="userSpaceOnUse"><stop stop-color="#FF7676"/><stop offset="1" stop-color="#FE3030"/></linearGradient><linearGradient id="u" x1="703.9" x2="751.93" y1="262" y2="310.03" gradientUnits="userSpaceOnUse"><stop stop-color="#C01616"/><stop offset="1" stop-color="#E72C2C"/></linearGradient><linearGradient id="v" x1="643.19" x2="595.16" y1="262" y2="310.03" gradientUnits="userSpaceOnUse"><stop stop-color="#E23A3A"/><stop offset="1" stop-color="#FE4747"/></linearGradient><linearGradient id="w" x1="816.09" x2="876.81" y1="186" y2="243.09" gradientUnits="userSpaceOnUse"><stop stop-color="#FF7676"/><stop offset="1" stop-color="#FE3030"/></linearGradient><linearGradient id="x" x1="875.9" x2="923.93" y1="244" y2="292.03" gradientUnits="userSpaceOnUse"><stop stop-color="#C01616"/><stop offset="1" stop-color="#E72C2C"/></linearGradient><linearGradient id="y" x1="815.19" x2="767.16" y1="244" y2="292.03" gradientUnits="userSpaceOnUse"><stop stop-color="#E23A3A"/><stop offset="1" stop-color="#FE4747"/></linearGradient><linearGradient id="z" x1="716.09" x2="776.81" y1="303" y2="360.09" gradientUnits="userSpaceOnUse"><stop stop-color="#FF7676"/><stop offset="1" stop-color="#FE3030"/></linearGradient><linearGradient id="A" x1="775.9" x2="823.93" y1="361" y2="409.03" gradientUnits="userSpaceOnUse"><stop stop-color="#C01616"/><stop offset="1" stop-color="#E72C2C"/></linearGradient><linearGradient id="B" x1="715.19" x2="667.16" y1="361" y2="409.03" gradientUnits="userSpaceOnUse"><stop stop-color="#E23A3A"/><stop offset="1" stop-color="#FE4747"/></linearGradient><clipPath id="a"><path fill="#fff" d="M0 0h896v414H0z"/></clipPath></defs></svg>