<svg xmlns="http://www.w3.org/2000/svg" width="392.506" height="96.645" viewBox="0 0 103.851 25.571">
  <path fill="#fff" d="M45.386-254.234h2.521l9.691 15.32-.327.355v-15.675h2.754v19.805h-2.55l-9.663-15.089.327-.354v15.443h-2.753zm27.806 5.67h2.767v14.149h-2.767Zm-5.752 8.601q0 1.486.75 2.304.763.804 2.14.804 1.362 0 2.112-.722.75-.723.75-2.059l.19 2.958q-.436 1.05-1.417 1.759-.981.708-2.413.708-2.344 0-3.625-1.499-1.268-1.513-1.268-4.253v-8.6h2.78zm15.525 1.895q0 .518.218.804.232.273.64.273h1.309v2.644h-1.636q-1.58 0-2.453-.981-.859-.982-.859-2.767v-16.139h2.78zm8.083 0q0 .518.218.804.231.273.64.273h1.309v2.644h-1.636q-1.58 0-2.453-.981-.859-.982-.859-2.767v-16.139h2.78zm24.33-16.166h2.78v19.819h-2.78zm-11.259 0h2.78v19.819h-2.78zm1.731 8.737h11v2.645h-11zm22.368 11.286q-1.84 0-3.149-.722-1.308-.722-2.003-2.1-.682-1.39-.682-3.339v-2.303q0-1.922.682-3.285.695-1.377 2.003-2.086 1.309-.722 3.149-.722t3.149.722q1.308.71 1.99 2.086.695 1.363.695 3.285v2.344q0 1.936-.695 3.313-.682 1.363-1.99 2.085-1.309.722-3.15.722zm0-2.644q1.458 0 2.249-.913.804-.913.804-2.563v-2.344q0-1.65-.804-2.549-.79-.9-2.25-.9-1.458 0-2.262.9-.79.9-.79 2.549v2.344q0 1.65.79 2.563.804.913 2.263.913zm9.787-11.709h2.78v19.901h-2.78zm6.338 14.353q-1.322 0-2.304-.627-.981-.64-1.445-1.799l.191-2.958q0 .914.327 1.554t.94.982q.628.34 1.514.34 1.377 0 2.126-.831.764-.845.764-2.372v-3.067q0-1.554-.764-2.412-.75-.859-2.126-.859-.886 0-1.513.327-.614.327-.94.968-.328.627-.328 1.513l-.286-2.726q.64-1.24 1.677-1.908 1.035-.682 2.303-.682 1.5 0 2.563.682 1.076.667 1.635 1.962.56 1.295.56 3.122v3.08q0 1.8-.573 3.08-.573 1.282-1.677 1.963-1.104.668-2.644.668z" aria-label="Null Hop" direction="rtl" font-family="Bahnschrift" font-size="27.915" style="-inkscape-font-specification:'Bahnschrift, Normal';text-align:center" text-anchor="middle" transform="translate(-45.386 254.234)"/>
</svg>
