<svg xmlns="http://www.w3.org/2000/svg" xml:space="preserve" width="103.247" height="53.939" viewBox="0 0 27.317 14.271">
  <path id="bg" d="M21.511 297.128a1.936 1.936 0 0 0 1.371-.568 1.936 1.936 0 0 0 0-2.736l-1.895-1.895h18.771a1.936 1.936 0 0 0 1.938-1.934 1.936 1.936 0 0 0-1.938-1.939H20.991l1.891-1.891a1.936 1.936 0 0 0 0-2.74 1.936 1.936 0 0 0-2.74 0l-5.195 5.199a1.936 1.936 0 0 0 0 2.74l5.195 5.196a1.936 1.936 0 0 0 1.37.568z" color="#000" style="-inkscape-stroke:none" transform="translate(-14.379 -282.857)"/>
</svg>
