<svg xmlns="http://www.w3.org/2000/svg" xml:space="preserve" width="117.469" height="138.177" viewBox="0 0 31.08 36.559">
  <path id="bg" d="M12.95 0c-.604 0-1.204.138-1.751.416-1.362.694-2.425 2.23-2.425 4.614v13.023l-.737-.603a528.635 528.635 0 0 1-2.328-1.91c-.664-.547-1.44-.927-2.193-1.077-.63-.126-1.25-.094-1.803.132-.592.243-1.081.685-1.388 1.364-.246.548-.37 1.248-.31 2.117.046.732.277 1.481.582 2.172.404.92.946 1.749 1.344 2.281l.029.035 6.693 9.563c.179 1.3.503 2.33.995 3.065.612.917 1.444 1.385 2.515 1.364v.003H22.82c.027 0 .056 0 .082-.003a4.995 4.995 0 0 0 2.843-.907c.84-.58 1.578-1.432 2.217-2.544l.02-.038c.272-.472.48-.817.685-1.151 1.22-2.009 2.28-3.754 2.412-6.435a.548.548 0 0 0 0-.1l-.07-3.153v-.02c0-.49.003-.592.003-.688.035-2.735.076-6.123-3.332-6.65a.923.923 0 0 0-.202-.023h-1.241a.966.966 0 0 0-.138.011c-.258-1.381-.975-2.48-2.755-2.754a.911.911 0 0 0-.202-.024H21.9a.906.906 0 0 0-.381.085c-.302-1.244-1.04-2.21-2.693-2.468a.911.911 0 0 0-.202-.024h-1.242a.907.907 0 0 0-.234.033V4.992c0-2.342-1.075-3.88-2.448-4.573A3.882 3.882 0 0 0 12.95 0zm-.004 1.795c.32 0 .642.076.94.228.817.413 1.456 1.403 1.456 2.969v9.94a.902.902 0 0 0 1.803 0v-3.487a.87.87 0 0 0 .234.032h1.186c1.529.276 1.388 2.465 1.268 4.371-.035.56-.07 1.098-.07 1.56a.902.902 0 0 0 1.803 0c0-.462.03-.948.062-1.448.043-.688.09-1.406.079-2.097.061.015.126.021.193.021h1.183c1.528.275 1.387 2.465 1.267 4.371-.035.56-.07 1.098-.07 1.56a.902.902 0 0 0 1.804 0c0-.462.029-.948.061-1.449.035-.565.073-1.144.08-1.715h1.197c1.853.316 1.824 2.822 1.797 4.848-.003.39-.009.68-.009.72 0 .044.003.088.01.132l.07 3.066c-.114 2.222-1.063 3.78-2.153 5.574-.251.416-.509.84-.705 1.177-.012.015-.02.033-.03.047-.506.884-1.062 1.54-1.674 1.962a3.222 3.222 0 0 1-1.83.59c-.026-.002-.05-.002-.076-.002H12.17v.003h-.02c-.414.012-.745-.184-1.002-.568-.355-.53-.594-1.373-.729-2.5h-.003a.903.903 0 0 0-.155-.41l-6.828-9.753c-.018-.029-.035-.058-.055-.084-.34-.454-.8-1.16-1.14-1.93-.228-.521-.4-1.066-.433-1.56-.035-.56.027-.975.158-1.265a.81.81 0 0 1 .425-.434c.21-.088.483-.093.781-.035.463.094.955.34 1.392.7a771.42 771.42 0 0 0 2.333 1.918c.544.445 1.168.951 1.74 1.408.043.035.09.064.137.09h-.003v1.667a.902.902 0 0 0 1.803 0V5.03c0-1.607.633-2.6 1.44-3.01a2.08 2.08 0 0 1 .935-.225z"/>
</svg>
