<svg xmlns="http://www.w3.org/2000/svg" xml:space="preserve" width="148.014" height="138.177" viewBox="0 0 39.162 36.559">
  <path id="bg" d="M19.628 0c-.604 0-1.204.138-1.751.416-1.362.694-2.425 2.231-2.425 4.614v13.023l-.737-.603a528.628 528.628 0 0 1-2.328-1.91c-.664-.547-1.44-.927-2.193-1.077-.63-.126-1.25-.093-1.804.132-.591.243-1.08.685-1.388 1.364-.246.548-.368 1.248-.31 2.117.047.732.278 1.481.583 2.172.404.92.946 1.749 1.344 2.281l.029.035 6.693 9.563c.179 1.3.503 2.33.995 3.065.612.917 1.444 1.385 2.515 1.364v.003h10.646c.027 0 .056 0 .082-.003a4.995 4.995 0 0 0 2.843-.907c.84-.58 1.578-1.431 2.216-2.544.01-.015.015-.027.02-.038.273-.472.48-.817.686-1.151 1.22-2.009 2.28-3.754 2.412-6.435a.548.548 0 0 0 0-.1l-.07-3.153v-.02c0-.49.003-.592.003-.688.035-2.735.076-6.123-3.332-6.65a.923.923 0 0 0-.202-.023h-1.241a.966.966 0 0 0-.138.012c-.258-1.382-.975-2.48-2.755-2.755a.91.91 0 0 0-.202-.024h-1.241a.908.908 0 0 0-.381.085c-.302-1.244-1.04-2.21-2.693-2.468a.91.91 0 0 0-.202-.024H24.06a.907.907 0 0 0-.234.033V4.992c0-2.342-1.075-3.88-2.448-4.573A3.882 3.882 0 0 0 19.628 0zM3.633.81a.985.985 0 0 0-.697.289L.289 3.743a.986.986 0 0 0 0 1.395l2.647 2.647a.985.985 0 0 0 1.394 0 .985.985 0 0 0 0-1.395l-.962-.963h9.552a.985.985 0 0 0 .984-.986.985.985 0 0 0-.984-.985H3.365l.965-.965a.985.985 0 0 0 0-1.392.985.985 0 0 0-.697-.29zm31.898 0a.985.985 0 0 0-.697.289.985.985 0 0 0 0 1.392l.965.965h-9.555a.985.985 0 0 0-.986.985.985.985 0 0 0 .986.986h9.553l-.963.963a.985.985 0 0 0 0 1.395.985.985 0 0 0 1.395 0l2.644-2.647a.986.986 0 0 0 0-1.395L36.229 1.1a.985.985 0 0 0-.698-.29zm-15.907.985c.32 0 .642.076.94.228.817.413 1.456 1.403 1.456 2.969v9.94a.902.902 0 0 0 1.803 0v-3.487a.87.87 0 0 0 .234.032h1.186c1.529.276 1.388 2.465 1.268 4.371-.035.56-.07 1.098-.07 1.56a.902.902 0 0 0 1.803 0c0-.462.03-.948.062-1.448.043-.688.09-1.406.079-2.097.061.015.126.02.193.02h1.183c1.528.276 1.387 2.466 1.267 4.372-.035.56-.07 1.098-.07 1.56a.902.902 0 0 0 1.804 0c0-.462.029-.948.061-1.449.035-.565.073-1.144.08-1.715h1.196c1.854.316 1.825 2.822 1.798 4.848-.003.39-.009.68-.009.72 0 .044.003.088.01.132l.07 3.066c-.115 2.222-1.064 3.78-2.153 5.574-.252.416-.509.84-.705 1.177-.012.015-.02.033-.03.047-.506.884-1.062 1.54-1.674 1.962a3.222 3.222 0 0 1-1.83.59c-.026-.002-.05-.002-.076-.002H18.849v.003h-.02c-.414.012-.745-.184-1.002-.568-.355-.53-.594-1.373-.73-2.5h-.002a.903.903 0 0 0-.155-.41l-6.828-9.753c-.018-.029-.035-.058-.055-.085-.34-.453-.8-1.16-1.14-1.93-.228-.52-.4-1.065-.433-1.56-.035-.559.026-.974.158-1.264a.81.81 0 0 1 .425-.434c.21-.088.483-.093.781-.035.463.094.955.34 1.391.7a770.86 770.86 0 0 0 2.334 1.917c.544.446 1.168.952 1.739 1.409.044.035.09.064.137.09h-.003v1.667a.902.902 0 0 0 1.804 0V5.03c0-1.607.633-2.6 1.44-3.01a2.08 2.08 0 0 1 .934-.225z"/>
</svg>
