<svg xmlns="http://www.w3.org/2000/svg" xml:space="preserve" width="163.28" height="241.57" viewBox="0 0 43.201 63.915">
  <path id="bg" d="M31.31.012a.986.986 0 0 0-.542.277l-2.645 2.644a.985.985 0 0 0-.289.698.985.985 0 0 0 .289.697.985.985 0 0 0 1.393 0l.964-.965v9.555a.985.985 0 0 0 .985.986.985.985 0 0 0 .986-.986V3.365l.963.963a.985.985 0 0 0 1.395 0 .985.985 0 0 0 0-1.395L32.162.29a.986.986 0 0 0-.851-.277ZM9.122 6.01C4.097 6.01 0 10.107 0 15.13c0 5.025 4.097 9.124 9.121 9.124s9.123-4.1 9.123-9.123c0-5.024-4.099-9.121-9.123-9.121zm0 2.341c1.402 0 2.7.42 3.778 1.142L3.482 18.91A6.765 6.765 0 0 1 2.34 15.13 6.763 6.763 0 0 1 9.12 8.35zm5.64 3.003a6.762 6.762 0 0 1 1.141 3.777 6.764 6.764 0 0 1-6.78 6.781c-1.402 0-2.7-.42-3.779-1.142zm10.309.57a3.86 3.86 0 0 0-1.751.415c-1.361.694-2.424 2.231-2.424 4.614v13.023l-.738-.603a528.005 528.005 0 0 1-2.328-1.909c-.664-.547-1.44-.928-2.193-1.077-.63-.126-1.25-.094-1.803.132-.592.243-1.08.685-1.388 1.364-.246.547-.369 1.247-.31 2.116.047.732.278 1.482.582 2.173.404.92.946 1.748 1.344 2.28.009.013.02.024.03.036l6.692 9.562c.179 1.3.504 2.33.996 3.066.612.916 1.443 1.384 2.515 1.364v.003h10.645c.027 0 .056 0 .082-.003a4.995 4.995 0 0 0 2.843-.907c.84-.58 1.578-1.432 2.217-2.545l.02-.038c.272-.471.48-.817.685-1.15 1.221-2.009 2.281-3.754 2.413-6.436a.553.553 0 0 0 0-.1l-.07-3.153v-.02c0-.489.002-.592.002-.688.035-2.735.077-6.123-3.331-6.65a.923.923 0 0 0-.202-.023h-1.242c-.047 0-.094.006-.138.012-.257-1.382-.974-2.48-2.755-2.755a.923.923 0 0 0-.202-.024h-1.24a.908.908 0 0 0-.382.085c-.301-1.244-1.039-2.21-2.693-2.468a.923.923 0 0 0-.202-.023h-1.241a.906.906 0 0 0-.235.032v-4.714c0-2.342-1.074-3.88-2.447-4.573a3.882 3.882 0 0 0-1.751-.419zm-.003 1.794c.319 0 .641.076.94.229.817.413 1.455 1.402 1.455 2.969v9.94a.902.902 0 0 0 1.803 0v-3.488a.87.87 0 0 0 .234.032h1.186c1.528.276 1.388 2.466 1.268 4.372-.035.559-.07 1.098-.07 1.56a.902.902 0 0 0 1.803 0c0-.462.03-.949.062-1.45.044-.687.09-1.404.079-2.095.061.014.126.02.193.02h1.183c1.528.276 1.388 2.465 1.268 4.371-.036.56-.07 1.098-.07 1.56a.902.902 0 0 0 1.803 0c0-.462.03-.947.061-1.448.036-.565.073-1.145.08-1.716h1.197c1.853.316 1.824 2.822 1.798 4.849-.003.389-.01.679-.01.72 0 .044.004.088.01.132l.07 3.065c-.114 2.222-1.063 3.78-2.152 5.574-.252.416-.51.84-.706 1.178-.012.014-.02.032-.03.046-.506.884-1.062 1.54-1.674 1.962a3.222 3.222 0 0 1-1.83.591c-.026-.003-.05-.003-.076-.003H24.291v.003h-.02c-.413.012-.744-.184-1.002-.567-.354-.53-.594-1.374-.729-2.501h-.003a.903.903 0 0 0-.155-.41l-6.828-9.753c-.017-.029-.035-.058-.055-.084-.34-.454-.8-1.16-1.14-1.93-.228-.52-.4-1.065-.433-1.56-.035-.56.027-.975.158-1.265a.808.808 0 0 1 .425-.433c.211-.088.483-.094.782-.035.462.093.954.34 1.39.7.636.523 1.546 1.273 2.334 1.917.544.445 1.168.951 1.74 1.408.043.035.09.064.137.09l-.003.001v1.666a.902.902 0 0 0 1.803 0V16.954c0-1.608.633-2.6 1.44-3.01.297-.15.618-.226.935-.226zm6.398 36.293a.985.985 0 0 0-.985.985v9.554l-.964-.965a.985.985 0 0 0-1.393 0 .985.985 0 0 0-.289.698.985.985 0 0 0 .289.697l2.645 2.646a.986.986 0 0 0 1.394 0l2.647-2.646a.985.985 0 0 0 0-1.395.985.985 0 0 0-1.395 0l-.963.963v-9.552a.985.985 0 0 0-.986-.985z"/>
</svg>
